<?xml version="1.0" encoding="UTF-8" standalone="no"?>
<!-- Created with Inkscape (http://www.inkscape.org/) -->

<svg
   width="600"
   height="750"
   viewBox="0 0 600 750"
   version="1.1"
   id="svg1"
   inkscape:version="1.3 (0e150ed, 2023-07-21)"
   sodipodi:docname="bank.svg"
   xmlns:inkscape="http://www.inkscape.org/namespaces/inkscape"
   xmlns:sodipodi="http://sodipodi.sourceforge.net/DTD/sodipodi-0.dtd"
   xmlns="http://www.w3.org/2000/svg"
   xmlns:svg="http://www.w3.org/2000/svg"
   xmlns:rdf="http://www.w3.org/1999/02/22-rdf-syntax-ns#"
   xmlns:cc="http://creativecommons.org/ns#"
   xmlns:dc="http://purl.org/dc/elements/1.1/">
  <title
     id="title2">Template</title>
  <sodipodi:namedview
     id="namedview1"
     pagecolor="#ffffff"
     bordercolor="#000000"
     borderopacity="0.25"
     inkscape:showpageshadow="2"
     inkscape:pageopacity="0.0"
     inkscape:pagecheckerboard="false"
     inkscape:deskcolor="#d1d1d1"
     inkscape:document-units="px"
     showgrid="true"
     showguides="true"
     inkscape:zoom="0.84096521"
     inkscape:cx="153.39517"
     inkscape:cy="383.48792"
     inkscape:window-width="1528"
     inkscape:window-height="996"
     inkscape:window-x="828"
     inkscape:window-y="25"
     inkscape:window-maximized="0"
     inkscape:current-layer="layer1"
     inkscape:lockguides="true">
    <inkscape:grid
       id="grid2"
       units="px"
       originx="0"
       originy="0"
       spacingx="4"
       spacingy="4"
       empcolor="#0099e5"
       empopacity="0.30196078"
       color="#0099e5"
       opacity="0.14901961"
       empspacing="5"
       dotted="false"
       gridanglex="30"
       gridanglez="30"
       visible="true" />
    <sodipodi:guide
       position="0,730"
       orientation="0,1"
       id="guide3"
       inkscape:locked="true"
       inkscape:label=""
       inkscape:color="rgb(0,134,229)" />
    <sodipodi:guide
       position="-40,-230"
       orientation="0,1"
       id="guide4"
       inkscape:locked="true"
       inkscape:label=""
       inkscape:color="rgb(0,134,229)" />
    <sodipodi:guide
       position="20,750"
       orientation="-1,0"
       id="guide5"
       inkscape:locked="true"
       inkscape:label=""
       inkscape:color="rgb(0,134,229)" />
    <sodipodi:guide
       position="580,750"
       orientation="-1,0"
       id="guide6"
       inkscape:locked="true"
       inkscape:label=""
       inkscape:color="rgb(0,134,229)" />
    <sodipodi:guide
       position="300,750"
       orientation="-1,0"
       id="guide7"
       inkscape:locked="true"
       inkscape:label=""
       inkscape:color="rgb(0,134,229)" />
    <sodipodi:guide
       position="300,550"
       orientation="0,1"
       id="guide8"
       inkscape:locked="true"
       inkscape:label=""
       inkscape:color="rgb(0,134,229)" />
    <sodipodi:guide
       position="0,450"
       orientation="0,1"
       id="guide9"
       inkscape:locked="true"
       inkscape:label=""
       inkscape:color="rgb(0,134,229)" />
    <sodipodi:guide
       position="0,-70"
       orientation="0,1"
       id="guide10"
       inkscape:locked="true"
       inkscape:label=""
       inkscape:color="rgb(0,134,229)" />
    <sodipodi:guide
       position="0,150"
       orientation="0,1"
       id="guide1"
       inkscape:locked="true"
       inkscape:label=""
       inkscape:color="rgb(0,134,229)" />
    <sodipodi:guide
       position="300,350"
       orientation="0,1"
       id="guide2"
       inkscape:label=""
       inkscape:locked="true"
       inkscape:color="rgb(0,134,229)" />
  </sodipodi:namedview>
  <defs
     id="defs1">
    <inkscape:path-effect
       effect="fillet_chamfer"
       id="path-effect2"
       is_visible="true"
       lpeversion="1"
       nodesatellites_param="F,0,0,1,0,20,0,1 @ F,0,0,1,0,20,0,1 @ F,0,0,1,0,20,0,1 @ F,0,0,1,0,20,0,1 @ F,0,0,1,0,20,0,1 @ F,0,0,1,0,20,0,1 @ F,0,0,1,0,20,0,1 @ F,0,0,1,0,20,0,1 @ F,0,0,1,0,20,0,1 @ F,0,0,1,0,20,0,1 @ F,0,0,1,0,20,0,1"
       radius="20"
       unit="px"
       method="auto"
       mode="F"
       chamfer_steps="1"
       flexible="false"
       use_knot_distance="true"
       apply_no_radius="true"
       apply_with_radius="true"
       only_selected="false"
       hide_knots="false" />
    <inkscape:path-effect
       effect="fillet_chamfer"
       id="path-effect3"
       is_visible="true"
       lpeversion="1"
       nodesatellites_param="F,0,0,1,0,64,0,1 @ F,0,0,1,0,64,0,1 @ F,0,0,1,0,64,0,1 @ F,0,0,1,0,64,0,1 @ F,0,0,1,0,64,0,1 @ F,0,0,1,0,64,0,1 @ F,0,0,1,0,64,0,1 @ F,0,0,1,0,64,0,1 @ F,0,0,1,0,64,0,1 @ F,0,0,1,0,64,0,1 @ F,0,0,1,0,64,0,1 @ F,0,0,1,0,64,0,1"
       radius="65"
       unit="px"
       method="auto"
       mode="F"
       chamfer_steps="1"
       flexible="false"
       use_knot_distance="true"
       apply_no_radius="true"
       apply_with_radius="true"
       only_selected="false"
       hide_knots="false" />
  </defs>
  <g
     inkscape:label="Layer 1"
     inkscape:groupmode="layer"
     id="layer1">
    <path
       id="rect1"
       style="fill:#000000;stroke-width:35;stroke-linejoin:round"
       d="m 40,240 c -11.079912,0 -20,8.92008 -20,20 v 40 h 480 v -40 c 0,-11.07992 -8.92008,-20 -20,-20 z M 20,340 v 180 c 0,11.07992 8.920088,20 20,20 h 11.230469 c -0.509386,-3.45596 -0.782266,-6.94666 -0.666016,-10.4375 -0.07983,-3.62542 -0.132777,-7.26347 0.226563,-10.87891 1.433164,-16.50983 9.271294,-32.30492 21.359374,-43.60937 12.34804,-11.67075 29.18584,-18.4353 46.17773,-18.5332 9.07738,-0.0913 18.17318,1.63883 26.57227,5.08593 11.6151,4.71753 21.76923,12.78653 29.20508,22.86328 7.39624,-2.74985 15.25419,-4.25327 23.15234,-4.29882 9.07737,-0.0913 18.17316,1.63881 26.57227,5.08593 14.86673,6.03819 27.42054,17.51098 34.82226,31.74219 3.7681,7.14621 6.1779,14.97403 7.19727,22.98047 H 480 c 11.07992,0 20,-8.92008 20,-20 V 340 Z m 360,120 h 40 c 11.07992,0 20,8.92008 20,20 0,11.07992 -8.92008,20 -20,20 h -40 c -11.07992,0 -20,-8.92008 -20,-20 0,-11.07992 8.92008,-20 20,-20 z M 122.5,472 C 88.01194,472 60,500.01194 60,534.5 c 0,1.26625 0.0505,2.51985 0.125,3.76758 A 59.999992,60 0 0 0 60,540 a 59.999992,60 0 0 0 60,60 59.999992,60 0 0 0 23.36328,-5.28125 c -5.58286,-7.18902 -9.6926,-15.5253 -11.91797,-24.35742 -1.36632,-5.59822 -2.14329,-11.37735 -1.95117,-17.14649 -0.0798,-3.62541 -0.13278,-7.26347 0.22656,-10.8789 1.43317,-16.50988 9.27128,-32.30492 21.35938,-43.60938 1.96135,-1.85377 4.04625,-3.57069 6.2168,-5.16992 A 59.999992,60 0 0 0 120,480 59.999992,60 0 0 0 81.90234,493.76172 C 92.29848,483.40134 106.64291,477 122.5,477 c 14.57115,0 27.82611,5.44811 37.95312,14.36328 1.44881,-0.94537 2.93478,-1.83105 4.45118,-2.66406 C 153.75324,478.36877 138.88014,472 122.5,472 Z" />
    <path
       id="path1-7"
       style="color:#000000;fill:#000000;stroke-linejoin:round;-inkscape-stroke:none"
       d="m 200.5977,494.23828 c -34.48812,0 -62.5,28.01188 -62.5,62.5 0,1.26625 0.0505,2.51985 0.125,3.76758 a 59.999992,60 0 0 0 -0.125,1.73242 59.999992,60 0 0 0 60,60 59.999992,60 0 0 0 40.7207,-16.08398 c 14.75981,-11.43762 24.2793,-29.32109 24.2793,-49.41602 0,-34.48812 -28.01188,-62.5 -62.5,-62.5 z m 0,5 c 31.78592,0 57.5,25.71408 57.5,57.5 0,0.91272 -0.0264,1.81846 -0.0684,2.7207 A 59.999992,60 0 0 0 198.09766,502.23828 59.999992,60 0 0 0 160,516 c 10.39616,-10.3604 24.74053,-16.76172 40.59766,-16.76172 z" />
  </g>
  <metadata
     id="metadata1">
    <rdf:RDF>
      <cc:Work
         rdf:about="">
        <dc:title>Template</dc:title>
        <dc:date>2023</dc:date>
        <dc:creator>
          <cc:Agent>
            <dc:title>Doug Palmer</dc:title>
          </cc:Agent>
        </dc:creator>
        <dc:subject>
          <rdf:Bag>
            <rdf:li>icon map symbol</rdf:li>
          </rdf:Bag>
        </dc:subject>
        <cc:license
           rdf:resource="http://creativecommons.org/licenses/by/4.0/" />
      </cc:Work>
      <cc:License
         rdf:about="http://creativecommons.org/licenses/by/4.0/">
        <cc:permits
           rdf:resource="http://creativecommons.org/ns#Reproduction" />
        <cc:permits
           rdf:resource="http://creativecommons.org/ns#Distribution" />
        <cc:requires
           rdf:resource="http://creativecommons.org/ns#Notice" />
        <cc:requires
           rdf:resource="http://creativecommons.org/ns#Attribution" />
        <cc:permits
           rdf:resource="http://creativecommons.org/ns#DerivativeWorks" />
      </cc:License>
    </rdf:RDF>
  </metadata>
</svg>
