<?xml version="1.0" encoding="UTF-8" standalone="no"?>
<!-- Created with Inkscape (http://www.inkscape.org/) -->

<svg
   width="600"
   height="750"
   viewBox="0 0 600 750"
   version="1.1"
   id="svg1"
   inkscape:version="1.3 (0e150ed, 2023-07-21)"
   sodipodi:docname="beach.svg"
   xmlns:inkscape="http://www.inkscape.org/namespaces/inkscape"
   xmlns:sodipodi="http://sodipodi.sourceforge.net/DTD/sodipodi-0.dtd"
   xmlns="http://www.w3.org/2000/svg"
   xmlns:svg="http://www.w3.org/2000/svg"
   xmlns:rdf="http://www.w3.org/1999/02/22-rdf-syntax-ns#"
   xmlns:cc="http://creativecommons.org/ns#"
   xmlns:dc="http://purl.org/dc/elements/1.1/">
  <title
     id="title2">Template</title>
  <sodipodi:namedview
     id="namedview1"
     pagecolor="#ffffff"
     bordercolor="#000000"
     borderopacity="0.25"
     inkscape:showpageshadow="2"
     inkscape:pageopacity="0.0"
     inkscape:pagecheckerboard="false"
     inkscape:deskcolor="#d1d1d1"
     inkscape:document-units="px"
     showgrid="true"
     showguides="true"
     inkscape:zoom="0.84096521"
     inkscape:cx="408.45923"
     inkscape:cy="398.94635"
     inkscape:window-width="1528"
     inkscape:window-height="996"
     inkscape:window-x="828"
     inkscape:window-y="25"
     inkscape:window-maximized="0"
     inkscape:current-layer="layer1"
     inkscape:lockguides="true">
    <inkscape:grid
       id="grid2"
       units="px"
       originx="0"
       originy="0"
       spacingx="4"
       spacingy="4"
       empcolor="#0099e5"
       empopacity="0.30196078"
       color="#0099e5"
       opacity="0.14901961"
       empspacing="5"
       dotted="false"
       gridanglex="30"
       gridanglez="30"
       visible="true" />
    <sodipodi:guide
       position="0,730"
       orientation="0,1"
       id="guide3"
       inkscape:locked="true"
       inkscape:label=""
       inkscape:color="rgb(0,134,229)" />
    <sodipodi:guide
       position="-40,-230"
       orientation="0,1"
       id="guide4"
       inkscape:locked="true"
       inkscape:label=""
       inkscape:color="rgb(0,134,229)" />
    <sodipodi:guide
       position="20,750"
       orientation="-1,0"
       id="guide5"
       inkscape:locked="true"
       inkscape:label=""
       inkscape:color="rgb(0,134,229)" />
    <sodipodi:guide
       position="580,750"
       orientation="-1,0"
       id="guide6"
       inkscape:locked="true"
       inkscape:label=""
       inkscape:color="rgb(0,134,229)" />
    <sodipodi:guide
       position="300,750"
       orientation="-1,0"
       id="guide7"
       inkscape:locked="true"
       inkscape:label=""
       inkscape:color="rgb(0,134,229)" />
    <sodipodi:guide
       position="300,550"
       orientation="0,1"
       id="guide8"
       inkscape:locked="true"
       inkscape:label=""
       inkscape:color="rgb(0,134,229)" />
    <sodipodi:guide
       position="0,450"
       orientation="0,1"
       id="guide9"
       inkscape:locked="true"
       inkscape:label=""
       inkscape:color="rgb(0,134,229)" />
    <sodipodi:guide
       position="0,-70"
       orientation="0,1"
       id="guide10"
       inkscape:locked="true"
       inkscape:label=""
       inkscape:color="rgb(0,134,229)" />
    <sodipodi:guide
       position="0,150"
       orientation="0,1"
       id="guide1"
       inkscape:locked="true"
       inkscape:label=""
       inkscape:color="rgb(0,134,229)" />
    <sodipodi:guide
       position="300,350"
       orientation="0,1"
       id="guide2"
       inkscape:label=""
       inkscape:locked="true"
       inkscape:color="rgb(0,134,229)" />
  </sodipodi:namedview>
  <defs
     id="defs1">
    <inkscape:path-effect
       effect="fillet_chamfer"
       id="path-effect2"
       is_visible="true"
       lpeversion="1"
       nodesatellites_param="F,0,0,1,0,20,0,1 @ F,0,0,1,0,20,0,1 @ F,0,0,1,0,20,0,1 @ F,0,0,1,0,20,0,1 @ F,0,0,1,0,20,0,1 @ F,0,0,1,0,20,0,1 @ F,0,0,1,0,20,0,1 @ F,0,0,1,0,20,0,1 @ F,0,0,1,0,20,0,1 @ F,0,0,1,0,20,0,1 @ F,0,0,1,0,20,0,1"
       radius="20"
       unit="px"
       method="auto"
       mode="F"
       chamfer_steps="1"
       flexible="false"
       use_knot_distance="true"
       apply_no_radius="true"
       apply_with_radius="true"
       only_selected="false"
       hide_knots="false" />
    <inkscape:path-effect
       effect="fillet_chamfer"
       id="path-effect3"
       is_visible="true"
       lpeversion="1"
       nodesatellites_param="F,0,0,1,0,64,0,1 @ F,0,0,1,0,64,0,1 @ F,0,0,1,0,64,0,1 @ F,0,0,1,0,64,0,1 @ F,0,0,1,0,64,0,1 @ F,0,0,1,0,64,0,1 @ F,0,0,1,0,64,0,1 @ F,0,0,1,0,64,0,1 @ F,0,0,1,0,64,0,1 @ F,0,0,1,0,64,0,1 @ F,0,0,1,0,64,0,1 @ F,0,0,1,0,64,0,1"
       radius="65"
       unit="px"
       method="auto"
       mode="F"
       chamfer_steps="1"
       flexible="false"
       use_knot_distance="true"
       apply_no_radius="true"
       apply_with_radius="true"
       only_selected="false"
       hide_knots="false" />
  </defs>
  <g
     inkscape:label="Layer 1"
     inkscape:groupmode="layer"
     id="layer1">
    <path
       style="color:#000000;opacity:0.99;fill:#000000;stroke-linecap:round;stroke-linejoin:round;-inkscape-stroke:none"
       d="m 114.35352,444.75195 c -16.074156,0.1897 -33.47179,6.37304 -48.44727,12.36133 -17.114834,6.84376 -30.619141,14.06641 -30.619141,14.06641 a 10,10 0 0 0 -4.107422,13.5332 10,10 0 0 0 13.533204,4.10742 c 0,0 12.637874,-6.74624 28.61914,-13.13672 15.981266,-6.39047 35.754249,-11.79041 45.718749,-10.73828 11.42979,1.20685 22.36154,9.46247 34.70899,19.66602 12.34744,10.20355 25.96913,22.28862 44.66992,25.26367 19.90566,3.16672 38.11581,-3.27176 54.80859,-9.25 16.69278,-5.97824 32.056,-11.52141 46.14063,-10.64453 7.87968,0.49057 16.46977,4.45052 26.23828,9.20117 9.7685,4.75065 20.75227,10.30177 34,10.81055 16.43435,0.63116 32.44308,-4.99996 44.73828,-10.45508 12.29519,-5.45512 21.07812,-11.14258 21.07812,-11.14258 a 10,10 0 0 0 2.96094,-13.82812 10,10 0 0 0 -13.82812,-2.96094 c 0,0 -7.48427,4.83985 -18.32227,9.64844 -10.838,4.80859 -24.82859,9.17761 -35.86133,8.7539 -7.81857,-0.30027 -16.31491,-4.09291 -26.01953,-8.8125 -9.70462,-4.71958 -20.58078,-10.35638 -33.74219,-11.17578 -19.84311,-1.23539 -37.69453,5.89235 -54.12695,11.77734 -16.43242,5.885 -31.25822,10.50214 -44.92383,8.32813 -11.48643,-1.82734 -22.61411,-10.63822 -35.07031,-20.93164 -12.4562,-10.29342 -26.38155,-22.13588 -45.34961,-24.13867 -2.23139,-0.23561 -4.50057,-0.32984 -6.79687,-0.30274 z m 404.35351,21.73047 c -12.68909,0.41539 -22.05664,4.0957 -22.05664,4.0957 a 10,10 0 0 0 -6.07227,12.77149 10,10 0 0 0 12.77149,6.07226 c 0,0 19.06069,-5.88463 32.82422,-0.18359 0.81967,0.33952 5.98368,4.53368 9.50976,8.63477 3.52608,4.10108 6.08008,7.79883 6.08008,7.79882 a 10,10 0 0 0 13.9082,2.56446 10,10 0 0 0 2.56446,-13.90821 c 0,0 -3.09041,-4.49722 -7.38672,-9.49414 -4.29631,-4.99691 -9.1327,-10.80381 -17.02344,-14.07226 -8.69685,-3.60236 -17.50568,-4.52853 -25.11914,-4.2793 z"
       id="path1" />
    <path
       id="path2"
       style="color:#000000;opacity:0.99;fill:#000000;stroke-linecap:round;stroke-linejoin:round;-inkscape-stroke:none"
       d="M 440.00586,192.94141 C 427.16688,192.97494 412.33858,197.99773 400,200 c -20.80961,3.37694 -41.06187,10.73767 -60,20 -21.59279,10.56068 -43.00329,23.00329 -60,40 -16.99671,16.99671 -29.43932,38.40721 -40,60 -9.26233,18.93813 -16.62306,39.19039 -20,60 -2.13576,13.16116 -9.42808,30.57192 0,40 9.42808,9.42808 27.68162,5.10244 40,0 8.71041,-3.60797 11.20437,-16.60506 20,-20 6.22682,-2.40343 13.80219,3.45189 20,0.97461 8.97042,-3.58549 11.11949,-17.17189 20,-20.97461 6.12843,-2.62425 13.84081,2.55122 20,0 8.71041,-3.60797 11.28959,-16.39203 20,-20 6.06128,-2.51067 20,0 20.52539,-5.33398 L 450,424.14258 V 580 c 0,5.52285 4.47715,10 10,10 5.52285,0 10,-4.47715 10,-10 V 420 c -5.1e-4,-2.65199 -1.05433,-5.19519 -2.92969,-7.07031 L 392.53769,340 c 7.46231,-20 0,0 7.46231,-20 3.47202,-9.30547 15.18123,-11.70537 20,-20 3.34888,-5.76449 -2.55122,-13.84081 0,-20 3.60797,-8.71041 16.39203,-11.28959 20,-20 2.55122,-6.15919 -2.55122,-13.84081 0,-20 3.60797,-8.71041 16.39203,-11.28959 20,-20 2.55122,-6.15919 4.71405,-15.28595 0,-20 -5.3033,-5.3033 -12.29075,-7.07872 -19.99414,-7.05859 z"
       sodipodi:nodetypes="sssssssssssssccssscccssssssss" />
    <circle
       style="opacity:0.99;fill:#000000;fill-opacity:1;stroke:none;stroke-width:10;stroke-linecap:round;stroke-linejoin:round;stroke-opacity:1"
       id="path4"
       cx="140"
       cy="220"
       r="40" />
    <path
       style="color:#000000;opacity:0.99;fill:#000000;stroke-linecap:round;stroke-linejoin:round;-inkscape-stroke:none"
       d="m 140,135 a 5,5 0 0 0 -5,5 v 20 a 5,5 0 0 0 5,5 5,5 0 0 0 5,-5 v -20 a 5,5 0 0 0 -5,-5 z"
       id="path5" />
    <path
       style="color:#000000;opacity:0.99;fill:#000000;stroke-linecap:round;stroke-linejoin:round;-inkscape-stroke:none"
       d="m 140,275 a 5,5 0 0 0 -5,5 v 20 a 5,5 0 0 0 5,5 5,5 0 0 0 5,-5 v -20 a 5,5 0 0 0 -5,-5 z"
       id="path5-4" />
    <path
       style="color:#000000;opacity:0.99;fill:#000000;stroke-linecap:round;stroke-linejoin:round;-inkscape-stroke:none"
       d="m 60,215 a 5,5 0 0 0 -5,5 5,5 0 0 0 5,5 h 20 a 5,5 0 0 0 5,-5 5,5 0 0 0 -5,-5 z"
       id="path6" />
    <path
       style="color:#000000;opacity:0.99;fill:#000000;stroke-linecap:round;stroke-linejoin:round;-inkscape-stroke:none"
       d="m 200,215 a 5,5 0 0 0 -5,5 5,5 0 0 0 5,5 h 20 a 5,5 0 0 0 5,-5 5,5 0 0 0 -5,-5 z"
       id="path7" />
    <path
       style="color:#000000;opacity:0.99;fill:#000000;stroke-linecap:round;stroke-linejoin:round;-inkscape-stroke:none"
       d="m 199.14258,160 a 5,5 0 0 0 -3.53516,1.46484 l -14.14258,14.14258 a 5,5 0 0 0 0,7.07031 5,5 0 0 0 7.07032,0 l 14.14257,-14.14257 a 5,5 0 0 0 0,-7.07032 A 5,5 0 0 0 199.14258,160 Z"
       id="path8" />
    <path
       style="color:#000000;opacity:0.99;fill:#000000;stroke-linecap:round;stroke-linejoin:round;-inkscape-stroke:none"
       d="m 94.142578,260.85742 a 5,5 0 0 0 -3.535156,1.46485 l -14.142578,14.14257 a 5,5 0 0 0 0,7.07032 5,5 0 0 0 7.070312,0 l 14.142578,-14.14258 a 5,5 0 0 0 0,-7.07031 5,5 0 0 0 -3.535156,-1.46485 z"
       id="path9" />
    <path
       style="color:#000000;opacity:0.99;fill:#000000;stroke-linecap:round;stroke-linejoin:round;-inkscape-stroke:none"
       d="m 85,160 a 5,5 0 0 0 -3.535156,1.46484 5,5 0 0 0 0,7.07032 l 14.142578,14.14257 a 5,5 0 0 0 7.070308,0 5,5 0 0 0 0,-7.07031 L 88.535156,161.46484 A 5,5 0 0 0 85,160 Z"
       id="path10" />
    <path
       style="color:#000000;opacity:0.99;fill:#000000;stroke-linecap:round;stroke-linejoin:round;-inkscape-stroke:none"
       d="m 185.85742,260.85742 a 5,5 0 0 0 -3.53515,1.46485 5,5 0 0 0 0,7.07031 l 14.14257,14.14258 a 5,5 0 0 0 7.07032,0 5,5 0 0 0 0,-7.07032 l -14.14258,-14.14257 a 5,5 0 0 0 -3.53516,-1.46485 z"
       id="path11" />
  </g>
  <metadata
     id="metadata1">
    <rdf:RDF>
      <cc:Work
         rdf:about="">
        <dc:title>Template</dc:title>
        <dc:date>2023</dc:date>
        <dc:creator>
          <cc:Agent>
            <dc:title>Doug Palmer</dc:title>
          </cc:Agent>
        </dc:creator>
        <dc:subject>
          <rdf:Bag>
            <rdf:li>icon map symbol</rdf:li>
          </rdf:Bag>
        </dc:subject>
        <cc:license
           rdf:resource="http://creativecommons.org/licenses/by/4.0/" />
      </cc:Work>
      <cc:License
         rdf:about="http://creativecommons.org/licenses/by/4.0/">
        <cc:permits
           rdf:resource="http://creativecommons.org/ns#Reproduction" />
        <cc:permits
           rdf:resource="http://creativecommons.org/ns#Distribution" />
        <cc:requires
           rdf:resource="http://creativecommons.org/ns#Notice" />
        <cc:requires
           rdf:resource="http://creativecommons.org/ns#Attribution" />
        <cc:permits
           rdf:resource="http://creativecommons.org/ns#DerivativeWorks" />
      </cc:License>
    </rdf:RDF>
  </metadata>
</svg>
