<?xml version="1.0" encoding="UTF-8" standalone="no"?>
<!-- Created with Inkscape (http://www.inkscape.org/) -->

<svg
   width="600"
   height="750"
   viewBox="0 0 600 750"
   version="1.1"
   id="svg1"
   inkscape:version="1.3 (0e150ed, 2023-07-21)"
   sodipodi:docname="bed-quadruple-wc.svg"
   xmlns:inkscape="http://www.inkscape.org/namespaces/inkscape"
   xmlns:sodipodi="http://sodipodi.sourceforge.net/DTD/sodipodi-0.dtd"
   xmlns="http://www.w3.org/2000/svg"
   xmlns:svg="http://www.w3.org/2000/svg"
   xmlns:rdf="http://www.w3.org/1999/02/22-rdf-syntax-ns#"
   xmlns:cc="http://creativecommons.org/ns#"
   xmlns:dc="http://purl.org/dc/elements/1.1/">
  <title
     id="title2">Template</title>
  <sodipodi:namedview
     id="namedview1"
     pagecolor="#ffffff"
     bordercolor="#000000"
     borderopacity="0.25"
     inkscape:showpageshadow="2"
     inkscape:pageopacity="0.0"
     inkscape:pagecheckerboard="false"
     inkscape:deskcolor="#d1d1d1"
     inkscape:document-units="px"
     showgrid="true"
     showguides="true"
     inkscape:zoom="0.84096521"
     inkscape:cx="306.79034"
     inkscape:cy="398.94635"
     inkscape:window-width="1528"
     inkscape:window-height="996"
     inkscape:window-x="828"
     inkscape:window-y="25"
     inkscape:window-maximized="0"
     inkscape:current-layer="g2"
     inkscape:lockguides="true">
    <inkscape:grid
       id="grid2"
       units="px"
       originx="0"
       originy="0"
       spacingx="4"
       spacingy="4"
       empcolor="#0099e5"
       empopacity="0.30196078"
       color="#0099e5"
       opacity="0.14901961"
       empspacing="5"
       dotted="false"
       gridanglex="30"
       gridanglez="30"
       visible="true" />
    <sodipodi:guide
       position="0,730"
       orientation="0,1"
       id="guide3"
       inkscape:locked="true"
       inkscape:label=""
       inkscape:color="rgb(0,134,229)" />
    <sodipodi:guide
       position="-40,-230"
       orientation="0,1"
       id="guide4"
       inkscape:locked="true"
       inkscape:label=""
       inkscape:color="rgb(0,134,229)" />
    <sodipodi:guide
       position="20,750"
       orientation="-1,0"
       id="guide5"
       inkscape:locked="true"
       inkscape:label=""
       inkscape:color="rgb(0,134,229)" />
    <sodipodi:guide
       position="580,750"
       orientation="-1,0"
       id="guide6"
       inkscape:locked="true"
       inkscape:label=""
       inkscape:color="rgb(0,134,229)" />
    <sodipodi:guide
       position="300,750"
       orientation="-1,0"
       id="guide7"
       inkscape:locked="true"
       inkscape:label=""
       inkscape:color="rgb(0,134,229)" />
    <sodipodi:guide
       position="300,550"
       orientation="0,1"
       id="guide8"
       inkscape:locked="true"
       inkscape:label=""
       inkscape:color="rgb(0,134,229)" />
    <sodipodi:guide
       position="0,450"
       orientation="0,1"
       id="guide9"
       inkscape:locked="true"
       inkscape:label=""
       inkscape:color="rgb(0,134,229)" />
    <sodipodi:guide
       position="0,-70"
       orientation="0,1"
       id="guide10"
       inkscape:locked="true"
       inkscape:label=""
       inkscape:color="rgb(0,134,229)" />
    <sodipodi:guide
       position="0,150"
       orientation="0,1"
       id="guide1"
       inkscape:locked="true"
       inkscape:label=""
       inkscape:color="rgb(0,134,229)" />
    <sodipodi:guide
       position="300,350"
       orientation="0,1"
       id="guide2"
       inkscape:label=""
       inkscape:locked="true"
       inkscape:color="rgb(0,134,229)" />
  </sodipodi:namedview>
  <defs
     id="defs1">
    <inkscape:path-effect
       effect="fillet_chamfer"
       id="path-effect2"
       is_visible="true"
       lpeversion="1"
       nodesatellites_param="F,0,0,1,0,20,0,1 @ F,0,0,1,0,20,0,1 @ F,0,0,1,0,20,0,1 @ F,0,0,1,0,20,0,1 @ F,0,0,1,0,20,0,1 @ F,0,0,1,0,20,0,1 @ F,0,0,1,0,20,0,1 @ F,0,0,1,0,20,0,1 @ F,0,0,1,0,20,0,1 @ F,0,0,1,0,20,0,1 @ F,0,0,1,0,20,0,1"
       radius="20"
       unit="px"
       method="auto"
       mode="F"
       chamfer_steps="1"
       flexible="false"
       use_knot_distance="true"
       apply_no_radius="true"
       apply_with_radius="true"
       only_selected="false"
       hide_knots="false" />
    <inkscape:path-effect
       effect="fillet_chamfer"
       id="path-effect3"
       is_visible="true"
       lpeversion="1"
       nodesatellites_param="F,0,0,1,0,64,0,1 @ F,0,0,1,0,64,0,1 @ F,0,0,1,0,64,0,1 @ F,0,0,1,0,64,0,1 @ F,0,0,1,0,64,0,1 @ F,0,0,1,0,64,0,1 @ F,0,0,1,0,64,0,1 @ F,0,0,1,0,64,0,1 @ F,0,0,1,0,64,0,1 @ F,0,0,1,0,64,0,1 @ F,0,0,1,0,64,0,1 @ F,0,0,1,0,64,0,1"
       radius="65"
       unit="px"
       method="auto"
       mode="F"
       chamfer_steps="1"
       flexible="false"
       use_knot_distance="true"
       apply_no_radius="true"
       apply_with_radius="true"
       only_selected="false"
       hide_knots="false" />
    <inkscape:path-effect
       effect="fillet_chamfer"
       id="path-effect4"
       is_visible="true"
       lpeversion="1"
       nodesatellites_param="F,0,0,1,0,15,0,1 @ F,0,0,1,0,15,0,1 @ F,0,0,1,0,15,0,1 @ F,0,0,1,0,15,0,1 @ F,0,0,1,0,15,0,1 @ F,0,0,1,0,15,0,1 @ F,0,0,1,0,15,0,1 @ F,0,0,1,0,15,0,1 @ F,0,0,1,0,15,0,1 @ F,0,0,1,0,15,0,1 @ F,0,0,1,0,60,0,1 @ F,0,0,1,0,32.242093,0,1 @ F,0,0,1,0,15,0,1 @ F,0,0,1,0,15,0,1 @ F,0,0,1,0,15,0,1"
       radius="15"
       unit="px"
       method="auto"
       mode="F"
       chamfer_steps="1"
       flexible="false"
       use_knot_distance="true"
       apply_no_radius="true"
       apply_with_radius="true"
       only_selected="false"
       hide_knots="false" />
    <inkscape:path-effect
       effect="fillet_chamfer"
       id="path-effect4-0"
       is_visible="true"
       lpeversion="1"
       nodesatellites_param="F,0,0,1,0,10,0,1 @ F,0,0,1,0,10,0,1 @ F,0,0,1,0,10,0,1 @ F,0,0,1,0,10,0,1 @ F,0,0,1,0,10,0,1 @ F,0,0,1,0,10,0,1 @ F,0,0,1,0,10,0,1 @ F,0,0,1,0,10,0,1 @ F,0,0,1,0,10,0,1 @ F,0,0,1,0,10,0,1 @ F,0,0,1,0,10,0,1 @ F,0,0,1,0,10,0,1 @ F,0,0,1,0,10,0,1 @ F,0,0,1,0,10,0,1 @ F,0,0,1,0,10,0,1 @ F,0,0,1,0,10,0,1 @ F,0,0,1,0,10,0,1 @ F,0,0,1,0,10,0,1 @ F,0,0,1,0,10,0,1 @ F,0,0,1,0,10,0,1 @ F,0,0,1,0,10,0,1 @ F,0,0,1,0,10,0,1"
       radius="10"
       unit="px"
       method="auto"
       mode="F"
       chamfer_steps="1"
       flexible="false"
       use_knot_distance="true"
       apply_no_radius="true"
       apply_with_radius="true"
       only_selected="false"
       hide_knots="false" />
  </defs>
  <g
     inkscape:label="Layer 1"
     inkscape:groupmode="layer"
     id="layer1">
    <g
       id="g2"
       transform="matrix(1.15,0,0,1.15,-52,2)">
      <path
         id="rect1"
         style="fill:#000000;fill-opacity:1;stroke:none;stroke-width:20;stroke-linejoin:round"
         d="m 80,295 v 210 a 15,15 45 0 0 15,15 h 10 a 15,15 135 0 0 15,-15 v -50 a 15,15 135 0 1 15,-15 h 293.53711 a 14.351446,14.351446 46.26581 0 1 14.33744,14.98536 l -2.21199,50.02928 A 14.351446,14.351446 46.26581 0 0 455,520 h 10 a 15,15 135 0 0 15,-15 v -50 -40 -15.0293 l -8.22972,-41.13652 A 73.192441,73.192441 39.343419 0 0 400,300 H 232.24209 A 32.242093,32.242093 135 0 0 200,332.24209 v 52.72861 a 15,15 135 0 1 -15,15 h -50 a 15,15 45 0 1 -15,-15 V 295 A 15,15 45 0 0 105,280 H 95 a 15,15 135 0 0 -15,15 z"
         inkscape:path-effect="#path-effect4"
         inkscape:original-d="m 80,280 v 240 h 40 V 440 H 443.53711 L 440,520 h 40 v -80 -40 -0.0293 L 460,300 H 200 v 99.9707 H 120 V 280 Z"
         sodipodi:nodetypes="cccccccccccccccc" />
      <ellipse
         style="fill:#000000;fill-opacity:1;stroke:none;stroke-width:20;stroke-linejoin:round"
         id="path4"
         cx="160"
         cy="342"
         rx="31.03163"
         ry="30" />
      <ellipse
         style="fill:#000000;fill-opacity:1;stroke:none;stroke-width:20;stroke-linejoin:round"
         id="path4-0"
         cx="114.78261"
         cy="167.39131"
         rx="31.03163"
         ry="30" />
      <ellipse
         style="fill:#000000;fill-opacity:1;stroke:none;stroke-width:20;stroke-linejoin:round"
         id="path4-0-5"
         cx="200.8371"
         cy="167.39131"
         rx="31.03163"
         ry="30" />
      <ellipse
         style="fill:#000000;fill-opacity:1;stroke:none;stroke-width:20;stroke-linejoin:round"
         id="path4-0-5-0"
         cx="286.8916"
         cy="167.39131"
         rx="31.03163"
         ry="30" />
      <ellipse
         style="fill:#000000;fill-opacity:1;stroke:none;stroke-width:20;stroke-linejoin:round"
         id="path4-0-5-3"
         cx="372.94611"
         cy="167.39131"
         rx="31.03163"
         ry="30" />
      <path
         id="rect1-2"
         style="fill:#000000;fill-opacity:1;stroke:none;stroke-width:4.33861;stroke-linejoin:round"
         d="m 272.92969,250 v 54.98581 a 10,10 135 0 1 -10,10 H 150 a 10,10 135 0 0 -10,10 7.2230611,7.2230611 11.774805 0 0 10,2.08452 h 112.92969 a 10,10 45 0 1 10,10 7.3682755,7.3682755 163.67116 0 1 -10,2.92967 H 150 a 10,10 135 0 0 -10,10 v 20 a 24.142136,24.142136 67.5 0 0 7.07107,17.07107 l 5.85786,5.85786 20,20 A 24.142136,24.142136 67.5 0 1 180,430 v 20 a 10,10 45 0 0 10,10 h 60 a 10,10 135 0 0 10,-10 v -20 a 8.6138054,8.6138054 139.25903 0 1 9.88969,-8.51879 l 5.23483,0.78404 a 11.609271,11.609271 49.25903 0 1 9.88969,11.48121 v 16.25355 a 10,10 45 0 0 10,10 h 4.16903 a 10,10 135 0 0 10,-10 v -40.42258 a 10.823056,10.823056 47.263504 0 0 -9.9688,-10.78929 l -25.24564,-1.99885 a 4.6129214,4.6129214 69.763504 0 1 -2.89773,-7.86036 l 1.85786,-1.85786 A 24.142136,24.142136 112.5 0 0 280,370 10,10 135 0 1 290,360 h 37.4707 a 10,10 135 0 0 10,-10 V 250 a 10,10 45 0 0 -10,-10 h -44.54101 a 10,10 135 0 0 -10,10 z"
         inkscape:path-effect="#path-effect4-0"
         inkscape:original-d="m 272.92969,240 v 74.98581 H 140 v 12.08452 H 272.92969 V 340 H 140 v 40 l 20,20 20,20 v 40 h 80 v -40 l 25.01421,3.74646 v 36.25355 h 24.16903 V 399.57743 L 264,396 280,380 v -20 h 57.4707 V 240 Z"
         transform="matrix(0.52380761,0,0,0.52380761,354.6359,-43.560194)"
         sodipodi:nodetypes="ccccccccccccccccccccccc" />
    </g>
  </g>
  <metadata
     id="metadata1">
    <rdf:RDF>
      <cc:Work
         rdf:about="">
        <dc:title>Template</dc:title>
        <dc:date>2023</dc:date>
        <dc:creator>
          <cc:Agent>
            <dc:title>Doug Palmer</dc:title>
          </cc:Agent>
        </dc:creator>
        <dc:subject>
          <rdf:Bag>
            <rdf:li>icon map symbol</rdf:li>
          </rdf:Bag>
        </dc:subject>
        <cc:license
           rdf:resource="http://creativecommons.org/licenses/by/4.0/" />
      </cc:Work>
      <cc:License
         rdf:about="http://creativecommons.org/licenses/by/4.0/">
        <cc:permits
           rdf:resource="http://creativecommons.org/ns#Reproduction" />
        <cc:permits
           rdf:resource="http://creativecommons.org/ns#Distribution" />
        <cc:requires
           rdf:resource="http://creativecommons.org/ns#Notice" />
        <cc:requires
           rdf:resource="http://creativecommons.org/ns#Attribution" />
        <cc:permits
           rdf:resource="http://creativecommons.org/ns#DerivativeWorks" />
      </cc:License>
    </rdf:RDF>
  </metadata>
</svg>
