<?xml version="1.0" encoding="UTF-8" standalone="no"?>
<!-- Created with Inkscape (http://www.inkscape.org/) -->

<svg
   width="600"
   height="750"
   viewBox="0 0 600 750"
   version="1.1"
   id="svg1"
   inkscape:version="1.3 (0e150ed, 2023-07-21)"
   sodipodi:docname="binoculars.svg"
   xmlns:inkscape="http://www.inkscape.org/namespaces/inkscape"
   xmlns:sodipodi="http://sodipodi.sourceforge.net/DTD/sodipodi-0.dtd"
   xmlns="http://www.w3.org/2000/svg"
   xmlns:svg="http://www.w3.org/2000/svg"
   xmlns:rdf="http://www.w3.org/1999/02/22-rdf-syntax-ns#"
   xmlns:cc="http://creativecommons.org/ns#"
   xmlns:dc="http://purl.org/dc/elements/1.1/">
  <title
     id="title2">Template</title>
  <sodipodi:namedview
     id="namedview1"
     pagecolor="#ffffff"
     bordercolor="#000000"
     borderopacity="0.25"
     inkscape:showpageshadow="2"
     inkscape:pageopacity="0.0"
     inkscape:pagecheckerboard="false"
     inkscape:deskcolor="#d1d1d1"
     inkscape:document-units="px"
     showgrid="true"
     showguides="true"
     inkscape:zoom="0.84096521"
     inkscape:cx="270.52249"
     inkscape:cy="299.06112"
     inkscape:window-width="1528"
     inkscape:window-height="996"
     inkscape:window-x="952"
     inkscape:window-y="25"
     inkscape:window-maximized="0"
     inkscape:current-layer="layer1"
     inkscape:lockguides="true">
    <inkscape:grid
       id="grid2"
       units="px"
       originx="0"
       originy="0"
       spacingx="4"
       spacingy="4"
       empcolor="#0099e5"
       empopacity="0.30196078"
       color="#0099e5"
       opacity="0.14901961"
       empspacing="5"
       dotted="false"
       gridanglex="30"
       gridanglez="30"
       visible="true" />
    <sodipodi:guide
       position="0,730"
       orientation="0,1"
       id="guide3"
       inkscape:locked="true"
       inkscape:label=""
       inkscape:color="rgb(0,134,229)" />
    <sodipodi:guide
       position="-40,-230"
       orientation="0,1"
       id="guide4"
       inkscape:locked="true"
       inkscape:label=""
       inkscape:color="rgb(0,134,229)" />
    <sodipodi:guide
       position="20,750"
       orientation="-1,0"
       id="guide5"
       inkscape:locked="true"
       inkscape:label=""
       inkscape:color="rgb(0,134,229)" />
    <sodipodi:guide
       position="580,750"
       orientation="-1,0"
       id="guide6"
       inkscape:locked="true"
       inkscape:label=""
       inkscape:color="rgb(0,134,229)" />
    <sodipodi:guide
       position="300,750"
       orientation="-1,0"
       id="guide7"
       inkscape:locked="true"
       inkscape:label=""
       inkscape:color="rgb(0,134,229)" />
    <sodipodi:guide
       position="300,550"
       orientation="0,1"
       id="guide8"
       inkscape:locked="true"
       inkscape:label=""
       inkscape:color="rgb(0,134,229)" />
    <sodipodi:guide
       position="0,450"
       orientation="0,1"
       id="guide9"
       inkscape:locked="true"
       inkscape:label=""
       inkscape:color="rgb(0,134,229)" />
    <sodipodi:guide
       position="0,-70"
       orientation="0,1"
       id="guide10"
       inkscape:locked="true"
       inkscape:label=""
       inkscape:color="rgb(0,134,229)" />
    <sodipodi:guide
       position="0,150"
       orientation="0,1"
       id="guide1"
       inkscape:locked="true"
       inkscape:label=""
       inkscape:color="rgb(0,134,229)" />
    <sodipodi:guide
       position="300,350"
       orientation="0,1"
       id="guide2"
       inkscape:label=""
       inkscape:locked="true"
       inkscape:color="rgb(0,134,229)" />
  </sodipodi:namedview>
  <defs
     id="defs1">
    <inkscape:path-effect
       effect="fillet_chamfer"
       id="path-effect2"
       is_visible="true"
       lpeversion="1"
       nodesatellites_param="F,0,0,1,0,20,0,1 @ F,0,0,1,0,20,0,1 @ F,0,0,1,0,20,0,1 @ F,0,0,1,0,20,0,1 @ F,0,0,1,0,20,0,1 @ F,0,0,1,0,20,0,1 @ F,0,0,1,0,20,0,1 @ F,0,0,1,0,20,0,1 @ F,0,0,1,0,20,0,1 @ F,0,0,1,0,20,0,1 @ F,0,0,1,0,20,0,1"
       radius="20"
       unit="px"
       method="auto"
       mode="F"
       chamfer_steps="1"
       flexible="false"
       use_knot_distance="true"
       apply_no_radius="true"
       apply_with_radius="true"
       only_selected="false"
       hide_knots="false" />
    <inkscape:path-effect
       effect="fillet_chamfer"
       id="path-effect3"
       is_visible="true"
       lpeversion="1"
       nodesatellites_param="F,0,0,1,0,64,0,1 @ F,0,0,1,0,64,0,1 @ F,0,0,1,0,64,0,1 @ F,0,0,1,0,64,0,1 @ F,0,0,1,0,64,0,1 @ F,0,0,1,0,64,0,1 @ F,0,0,1,0,64,0,1 @ F,0,0,1,0,64,0,1 @ F,0,0,1,0,64,0,1 @ F,0,0,1,0,64,0,1 @ F,0,0,1,0,64,0,1 @ F,0,0,1,0,64,0,1"
       radius="65"
       unit="px"
       method="auto"
       mode="F"
       chamfer_steps="1"
       flexible="false"
       use_knot_distance="true"
       apply_no_radius="true"
       apply_with_radius="true"
       only_selected="false"
       hide_knots="false" />
  </defs>
  <g
     inkscape:label="Layer 1"
     inkscape:groupmode="layer"
     id="layer1">
    <path
       style="color:#000000;fill:#000000;stroke-linecap:round;stroke-linejoin:round;opacity:0.99;stroke-width:10;stroke-dasharray:none;stroke:none"
       d="m 125.81055,390.83008 c -2.65742,-0.0871 -5.32116,-0.0678 -7.98633,0.0586 l 0.23437,-0.01 c -0.24603,0.007 -0.5324,0.0146 -0.85937,0.0234 a 13.50135,13.50135 0 0 0 -0.87695,0.38477 l 0.33593,-0.35938 c -4.49374,0.30238 -9.23542,0.80257 -14.13867,1.81446 -4.671037,0.88735 -9.076839,2.13998 -13.232421,3.52734 a 13.50135,13.50135 0 0 0 -0.195312,0.0664 c -4.318344,1.51532 -8.691688,3.31197 -13.013672,5.53711 -4.0986,2.05261 -7.886734,4.36273 -11.427734,6.7539 a 13.50135,13.50135 0 0 0 -0.160157,0.10938 c -3.762385,2.61975 -7.500681,5.52517 -11.074218,8.83008 -3.403742,3.07743 -6.425404,6.31429 -9.183594,9.54296 a 13.50135,13.50135 0 0 0 -0.134766,0.16016 c -2.9191,3.52575 -5.736404,7.31867 -8.291015,11.44531 -2.355868,3.70254 -4.263801,7.38758 -5.951172,10.88868 a 13.50135,13.50135 0 0 0 -0.13086,0.27929 c -1.989908,4.38138 -3.811361,9.02457 -5.246093,13.96289 -1.331919,4.39576 -2.254154,8.73066 -2.953125,12.92188 a 13.50135,13.50135 0 0 0 -0.0332,0.20312 c -0.685445,4.53164 -1.146958,9.24225 -1.205078,14.10938 -0.106247,4.58504 0.163944,9.00866 0.613282,13.23828 a 13.50135,13.50135 0 0 0 0.02344,0.20312 c 0.559168,4.60036 1.387873,9.30119 2.642578,14.03321 1.121259,4.40446 2.554182,8.55067 4.09961,12.46484 a 13.50135,13.50135 0 0 0 0.08008,0.19922 c 1.768662,4.27973 3.825189,8.58673 6.300781,12.81055 2.274873,3.97272 4.79161,7.62678 7.378906,11.03125 a 13.50135,13.50135 0 0 0 0.09961,0.13086 c 2.871677,3.68439 6.022163,7.27922 9.521484,10.66992 3.195124,3.14671 6.528821,5.94216 9.867187,8.49023 a 13.50135,13.50135 0 0 0 0.15625,0.11719 c 3.723535,2.75812 7.709256,5.39261 12.017579,7.73828 3.948573,2.20005 7.941722,4.0204 11.876953,5.5957 a 13.50135,13.50135 0 0 0 0.179687,0.0723 c 4.269887,1.63889 8.766402,3.1023 13.503906,4.20508 4.459773,1.09135 8.840003,1.77803 13.068363,2.25 a 13.50135,13.50135 0 0 0 0.20312,0.0215 c 4.6127,0.44412 9.38074,0.64355 14.26953,0.43555 4.54129,-0.14788 8.908,-0.65375 13.07813,-1.32813 a 13.50135,13.50135 0 0 0 0.19336,-0.0332 c 4.55186,-0.80457 9.19247,-1.8832 13.84179,-3.38867 4.19657,-1.30366 8.02995,-2.88192 11.57032,-4.45117 a 13.50135,13.50135 0 0 0 0.35742,-0.16602 c 4.0148,-1.92201 8.20489,-4.11456 12.36719,-6.84961 4.05251,-2.57237 7.72591,-5.393 11.11718,-8.25976 a 13.50135,13.50135 0 0 0 0.1543,-0.13282 c 3.4467,-3.00359 6.84284,-6.28922 10.0332,-9.95312 3.06435,-3.43775 5.72175,-6.99095 8.11524,-10.49805 a 13.50135,13.50135 0 0 0 0.11719,-0.17578 c 2.52266,-3.82402 4.91836,-7.90497 7.01367,-12.29492 2.04099,-4.15249 3.67066,-8.3251 5.04687,-12.4082 a 13.50135,13.50135 0 0 0 0.0508,-0.1543 c 1.43881,-4.44545 2.64551,-9.07022 3.48828,-13.86719 0.8126,-4.41175 1.25442,-8.74067 1.49024,-12.93164 a 13.50135,13.50135 0 0 0 0.004,-0.082 c 0.69679,-13.89554 -1.48918,-27.84667 -6.38477,-40.85938 -7.55403,-20.23585 -21.55334,-37.71373 -39.64453,-49.50976 -15.56364,-10.22117 -33.79817,-16.00377 -52.38867,-16.61328 z m -6.70703,27.02734 c 15.44777,-0.73268 31.34049,3.65276 44.29687,12.16797 a 13.50135,13.50135 0 0 0 0.043,0.0273 c 13.16359,8.57992 23.62883,21.65066 29.11719,36.3711 a 13.50135,13.50135 0 0 0 0.0137,0.0371 c 3.57672,9.50709 5.19124,19.81605 4.68945,29.95312 -0.18922,3.34178 -0.52972,6.53978 -1.08594,9.55078 a 13.50135,13.50135 0 0 0 -0.0215,0.12891 c -0.58764,3.36399 -1.4696,6.77365 -2.57813,10.20898 -1.09643,3.24397 -2.30259,6.2985 -3.67773,9.08985 a 13.50135,13.50135 0 0 0 -0.0801,0.16601 c -1.4311,3.00858 -3.18539,6.01772 -5.16992,9.03321 -1.92623,2.8164 -3.88511,5.41328 -5.92383,7.69726 a 13.50135,13.50135 0 0 0 -0.12304,0.14063 c -2.1831,2.51511 -4.67906,4.94377 -7.4004,7.32031 -2.72116,2.29566 -5.42697,4.35575 -8.13671,6.07031 a 13.50135,13.50135 0 0 0 -0.2168,0.14063 c -2.68194,1.76941 -5.76407,3.40692 -9.125,5.02148 -2.9943,1.32173 -5.81856,2.46448 -8.46875,3.28516 a 13.50135,13.50135 0 0 0 -0.18555,0.0586 c -3.21123,1.04514 -6.63477,1.85146 -10.21679,2.48828 -3.32168,0.53371 -6.52528,0.89484 -9.57618,0.99219 a 13.50135,13.50135 0 0 0 -0.16015,0.006 c -3.37685,0.14786 -6.89313,0.0107 -10.51172,-0.33398 -3.3799,-0.38085 -6.59206,-0.89641 -9.57617,-1.62891 a 13.50135,13.50135 0 0 0 -0.17774,-0.043 c -3.24549,-0.75041 -6.562581,-1.8182 -9.941404,-3.11133 -3.106798,-1.24732 -6.037953,-2.5943 -8.720703,-4.09179 a 13.50135,13.50135 0 0 0 -0.138672,-0.0762 c -2.964236,-1.60981 -5.903071,-3.54146 -8.830078,-5.70507 -2.638804,-2.01835 -5.084126,-4.07955 -7.251953,-6.2168 a 13.50135,13.50135 0 0 0 -0.0918,-0.0918 c -2.455218,-2.37454 -4.783918,-5.01854 -7.007812,-7.86719 -2.04612,-2.69768 -3.882375,-5.38546 -5.416016,-8.06836 a 13.50135,13.50135 0 0 0 -0.08008,-0.13867 C 55.662515,527.52884 54.136575,524.35898 52.744141,521 c -1.236234,-3.1406 -2.276217,-6.19388 -3.025391,-9.14648 a 13.50135,13.50135 0 0 0 -0.04102,-0.1543 c -0.86985,-3.26598 -1.491067,-6.72858 -1.933593,-10.33789 -0.355753,-3.38164 -0.542814,-6.63152 -0.46875,-9.70508 a 13.50135,13.50135 0 0 0 0.0039,-0.17969 c 0.03561,-3.33491 0.364936,-6.80577 0.902344,-10.38086 0.563216,-3.35422 1.251208,-6.52979 2.142578,-9.46289 a 13.50135,13.50135 0 0 0 0.05273,-0.17773 c 0.972824,-3.36621 2.307008,-6.79708 3.884766,-10.28321 1.425699,-2.94852 2.843668,-5.65158 4.34375,-8.0039 a 13.50135,13.50135 0 0 0 0.107422,-0.16992 c 1.751307,-2.83857 3.820077,-5.63893 6.117187,-8.41993 2.215856,-2.58891 4.445854,-4.96125 6.726563,-7.01953 a 13.50135,13.50135 0 0 0 0.134765,-0.12304 c 2.446677,-2.26852 5.193354,-4.41582 8.158203,-6.48438 2.808611,-1.89236 5.590067,-3.57617 8.347657,-4.95508 a 13.50135,13.50135 0 0 0 0.160156,-0.082 c 2.960253,-1.52976 6.177957,-2.86276 9.585937,-4.0625 3.353891,-1.11581 6.597491,-2.02223 9.708981,-2.60742 a 13.50135,13.50135 0 0 0 0.25196,-0.0488 c 3.19829,-0.66481 6.7057,-1.05869 10.45703,-1.31445 0.16738,-0.004 0.3169,-0.008 0.50781,-0.0137 a 13.50135,13.50135 0 0 0 0.23438,-0.01 z"
       id="circle1"
       inkscape:export-filename="../../static/icons/location-lookout-unused.png"
       inkscape:export-xdpi="11.016857"
       inkscape:export-ydpi="11.016857" />
    <path
       style="color:#000000;fill:#000000;stroke-linecap:round;stroke-linejoin:round;opacity:0.99;stroke-width:10;stroke-dasharray:none;stroke:none"
       d="m 479.4082,390.29492 c -2.65741,-0.0871 -5.32115,-0.0698 -7.98633,0.0566 l 0.23438,-0.008 c -0.24603,0.007 -0.53241,0.0146 -0.85938,0.0234 a 13.50135,13.50135 0 0 0 -0.87695,0.38476 l 0.33594,-0.35937 c -4.49375,0.30237 -9.23543,0.80257 -14.13867,1.81445 -4.67104,0.88735 -9.07684,2.13999 -13.23242,3.52734 a 13.50135,13.50135 0 0 0 -0.19532,0.0664 c -4.32359,1.51717 -8.70218,3.31602 -13.02929,5.54492 -4.09205,2.05049 -7.87602,4.35824 -11.41211,6.7461 a 13.50135,13.50135 0 0 0 -0.16016,0.10937 c -3.76238,2.61975 -7.50068,5.52518 -11.07422,8.83008 -3.40374,3.07743 -6.4254,6.31429 -9.18359,9.54297 a 13.50135,13.50135 0 0 0 -0.13477,0.16015 c -2.91711,3.52336 -5.73192,7.31219 -8.28515,11.43555 -2.35885,3.70595 -4.26811,7.39413 -5.95704,10.89844 a 13.50135,13.50135 0 0 0 -0.13085,0.27734 c -1.98991,4.38137 -3.81137,9.02653 -5.2461,13.96485 -1.33192,4.39576 -2.25415,8.73066 -2.95312,12.92187 a 13.50135,13.50135 0 0 0 -0.0332,0.20117 c -0.6845,4.52548 -1.14593,9.23168 -1.20507,14.0918 -0.10753,4.59227 0.16328,9.02194 0.61328,13.25781 a 13.50135,13.50135 0 0 0 0.0234,0.20313 c 0.55917,4.60036 1.38789,9.3012 2.64258,14.0332 1.12127,4.40447 2.5542,8.55069 4.09961,12.46484 a 13.50135,13.50135 0 0 0 0.0801,0.19727 c 1.77005,4.28308 3.82844,8.59331 6.30664,12.82031 2.27356,3.96935 4.78766,7.62148 7.37305,11.02344 a 13.50135,13.50135 0 0 0 0.0996,0.13086 c 2.87167,3.68439 6.02216,7.27922 9.52148,10.66992 3.19513,3.14671 6.52882,5.94216 9.86719,8.49024 a 13.50135,13.50135 0 0 0 0.15625,0.11523 c 3.7188,2.75462 7.69993,5.38704 12.00195,7.73047 3.95371,2.20399 7.95211,4.02807 11.89258,5.60547 a 13.50135,13.50135 0 0 0 0.17969,0.0703 c 4.27594,1.64122 8.77852,3.10764 13.52343,4.21094 4.45283,1.08848 8.82683,1.77484 13.04883,2.24609 a 13.50135,13.50135 0 0 0 0.20313,0.0195 c 4.6127,0.44412 9.38074,0.64551 14.26953,0.4375 4.54129,-0.14788 8.908,-0.65375 13.07812,-1.32812 a 13.50135,13.50135 0 0 0 0.19336,-0.0332 c 4.55186,-0.80457 9.19248,-1.88515 13.8418,-3.39062 4.19656,-1.30366 8.02995,-2.87996 11.57031,-4.44922 a 13.50135,13.50135 0 0 0 0.35742,-0.16601 c 4.0148,-1.92202 8.2049,-4.11457 12.36719,-6.84961 4.05252,-2.57238 7.72592,-5.39496 11.11719,-8.26172 a 13.50135,13.50135 0 0 0 0.1543,-0.13086 c 3.44669,-3.00359 6.84285,-6.28923 10.0332,-9.95313 3.06434,-3.43774 5.72175,-6.99095 8.11523,-10.49804 a 13.50135,13.50135 0 0 0 0.11719,-0.17579 c 2.52266,-3.82401 4.91837,-7.90498 7.01367,-12.29492 2.041,-4.15249 3.67066,-8.3251 5.04688,-12.4082 a 13.50135,13.50135 0 0 0 0.0508,-0.15625 c 1.439,-4.44604 2.64549,-9.07149 3.48828,-13.86914 0.81213,-4.41039 1.25448,-8.73801 1.49024,-12.92774 a 13.50135,13.50135 0 0 0 0.006,-0.082 c 0.6968,-13.89554 -1.49112,-27.84667 -6.38671,-40.85937 -7.55404,-20.23586 -21.55335,-37.71374 -39.64454,-49.50977 -15.56363,-10.22116 -33.79816,-16.00377 -52.38867,-16.61328 z m -6.70703,27.02735 c 15.44778,-0.73268 31.3405,3.65275 44.29688,12.16796 a 13.50135,13.50135 0 0 0 0.043,0.0274 c 13.16358,8.57992 23.62882,21.65066 29.11718,36.37109 a 13.50135,13.50135 0 0 0 0.0137,0.0371 c 3.57673,9.50709 5.19124,19.8141 4.68946,29.95117 -0.18922,3.34178 -0.52972,6.53979 -1.08594,9.55078 a 13.50135,13.50135 0 0 0 -0.0215,0.13086 c -0.5873,3.36203 -1.46857,6.76984 -2.57618,10.20313 -1.09682,3.24558 -2.30393,6.30116 -3.67968,9.09375 a 13.50135,13.50135 0 0 0 -0.0801,0.16797 c -1.42991,3.00605 -3.18355,6.01244 -5.16602,9.02539 -1.92757,2.81877 -3.88754,5.41749 -5.92773,7.70312 a 13.50135,13.50135 0 0 0 -0.12305,0.14063 c -2.18309,2.51511 -4.67905,4.94572 -7.40039,7.32226 -2.72117,2.29567 -5.42697,4.35575 -8.13672,6.07032 a 13.50135,13.50135 0 0 0 -0.21679,0.14062 c -2.67857,1.76719 -5.75732,3.40302 -9.11329,5.01563 -2.99886,1.32405 -5.82667,2.46921 -8.48046,3.29101 a 13.50135,13.50135 0 0 0 -0.18555,0.0586 c -3.21123,1.04513 -6.63477,1.85145 -10.2168,2.48828 -3.32168,0.5337 -6.52527,0.89483 -9.57617,0.99218 a 13.50135,13.50135 0 0 0 -0.16016,0.006 c -3.37684,0.14786 -6.89313,0.0107 -10.51172,-0.33398 -3.3799,-0.38085 -6.59205,-0.89836 -9.57617,-1.63086 a 13.50135,13.50135 0 0 0 -0.17773,-0.041 c -3.24549,-0.75041 -6.56258,-1.82015 -9.94141,-3.11328 -3.1068,-1.24732 -6.03795,-2.5943 -8.7207,-4.09179 a 13.50135,13.50135 0 0 0 -0.13867,-0.0742 c -2.96424,-1.60982 -5.90307,-3.54147 -8.83008,-5.70508 -2.63881,-2.01835 -5.08412,-4.08149 -7.25195,-6.21875 a 13.50135,13.50135 0 0 0 -0.0918,-0.0898 c -2.45522,-2.37455 -4.78392,-5.01854 -7.00781,-7.86719 -2.04613,-2.69769 -3.88239,-5.38549 -5.41602,-8.06836 a 13.50135,13.50135 0 0 0 -0.0801,-0.14063 c -1.71053,-2.9106 -3.23647,-6.07852 -4.6289,-9.4375 -1.23624,-3.14061 -2.27622,-6.19389 -3.02539,-9.14648 a 13.50135,13.50135 0 0 0 -0.041,-0.1543 c -0.86985,-3.266 -1.49107,-6.73052 -1.93359,-10.33984 -0.35575,-3.38163 -0.54281,-6.62953 -0.46875,-9.70313 a 13.50135,13.50135 0 0 0 0.004,-0.18164 c 0.0356,-3.33489 0.36494,-6.80381 0.90235,-10.3789 0.56322,-3.35424 1.2512,-6.53174 2.14257,-9.46485 a 13.50135,13.50135 0 0 0 0.0527,-0.17578 c 0.97337,-3.3681 2.30779,-6.8009 3.88672,-10.28906 1.425,-2.94684 2.84243,-5.64684 4.34179,-7.99805 a 13.50135,13.50135 0 0 0 0.10743,-0.16992 c 1.75296,-2.84124 3.82334,-5.64417 6.12304,-8.42773 2.214,-2.58632 4.44195,-4.95521 6.72071,-7.01172 a 13.50135,13.50135 0 0 0 0.13476,-0.12305 c 2.44668,-2.26851 5.19336,-4.41582 8.15821,-6.48437 2.80861,-1.89237 5.59006,-3.57618 8.34765,-4.95508 a 13.50135,13.50135 0 0 0 0.16016,-0.082 c 2.96004,-1.52965 6.17823,-2.86283 9.58594,-4.0625 3.35407,-1.11589 6.59733,-2.0222 9.70898,-2.60743 a 13.50135,13.50135 0 0 0 0.25195,-0.0508 c 3.19528,-0.66419 6.69995,-1.05671 10.44727,-1.3125 0.17014,-0.004 0.32298,-0.01 0.51758,-0.0156 a 13.50135,13.50135 0 0 0 0.23437,-0.008 z"
       id="path1" />
    <path
       id="path2"
       style="opacity:0.99;fill:#000000;fill-opacity:1;stroke:none;stroke-width:10;stroke-linecap:round;stroke-linejoin:round;stroke-dasharray:none;stroke-opacity:1"
       d="M 133.74219 298.83203 C 101.85512 297.22146 62.484463 356.91072 80 384 C 87.382981 395.41841 106.40294 375.9069 120 376 C 139.08996 376.13075 158.75172 379.81829 176 388 C 191.42733 395.31794 205.26534 406.72136 216 420 C 225.37176 431.59275 231.85658 445.68029 236 460 C 239.72447 472.87182 226.82147 497.57481 240 500 C 254.66093 502.69799 256.57505 474.50833 260 460 C 261.76982 452.50295 264.2646 443.98014 265.86719 435.52344 C 265.4325 435.1296 264.98807 434.7478 264.57031 434.33594 C 262.9274 432.74702 261.41629 431.02669 260.01172 429.22461 C 258.73222 427.54099 257.53236 425.79179 256.48242 423.95508 C 255.32427 421.98437 254.3336 419.92022 253.46094 417.80859 C 252.69153 415.85991 252.00966 413.87352 251.49414 411.8418 C 250.90587 409.63301 250.50421 407.37943 250.22852 405.11133 C 250.00509 403.00827 249.87869 400.89073 249.92969 398.77539 C 249.9539 396.50948 250.17297 394.24927 250.51172 392.00977 C 250.59059 391.53681 250.69552 391.06894 250.78516 390.59766 C 199.89498 337.87217 196.73258 318.91086 140 300 C 137.95978 299.31993 135.86799 298.9394 133.74219 298.83203 z " />
    <path
       id="path2-8"
       style="opacity:0.99;fill:#000000;fill-opacity:1;stroke:none;stroke-width:10;stroke-linecap:round;stroke-linejoin:round;stroke-dasharray:none;stroke-opacity:1"
       d="M 462.25781 298.83203 C 460.13201 298.9394 458.04022 299.31993 456 300 C 399.53822 318.82059 396.17394 337.66504 345.97852 389.81836 C 346.79746 393.8036 347.11982 397.8908 346.91602 401.95508 C 346.79944 404.0267 346.5841 406.09746 346.20703 408.13867 C 345.81369 410.3904 345.23881 412.60526 344.53516 414.7793 C 343.85348 416.80177 343.07257 418.79541 342.12891 420.71094 C 341.15542 422.75747 340.00908 424.71658 338.76172 426.60742 C 337.56978 428.35391 336.29553 430.05061 334.88672 431.62891 C 333.45961 433.27307 331.89431 434.78987 330.25977 436.22656 C 331.86531 444.45137 334.27931 452.71106 336 460 C 339.42495 474.50833 341.33907 502.69799 356 500 C 369.17853 497.57481 356.27553 472.87182 360 460 C 364.14342 445.68029 370.62824 431.59275 380 420 C 390.73466 406.72136 404.57267 395.31794 420 388 C 437.24828 379.81829 456.91004 376.13075 476 376 C 489.59706 375.9069 508.61702 395.41841 516 384 C 533.51554 356.91072 494.14488 297.22146 462.25781 298.83203 z " />
    <path
       style="color:#000000;fill:#000000;stroke-linecap:round;stroke-linejoin:round;opacity:0.99;stroke-width:10;stroke-dasharray:none;stroke:none"
       d="m 296.65039,359.2207 c -0.0196,2.6e-4 0.0315,-0.002 -0.11133,0.002 a 10.936094,10.936094 0 0 0 -0.65625,0.28906 l 0.25196,-0.26953 c -1.65257,0.11115 -3.5121,0.30569 -5.52344,0.71679 -1.90424,0.36498 -3.6386,0.85855 -5.19727,1.37891 a 10.936094,10.936094 0 0 0 -0.1582,0.0527 c -1.64977,0.57892 -3.37863,1.28908 -5.13672,2.19336 -1.65592,0.8332 -3.13964,1.73851 -4.47266,2.63868 a 10.936094,10.936094 0 0 0 -0.1289,0.0898 c -1.43592,0.99982 -2.91156,2.14535 -4.36328,3.48633 -1.37968,1.25171 -2.56334,2.52167 -3.59766,3.73242 a 10.936094,10.936094 0 0 0 -0.10937,0.12891 c -1.11432,1.34589 -2.22667,2.84262 -3.26368,4.51562 -0.96465,1.52341 -1.70687,2.9617 -2.31836,4.23047 a 10.936094,10.936094 0 0 0 -0.10546,0.22656 c -0.75442,1.66105 -1.47444,3.48934 -2.0586,5.49414 -0.53838,1.78725 -0.89789,3.48796 -1.16015,5.06055 a 10.936094,10.936094 0 0 0 -0.0274,0.16406 c -0.26139,1.72807 -0.44369,3.58589 -0.46875,5.56055 -0.0403,1.86218 0.0674,3.59739 0.23633,5.1875 a 10.936094,10.936094 0 0 0 0.0176,0.16406 c 0.21377,1.75874 0.54225,3.61231 1.04883,5.52735 0.45804,1.78834 1.01963,3.4139 1.59961,4.88281 a 10.936094,10.936094 0 0 0 0.0645,0.16211 c 0.67608,1.63597 1.48679,3.33406 2.48828,5.04492 0.9242,1.60838 1.91286,3.04349 2.89062,4.33008 a 10.936094,10.936094 0 0 0 0.082,0.10547 c 1.10933,1.42328 2.35537,2.8441 3.76757,4.21289 1.29252,1.26919 2.59868,2.36392 3.85938,3.32617 a 10.936094,10.936094 0 0 0 0.12695,0.0957 c 1.41931,1.05132 2.98794,2.08917 4.72852,3.03906 1.60197,0.89053 3.17272,1.60535 4.66601,2.20313 a 10.936094,10.936094 0 0 0 0.14649,0.0586 c 1.62946,0.62543 3.40496,1.20489 5.33203,1.6543 1.80726,0.43854 3.52292,0.70595 5.10742,0.88281 a 10.936094,10.936094 0 0 0 0.16406,0.0156 c 1.76187,0.16963 3.64184,0.25038 5.61719,0.16797 1.846,-0.0624 3.56018,-0.26326 5.13281,-0.51758 a 10.936094,10.936094 0 0 0 0.15821,-0.0254 c 1.74326,-0.30812 3.57631,-0.7354 5.46289,-1.34571 1.72082,-0.53912 3.21201,-1.15391 4.48633,-1.71875 a 10.936094,10.936094 0 0 0 0.29101,-0.13476 c 1.47117,-0.7043 3.11656,-1.56438 4.83203,-2.6875 1.64576,-1.04894 3.08963,-2.15772 4.36328,-3.23438 a 10.936094,10.936094 0 0 0 0.125,-0.10742 c 1.31123,-1.14267 2.64976,-2.43534 3.94336,-3.91797 1.24715,-1.40314 2.28998,-2.80016 3.1875,-4.11523 a 10.936094,10.936094 0 0 0 0.0957,-0.14258 c 0.96194,-1.45818 1.9065,-3.06723 2.75781,-4.84766 0.82541,-1.68633 1.46503,-3.32439 1.98437,-4.86523 a 10.936094,10.936094 0 0 0 0.041,-0.12695 c 0.55446,-1.71308 1.03091,-3.53556 1.37109,-5.46485 0.32767,-1.78929 0.50056,-3.49128 0.58985,-5.07812 a 10.936094,10.936094 0 0 0 0.002,-0.0664 c 0.27661,-5.51596 -0.58662,-11.02119 -2.52734,-16.18359 -3.00604,-8.04919 -8.50563,-14.9169 -15.69922,-19.61133 -7.07474,-4.64461 -15.44263,-6.96335 -23.93555,-6.56055 z m 1.03516,21.84571 c 3.7421,-0.17748 7.74657,0.92339 10.90625,3 a 10.936094,10.936094 0 0 0 0.0352,0.0234 c 3.20294,2.08765 5.84094,5.38265 7.17578,8.96289 a 10.936094,10.936094 0 0 0 0.0117,0.0312 c 0.87686,2.33073 1.27565,4.89461 1.1543,7.375 -0.0519,0.89275 -0.13815,1.67952 -0.25977,2.33789 a 10.936094,10.936094 0 0 0 -0.0195,0.10547 c -0.13377,0.76583 -0.34694,1.60021 -0.63086,2.48633 -0.29274,0.86043 -0.59112,1.6051 -0.88476,2.20117 a 10.936094,10.936094 0 0 0 -0.0645,0.13477 c -0.31347,0.659 -0.73936,1.39559 -1.25781,2.1875 -0.51607,0.75032 -0.99732,1.3835 -1.42383,1.86133 a 10.936094,10.936094 0 0 0 -0.10156,0.11328 c -0.47726,0.54984 -1.08435,1.14617 -1.79687,1.77148 -0.72548,0.60898 -1.38671,1.10717 -1.95508,1.4668 a 10.936094,10.936094 0 0 0 -0.17578,0.11328 c -0.52654,0.34739 -1.28172,0.75458 -2.19922,1.19922 -0.81377,0.35523 -1.5132,0.63348 -2.01563,0.78906 a 10.936094,10.936094 0 0 0 -0.15039,0.0488 c -0.71032,0.23118 -1.54748,0.42905 -2.48242,0.59766 -0.88326,0.13985 -1.66853,0.22725 -2.32031,0.24804 a 10.936094,10.936094 0 0 0 -0.12891,0.004 c -0.7466,0.0327 -1.60421,0.003 -2.54492,-0.084 -0.90421,-0.10379 -1.69111,-0.23474 -2.32617,-0.39063 a 10.936094,10.936094 0 0 0 -0.14453,-0.0332 c -0.70909,-0.16395 -1.52058,-0.42164 -2.41016,-0.75977 -0.81696,-0.33022 -1.53262,-0.66306 -2.11523,-0.98828 a 10.936094,10.936094 0 0 0 -0.11133,-0.0606 c -0.65493,-0.35567 -1.37433,-0.82539 -2.14258,-1.39062 -0.69491,-0.53415 -1.29284,-1.04167 -1.76367,-1.50586 a 10.936094,10.936094 0 0 0 -0.0742,-0.0742 c -0.56168,-0.54321 -1.13594,-1.19218 -1.71484,-1.93164 -0.53524,-0.70971 -0.97848,-1.36539 -1.30664,-1.93945 a 10.936094,10.936094 0 0 0 -0.0664,-0.11328 c -0.37918,-0.64522 -0.7548,-1.42111 -1.12109,-2.29883 -0.32674,-0.83657 -0.57961,-1.5856 -0.73829,-2.21094 a 10.936094,10.936094 0 0 0 -0.0312,-0.125 c -0.1927,-0.72355 -0.34702,-1.56944 -0.46484,-2.50977 -0.0928,-0.90149 -0.13489,-1.69679 -0.11914,-2.34961 a 10.936094,10.936094 0 0 0 0.002,-0.14648 c 0.008,-0.72755 0.0848,-1.57369 0.22266,-2.50781 0.15262,-0.89683 0.32506,-1.67431 0.51367,-2.29492 a 10.936094,10.936094 0 0 0 0.041,-0.14454 c 0.21036,-0.72792 0.53582,-1.56724 0.94726,-2.48437 0.39416,-0.80855 0.74808,-1.47449 1.03711,-1.92773 a 10.936094,10.936094 0 0 0 0.0859,-0.13868 c 0.38483,-0.62373 0.88703,-1.3098 1.48633,-2.03906 0.59277,-0.68921 1.14097,-1.26612 1.62304,-1.70117 a 10.936094,10.936094 0 0 0 0.10938,-0.0996 c 0.53677,-0.49768 1.20654,-1.02511 1.98437,-1.57031 0.7429,-0.49788 1.42203,-0.90631 2.01172,-1.20117 a 10.936094,10.936094 0 0 0 0.13086,-0.0664 c 0.64568,-0.33367 1.42824,-0.66055 2.31836,-0.97656 0.89835,-0.29656 1.69179,-0.51484 2.33985,-0.63672 a 10.936094,10.936094 0 0 0 0.20312,-0.0391 c 0.64674,-0.13444 1.51321,-0.23936 2.55469,-0.3125 0.0516,-0.002 0.0194,7.9e-4 0.0879,-0.002 a 10.936094,10.936094 0 0 0 0.0801,-0.004 z"
       id="path3" />
    <path
       style="color:#000000;fill:#000000;stroke-linecap:round;stroke-linejoin:round;opacity:0.99;stroke-width:10;stroke-dasharray:none;stroke:none"
       d="m 61.119141,472.35742 a 7.5,7.5 0 0 0 -8.876954,5.80274 c -3.962953,18.91854 0.378051,38.64159 11.919922,54.14648 11.541872,15.50489 29.18901,25.32195 48.449221,26.95313 a 7.5,7.5 0 0 0 8.10547,-6.8418 7.5,7.5 0 0 0 -6.83985,-8.10547 C 98.889387,543.04318 85.176761,535.41493 76.195312,523.34961 67.213864,511.28429 63.840008,495.95803 66.923828,481.23633 a 7.5,7.5 0 0 0 -5.804687,-8.87891 z"
       id="path5" />
    <path
       style="color:#000000;fill:#000000;stroke-linecap:round;stroke-linejoin:round;opacity:0.99;stroke-width:10;stroke-dasharray:none;stroke:none"
       d="m 418.8125,472.35742 a 7.5,7.5 0 0 0 -8.87891,5.80274 c -3.96295,18.91854 0.38001,38.64159 11.92188,54.14648 11.54187,15.50489 29.18901,25.32195 48.44922,26.95313 a 7.5,7.5 0 0 0 8.10547,-6.8418 7.5,7.5 0 0 0 -6.83985,-8.10547 c -14.98756,-1.26932 -28.70214,-8.89757 -37.68359,-20.96289 -8.98145,-12.06532 -12.35531,-27.39158 -9.27149,-42.11328 a 7.5,7.5 0 0 0 -5.80273,-8.87891 z"
       id="path6" />
  </g>
  <metadata
     id="metadata1">
    <rdf:RDF>
      <cc:Work
         rdf:about="">
        <dc:title>Template</dc:title>
        <dc:date>2023</dc:date>
        <dc:creator>
          <cc:Agent>
            <dc:title>Doug Palmer</dc:title>
          </cc:Agent>
        </dc:creator>
        <dc:subject>
          <rdf:Bag>
            <rdf:li>icon map symbol</rdf:li>
          </rdf:Bag>
        </dc:subject>
        <cc:license
           rdf:resource="http://creativecommons.org/licenses/by/4.0/" />
      </cc:Work>
      <cc:License
         rdf:about="http://creativecommons.org/licenses/by/4.0/">
        <cc:permits
           rdf:resource="http://creativecommons.org/ns#Reproduction" />
        <cc:permits
           rdf:resource="http://creativecommons.org/ns#Distribution" />
        <cc:requires
           rdf:resource="http://creativecommons.org/ns#Notice" />
        <cc:requires
           rdf:resource="http://creativecommons.org/ns#Attribution" />
        <cc:permits
           rdf:resource="http://creativecommons.org/ns#DerivativeWorks" />
      </cc:License>
    </rdf:RDF>
  </metadata>
</svg>
