<?xml version="1.0" encoding="UTF-8" standalone="no"?>
<!-- Created with Inkscape (http://www.inkscape.org/) -->

<svg
   width="600"
   height="750"
   viewBox="0 0 600 750"
   version="1.1"
   id="svg1"
   inkscape:version="1.3 (0e150ed, 2023-07-21)"
   sodipodi:docname="bishop.svg"
   xmlns:inkscape="http://www.inkscape.org/namespaces/inkscape"
   xmlns:sodipodi="http://sodipodi.sourceforge.net/DTD/sodipodi-0.dtd"
   xmlns="http://www.w3.org/2000/svg"
   xmlns:svg="http://www.w3.org/2000/svg"
   xmlns:rdf="http://www.w3.org/1999/02/22-rdf-syntax-ns#"
   xmlns:cc="http://creativecommons.org/ns#"
   xmlns:dc="http://purl.org/dc/elements/1.1/">
  <title
     id="title2">Template</title>
  <sodipodi:namedview
     id="namedview1"
     pagecolor="#ffffff"
     bordercolor="#000000"
     borderopacity="0.25"
     inkscape:showpageshadow="2"
     inkscape:pageopacity="0.0"
     inkscape:pagecheckerboard="false"
     inkscape:deskcolor="#d1d1d1"
     inkscape:document-units="px"
     showgrid="true"
     showguides="true"
     inkscape:zoom="1"
     inkscape:cx="199.5"
     inkscape:cy="381.5"
     inkscape:window-width="1512"
     inkscape:window-height="840"
     inkscape:window-x="0"
     inkscape:window-y="38"
     inkscape:window-maximized="0"
     inkscape:current-layer="layer1"
     inkscape:lockguides="true">
    <inkscape:grid
       id="grid2"
       units="px"
       originx="0"
       originy="0"
       spacingx="4"
       spacingy="4"
       empcolor="#0099e5"
       empopacity="0.30196078"
       color="#0099e5"
       opacity="0.14901961"
       empspacing="5"
       dotted="false"
       gridanglex="30"
       gridanglez="30"
       visible="true" />
    <sodipodi:guide
       position="0,730"
       orientation="0,1"
       id="guide3"
       inkscape:locked="true"
       inkscape:label=""
       inkscape:color="rgb(0,134,229)" />
    <sodipodi:guide
       position="-40,-230"
       orientation="0,1"
       id="guide4"
       inkscape:locked="true"
       inkscape:label=""
       inkscape:color="rgb(0,134,229)" />
    <sodipodi:guide
       position="20,750"
       orientation="-1,0"
       id="guide5"
       inkscape:locked="true"
       inkscape:label=""
       inkscape:color="rgb(0,134,229)" />
    <sodipodi:guide
       position="580,750"
       orientation="-1,0"
       id="guide6"
       inkscape:locked="true"
       inkscape:label=""
       inkscape:color="rgb(0,134,229)" />
    <sodipodi:guide
       position="300,750"
       orientation="-1,0"
       id="guide7"
       inkscape:locked="true"
       inkscape:label=""
       inkscape:color="rgb(0,134,229)" />
    <sodipodi:guide
       position="300,550"
       orientation="0,1"
       id="guide8"
       inkscape:locked="true"
       inkscape:label=""
       inkscape:color="rgb(0,134,229)" />
    <sodipodi:guide
       position="0,450"
       orientation="0,1"
       id="guide9"
       inkscape:locked="true"
       inkscape:label=""
       inkscape:color="rgb(0,134,229)" />
    <sodipodi:guide
       position="0,-70"
       orientation="0,1"
       id="guide10"
       inkscape:locked="true"
       inkscape:label=""
       inkscape:color="rgb(0,134,229)" />
    <sodipodi:guide
       position="0,150"
       orientation="0,1"
       id="guide1"
       inkscape:locked="true"
       inkscape:label=""
       inkscape:color="rgb(0,134,229)" />
    <sodipodi:guide
       position="300,350"
       orientation="0,1"
       id="guide2"
       inkscape:label=""
       inkscape:locked="true"
       inkscape:color="rgb(0,134,229)" />
  </sodipodi:namedview>
  <defs
     id="defs1">
    <inkscape:path-effect
       effect="fillet_chamfer"
       id="path-effect5"
       is_visible="true"
       lpeversion="1"
       nodesatellites_param="F,0,0,1,0,10,0,1 @ F,0,0,1,0,10,0,1 @ F,0,0,1,0,10,0,1 @ F,0,0,1,0,10,0,1 @ F,0,0,1,0,10,0,1"
       radius="10"
       unit="px"
       method="auto"
       mode="F"
       chamfer_steps="1"
       flexible="false"
       use_knot_distance="true"
       apply_no_radius="true"
       apply_with_radius="true"
       only_selected="false"
       hide_knots="false" />
    <inkscape:path-effect
       effect="fillet_chamfer"
       id="path-effect4"
       is_visible="true"
       lpeversion="1"
       nodesatellites_param="F,0,0,1,0,10,0,1 @ F,0,0,1,0,10,0,1 @ F,0,0,1,0,10,0,1 @ F,0,0,1,0,10,0,1 @ F,0,0,1,0,10,0,1"
       radius="10"
       unit="px"
       method="auto"
       mode="F"
       chamfer_steps="1"
       flexible="false"
       use_knot_distance="true"
       apply_no_radius="true"
       apply_with_radius="true"
       only_selected="false"
       hide_knots="false" />
    <inkscape:path-effect
       effect="fillet_chamfer"
       id="path-effect7"
       is_visible="true"
       lpeversion="1"
       nodesatellites_param="F,0,0,1,0,10,0,1 @ F,0,0,1,0,10,0,1 @ F,0,0,1,0,10,0,1 @ F,0,0,1,0,10,0,1 @ F,0,0,1,0,10,0,1 @ F,0,0,1,0,10,0,1"
       radius="10"
       unit="px"
       method="auto"
       mode="F"
       chamfer_steps="1"
       flexible="false"
       use_knot_distance="true"
       apply_no_radius="true"
       apply_with_radius="true"
       only_selected="false"
       hide_knots="false" />
    <inkscape:path-effect
       effect="fillet_chamfer"
       id="path-effect6"
       is_visible="true"
       lpeversion="1"
       nodesatellites_param="F,0,0,1,0,10,0,1 @ F,0,0,1,0,10,0,1 @ F,0,0,1,0,10,0,1 @ F,0,0,1,0,10,0,1 @ F,0,0,1,0,10,0,1 @ F,0,0,1,0,10,0,1 @ F,0,0,1,0,10,0,1 @ F,0,0,1,0,10,0,1 @ F,0,0,1,0,10,0,1 @ F,0,0,1,0,10,0,1 @ F,0,0,1,0,10,0,1 @ F,0,0,1,0,10,0,1 @ F,0,0,1,0,10,0,1 @ F,0,0,1,0,10,0,1 @ F,0,0,1,0,10,0,1 @ F,0,0,1,0,10,0,1 @ F,0,0,1,0,10,0,1 @ F,0,0,1,0,10,0,1 @ F,0,0,1,0,10,0,1 @ F,0,0,1,0,10,0,1 @ F,0,0,1,0,10,0,1 @ F,0,0,1,0,10,0,1 @ F,0,0,1,0,10,0,1 @ F,0,0,1,0,10,0,1 @ F,0,0,1,0,10,0,1 @ F,0,0,1,0,10,0,1"
       radius="10"
       unit="px"
       method="auto"
       mode="F"
       chamfer_steps="1"
       flexible="false"
       use_knot_distance="true"
       apply_no_radius="true"
       apply_with_radius="true"
       only_selected="false"
       hide_knots="false" />
    <inkscape:path-effect
       effect="fillet_chamfer"
       id="path-effect2"
       is_visible="true"
       lpeversion="1"
       nodesatellites_param="F,0,0,1,0,20,0,1 @ F,0,0,1,0,20,0,1 @ F,0,0,1,0,20,0,1 @ F,0,0,1,0,20,0,1 @ F,0,0,1,0,20,0,1 @ F,0,0,1,0,20,0,1 @ F,0,0,1,0,20,0,1 @ F,0,0,1,0,20,0,1 @ F,0,0,1,0,20,0,1 @ F,0,0,1,0,20,0,1 @ F,0,0,1,0,20,0,1"
       radius="20"
       unit="px"
       method="auto"
       mode="F"
       chamfer_steps="1"
       flexible="false"
       use_knot_distance="true"
       apply_no_radius="true"
       apply_with_radius="true"
       only_selected="false"
       hide_knots="false" />
    <inkscape:path-effect
       effect="fillet_chamfer"
       id="path-effect3"
       is_visible="true"
       lpeversion="1"
       nodesatellites_param="F,0,0,1,0,64,0,1 @ F,0,0,1,0,64,0,1 @ F,0,0,1,0,64,0,1 @ F,0,0,1,0,64,0,1 @ F,0,0,1,0,64,0,1 @ F,0,0,1,0,64,0,1 @ F,0,0,1,0,64,0,1 @ F,0,0,1,0,64,0,1 @ F,0,0,1,0,64,0,1 @ F,0,0,1,0,64,0,1 @ F,0,0,1,0,64,0,1 @ F,0,0,1,0,64,0,1"
       radius="65"
       unit="px"
       method="auto"
       mode="F"
       chamfer_steps="1"
       flexible="false"
       use_knot_distance="true"
       apply_no_radius="true"
       apply_with_radius="true"
       only_selected="false"
       hide_knots="false" />
  </defs>
  <g
     inkscape:label="Layer 1"
     inkscape:groupmode="layer"
     id="layer1">
    <path
       id="path1"
       style="opacity:0.99;fill:#000000;stroke-width:30;stroke-linecap:round;stroke-linejoin:round"
       d="m 130.02035,149.88068 c -0.0192,0.63099 -0.13473,5.68434 1.06963,11.06283 3.43891,15.3578 14.68633,27.4892 29.0257,31.3709 5.31542,1.4389 14.45322,1.4389 19.76864,0 14.33938,-3.8817 25.58679,-16.01311 29.02571,-31.3709 1.20435,-5.37849 1.19446,-14.4617 -0.0204,-19.83776 C 208.75121,140.49321 204.14785,140 198.625,140 h -57.20312 c -5.52285,0 -11.23399,4.37166 -11.40153,9.88068 z"
       inkscape:path-effect="#path-effect5"
       inkscape:original-d="M 131.42188,140 A 40,42.600426 0 0 0 130,151.02344 40,42.600426 0 0 0 170,193.625 40,42.600426 0 0 0 210,151.02344 40,42.600426 0 0 0 208.625,140 Z"
       transform="translate(90.02148,76.375)" />
    <path
       id="rect1"
       style="opacity:0.99;stroke-width:30.7801;stroke-linecap:round;stroke-linejoin:round"
       d="m 253.51953,271.28711 c -3.61855,0.0589 -7.23497,0.19611 -9.98828,0.40234 -11.22649,0.8409 -22.19598,2.83506 -32.16211,6.23243 -5.22486,1.78111 -14.22313,2.87848 -18.91016,5.60156 -0.54013,0.31381 -1.06155,0.66069 -1.55859,1.03906 -4.31311,3.28337 -6.51794,12.51706 -7.85743,17.875 l -8.72265,34.89453 a 5.6619056,5.6619056 0 0 1 -9.4961,2.63086 l -7.125,-7.125 c -3.18261,-3.18261 -8.15544,-8.24477 -12.80273,-10.375 7.83621,21.04861 15.67091,42.09814 23.50781,63.14649 3.20452,2.76417 6.72646,5.25048 9.8711,5.58984 3.03165,0.32716 6.11567,-0.27566 8.80078,-1.7207 4.77214,-2.56822 7.05191,-2.78672 7.67187,2.70117 1.28444,11.36981 2.66329,21.1721 3.68946,27.94726 0.82699,5.46014 -0.27615,13.9457 -2.44336,19.02539 -1.15934,2.71735 -2.53252,6.00714 -4.03907,9.72071 16.69381,44.83829 33.39097,89.67609 50.07618,134.51758 1.42927,3.21794 1.29618,7.03625 -0.29688,10.16796 -2.08999,4.3208 -6.95695,6.98476 -11.71289,6.63672 l 60,-0.21484 a 10.035709,10.035709 0 0 0 10,-10.03516 V 577.9668 c 0,-5.52284 4.05204,-8.09101 9.14062,-5.94531 12.42901,5.24092 34.31625,13.44341 44.85547,11.18554 4.91156,-1.05222 5.98949,-11.32138 5.3711,-16.80664 C 355.27935,529.9502 332.28075,463.81026 323.46289,439.38867 321.58737,434.19432 319.98776,425.52281 320,420 c 0.0257,-11.58585 0.22496,-30.96488 1.16601,-45.66406 0.3528,-5.51072 2.76495,-5.91105 5.12109,-0.91602 l 16.46876,34.91016 c 2.35614,4.99503 5.81421,13.32137 8.90624,17.89062 0.4995,0.73813 1.02642,1.43179 1.58985,2.06836 3.54132,4.00106 13.64078,4.16219 18.19336,1.16993 1.2265,-0.80614 2.33013,-1.75266 3.24414,-2.8086 3.45677,-3.99358 1.05015,-13.56583 -0.53125,-18.85742 L 357.88476,353.3418 c -1.5814,-5.2916 -2.7656,-12.38628 -4.04297,-15.41406 l -16.11133,-38.17188 c -2.1476,-5.08818 -5.70856,-13.88728 -10.45312,-16.50977 -2.74368,-1.51651 -7.41549,-2.04067 -9.81445,-1.59179 -22.49556,-7.07629 -38.01809,-9.69047 -53.94532,-10.30078 -2.75905,-0.10573 -6.3795,-0.1253 -9.99804,-0.0664 z m -74.54688,212.74023 c -8.55538,25.40133 -16.86213,55.79449 -18.61328,82.70704 -0.35851,5.50979 0.7962,15.79325 5.71094,16.74218 10.57567,2.04194 32.47946,-6.60121 44.8789,-12.07422 0.16903,-0.0746 0.32559,-0.10194 0.49219,-0.16601 -10.82529,-29.06853 -21.64605,-58.13944 -32.46875,-87.20899 z m 45.85352,114.64649 a 9.9644185,9.9644185 0 0 0 0.57617,0.29687 c -0.19464,-0.0954 -0.38674,-0.19144 -0.57617,-0.29687 z" />
    <path
       style="opacity:0.99;fill:#000000;stroke:none;stroke-width:10;stroke-linecap:round;stroke-linejoin:round"
       d="m 142,132 h 56 a 11.804604,11.804604 139.73116 0 0 11.64399,-9.86394 l 4.71202,-28.272121 A 15.218652,15.218652 66.153869 0 0 207.59863,78.576257 L 178.40137,59.727133 a 15.489984,15.489984 0 0 0 -16.80274,0 l -29.19726,18.849124 a 15.218652,15.218652 113.84613 0 0 -6.75738,15.287682 l 4.71202,28.272121 A 11.804604,11.804604 40.268839 0 0 142,132 Z"
       id="path2"
       sodipodi:nodetypes="cccccc"
       inkscape:path-effect="#path-effect4"
       inkscape:original-d="m 132,132 h 76 L 216,84 170,54.30339 124,84 Z"
       transform="translate(90.02148,76.375)" />
    <path
       id="path8"
       style="color:#000000;fill:#000000;fill-rule:evenodd;stroke-width:1.08655;-inkscape-stroke:none"
       d="m 62.93827,253.38752 c -5.21596,1.80097 -10.18501,4.56324 -14.64508,8.3507 -17.29308,14.68524 -20.83761,41.43468 -4.83301,58.79225 13.20618,14.32255 36.97305,17.14183 52.07205,3.10429 11.99012,-11.14723 14.20319,-30.934 1.37753,-43.05507 -4.81289,-4.54847 -11.10009,-7.06494 -17.64333,-7.24264 -6.54322,-0.1777 -13.65302,2.31116 -18.44282,7.95363 -3.30123,3.8889 -4.93202,8.63167 -4.72522,13.69477 0.20678,5.06308 2.94776,10.90796 8.43107,13.97725 3.76707,2.10863 6.84832,2.34641 10.83205,1.46906 1.99188,-0.43869 4.34242,-1.34041 6.36967,-3.49242 2.02728,-2.152 3.12669,-5.62095 2.86245,-8.48336 l -16.41725,1.44947 c -0.0811,-0.87895 0.44524,-2.83745 1.43007,-3.88288 0.98481,-1.04543 1.82475,-1.24491 2.13332,-1.31287 0.55476,-0.12217 0.003,-0.31555 0.82504,0.17311 -5.9e-4,-0.0474 0.0201,-0.15964 0.004,-0.53978 -0.0323,-0.79212 0.47212,-2.21172 0.93858,-2.76121 1.34626,-1.58592 2.99441,-2.19893 5.30083,-2.13628 2.30641,0.0626 4.95973,1.12976 6.6431,2.72066 5.45137,5.15187 4.38385,14.52538 -1.27947,19.79057 -7.86544,7.31252 -21.13792,5.73193 -28.467,-2.21672 -9.43186,-10.2292 -7.23511,-26.80606 3.39827,-35.83589 13.06065,-11.09105 33.7017,-8.36064 44.82504,4.50398 1.96339,2.27073 3.62108,4.81301 4.9249,7.51665 l 112.60473,302.45869 a 8.2418553,8.0574992 0 0 0 10.56369,4.81574 8.2418553,8.0574992 0 0 0 4.92593,-10.32739 L 124.1928,280.00892 a 8.2418553,8.0574992 0 0 0 -0.29286,-0.61482 l 0.0275,-0.012 c -1.93514,-4.0893 -4.42422,-7.92343 -7.41057,-11.37724 -12.63156,-14.60895 -33.22183,-20.56811 -51.3294,-15.33058 -0.75448,0.21823 -1.50408,0.45596 -2.24922,0.71325 z m 9.62654,41.49529 c 6.4e-4,0.0514 0.0265,0.0233 0.15406,0.0948 -0.1359,-0.0761 -0.0616,-0.0399 -0.15406,-0.0948 z" />
    <g
       id="path9"
       style="opacity:0.99"
       transform="rotate(20,440,350)">
      <path
         style="color:#000000;fill:#dcdcdc;stroke-linecap:round;stroke-linejoin:round;-inkscape-stroke:none"
         d="M 440,200 V 500"
         id="path10" />
    </g>
  </g>
  <metadata
     id="metadata1">
    <rdf:RDF>
      <cc:Work
         rdf:about="">
        <dc:title>Template</dc:title>
        <dc:date>2023</dc:date>
        <dc:creator>
          <cc:Agent>
            <dc:title>Doug Palmer</dc:title>
          </cc:Agent>
        </dc:creator>
        <dc:subject>
          <rdf:Bag>
            <rdf:li>icon map symbol</rdf:li>
          </rdf:Bag>
        </dc:subject>
        <cc:license
           rdf:resource="http://creativecommons.org/licenses/by/4.0/" />
      </cc:Work>
      <cc:License
         rdf:about="http://creativecommons.org/licenses/by/4.0/">
        <cc:permits
           rdf:resource="http://creativecommons.org/ns#Reproduction" />
        <cc:permits
           rdf:resource="http://creativecommons.org/ns#Distribution" />
        <cc:requires
           rdf:resource="http://creativecommons.org/ns#Notice" />
        <cc:requires
           rdf:resource="http://creativecommons.org/ns#Attribution" />
        <cc:permits
           rdf:resource="http://creativecommons.org/ns#DerivativeWorks" />
      </cc:License>
    </rdf:RDF>
  </metadata>
</svg>
