<?xml version="1.0" encoding="UTF-8" standalone="no"?>
<!-- Created with Inkscape (http://www.inkscape.org/) -->

<svg
   width="600"
   height="750"
   viewBox="0 0 600 750"
   version="1.1"
   id="svg1"
   inkscape:version="1.3 (0e150ed, 2023-07-21)"
   sodipodi:docname="building-1.svg"
   xmlns:inkscape="http://www.inkscape.org/namespaces/inkscape"
   xmlns:sodipodi="http://sodipodi.sourceforge.net/DTD/sodipodi-0.dtd"
   xmlns="http://www.w3.org/2000/svg"
   xmlns:svg="http://www.w3.org/2000/svg"
   xmlns:rdf="http://www.w3.org/1999/02/22-rdf-syntax-ns#"
   xmlns:cc="http://creativecommons.org/ns#"
   xmlns:dc="http://purl.org/dc/elements/1.1/">
  <title
     id="title2">Template</title>
  <sodipodi:namedview
     id="namedview1"
     pagecolor="#ffffff"
     bordercolor="#000000"
     borderopacity="0.25"
     inkscape:showpageshadow="2"
     inkscape:pageopacity="0.0"
     inkscape:pagecheckerboard="false"
     inkscape:deskcolor="#d1d1d1"
     inkscape:document-units="px"
     showgrid="true"
     showguides="true"
     inkscape:zoom="0.84096521"
     inkscape:cx="263.98238"
     inkscape:cy="398.94635"
     inkscape:window-width="1528"
     inkscape:window-height="996"
     inkscape:window-x="1099"
     inkscape:window-y="25"
     inkscape:window-maximized="0"
     inkscape:current-layer="layer1"
     inkscape:lockguides="true">
    <inkscape:grid
       id="grid2"
       units="px"
       originx="0"
       originy="0"
       spacingx="4"
       spacingy="4"
       empcolor="#0099e5"
       empopacity="0.30196078"
       color="#0099e5"
       opacity="0.14901961"
       empspacing="5"
       dotted="false"
       gridanglex="30"
       gridanglez="30"
       visible="true" />
    <sodipodi:guide
       position="0,730"
       orientation="0,1"
       id="guide3"
       inkscape:locked="true"
       inkscape:label=""
       inkscape:color="rgb(0,134,229)" />
    <sodipodi:guide
       position="-40,-230"
       orientation="0,1"
       id="guide4"
       inkscape:locked="true"
       inkscape:label=""
       inkscape:color="rgb(0,134,229)" />
    <sodipodi:guide
       position="20,750"
       orientation="-1,0"
       id="guide5"
       inkscape:locked="true"
       inkscape:label=""
       inkscape:color="rgb(0,134,229)" />
    <sodipodi:guide
       position="580,750"
       orientation="-1,0"
       id="guide6"
       inkscape:locked="true"
       inkscape:label=""
       inkscape:color="rgb(0,134,229)" />
    <sodipodi:guide
       position="300,750"
       orientation="-1,0"
       id="guide7"
       inkscape:locked="true"
       inkscape:label=""
       inkscape:color="rgb(0,134,229)" />
    <sodipodi:guide
       position="300,550"
       orientation="0,1"
       id="guide8"
       inkscape:locked="true"
       inkscape:label=""
       inkscape:color="rgb(0,134,229)" />
    <sodipodi:guide
       position="0,450"
       orientation="0,1"
       id="guide9"
       inkscape:locked="true"
       inkscape:label=""
       inkscape:color="rgb(0,134,229)" />
    <sodipodi:guide
       position="0,-70"
       orientation="0,1"
       id="guide10"
       inkscape:locked="true"
       inkscape:label=""
       inkscape:color="rgb(0,134,229)" />
    <sodipodi:guide
       position="0,150"
       orientation="0,1"
       id="guide1"
       inkscape:locked="true"
       inkscape:label=""
       inkscape:color="rgb(0,134,229)" />
    <sodipodi:guide
       position="300,350"
       orientation="0,1"
       id="guide2"
       inkscape:label=""
       inkscape:locked="true"
       inkscape:color="rgb(0,134,229)" />
  </sodipodi:namedview>
  <defs
     id="defs1">
    <inkscape:path-effect
       effect="fillet_chamfer"
       id="path-effect2"
       is_visible="true"
       lpeversion="1"
       nodesatellites_param="F,0,0,1,0,20,0,1 @ F,0,0,1,0,20,0,1 @ F,0,0,1,0,20,0,1 @ F,0,0,1,0,20,0,1 @ F,0,0,1,0,20,0,1 @ F,0,0,1,0,20,0,1 @ F,0,0,1,0,20,0,1 @ F,0,0,1,0,20,0,1 @ F,0,0,1,0,20,0,1 @ F,0,0,1,0,20,0,1 @ F,0,0,1,0,20,0,1"
       radius="20"
       unit="px"
       method="auto"
       mode="F"
       chamfer_steps="1"
       flexible="false"
       use_knot_distance="true"
       apply_no_radius="true"
       apply_with_radius="true"
       only_selected="false"
       hide_knots="false" />
    <inkscape:path-effect
       effect="fillet_chamfer"
       id="path-effect3"
       is_visible="true"
       lpeversion="1"
       nodesatellites_param="F,0,0,1,0,64,0,1 @ F,0,0,1,0,64,0,1 @ F,0,0,1,0,64,0,1 @ F,0,0,1,0,64,0,1 @ F,0,0,1,0,64,0,1 @ F,0,0,1,0,64,0,1 @ F,0,0,1,0,64,0,1 @ F,0,0,1,0,64,0,1 @ F,0,0,1,0,64,0,1 @ F,0,0,1,0,64,0,1 @ F,0,0,1,0,64,0,1 @ F,0,0,1,0,64,0,1"
       radius="65"
       unit="px"
       method="auto"
       mode="F"
       chamfer_steps="1"
       flexible="false"
       use_knot_distance="true"
       apply_no_radius="true"
       apply_with_radius="true"
       only_selected="false"
       hide_knots="false" />
  </defs>
  <g
     inkscape:label="Layer 1"
     inkscape:groupmode="layer"
     id="layer1">
    <path
       id="rect1"
       style="fill:#000000;stroke-width:26.6718;stroke-linejoin:round"
       d="M 64.347826,40 A 24.347826,24.347826 0 0 0 40,64.347825 V 575.65217 A 24.347826,24.347826 0 0 0 64.347826,600 H 307.82609 a 24.347826,24.347826 0 0 0 24.34782,-24.34783 V 64.347825 A 24.347826,24.347826 0 0 0 307.82609,40 Z m 40.899114,60.86957 h 48.69565 a 12.173913,12.173913 0 0 1 12.17392,12.17391 v 48.69565 a 12.173913,12.173913 0 0 1 -12.17392,12.17391 H 105.24694 A 12.173913,12.173913 0 0 1 93.073027,161.73913 v -48.69565 a 12.173913,12.173913 0 0 1 12.173913,-12.17391 z m 111.2748,0 h 48.69565 a 12.173913,12.173913 0 0 1 12.17392,12.17391 v 48.69565 a 12.173913,12.173913 0 0 1 -12.17392,12.17391 h -48.69565 a 12.173913,12.173913 0 0 1 -12.17392,-12.17391 v -48.69565 a 12.173913,12.173913 0 0 1 12.17392,-12.17391 z m -109.56522,97.3913 h 48.69565 a 12.173913,12.173913 0 0 1 12.17392,12.17392 v 48.69565 a 12.173913,12.173913 0 0 1 -12.17392,12.1739 h -48.69565 a 12.173913,12.173913 0 0 1 -12.173911,-12.1739 v -48.69565 a 12.173913,12.173913 0 0 1 12.173911,-12.17392 z m 111.2748,0 h 48.69565 a 12.173913,12.173913 0 0 1 12.17392,12.17392 v 48.69565 a 12.173913,12.173913 0 0 1 -12.17392,12.1739 h -48.69565 a 12.173913,12.173913 0 0 1 -12.17391,-12.1739 v -48.69565 a 12.173913,12.173913 0 0 1 12.17391,-12.17392 z m -111.2748,97.3913 h 48.69565 a 12.173913,12.173913 0 0 1 12.17392,12.17392 v 48.69565 a 12.173913,12.173913 0 0 1 -12.17392,12.17392 H 106.95652 A 12.173913,12.173913 0 0 1 94.782609,356.52174 v -48.69565 a 12.173913,12.173913 0 0 1 12.173911,-12.17392 z m 111.2748,0 h 48.69565 a 12.173913,12.173913 0 0 1 12.17392,12.17392 v 48.69565 a 12.173913,12.173913 0 0 1 -12.17392,12.17392 h -48.69565 a 12.173913,12.173913 0 0 1 -12.17391,-12.17392 v -48.69565 a 12.173913,12.173913 0 0 1 12.17391,-12.17392 z m -111.2748,97.39131 h 48.69565 a 12.173913,12.173913 0 0 1 12.17392,12.17391 v 48.69565 a 12.173913,12.173913 0 0 1 -12.17392,12.17392 H 106.95652 A 12.173913,12.173913 0 0 1 94.782609,453.91304 v -48.69565 a 12.173913,12.173913 0 0 1 12.173911,-12.17391 z m 111.2748,0 h 48.69565 a 12.173913,12.173913 0 0 1 12.17392,12.17391 v 48.69565 a 12.173913,12.173913 0 0 1 -12.17392,12.17392 h -48.69565 a 12.173913,12.173913 0 0 1 -12.17391,-12.17392 v -48.69565 a 12.173913,12.173913 0 0 1 12.17391,-12.17391 z" />
  </g>
  <metadata
     id="metadata1">
    <rdf:RDF>
      <cc:Work
         rdf:about="">
        <dc:title>Template</dc:title>
        <dc:date>2023</dc:date>
        <dc:creator>
          <cc:Agent>
            <dc:title>Doug Palmer</dc:title>
          </cc:Agent>
        </dc:creator>
        <dc:subject>
          <rdf:Bag>
            <rdf:li>icon map symbol</rdf:li>
          </rdf:Bag>
        </dc:subject>
        <cc:license
           rdf:resource="http://creativecommons.org/licenses/by/4.0/" />
      </cc:Work>
      <cc:License
         rdf:about="http://creativecommons.org/licenses/by/4.0/">
        <cc:permits
           rdf:resource="http://creativecommons.org/ns#Reproduction" />
        <cc:permits
           rdf:resource="http://creativecommons.org/ns#Distribution" />
        <cc:requires
           rdf:resource="http://creativecommons.org/ns#Notice" />
        <cc:requires
           rdf:resource="http://creativecommons.org/ns#Attribution" />
        <cc:permits
           rdf:resource="http://creativecommons.org/ns#DerivativeWorks" />
      </cc:License>
    </rdf:RDF>
  </metadata>
</svg>
