<?xml version="1.0" encoding="UTF-8" standalone="no"?>
<!-- Created with Inkscape (http://www.inkscape.org/) -->

<svg
   width="600"
   height="750"
   viewBox="0 0 600 750"
   version="1.1"
   id="svg1"
   inkscape:version="1.3 (0e150ed, 2023-07-21)"
   sodipodi:docname="cathedral.svg"
   xml:space="preserve"
   xmlns:inkscape="http://www.inkscape.org/namespaces/inkscape"
   xmlns:sodipodi="http://sodipodi.sourceforge.net/DTD/sodipodi-0.dtd"
   xmlns="http://www.w3.org/2000/svg"
   xmlns:svg="http://www.w3.org/2000/svg"
   xmlns:rdf="http://www.w3.org/1999/02/22-rdf-syntax-ns#"
   xmlns:cc="http://creativecommons.org/ns#"
   xmlns:dc="http://purl.org/dc/elements/1.1/"><title
     id="title2">Template</title><sodipodi:namedview
     id="namedview1"
     pagecolor="#ffffff"
     bordercolor="#000000"
     borderopacity="0.25"
     inkscape:showpageshadow="2"
     inkscape:pageopacity="0.0"
     inkscape:pagecheckerboard="false"
     inkscape:deskcolor="#d1d1d1"
     inkscape:document-units="px"
     showgrid="true"
     showguides="true"
     inkscape:zoom="2.3786088"
     inkscape:cx="196.12304"
     inkscape:cy="158.2858"
     inkscape:window-width="1528"
     inkscape:window-height="996"
     inkscape:window-x="1480"
     inkscape:window-y="25"
     inkscape:window-maximized="0"
     inkscape:current-layer="layer1"
     inkscape:lockguides="true"><inkscape:grid
       id="grid2"
       units="px"
       originx="0"
       originy="0"
       spacingx="4"
       spacingy="4"
       empcolor="#0099e5"
       empopacity="0.30196078"
       color="#0099e5"
       opacity="0.14901961"
       empspacing="5"
       dotted="false"
       gridanglex="30"
       gridanglez="30"
       visible="true" /><sodipodi:guide
       position="0,730"
       orientation="0,1"
       id="guide3"
       inkscape:locked="true"
       inkscape:label=""
       inkscape:color="rgb(0,134,229)" /><sodipodi:guide
       position="-40,-230"
       orientation="0,1"
       id="guide4"
       inkscape:locked="true"
       inkscape:label=""
       inkscape:color="rgb(0,134,229)" /><sodipodi:guide
       position="20,750"
       orientation="-1,0"
       id="guide5"
       inkscape:locked="true"
       inkscape:label=""
       inkscape:color="rgb(0,134,229)" /><sodipodi:guide
       position="580,750"
       orientation="-1,0"
       id="guide6"
       inkscape:locked="true"
       inkscape:label=""
       inkscape:color="rgb(0,134,229)" /><sodipodi:guide
       position="300,750"
       orientation="-1,0"
       id="guide7"
       inkscape:locked="true"
       inkscape:label=""
       inkscape:color="rgb(0,134,229)" /><sodipodi:guide
       position="300,550"
       orientation="0,1"
       id="guide8"
       inkscape:locked="true"
       inkscape:label=""
       inkscape:color="rgb(0,134,229)" /><sodipodi:guide
       position="0,450"
       orientation="0,1"
       id="guide9"
       inkscape:locked="true"
       inkscape:label=""
       inkscape:color="rgb(0,134,229)" /><sodipodi:guide
       position="0,-70"
       orientation="0,1"
       id="guide10"
       inkscape:locked="true"
       inkscape:label=""
       inkscape:color="rgb(0,134,229)" /><sodipodi:guide
       position="0,150"
       orientation="0,1"
       id="guide1"
       inkscape:locked="true"
       inkscape:label=""
       inkscape:color="rgb(0,134,229)" /><sodipodi:guide
       position="300,350"
       orientation="0,1"
       id="guide2"
       inkscape:label=""
       inkscape:locked="true"
       inkscape:color="rgb(0,134,229)" /></sodipodi:namedview><defs
     id="defs1"><inkscape:path-effect
       effect="fillet_chamfer"
       id="path-effect8"
       is_visible="true"
       lpeversion="1"
       nodesatellites_param="F,0,0,1,0,10,0,1 @ F,0,0,1,0,10,0,1 @ F,0,0,1,0,10,0,1 @ F,0,0,1,0,10,0,1 @ F,0,0,1,0,10,0,1 @ F,0,0,1,0,10,0,1 @ F,0,0,1,0,10,0,1 @ F,0,0,1,0,10,0,1 @ F,0,0,1,0,10,0,1 @ F,0,0,1,0,10,0,1 @ F,0,0,1,0,10,0,1 @ F,0,0,1,0,10,0,1 @ F,0,0,1,0,10,0,1 @ F,0,0,1,0,10,0,1 @ F,0,0,1,0,10,0,1 @ F,0,0,1,0,10,0,1 @ F,0,0,1,0,10,0,1 @ F,0,0,1,0,10,0,1 @ F,0,0,1,0,10,0,1 @ F,0,0,1,0,10,0,1 @ F,0,0,1,0,10,0,1 @ F,0,0,1,0,10,0,1 @ F,0,0,1,0,10,0,1 @ F,0,0,1,0,10,0,1 @ F,0,0,1,0,10,0,1 @ F,0,0,1,0,10,0,1 @ F,0,0,1,0,10,0,1 @ F,0,0,1,0,10,0,1 @ F,0,0,1,0,10,0,1 @ F,0,0,1,0,10,0,1 @ F,0,0,1,0,10,0,1 @ F,0,0,1,0,10,0,1 @ F,0,0,1,0,10,0,1 @ F,0,0,1,0,10,0,1 @ F,0,0,1,0,10,0,1 @ F,0,0,1,0,10,0,1 @ F,0,0,1,0,10,0,1 @ F,0,0,1,0,10,0,1 @ F,0,0,1,0,10,0,1 @ F,0,0,1,0,10,0,1 @ F,0,0,1,0,10,0,1 @ F,0,0,1,0,10,0,1 @ F,0,0,1,0,10,0,1 @ F,0,0,1,0,10,0,1 @ F,0,0,1,0,10,0,1 @ F,0,0,1,0,10,0,1 @ F,0,0,1,0,10,0,1 @ F,0,0,1,0,10,0,1 @ F,0,0,1,0,10,0,1 @ F,0,0,1,0,10,0,1 @ F,0,0,1,0,10,0,1 @ F,0,0,1,0,10,0,1 @ F,0,0,1,0,10,0,1 @ F,0,0,1,0,10,0,1 | F,0,0,1,0,10,0,1 @ F,0,0,1,0,10,0,1 @ F,0,0,1,0,10,0,1 @ F,0,0,1,0,10,0,1 @ F,0,0,1,0,10,0,1 @ F,0,0,1,0,10,0,1 @ F,0,0,1,0,10,0,1"
       radius="10"
       unit="px"
       method="auto"
       mode="F"
       chamfer_steps="1"
       flexible="false"
       use_knot_distance="true"
       apply_no_radius="true"
       apply_with_radius="true"
       only_selected="false"
       hide_knots="false" /><inkscape:path-effect
       effect="fillet_chamfer"
       id="path-effect6"
       is_visible="true"
       lpeversion="1"
       nodesatellites_param="F,0,0,1,0,10,0,1 @ F,0,0,1,0,10,0,1 @ F,0,0,1,0,10,0,1 @ F,0,0,1,0,10,0,1 @ F,0,0,1,0,10,0,1 @ F,0,0,1,0,10,0,1 @ F,0,0,1,0,10,0,1 @ F,0,0,1,0,10,0,1 @ F,0,0,1,0,10,0,1 @ F,0,0,1,0,10,0,1 @ F,0,0,1,0,10,0,1 @ F,0,0,1,0,10,0,1 @ F,0,0,1,0,10,0,1 @ F,0,0,1,0,10,0,1 @ F,0,0,1,0,10,0,1 @ F,0,0,1,0,10,0,1 @ F,0,0,1,0,10,0,1 @ F,0,0,1,0,10,0,1 @ F,0,0,1,0,10,0,1 @ F,0,0,1,0,10,0,1"
       radius="10"
       unit="px"
       method="auto"
       mode="F"
       chamfer_steps="1"
       flexible="false"
       use_knot_distance="true"
       apply_no_radius="true"
       apply_with_radius="true"
       only_selected="false"
       hide_knots="false" /><inkscape:path-effect
       effect="fillet_chamfer"
       id="path-effect5"
       is_visible="true"
       lpeversion="1"
       nodesatellites_param="F,0,0,1,0,10,0,1 @ F,0,0,1,0,10,0,1 @ F,0,0,1,0,10,0,1 @ F,0,0,1,0,10,0,1 @ F,0,0,1,0,10,0,1"
       radius="10"
       unit="px"
       method="auto"
       mode="F"
       chamfer_steps="1"
       flexible="false"
       use_knot_distance="true"
       apply_no_radius="true"
       apply_with_radius="true"
       only_selected="false"
       hide_knots="false" /><inkscape:path-effect
       effect="fillet_chamfer"
       id="path-effect4"
       is_visible="true"
       lpeversion="1"
       nodesatellites_param="F,0,0,1,0,10,0,1 @ F,0,0,1,0,10,0,1 @ F,0,0,1,0,10,0,1 @ F,0,0,1,0,0,0,1 @ F,0,0,1,0,20,0,1 @ F,0,0,1,0,10,0,1 @ F,0,0,1,0,10,0,1 @ F,0,0,1,0,10,0,1 @ F,0,0,1,0,20,0,1 @ F,0,0,1,0,10,0,1 @ F,0,0,1,0,10,0,1 @ F,0,0,1,0,10,0,1 @ F,0,0,1,0,10,0,1 @ F,0,0,1,0,10,0,1 @ F,0,0,1,0,10,0,1 @ F,0,0,1,0,10,0,1 @ F,0,0,1,0,10,0,1 @ F,0,0,1,0,10,0,1 | F,0,0,1,0,10,0,1 @ F,0,0,1,0,10,0,1 @ F,0,0,1,0,10,0,1 @ F,0,0,1,0,10,0,1 @ F,0,0,1,0,10,0,1 | F,0,0,1,0,10,0,1 @ F,0,0,1,0,10,0,1 @ F,0,0,1,0,10,0,1 @ F,0,0,1,0,10,0,1 @ F,0,0,1,0,10,0,1"
       radius="10"
       unit="px"
       method="auto"
       mode="F"
       chamfer_steps="1"
       flexible="false"
       use_knot_distance="true"
       apply_no_radius="true"
       apply_with_radius="true"
       only_selected="false"
       hide_knots="false" /><inkscape:path-effect
       effect="fillet_chamfer"
       id="path-effect2"
       is_visible="true"
       lpeversion="1"
       nodesatellites_param="F,0,0,1,0,20,0,1 @ F,0,0,1,0,20,0,1 @ F,0,0,1,0,20,0,1 @ F,0,0,1,0,20,0,1 @ F,0,0,1,0,20,0,1 @ F,0,0,1,0,20,0,1 @ F,0,0,1,0,20,0,1 @ F,0,0,1,0,20,0,1 @ F,0,0,1,0,20,0,1 @ F,0,0,1,0,20,0,1 @ F,0,0,1,0,20,0,1"
       radius="20"
       unit="px"
       method="auto"
       mode="F"
       chamfer_steps="1"
       flexible="false"
       use_knot_distance="true"
       apply_no_radius="true"
       apply_with_radius="true"
       only_selected="false"
       hide_knots="false" /><inkscape:path-effect
       effect="fillet_chamfer"
       id="path-effect3"
       is_visible="true"
       lpeversion="1"
       nodesatellites_param="F,0,0,1,0,64,0,1 @ F,0,0,1,0,64,0,1 @ F,0,0,1,0,64,0,1 @ F,0,0,1,0,64,0,1 @ F,0,0,1,0,64,0,1 @ F,0,0,1,0,64,0,1 @ F,0,0,1,0,64,0,1 @ F,0,0,1,0,64,0,1 @ F,0,0,1,0,64,0,1 @ F,0,0,1,0,64,0,1 @ F,0,0,1,0,64,0,1 @ F,0,0,1,0,64,0,1"
       radius="65"
       unit="px"
       method="auto"
       mode="F"
       chamfer_steps="1"
       flexible="false"
       use_knot_distance="true"
       apply_no_radius="true"
       apply_with_radius="true"
       only_selected="false"
       hide_knots="false" /><inkscape:path-effect
       effect="fillet_chamfer"
       id="path-effect5-2"
       is_visible="true"
       lpeversion="1"
       nodesatellites_param="F,0,0,1,0,10,0,1 @ F,0,0,1,0,10,0,1 @ F,0,0,1,0,10,0,1 @ F,0,0,1,0,10,0,1 @ F,0,0,1,0,10,0,1"
       radius="10"
       unit="px"
       method="auto"
       mode="F"
       chamfer_steps="1"
       flexible="false"
       use_knot_distance="true"
       apply_no_radius="true"
       apply_with_radius="true"
       only_selected="false"
       hide_knots="false" /></defs><g
     inkscape:label="Layer 1"
     inkscape:groupmode="layer"
     id="layer1"><path
       id="path2"
       style="opacity:0.99;fill:#000000;stroke:none;stroke-width:10;stroke-linecap:square;stroke-linejoin:round;stroke-opacity:1"
       d="m 368.19531,70.6875 c -1.16042,0.449081 -2.11171,1.314707 -2.66797,2.427734 L 354.47266,95.228516 C 351.53161,101.11021 350.0003,107.59586 350,114.17188 v 40 c 0,6.40252 -2.54324,12.54284 -7.07031,17.07031 l -5.85938,5.85937 C 332.54324,181.62903 330,187.76936 330,194.17188 v 40 60 c 0,6.62316 -1.06774,13.20302 -3.16211,19.48632 C 300,320 340,320 310,314.17188 c -6.28502,-1.221 -2.54324,-12.54285 -7.07031,-17.07032 l -5.85938,-5.85937 C 292.54324,286.71472 290,280.5744 290,274.17188 v -20 c 0,-6.40252 -2.54324,-12.54285 -7.07031,-17.07032 l -5.85938,-5.85937 C 272.54324,226.71472 270,220.5744 270,214.17188 v -20 c 8e-5,-6.57768 -1.52064,-13.06632 -4.44336,-18.95899 l -1.0332,-2.08203 c -1.83079,-3.69021 -7.08843,-3.70744 -8.94336,-0.0293 L 254.5,175.24219 c -2.95895,5.87144 -4.50019,12.3548 -4.5,18.92969 v 20 c 0,6.40252 -2.54324,12.54284 -7.07031,17.07031 l -5.85938,5.85937 C 232.54324,241.62903 230,247.76936 230,254.17188 v 20 c 0,6.40252 -2.54324,12.54284 -7.07031,17.07031 l -5.85938,5.85937 C 212.54324,301.62903 216.28502,312.95088 210,314.17188 180,320 220,320 193.16211,313.6582 191.06774,307.3749 190,300.79504 190,294.17188 v -40 -60 c 0,-6.40252 -2.54324,-12.54285 -7.07031,-17.07032 l -5.85938,-5.85937 C 172.54324,166.71472 170,160.5744 170,154.17188 v -40 c -3e-4,-6.57602 -1.53161,-13.06167 -4.47266,-18.943364 L 154.47266,73.115234 c -1.15363,-2.305474 -3.87103,-3.355896 -6.27539,-2.425781 -1.16082,0.448193 -2.11281,1.313127 -2.66993,2.425781 L 134.47266,95.228516 C 131.53161,101.11021 130.0003,107.59586 130,114.17188 v 40 c 0,6.40252 -2.54324,12.54284 -7.07031,17.07031 l -5.85938,5.85937 C 112.54324,181.62903 110,187.76936 110,194.17188 v 40 c 0,6.40252 -2.54324,12.54284 -7.07031,17.07031 l -5.859378,5.85937 C 92.543244,261.62903 89.999998,267.76936 90,274.17188 v 80 c -10e-7,6.40252 -2.543246,12.54284 -7.070312,17.07031 l -5.859376,5.85937 C 72.543244,381.62903 69.999998,387.76936 70,394.17188 v 20 c -10e-7,6.40252 -2.543246,12.54284 -7.070312,17.07031 l -5.859376,5.85937 C 52.543244,441.62903 49.999998,447.76936 50,454.17188 v 140 c 3.35e-4,5.4902 4.510887,5.93718 10,5.82812 140,0 44,0 160,0 l -5e-5,-70 c 0,-5.52281 2.91133,-13.4044 6.67969,-17.44141 1.79018,-1.91776 3.791,-3.99727 5.80664,-5.97265 3.94077,-3.8621 11.049,-9.43014 16.02148,-11.81641 0.58457,-0.28053 1.17372,-0.54511 1.76953,-0.79101 5.07196,-2.0933 14.37427,-2.07614 19.43164,0.0488 0.58814,0.24712 1.17025,0.51285 1.74805,0.79297 4.96457,2.40684 12.17341,7.82083 16.25391,11.53711 1.8151,1.6531 3.61739,3.37401 5.26172,4.98047 3.95003,3.85907 7.02739,11.59049 7.02739,17.1133 v 71.06171 c 0,0 96,0.48712 160,0.48712 5.48911,0.10906 9.99962,-0.33792 9.99995,-5.82812 v -140 c 0,-6.40252 -2.54324,-12.54285 -7.07031,-17.07032 l -5.85938,-5.85937 C 452.54324,426.71472 450,420.5744 450,414.17188 v -20 c 0,-6.40252 -2.54324,-12.54285 -7.07031,-17.07032 l -5.85938,-5.85937 C 432.54324,366.71472 430,360.5744 430,354.17188 v -80 c 0,-6.40252 -2.54324,-12.54285 -7.07031,-17.07032 l -5.85938,-5.85937 C 412.54324,246.71472 410,240.5744 410,234.17188 v -40 c 0,-6.40252 -2.54324,-12.54285 -7.07031,-17.07032 l -5.85938,-5.85937 C 392.54324,166.71472 390,160.5744 390,154.17188 v -40 c -3e-4,-6.57602 -1.53161,-13.06167 -4.47266,-18.943364 L 374.47266,73.115234 c -1.15305,-2.307233 -3.87193,-3.358747 -6.27735,-2.427734 z m -232.84961,125.11523 3.04297,4.04883 3.04297,7.40821 V 240 h -12.16992 v -32.11914 l 3.04297,-8.0293 z m 25.52344,0 3.04297,4.04883 3.04297,7.40821 V 240 h -12.16992 v -32.11914 l 3.04296,-8.0293 z m 198.33789,0 3.04102,4.04883 3.04297,7.40821 V 240 h -12.16993 v -32.11914 l 3.04297,-8.0293 z m 26.70703,0 3.04102,4.04883 3.04297,7.40821 V 240 h -12.16993 v -32.11914 l 3.04297,-8.0293 z M 260.66797,373.41992 c 3.16884,0.14126 6.45499,0.80305 8.88086,2.06446 3.77843,1.96471 10.1477,6.75919 14.17578,10.53124 0.46922,0.43941 0.93383,0.88076 1.38867,1.31641 3.98795,3.81971 7.05664,11.55922 7.05664,17.08203 V 450 c 0,5.52285 -4.47715,10 -10,10 h -44.33984 c -5.52285,0 -10,-4.47715 -10,-10 v -44.3418 c 0,-5.52281 2.90376,-13.41182 6.71484,-17.4082 0.6293,-0.65988 1.27979,-1.33084 1.93946,-1.99805 3.87888,-3.92312 10.92134,-9.65106 16.00585,-11.77539 1.95692,-0.81759 5.0089,-1.19789 8.17774,-1.05664 z"
       sodipodi:nodetypes="scccsccscscsccssccsccccccsccssccscscsccscccccccsccssccssccssccscccsssssssssscccsccssccssccssccscccsccccccccccccccccccccccccccccccccssssssssssssss" /></g><metadata
     id="metadata1"><rdf:RDF><cc:Work
         rdf:about=""><dc:title>Template</dc:title><dc:date>2023</dc:date><dc:creator><cc:Agent><dc:title>Doug Palmer</dc:title></cc:Agent></dc:creator><dc:subject><rdf:Bag><rdf:li>icon map symbol</rdf:li></rdf:Bag></dc:subject><cc:license
           rdf:resource="http://creativecommons.org/licenses/by/4.0/" /></cc:Work><cc:License
         rdf:about="http://creativecommons.org/licenses/by/4.0/"><cc:permits
           rdf:resource="http://creativecommons.org/ns#Reproduction" /><cc:permits
           rdf:resource="http://creativecommons.org/ns#Distribution" /><cc:requires
           rdf:resource="http://creativecommons.org/ns#Notice" /><cc:requires
           rdf:resource="http://creativecommons.org/ns#Attribution" /><cc:permits
           rdf:resource="http://creativecommons.org/ns#DerivativeWorks" /></cc:License></rdf:RDF></metadata></svg>
