<?xml version="1.0" encoding="UTF-8" standalone="no"?>
<!-- Created with Inkscape (http://www.inkscape.org/) -->

<svg
   width="600"
   height="750"
   viewBox="0 0 600 750"
   version="1.1"
   id="svg1"
   inkscape:version="1.3 (0e150ed, 2023-07-21)"
   sodipodi:docname="city.svg"
   xmlns:inkscape="http://www.inkscape.org/namespaces/inkscape"
   xmlns:sodipodi="http://sodipodi.sourceforge.net/DTD/sodipodi-0.dtd"
   xmlns="http://www.w3.org/2000/svg"
   xmlns:svg="http://www.w3.org/2000/svg"
   xmlns:rdf="http://www.w3.org/1999/02/22-rdf-syntax-ns#"
   xmlns:cc="http://creativecommons.org/ns#"
   xmlns:dc="http://purl.org/dc/elements/1.1/">
  <title
     id="title2">Template</title>
  <sodipodi:namedview
     id="namedview1"
     pagecolor="#ffffff"
     bordercolor="#000000"
     borderopacity="0.25"
     inkscape:showpageshadow="2"
     inkscape:pageopacity="0.0"
     inkscape:pagecheckerboard="false"
     inkscape:deskcolor="#d1d1d1"
     inkscape:document-units="px"
     showgrid="true"
     showguides="true"
     inkscape:zoom="0.84096521"
     inkscape:cx="507.7499"
     inkscape:cy="398.94635"
     inkscape:window-width="1528"
     inkscape:window-height="996"
     inkscape:window-x="1007"
     inkscape:window-y="47"
     inkscape:window-maximized="0"
     inkscape:current-layer="layer1"
     inkscape:lockguides="true">
    <inkscape:grid
       id="grid2"
       units="px"
       originx="0"
       originy="0"
       spacingx="4"
       spacingy="4"
       empcolor="#0099e5"
       empopacity="0.30196078"
       color="#0099e5"
       opacity="0.14901961"
       empspacing="5"
       dotted="false"
       gridanglex="30"
       gridanglez="30"
       visible="true" />
    <sodipodi:guide
       position="0,730"
       orientation="0,1"
       id="guide3"
       inkscape:locked="true"
       inkscape:label=""
       inkscape:color="rgb(0,134,229)" />
    <sodipodi:guide
       position="-40,-230"
       orientation="0,1"
       id="guide4"
       inkscape:locked="true"
       inkscape:label=""
       inkscape:color="rgb(0,134,229)" />
    <sodipodi:guide
       position="20,750"
       orientation="-1,0"
       id="guide5"
       inkscape:locked="true"
       inkscape:label=""
       inkscape:color="rgb(0,134,229)" />
    <sodipodi:guide
       position="580,750"
       orientation="-1,0"
       id="guide6"
       inkscape:locked="true"
       inkscape:label=""
       inkscape:color="rgb(0,134,229)" />
    <sodipodi:guide
       position="300,750"
       orientation="-1,0"
       id="guide7"
       inkscape:locked="true"
       inkscape:label=""
       inkscape:color="rgb(0,134,229)" />
    <sodipodi:guide
       position="300,550"
       orientation="0,1"
       id="guide8"
       inkscape:locked="true"
       inkscape:label=""
       inkscape:color="rgb(0,134,229)" />
    <sodipodi:guide
       position="0,450"
       orientation="0,1"
       id="guide9"
       inkscape:locked="true"
       inkscape:label=""
       inkscape:color="rgb(0,134,229)" />
    <sodipodi:guide
       position="0,-70"
       orientation="0,1"
       id="guide10"
       inkscape:locked="true"
       inkscape:label=""
       inkscape:color="rgb(0,134,229)" />
    <sodipodi:guide
       position="0,150"
       orientation="0,1"
       id="guide1"
       inkscape:locked="true"
       inkscape:label=""
       inkscape:color="rgb(0,134,229)" />
    <sodipodi:guide
       position="300,350"
       orientation="0,1"
       id="guide2"
       inkscape:label=""
       inkscape:locked="true"
       inkscape:color="rgb(0,134,229)" />
  </sodipodi:namedview>
  <defs
     id="defs1">
    <inkscape:path-effect
       effect="fillet_chamfer"
       id="path-effect2"
       is_visible="true"
       lpeversion="1"
       nodesatellites_param="F,0,0,1,0,20,0,1 @ F,0,0,1,0,20,0,1 @ F,0,0,1,0,20,0,1 @ F,0,0,1,0,20,0,1 @ F,0,0,1,0,20,0,1 @ F,0,0,1,0,20,0,1 @ F,0,0,1,0,20,0,1 @ F,0,0,1,0,20,0,1 @ F,0,0,1,0,20,0,1 @ F,0,0,1,0,20,0,1 @ F,0,0,1,0,20,0,1"
       radius="20"
       unit="px"
       method="auto"
       mode="F"
       chamfer_steps="1"
       flexible="false"
       use_knot_distance="true"
       apply_no_radius="true"
       apply_with_radius="true"
       only_selected="false"
       hide_knots="false" />
    <inkscape:path-effect
       effect="fillet_chamfer"
       id="path-effect3"
       is_visible="true"
       lpeversion="1"
       nodesatellites_param="F,0,0,1,0,64,0,1 @ F,0,0,1,0,64,0,1 @ F,0,0,1,0,64,0,1 @ F,0,0,1,0,64,0,1 @ F,0,0,1,0,64,0,1 @ F,0,0,1,0,64,0,1 @ F,0,0,1,0,64,0,1 @ F,0,0,1,0,64,0,1 @ F,0,0,1,0,64,0,1 @ F,0,0,1,0,64,0,1 @ F,0,0,1,0,64,0,1 @ F,0,0,1,0,64,0,1"
       radius="65"
       unit="px"
       method="auto"
       mode="F"
       chamfer_steps="1"
       flexible="false"
       use_knot_distance="true"
       apply_no_radius="true"
       apply_with_radius="true"
       only_selected="false"
       hide_knots="false" />
  </defs>
  <g
     inkscape:label="Layer 1"
     inkscape:groupmode="layer"
     id="layer1">
    <path
       id="rect1"
       style="fill:#000000;fill-opacity:1;stroke:none;stroke-width:10.996;stroke-linejoin:round"
       d="m 239.69921,122.27081 a 12.588728,12.588728 0 0 0 -12.58872,12.58873 v 61.35529 h -52.91446 a 17.514751,17.514751 0 0 0 -17.51604,17.51358 V 330.3192 H 45.00175 a 12.441408,11.684105 0 0 0 -12.4412,11.68392 v 245.36463 a 12.441408,11.684105 0 0 0 12.4412,11.68636 h 124.4145 a 12.441408,11.684105 0 0 0 2.95786,-0.36388 17.514751,17.514751 0 0 0 1.82192,0.36388 h 175.14559 a 17.514751,17.514751 0 0 0 8.1335,-2.29153 9.7276579,10.358154 0 0 0 7.15738,3.48156 h 151.85891 v -43.50487 a 6.2148925,6.2148925 0 0 1 6.21568,-6.21568 h 24.86027 a 6.2148925,6.2148925 0 0 1 6.21323,6.21568 v 43.50487 h 15.13351 a 9.7276579,10.358154 0 0 0 9.72677,-10.35865 V 486.30387 a 9.7276579,10.358154 0 0 0 -9.72677,-10.35866 h -14.4967 v -76.72239 h -25.17745 v 76.72239 H 366.85766 V 213.72841 A 17.514751,17.514751 0 0 0 349.34162,196.21483 H 252.28794 V 134.85954 A 12.588728,12.588728 0 0 0 239.69921,122.27081 Z M 203.61726,240 h 35.02961 a 8.7573757,8.7573757 0 0 1 8.75556,8.75802 v 35.0296 a 8.7573757,8.7573757 0 0 1 -8.75556,8.75803 h -35.02961 a 8.7573757,8.7573757 0 0 1 -8.75801,-8.75803 v -35.0296 A 8.7573757,8.7573757 0 0 1 203.61726,240 Z m 80.04416,0 h 35.0296 a 8.7573757,8.7573757 0 0 1 8.75802,8.75802 v 35.0296 a 8.7573757,8.7573757 0 0 1 -8.75802,8.75803 h -35.0296 a 8.7573757,8.7573757 0 0 1 -8.75556,-8.75803 v -35.0296 A 8.7573757,8.7573757 0 0 1 283.66142,240 Z m -78.81479,70.05923 h 35.02961 a 8.7573757,8.7573757 0 0 1 8.75556,8.75801 v 35.02961 a 8.7573757,8.7573757 0 0 1 -8.75556,8.75802 h -35.02961 a 8.7573757,8.7573757 0 0 1 -8.75802,-8.75802 v -35.02961 a 8.7573757,8.7573757 0 0 1 8.75802,-8.75801 z m 80.04661,0 h 35.0296 a 8.7573757,8.7573757 0 0 1 8.75556,8.75801 v 35.02961 a 8.7573757,8.7573757 0 0 1 -8.75556,8.75802 h -35.0296 a 8.7573757,8.7573757 0 0 1 -8.75802,-8.75802 v -35.02961 a 8.7573757,8.7573757 0 0 1 8.75802,-8.75801 z M 61.372018,360.1781 h 29.858889 a 7.4648448,7.4648448 0 0 1 7.464725,7.46471 v 29.85889 a 7.4648448,7.4648448 0 0 1 -7.464725,7.46473 H 61.372018 a 7.4648448,7.4648448 0 0 1 -7.464725,-7.46473 v -29.85889 a 7.4648448,7.4648448 0 0 1 7.464725,-7.46471 z m 143.474612,19.94034 h 35.02961 a 8.7573757,8.7573757 0 0 1 8.75556,8.75802 v 35.02961 a 8.7573757,8.7573757 0 0 1 -8.75556,8.75801 h -35.02961 a 8.7573757,8.7573757 0 0 1 -8.75802,-8.75801 v -35.02961 a 8.7573757,8.7573757 0 0 1 8.75802,-8.75802 z m 80.04661,0 h 35.0296 a 8.7573757,8.7573757 0 0 1 8.75556,8.75802 v 35.02961 a 8.7573757,8.7573757 0 0 1 -8.75556,8.75801 h -35.0296 a 8.7573757,8.7573757 0 0 1 -8.75802,-8.75801 v -35.02961 a 8.7573757,8.7573757 0 0 1 8.75802,-8.75802 z M 62.419438,419.89588 h 29.861343 a 7.4648448,7.4648448 0 0 1 7.464726,7.46471 v 29.86135 a 7.4648448,7.4648448 0 0 1 -7.464726,7.46472 H 62.419438 a 7.4648448,7.4648448 0 0 1 -7.464725,-7.46472 v -29.86135 a 7.4648448,7.4648448 0 0 1 7.464725,-7.46471 z m 142.427192,30.28178 h 35.02961 a 8.7573757,8.7573757 0 0 1 8.75556,8.75801 v 35.02962 a 8.7573757,8.7573757 0 0 1 -8.75556,8.75555 h -35.02961 a 8.7573757,8.7573757 0 0 1 -8.75802,-8.75555 v -35.02962 a 8.7573757,8.7573757 0 0 1 8.75802,-8.75801 z m 80.04661,0 h 35.0296 a 8.7573757,8.7573757 0 0 1 8.75556,8.75801 v 35.02962 a 8.7573757,8.7573757 0 0 1 -8.75556,8.75555 h -35.0296 a 8.7573757,8.7573757 0 0 1 -8.75802,-8.75555 v -35.02962 a 8.7573757,8.7573757 0 0 1 8.75802,-8.75801 z M 62.419438,479.61611 h 29.861343 a 7.4648448,7.4648448 0 0 1 7.464726,7.46472 v 29.85889 a 7.4648448,7.4648448 0 0 1 -7.464726,7.46471 H 62.419438 a 7.4648448,7.4648448 0 0 1 -7.464725,-7.46471 v -29.85889 a 7.4648448,7.4648448 0 0 1 7.464725,-7.46472 z m 410.569552,14.10084 h 24.85782 a 6.2148925,6.2148925 0 0 1 6.21568,6.21569 v 24.86028 a 6.2148925,6.2148925 0 0 1 -6.21568,6.21322 h -24.85782 a 6.2148925,6.2148925 0 0 1 -6.21568,-6.21322 v -24.86028 a 6.2148925,6.2148925 0 0 1 6.21568,-6.21569 z m -99.43866,0.87286 h 24.85783 a 6.2148925,6.2148925 0 0 1 6.21568,6.21568 v 24.86028 a 6.2148925,6.2148925 0 0 1 -6.21568,6.21322 h -24.85783 a 6.2148925,6.2148925 0 0 1 -6.21568,-6.21322 v -24.86028 a 6.2148925,6.2148925 0 0 1 6.21568,-6.21568 z m 49.7181,0 h 24.86028 a 6.2148925,6.2148925 0 0 1 6.21569,6.21568 v 24.86028 a 6.2148925,6.2148925 0 0 1 -6.21569,6.21322 h -24.86028 a 6.2148925,6.2148925 0 0 1 -6.21322,-6.21322 v -24.86028 a 6.2148925,6.2148925 0 0 1 6.21322,-6.21568 z" />
  </g>
  <metadata
     id="metadata1">
    <rdf:RDF>
      <cc:Work
         rdf:about="">
        <dc:title>Template</dc:title>
        <dc:date>2023</dc:date>
        <dc:creator>
          <cc:Agent>
            <dc:title>Doug Palmer</dc:title>
          </cc:Agent>
        </dc:creator>
        <dc:subject>
          <rdf:Bag>
            <rdf:li>icon map symbol</rdf:li>
          </rdf:Bag>
        </dc:subject>
        <cc:license
           rdf:resource="http://creativecommons.org/licenses/by/4.0/" />
      </cc:Work>
      <cc:License
         rdf:about="http://creativecommons.org/licenses/by/4.0/">
        <cc:permits
           rdf:resource="http://creativecommons.org/ns#Reproduction" />
        <cc:permits
           rdf:resource="http://creativecommons.org/ns#Distribution" />
        <cc:requires
           rdf:resource="http://creativecommons.org/ns#Notice" />
        <cc:requires
           rdf:resource="http://creativecommons.org/ns#Attribution" />
        <cc:permits
           rdf:resource="http://creativecommons.org/ns#DerivativeWorks" />
      </cc:License>
    </rdf:RDF>
  </metadata>
</svg>
