<?xml version="1.0" encoding="UTF-8" standalone="no"?>
<!-- Created with Inkscape (http://www.inkscape.org/) -->

<svg
   width="600"
   height="750"
   viewBox="0 0 600 750"
   version="1.1"
   id="svg1"
   inkscape:version="1.3 (0e150ed, 2023-07-21)"
   sodipodi:docname="clock.svg"
   xmlns:inkscape="http://www.inkscape.org/namespaces/inkscape"
   xmlns:sodipodi="http://sodipodi.sourceforge.net/DTD/sodipodi-0.dtd"
   xmlns="http://www.w3.org/2000/svg"
   xmlns:svg="http://www.w3.org/2000/svg"
   xmlns:rdf="http://www.w3.org/1999/02/22-rdf-syntax-ns#"
   xmlns:cc="http://creativecommons.org/ns#"
   xmlns:dc="http://purl.org/dc/elements/1.1/">
  <title
     id="title2">Template</title>
  <sodipodi:namedview
     id="namedview1"
     pagecolor="#ffffff"
     bordercolor="#000000"
     borderopacity="0.25"
     inkscape:showpageshadow="2"
     inkscape:pageopacity="0.0"
     inkscape:pagecheckerboard="false"
     inkscape:deskcolor="#d1d1d1"
     inkscape:document-units="px"
     showgrid="true"
     showguides="true"
     inkscape:zoom="0.84096521"
     inkscape:cx="272.30615"
     inkscape:cy="398.94635"
     inkscape:window-width="1528"
     inkscape:window-height="996"
     inkscape:window-x="828"
     inkscape:window-y="25"
     inkscape:window-maximized="0"
     inkscape:current-layer="layer1"
     inkscape:lockguides="true">
    <inkscape:grid
       id="grid2"
       units="px"
       originx="0"
       originy="0"
       spacingx="4"
       spacingy="4"
       empcolor="#0099e5"
       empopacity="0.30196078"
       color="#0099e5"
       opacity="0.14901961"
       empspacing="5"
       dotted="false"
       gridanglex="30"
       gridanglez="30"
       visible="true" />
    <sodipodi:guide
       position="0,730"
       orientation="0,1"
       id="guide3"
       inkscape:locked="true"
       inkscape:label=""
       inkscape:color="rgb(0,134,229)" />
    <sodipodi:guide
       position="-40,-230"
       orientation="0,1"
       id="guide4"
       inkscape:locked="true"
       inkscape:label=""
       inkscape:color="rgb(0,134,229)" />
    <sodipodi:guide
       position="20,750"
       orientation="-1,0"
       id="guide5"
       inkscape:locked="true"
       inkscape:label=""
       inkscape:color="rgb(0,134,229)" />
    <sodipodi:guide
       position="580,750"
       orientation="-1,0"
       id="guide6"
       inkscape:locked="true"
       inkscape:label=""
       inkscape:color="rgb(0,134,229)" />
    <sodipodi:guide
       position="300,750"
       orientation="-1,0"
       id="guide7"
       inkscape:locked="true"
       inkscape:label=""
       inkscape:color="rgb(0,134,229)" />
    <sodipodi:guide
       position="300,550"
       orientation="0,1"
       id="guide8"
       inkscape:locked="true"
       inkscape:label=""
       inkscape:color="rgb(0,134,229)" />
    <sodipodi:guide
       position="0,450"
       orientation="0,1"
       id="guide9"
       inkscape:locked="true"
       inkscape:label=""
       inkscape:color="rgb(0,134,229)" />
    <sodipodi:guide
       position="0,-70"
       orientation="0,1"
       id="guide10"
       inkscape:locked="true"
       inkscape:label=""
       inkscape:color="rgb(0,134,229)" />
    <sodipodi:guide
       position="0,150"
       orientation="0,1"
       id="guide1"
       inkscape:locked="true"
       inkscape:label=""
       inkscape:color="rgb(0,134,229)" />
    <sodipodi:guide
       position="300,350"
       orientation="0,1"
       id="guide2"
       inkscape:label=""
       inkscape:locked="true"
       inkscape:color="rgb(0,134,229)" />
  </sodipodi:namedview>
  <defs
     id="defs1">
    <inkscape:path-effect
       effect="fillet_chamfer"
       id="path-effect2"
       is_visible="true"
       lpeversion="1"
       nodesatellites_param="F,0,0,1,0,20,0,1 @ F,0,0,1,0,20,0,1 @ F,0,0,1,0,20,0,1 @ F,0,0,1,0,20,0,1 @ F,0,0,1,0,20,0,1 @ F,0,0,1,0,20,0,1 @ F,0,0,1,0,20,0,1 @ F,0,0,1,0,20,0,1 @ F,0,0,1,0,20,0,1 @ F,0,0,1,0,20,0,1 @ F,0,0,1,0,20,0,1"
       radius="20"
       unit="px"
       method="auto"
       mode="F"
       chamfer_steps="1"
       flexible="false"
       use_knot_distance="true"
       apply_no_radius="true"
       apply_with_radius="true"
       only_selected="false"
       hide_knots="false" />
    <inkscape:path-effect
       effect="fillet_chamfer"
       id="path-effect3"
       is_visible="true"
       lpeversion="1"
       nodesatellites_param="F,0,0,1,0,64,0,1 @ F,0,0,1,0,64,0,1 @ F,0,0,1,0,64,0,1 @ F,0,0,1,0,64,0,1 @ F,0,0,1,0,64,0,1 @ F,0,0,1,0,64,0,1 @ F,0,0,1,0,64,0,1 @ F,0,0,1,0,64,0,1 @ F,0,0,1,0,64,0,1 @ F,0,0,1,0,64,0,1 @ F,0,0,1,0,64,0,1 @ F,0,0,1,0,64,0,1"
       radius="65"
       unit="px"
       method="auto"
       mode="F"
       chamfer_steps="1"
       flexible="false"
       use_knot_distance="true"
       apply_no_radius="true"
       apply_with_radius="true"
       only_selected="false"
       hide_knots="false" />
  </defs>
  <g
     inkscape:label="Layer 1"
     inkscape:groupmode="layer"
     id="layer1">
    <path
       style="color:#000000;opacity:0.99;fill:#000000;stroke-width:1.2;stroke-linecap:square;stroke-linejoin:round;-inkscape-stroke:none"
       d="m 294.44766,78.375 c -142.27612,0 -258,115.72388 -258,258 0,142.27612 115.72388,258 258,258 142.27612,0 258,-115.72388 258,-258 0,-142.27612 -115.72388,-258 -258,-258 z m 0,36 c 122.8203,0 222,99.1797 222,222 0,122.8203 -99.1797,222 -222,222 -122.8203,0 -222,-99.1797 -222,-222 0,-122.8203 99.1797,-222 222,-222 z"
       id="path1" />
    <path
       style="color:#000000;opacity:0.99;fill:#000000;stroke-width:1.2;stroke-linecap:square;stroke-linejoin:round;-inkscape-stroke:none"
       d="m 273.36094,129.9914 v 21.08438 64.59844 21.08438 h 42.17344 V 215.67422 151.07578 129.9914 Z"
       id="path2" />
    <path
       style="color:#000000;opacity:0.99;fill:#000000;stroke-width:1.2;stroke-linecap:square;stroke-linejoin:round;-inkscape-stroke:none"
       d="m 120.52032,221.55234 -12.89532,24.75 12.375,6.44766 33.26719,17.33203 12.375,6.44766 12.89531,-24.75 -12.375,-6.44766 L 132.89532,228 Z"
       id="path2-2-7-3" />
    <path
       style="color:#000000;opacity:0.99;fill:#000000;stroke-width:1.2;stroke-linecap:square;stroke-linejoin:round;-inkscape-stroke:none"
       d="m 423.25313,396.22031 -12.89531,24.75 12.375,6.44766 L 456,444.75 l 12.375,6.44766 12.89532,-24.75 L 468.89532,420 435.62813,402.66797 Z"
       id="path2-2-7-3-8" />
    <path
       style="color:#000000;opacity:0.99;fill:#000000;stroke-width:1.2;stroke-linecap:square;stroke-linejoin:round;-inkscape-stroke:none"
       d="m 165.64219,396.22031 -12.375,6.44766 L 120,420 l -12.375,6.44766 12.89532,24.75 12.375,-6.44766 33.26718,-17.33203 12.375,-6.44766 z"
       id="path2-2-7-3-8-3" />
    <path
       style="color:#000000;opacity:0.99;fill:#000000;stroke-width:1.2;stroke-linecap:square;stroke-linejoin:round;-inkscape-stroke:none"
       d="M 468.375,221.55234 456,228 l -33.26718,17.33203 -12.375,6.44766 12.89531,24.75 12.375,-6.44766 33.26719,-17.33203 12.375,-6.44766 z"
       id="path2-2-7-3-8-1" />
    <path
       style="color:#000000;opacity:0.99;fill:#000000;stroke-width:1.2;stroke-linecap:square;stroke-linejoin:round;-inkscape-stroke:none"
       d="m 438.4875,321.01874 -1.20937,27.88126 13.94297,0.60469 37.47656,1.62421 13.94063,0.60234 1.20703,-27.88124 -13.94063,-0.60469 -37.47656,-1.62421 z"
       id="path2-2-7-3-8-1-2" />
    <path
       style="color:#000000;opacity:0.99;fill:#000000;stroke-width:1.2;stroke-linecap:square;stroke-linejoin:round;-inkscape-stroke:none"
       d="M 93.377352,321.01874 92.17032,348.9 l 13.94062,0.60469 37.47656,1.62421 13.94297,0.60234 1.20703,-27.88124 -13.94062,-0.60469 -37.47656,-1.62421 z"
       id="path2-2-7-3-8-1-2-1" />
    <path
       style="color:#000000;opacity:0.99;fill:#000000;stroke-width:1.2;stroke-linecap:square;stroke-linejoin:round;-inkscape-stroke:none"
       d="m 281.92266,476.93437 -0.60469,13.94063 -1.62421,37.47656 -0.60236,13.94063 27.88126,1.20937 0.60469,-13.94062 1.62421,-37.47891 0.60234,-13.94063 z"
       id="path2-2-7-3-8-1-2-1-8" />
    <path
       style="color:#000000;opacity:0.99;fill:#000000;stroke-width:1.2;stroke-linecap:square;stroke-linejoin:round;-inkscape-stroke:none"
       d="m 202.725,149.10937 -23.54297,14.98829 7.49297,11.77031 20.14453,31.64531 7.49532,11.77032 23.54297,-14.98594 -7.49532,-11.77266 -20.14218,-31.64297 z"
       id="path2-2-7-3-3" />
    <path
       style="color:#000000;opacity:0.99;fill:#000000;stroke-width:1.2;stroke-linecap:square;stroke-linejoin:round;-inkscape-stroke:none"
       d="m 374.58047,453.4664 -23.54297,14.98594 7.49532,11.77266 20.14218,31.64297 7.49532,11.77266 23.54297,-14.98829 -7.49297,-11.77031 -20.14453,-31.64531 z"
       id="path2-2-7-3-3-3" />
    <path
       style="color:#000000;opacity:0.99;fill:#000000;stroke-width:1.2;stroke-linecap:square;stroke-linejoin:round;-inkscape-stroke:none"
       d="m 214.31485,453.4664 -7.49532,11.77032 -20.14453,31.64531 -7.49297,11.77031 23.54297,14.98829 7.49532,-11.77266 20.14218,-31.64297 7.49532,-11.77266 z"
       id="path2-2-7-3-3-3-5" />
    <path
       style="color:#000000;opacity:0.99;fill:#000000;stroke-width:1.2;stroke-linecap:round;stroke-linejoin:round;-inkscape-stroke:none"
       d="m 404.61797,162.18281 a 24,24 0 0 0 -21.84609,9.9375 l -120,168 a 24.0024,24.0024 0 0 0 -0.44062,27.2625 l 48,72 a 24,24 0 0 0 33.28359,6.65625 24,24 0 0 0 6.65625,-33.28125 L 311.4586,354.53906 421.83047,200.02031 a 24,24 0 0 0 -5.57812,-33.48047 24,24 0 0 0 -11.63438,-4.35703 z"
       id="path4" />
  </g>
  <metadata
     id="metadata1">
    <rdf:RDF>
      <cc:Work
         rdf:about="">
        <dc:title>Template</dc:title>
        <dc:date>2023</dc:date>
        <dc:creator>
          <cc:Agent>
            <dc:title>Doug Palmer</dc:title>
          </cc:Agent>
        </dc:creator>
        <dc:subject>
          <rdf:Bag>
            <rdf:li>icon map symbol</rdf:li>
          </rdf:Bag>
        </dc:subject>
        <cc:license
           rdf:resource="http://creativecommons.org/licenses/by/4.0/" />
      </cc:Work>
      <cc:License
         rdf:about="http://creativecommons.org/licenses/by/4.0/">
        <cc:permits
           rdf:resource="http://creativecommons.org/ns#Reproduction" />
        <cc:permits
           rdf:resource="http://creativecommons.org/ns#Distribution" />
        <cc:requires
           rdf:resource="http://creativecommons.org/ns#Notice" />
        <cc:requires
           rdf:resource="http://creativecommons.org/ns#Attribution" />
        <cc:permits
           rdf:resource="http://creativecommons.org/ns#DerivativeWorks" />
      </cc:License>
    </rdf:RDF>
  </metadata>
</svg>
