<?xml version="1.0" encoding="UTF-8" standalone="no"?>
<!-- Created with Inkscape (http://www.inkscape.org/) -->

<svg
   width="600"
   height="750"
   viewBox="0 0 600 750"
   version="1.1"
   id="svg1"
   inkscape:version="1.3 (0e150ed, 2023-07-21)"
   sodipodi:docname="coolinig.svg"
   xml:space="preserve"
   xmlns:inkscape="http://www.inkscape.org/namespaces/inkscape"
   xmlns:sodipodi="http://sodipodi.sourceforge.net/DTD/sodipodi-0.dtd"
   xmlns="http://www.w3.org/2000/svg"
   xmlns:svg="http://www.w3.org/2000/svg"
   xmlns:rdf="http://www.w3.org/1999/02/22-rdf-syntax-ns#"
   xmlns:cc="http://creativecommons.org/ns#"
   xmlns:dc="http://purl.org/dc/elements/1.1/"><title
     id="title2">Template</title><sodipodi:namedview
     id="namedview1"
     pagecolor="#ffffff"
     bordercolor="#000000"
     borderopacity="0.25"
     inkscape:showpageshadow="2"
     inkscape:pageopacity="0.0"
     inkscape:pagecheckerboard="false"
     inkscape:deskcolor="#d1d1d1"
     inkscape:document-units="px"
     showgrid="true"
     showguides="true"
     inkscape:zoom="0.84096521"
     inkscape:cx="312.73589"
     inkscape:cy="398.94635"
     inkscape:window-width="1528"
     inkscape:window-height="996"
     inkscape:window-x="828"
     inkscape:window-y="25"
     inkscape:window-maximized="0"
     inkscape:current-layer="layer1"
     inkscape:lockguides="true"><inkscape:grid
       id="grid2"
       units="px"
       originx="0"
       originy="0"
       spacingx="4"
       spacingy="4"
       empcolor="#0099e5"
       empopacity="0.30196078"
       color="#0099e5"
       opacity="0.14901961"
       empspacing="5"
       dotted="false"
       gridanglex="30"
       gridanglez="30"
       visible="true" /><sodipodi:guide
       position="0,730"
       orientation="0,1"
       id="guide3"
       inkscape:locked="true"
       inkscape:label=""
       inkscape:color="rgb(0,134,229)" /><sodipodi:guide
       position="-40,-230"
       orientation="0,1"
       id="guide4"
       inkscape:locked="true"
       inkscape:label=""
       inkscape:color="rgb(0,134,229)" /><sodipodi:guide
       position="20,750"
       orientation="-1,0"
       id="guide5"
       inkscape:locked="true"
       inkscape:label=""
       inkscape:color="rgb(0,134,229)" /><sodipodi:guide
       position="580,750"
       orientation="-1,0"
       id="guide6"
       inkscape:locked="true"
       inkscape:label=""
       inkscape:color="rgb(0,134,229)" /><sodipodi:guide
       position="300,750"
       orientation="-1,0"
       id="guide7"
       inkscape:locked="true"
       inkscape:label=""
       inkscape:color="rgb(0,134,229)" /><sodipodi:guide
       position="300,550"
       orientation="0,1"
       id="guide8"
       inkscape:locked="true"
       inkscape:label=""
       inkscape:color="rgb(0,134,229)" /><sodipodi:guide
       position="0,450"
       orientation="0,1"
       id="guide9"
       inkscape:locked="true"
       inkscape:label=""
       inkscape:color="rgb(0,134,229)" /><sodipodi:guide
       position="0,-70"
       orientation="0,1"
       id="guide10"
       inkscape:locked="true"
       inkscape:label=""
       inkscape:color="rgb(0,134,229)" /><sodipodi:guide
       position="0,150"
       orientation="0,1"
       id="guide1"
       inkscape:locked="true"
       inkscape:label=""
       inkscape:color="rgb(0,134,229)" /><sodipodi:guide
       position="300,350"
       orientation="0,1"
       id="guide2"
       inkscape:label=""
       inkscape:locked="true"
       inkscape:color="rgb(0,134,229)" /></sodipodi:namedview><defs
     id="defs1"><inkscape:path-effect
       effect="fillet_chamfer"
       id="path-effect2"
       is_visible="true"
       lpeversion="1"
       nodesatellites_param="F,0,0,1,0,20,0,1 @ F,0,0,1,0,20,0,1 @ F,0,0,1,0,20,0,1 @ F,0,0,1,0,20,0,1 @ F,0,0,1,0,20,0,1 @ F,0,0,1,0,20,0,1 @ F,0,0,1,0,20,0,1 @ F,0,0,1,0,20,0,1 @ F,0,0,1,0,20,0,1 @ F,0,0,1,0,20,0,1 @ F,0,0,1,0,20,0,1"
       radius="20"
       unit="px"
       method="auto"
       mode="F"
       chamfer_steps="1"
       flexible="false"
       use_knot_distance="true"
       apply_no_radius="true"
       apply_with_radius="true"
       only_selected="false"
       hide_knots="false" /><inkscape:path-effect
       effect="fillet_chamfer"
       id="path-effect3"
       is_visible="true"
       lpeversion="1"
       nodesatellites_param="F,0,0,1,0,64,0,1 @ F,0,0,1,0,64,0,1 @ F,0,0,1,0,64,0,1 @ F,0,0,1,0,64,0,1 @ F,0,0,1,0,64,0,1 @ F,0,0,1,0,64,0,1 @ F,0,0,1,0,64,0,1 @ F,0,0,1,0,64,0,1 @ F,0,0,1,0,64,0,1 @ F,0,0,1,0,64,0,1 @ F,0,0,1,0,64,0,1 @ F,0,0,1,0,64,0,1"
       radius="65"
       unit="px"
       method="auto"
       mode="F"
       chamfer_steps="1"
       flexible="false"
       use_knot_distance="true"
       apply_no_radius="true"
       apply_with_radius="true"
       only_selected="false"
       hide_knots="false" /><inkscape:path-effect
       effect="fillet_chamfer"
       id="path-effect2-39"
       is_visible="true"
       lpeversion="1"
       nodesatellites_param="F,0,0,1,0,20,0,1 @ F,0,0,1,0,0,0,1 @ F,0,0,1,0,19.932133,0,1 @ F,0,0,1,0,0,0,1 @ F,0,0,1,0,0,0,1 @ F,0,0,1,0,18.62358,0,1 @ F,0,0,1,0,0,0,1"
       radius="20"
       unit="px"
       method="auto"
       mode="F"
       chamfer_steps="1"
       flexible="false"
       use_knot_distance="true"
       apply_no_radius="true"
       apply_with_radius="true"
       only_selected="false"
       hide_knots="false" /><inkscape:path-effect
       effect="fillet_chamfer"
       id="path-effect3-7"
       is_visible="true"
       lpeversion="1"
       nodesatellites_param="F,0,0,1,0,64,0,1 @ F,0,0,1,0,64,0,1 @ F,0,0,1,0,64,0,1 @ F,0,0,1,0,64,0,1 @ F,0,0,1,0,64,0,1 @ F,0,0,1,0,64,0,1 @ F,0,0,1,0,64,0,1 @ F,0,0,1,0,64,0,1 @ F,0,0,1,0,64,0,1 @ F,0,0,1,0,64,0,1 @ F,0,0,1,0,64,0,1 @ F,0,0,1,0,64,0,1"
       radius="65"
       unit="px"
       method="auto"
       mode="F"
       chamfer_steps="1"
       flexible="false"
       use_knot_distance="true"
       apply_no_radius="true"
       apply_with_radius="true"
       only_selected="false"
       hide_knots="false" /><inkscape:path-effect
       effect="fillet_chamfer"
       id="path-effect2-3"
       is_visible="true"
       lpeversion="1"
       nodesatellites_param="F,0,0,1,0,20,0,1 @ F,0,0,1,0,20,0,1 @ F,0,0,1,0,20,0,1 @ F,0,0,1,0,20,0,1 @ F,0,0,1,0,20,0,1 @ F,0,0,1,0,20,0,1 @ F,0,0,1,0,20,0,1 @ F,0,0,1,0,20,0,1 @ F,0,0,1,0,20,0,1 @ F,0,0,1,0,20,0,1 @ F,0,0,1,0,20,0,1"
       radius="20"
       unit="px"
       method="auto"
       mode="F"
       chamfer_steps="1"
       flexible="false"
       use_knot_distance="true"
       apply_no_radius="true"
       apply_with_radius="true"
       only_selected="false"
       hide_knots="false" /><inkscape:path-effect
       effect="fillet_chamfer"
       id="path-effect2-2"
       is_visible="true"
       lpeversion="1"
       nodesatellites_param="F,0,0,1,0,20,0,1 @ F,0,0,1,0,20,0,1 @ F,0,0,1,0,20,0,1 @ F,0,0,1,0,20,0,1 @ F,0,0,1,0,20,0,1 @ F,0,0,1,0,20,0,1 @ F,0,0,1,0,20,0,1 @ F,0,0,1,0,20,0,1 @ F,0,0,1,0,20,0,1 @ F,0,0,1,0,20,0,1 @ F,0,0,1,0,20,0,1"
       radius="20"
       unit="px"
       method="auto"
       mode="F"
       chamfer_steps="1"
       flexible="false"
       use_knot_distance="true"
       apply_no_radius="true"
       apply_with_radius="true"
       only_selected="false"
       hide_knots="false" /></defs><g
     inkscape:label="Layer 1"
     inkscape:groupmode="layer"
     id="layer1"><path
       style="color:#000000;fill:#030303;stroke-linejoin:round;-inkscape-stroke:none"
       d="m 300.87305,27.6875 c -10.28612,-0.02362 -20.58289,3.832445 -28.3125,11.572266 L 26.277344,285.86719 A 20.002,20.002 0 0 0 40.429687,320 h 78.164063 c 0.25773,0 0.0435,-0.2128 0.0449,0.0449 L 120,560.11328 A 20.002,20.002 0 0 0 140,580 h 320 a 20.002,20.002 0 0 0 20,-19.97852 L 480.26172,320 h 78.61914 a 20.002,20.002 0 0 0 14.2168,-34.06836 L 329.12891,39.388672 C 321.43491,31.613437 311.15917,27.711118 300.87305,27.6875 Z M 300.78125,67.609375 510.95117,280 H 478.9082 c -21.08985,0 -38.62143,17.51172 -38.64453,38.60156 L 440.02148,540 H 159.88672 L 158.63867,319.81836 C 158.51512,298.02357 140.38889,280 118.59375,280 H 88.669922 Z"
       id="rect1"
       transform="translate(-6.7128952,26.608306)" /><path
       id="path15"
       style="color:#000000;opacity:0.99;fill:#000000;stroke-width:0.7484;stroke-linecap:round;stroke-linejoin:round;-inkscape-stroke:none"
       d="m 297.66217,274.0298 a 11.226007,11.226007 0 0 0 -11.22601,11.22601 v 11.01406 l -14.14067,-6.30002 a 11.226007,11.226007 0 0 0 -5.74017,-0.91065 11.226007,11.226007 0 0 0 -9.08313,6.59528 11.226007,11.226007 0 0 0 5.68462,14.8233 l 23.27935,10.37236 v 47.66229 l -45.55156,-26.29925 3.2991,-24.6329 a 11.226007,11.226007 0 0 0 -9.63566,-12.61611 11.226007,11.226007 0 0 0 -12.61757,9.63566 l -2.07272,15.47377 -5.52383,-3.18948 a 11.226007,11.226007 0 0 0 -15.3349,4.10889 11.226007,11.226007 0 0 0 4.10889,15.33491 l 5.52384,3.18947 -12.36469,9.53334 a 11.226007,11.226007 0 0 0 -2.03617,15.74417 11.226007,11.226007 0 0 0 15.74418,2.03618 l 19.68352,-15.17411 45.55303,26.29926 -45.55303,26.30072 -19.68352,-15.17411 a 11.226007,11.226007 0 0 0 -15.74418,2.03617 11.226007,11.226007 0 0 0 2.03617,15.74419 l 12.36469,9.53333 -5.52384,3.18947 a 11.226007,11.226007 0 0 0 -4.10889,15.33491 11.226007,11.226007 0 0 0 15.3349,4.10889 l 5.52383,-3.18947 2.07272,15.47376 a 11.226007,11.226007 0 0 0 12.61757,9.63566 11.226007,11.226007 0 0 0 9.63566,-12.6161 l -3.2991,-24.6329 45.55156,-26.29927 V 460 l -22.98261,9.4588 a 11.226007,11.226007 0 0 0 -6.10853,14.65373 11.226007,11.226007 0 0 0 14.65373,6.10853 l 14.43741,-5.94189 v 6.37895 a 11.226007,11.226007 0 0 0 11.22601,11.226 11.226007,11.226007 0 0 0 11.22601,-11.226 v -6.37895 l 14.43741,5.94189 a 11.226007,11.226007 0 0 0 14.65373,-6.10853 11.226007,11.226007 0 0 0 -6.10853,-14.65373 L 308.88818,460 v -52.59998 l 41.2775,23.83188 -2.6574,25.34768 a 11.226007,11.226007 0 0 0 9.99523,12.33399 11.226007,11.226007 0 0 0 12.33399,-9.99524 l 1.6152,-15.39629 9.53772,5.50776 a 11.226007,11.226007 0 0 0 15.3349,-4.10889 11.226007,11.226007 0 0 0 -4.10889,-15.33491 l -9.53772,-5.50775 12.52547,-9.09629 a 11.226007,11.226007 0 0 0 3.65869,-4.51525 11.226007,11.226007 0 0 0 -1.16937,-11.16461 11.226007,11.226007 0 0 0 -15.67988,-2.48785 l -20.62193,14.97386 -41.27605,-23.83188 41.27605,-23.83041 20.62193,14.97385 a 11.226007,11.226007 0 0 0 15.67988,-2.48785 11.226007,11.226007 0 0 0 -2.48932,-15.67986 l -12.52547,-9.09628 9.53772,-5.50776 a 11.226007,11.226007 0 0 0 4.10889,-15.33491 11.226007,11.226007 0 0 0 -15.3349,-4.10889 l -9.53772,5.50776 -1.6152,-15.39629 a 11.226007,11.226007 0 0 0 -2.08149,-5.42737 11.226007,11.226007 0 0 0 -10.2525,-4.56787 11.226007,11.226007 0 0 0 -9.99523,12.33399 l 2.6574,25.34768 -41.2775,23.83188 v -47.66376 l 23.27935,-10.37236 a 11.226007,11.226007 0 0 0 5.68462,-14.8233 11.226007,11.226007 0 0 0 -14.8233,-5.68463 l -14.14067,6.30002 V 285.25581 A 11.226007,11.226007 0 0 0 297.66217,274.0298 Z" /><path
       style="opacity:0.99;fill:none;stroke:#000000;stroke-width:30;stroke-linecap:round;stroke-linejoin:round;stroke-dasharray:none;stroke-opacity:1"
       d="M 300,320 Z"
       id="path14" /></g><metadata
     id="metadata1"><rdf:RDF><cc:Work
         rdf:about=""><dc:title>Template</dc:title><dc:date>2023</dc:date><dc:creator><cc:Agent><dc:title>Doug Palmer</dc:title></cc:Agent></dc:creator><dc:subject><rdf:Bag><rdf:li>icon map symbol</rdf:li></rdf:Bag></dc:subject><cc:license
           rdf:resource="http://creativecommons.org/licenses/by/4.0/" /></cc:Work><cc:License
         rdf:about="http://creativecommons.org/licenses/by/4.0/"><cc:permits
           rdf:resource="http://creativecommons.org/ns#Reproduction" /><cc:permits
           rdf:resource="http://creativecommons.org/ns#Distribution" /><cc:requires
           rdf:resource="http://creativecommons.org/ns#Notice" /><cc:requires
           rdf:resource="http://creativecommons.org/ns#Attribution" /><cc:permits
           rdf:resource="http://creativecommons.org/ns#DerivativeWorks" /></cc:License></rdf:RDF></metadata></svg>
