<?xml version="1.0" encoding="UTF-8" standalone="no"?>
<!-- Created with Inkscape (http://www.inkscape.org/) -->

<svg
   width="600"
   height="750"
   viewBox="0 0 600 750"
   version="1.1"
   id="svg1"
   inkscape:version="1.3 (0e150ed, 2023-07-21)"
   sodipodi:docname="cup.svg"
   xmlns:inkscape="http://www.inkscape.org/namespaces/inkscape"
   xmlns:sodipodi="http://sodipodi.sourceforge.net/DTD/sodipodi-0.dtd"
   xmlns="http://www.w3.org/2000/svg"
   xmlns:svg="http://www.w3.org/2000/svg"
   xmlns:rdf="http://www.w3.org/1999/02/22-rdf-syntax-ns#"
   xmlns:cc="http://creativecommons.org/ns#"
   xmlns:dc="http://purl.org/dc/elements/1.1/">
  <title
     id="title2">Template</title>
  <sodipodi:namedview
     id="namedview1"
     pagecolor="#ffffff"
     bordercolor="#000000"
     borderopacity="0.25"
     inkscape:showpageshadow="2"
     inkscape:pageopacity="0.0"
     inkscape:pagecheckerboard="false"
     inkscape:deskcolor="#d1d1d1"
     inkscape:document-units="px"
     showgrid="true"
     showguides="true"
     inkscape:zoom="0.84096521"
     inkscape:cx="316.89777"
     inkscape:cy="398.94635"
     inkscape:window-width="1528"
     inkscape:window-height="996"
     inkscape:window-x="828"
     inkscape:window-y="25"
     inkscape:window-maximized="0"
     inkscape:current-layer="layer1"
     inkscape:lockguides="true">
    <inkscape:grid
       id="grid2"
       units="px"
       originx="0"
       originy="0"
       spacingx="4"
       spacingy="4"
       empcolor="#0099e5"
       empopacity="0.30196078"
       color="#0099e5"
       opacity="0.14901961"
       empspacing="5"
       dotted="false"
       gridanglex="30"
       gridanglez="30"
       visible="true" />
    <sodipodi:guide
       position="0,730"
       orientation="0,1"
       id="guide3"
       inkscape:locked="true"
       inkscape:label=""
       inkscape:color="rgb(0,134,229)" />
    <sodipodi:guide
       position="-40,-230"
       orientation="0,1"
       id="guide4"
       inkscape:locked="true"
       inkscape:label=""
       inkscape:color="rgb(0,134,229)" />
    <sodipodi:guide
       position="20,750"
       orientation="-1,0"
       id="guide5"
       inkscape:locked="true"
       inkscape:label=""
       inkscape:color="rgb(0,134,229)" />
    <sodipodi:guide
       position="580,750"
       orientation="-1,0"
       id="guide6"
       inkscape:locked="true"
       inkscape:label=""
       inkscape:color="rgb(0,134,229)" />
    <sodipodi:guide
       position="300,750"
       orientation="-1,0"
       id="guide7"
       inkscape:locked="true"
       inkscape:label=""
       inkscape:color="rgb(0,134,229)" />
    <sodipodi:guide
       position="300,550"
       orientation="0,1"
       id="guide8"
       inkscape:locked="true"
       inkscape:label=""
       inkscape:color="rgb(0,134,229)" />
    <sodipodi:guide
       position="0,450"
       orientation="0,1"
       id="guide9"
       inkscape:locked="true"
       inkscape:label=""
       inkscape:color="rgb(0,134,229)" />
    <sodipodi:guide
       position="0,-70"
       orientation="0,1"
       id="guide10"
       inkscape:locked="true"
       inkscape:label=""
       inkscape:color="rgb(0,134,229)" />
    <sodipodi:guide
       position="0,150"
       orientation="0,1"
       id="guide1"
       inkscape:locked="true"
       inkscape:label=""
       inkscape:color="rgb(0,134,229)" />
    <sodipodi:guide
       position="300,350"
       orientation="0,1"
       id="guide2"
       inkscape:label=""
       inkscape:locked="true"
       inkscape:color="rgb(0,134,229)" />
  </sodipodi:namedview>
  <defs
     id="defs1">
    <inkscape:path-effect
       effect="fillet_chamfer"
       id="path-effect2"
       is_visible="true"
       lpeversion="1"
       nodesatellites_param="F,0,0,1,0,20,0,1 @ F,0,0,1,0,20,0,1 @ F,0,0,1,0,20,0,1 @ F,0,0,1,0,20,0,1 @ F,0,0,1,0,20,0,1 @ F,0,0,1,0,20,0,1 @ F,0,0,1,0,20,0,1 @ F,0,0,1,0,20,0,1 @ F,0,0,1,0,20,0,1 @ F,0,0,1,0,20,0,1 @ F,0,0,1,0,20,0,1"
       radius="20"
       unit="px"
       method="auto"
       mode="F"
       chamfer_steps="1"
       flexible="false"
       use_knot_distance="true"
       apply_no_radius="true"
       apply_with_radius="true"
       only_selected="false"
       hide_knots="false" />
    <inkscape:path-effect
       effect="fillet_chamfer"
       id="path-effect3"
       is_visible="true"
       lpeversion="1"
       nodesatellites_param="F,0,0,1,0,64,0,1 @ F,0,0,1,0,64,0,1 @ F,0,0,1,0,64,0,1 @ F,0,0,1,0,64,0,1 @ F,0,0,1,0,64,0,1 @ F,0,0,1,0,64,0,1 @ F,0,0,1,0,64,0,1 @ F,0,0,1,0,64,0,1 @ F,0,0,1,0,64,0,1 @ F,0,0,1,0,64,0,1 @ F,0,0,1,0,64,0,1 @ F,0,0,1,0,64,0,1"
       radius="65"
       unit="px"
       method="auto"
       mode="F"
       chamfer_steps="1"
       flexible="false"
       use_knot_distance="true"
       apply_no_radius="true"
       apply_with_radius="true"
       only_selected="false"
       hide_knots="false" />
  </defs>
  <g
     inkscape:label="Layer 1"
     inkscape:groupmode="layer"
     id="layer1">
    <path
       id="path1"
       style="fill:#000000;stroke-width:65.1915;stroke-linejoin:round"
       d="m 52.20052,228.97736 a 19.491578,23.830015 0 0 0 -19.48947,24.02747 v 0.002 c 0.08957,13.26954 1.844288,34.58708 4.136762,47.5575 2.541198,14.37767 6.054535,33.1203 9.801049,49.65989 2.895899,12.78444 8.770683,33.10801 13.360591,45.12895 0.673649,1.76429 1.366922,3.51587 2.081282,5.25366 4.868895,11.84433 15.16547,29.42813 22.467093,39.23705 3.704763,4.97694 7.604997,9.74632 11.675847,14.27569 8.023126,8.92682 22.592586,21.14109 32.324456,26.98632 1.42452,0.85561 2.84689,1.69166 4.24705,2.49896 9.81548,5.65939 17.9854,20.43182 17.9854,33.70182 a 19.653085,24.027471 0 0 0 19.65372,24.02747 h 58.95881 98.26625 a 19.653085,24.027471 0 0 0 19.65373,-24.02747 c 0,-13.27022 8.16935,-28.04439 17.9854,-33.70417 1.40017,-0.80731 2.82487,-1.64099 4.24939,-2.49661 9.73127,-5.84493 24.29899,-18.0595 32.32212,-26.98632 3.12824,-3.48059 6.12046,-7.14287 9.03611,-10.89213 7.62208,1.99344 17.84962,4.33558 28.99018,5.92708 11.46342,1.63764 23.9831,2.58184 36.44947,1.19668 12.46636,-1.38514 25.65313,-5.04909 35.90747,-15.30343 4.75827,-4.75825 20.07869,-10.91535 27.93193,-29.87478 6.64523,-16.04302 12.89988,-35.79637 14.41649,-56.22053 1.51661,-20.42417 -1.90819,-43.11624 -18.32095,-59.52899 -10.25434,-10.25435 -23.44109,-13.91829 -35.90746,-15.30344 -3.11659,-0.34629 -6.23519,-0.54586 -9.34115,-0.6265 -9.19691,-0.23875 -18.26698,0.57647 -26.7681,1.7786 0.65569,-8.05472 1.08671,-16.05517 1.12863,-22.2653 v -0.002 A 19.491577,23.830014 0 0 0 445.9108,228.97736 H 270.12311 247.64193 Z m 437.97809,80.5718 c 2.18528,0.0484 4.27339,0.175 6.22508,0.39185 7.80677,0.86743 12.64069,3.21038 14.40006,4.96974 6.24051,6.24053 8.94699,16.80394 7.86524,31.37181 -1.08174,14.56789 -6.15507,31.54352 -11.7697,45.09844 -0.81578,1.96945 -8.86298,6.92013 -20.12302,18.18016 -1.75938,1.75936 -6.59328,4.10232 -14.40005,4.96975 -7.80678,0.86741 -17.81292,0.30989 -27.37349,-1.0559 -4.85314,-0.6933 -9.54569,-1.56907 -13.86037,-2.48722 1.89437,-3.69082 3.59112,-7.24381 4.88057,-10.38062 0.71437,-1.73779 1.40764,-3.48937 2.0813,-5.25366 4.5899,-12.02094 10.46456,-32.34619 13.36058,-45.13129 2.79809,-12.35271 5.31821,-25.42439 7.54847,-37.49834 3.22414,-0.6293 6.55285,-1.2321 10.01692,-1.72697 7.17044,-1.02434 14.59255,-1.59287 21.14841,-1.44775 z" />
    <path
       style="color:#000000;fill:#000000;stroke-width:1.20137;stroke-linecap:round;stroke-linejoin:round;-inkscape-stroke:none"
       d="m 91.052755,572.47632 a 18.020603,18.020603 0 0 0 -18.020603,18.02061 18.020603,18.020603 0 0 0 18.020603,18.0206 H 427.43734 a 18.020603,18.020603 0 0 0 18.02061,-18.0206 18.020603,18.020603 0 0 0 -18.02061,-18.02061 z"
       id="path4" />
    <path
       style="color:#000000;fill:#000000;stroke-width:1.20137;stroke-linecap:round;stroke-linejoin:round;-inkscape-stroke:none"
       d="m 163.44959,38.308578 a 10.011466,10.011466 0 0 0 -5.90128,4.889963 10.011466,10.011466 0 0 0 4.17196,13.529532 c 0,0 9.4012,4.997894 18.62364,12.046593 4.61122,3.524337 9.09197,7.554009 12.063,11.225334 2.97104,3.671313 4.02649,6.7417 4.02649,7.921557 0,1.179845 -0.19201,1.800919 -2.69605,3.911504 -2.50406,2.110573 -6.9869,4.616205 -11.99263,7.262207 -5.00572,2.646002 -10.53589,5.432732 -15.54042,9.650872 -5.00452,4.21814 -9.81512,10.96296 -9.81512,19.22198 0,8.25902 4.8106,15.00383 9.81512,19.22197 5.00453,4.21815 10.5347,7.00488 15.54042,9.65088 5.00573,2.646 9.48857,5.15163 11.99263,7.26221 2.50404,2.11058 2.69605,2.73165 2.69605,3.9115 0,1.17986 -1.05545,4.25024 -4.02649,7.92156 -2.97103,3.67132 -7.45178,7.70099 -12.063,11.22533 -9.22244,7.0487 -18.62364,12.04659 -18.62364,12.04659 a 10.011466,10.011466 0 0 0 -4.17196,13.52953 10.011466,10.011466 0 0 0 13.52953,4.17195 c 0,0 10.62484,-5.58451 21.42527,-13.83925 5.40023,-4.12737 10.93015,-8.93145 15.46769,-14.5385 4.53754,-5.60705 8.48705,-12.25819 8.48705,-20.51721 0,-8.25901 -4.81295,-15.00383 -9.81748,-19.22198 -5.00452,-4.21813 -10.53235,-7.00721 -15.53807,-9.65321 -5.00573,-2.64601 -9.48857,-5.1493 -11.99263,-7.25987 -2.50404,-2.11057 -2.69839,-2.73166 -2.69839,-3.9115 0,-1.17985 0.19435,-1.80093 2.69839,-3.91151 2.50406,-2.11057 6.9869,-4.61386 11.99263,-7.25986 5.00572,-2.646 10.53355,-5.43509 15.53807,-9.65322 5.00453,-4.21814 9.81748,-10.962963 9.81748,-19.221973 0,-8.259023 -3.94951,-14.910163 -8.48705,-20.517214 C 203.43326,61.797293 197.90334,56.993216 192.50311,52.86585 181.70268,44.611104 171.07784,39.026591 171.07784,39.026591 a 10.011466,10.011466 0 0 0 -7.62825,-0.718013 z"
       id="path5" />
    <path
       style="color:#000000;fill:#000000;stroke-width:1.20137;stroke-linecap:round;stroke-linejoin:round;-inkscape-stroke:none"
       d="m 236.27112,38.308578 a 10.011466,10.011466 0 0 0 -5.89892,4.889963 10.011466,10.011466 0 0 0 4.17195,13.529532 c 0,0 9.39885,4.997894 18.62129,12.046593 4.61122,3.524337 9.09198,7.554009 12.06301,11.225334 2.97104,3.671313 4.02882,6.7417 4.02882,7.921557 0,1.179845 -0.19434,1.800919 -2.69839,3.911504 -2.50405,2.110573 -6.9869,4.616205 -11.99262,7.262207 -5.00571,2.646002 -10.53356,5.432732 -15.53808,9.650872 -5.00451,4.21814 -9.81747,10.96296 -9.81747,19.22198 0,8.25902 4.81296,15.00383 9.81747,19.22197 5.00452,4.21815 10.53237,7.00488 15.53808,9.65088 5.00572,2.646 9.48857,5.15163 11.99262,7.26221 2.50405,2.11058 2.69839,2.73165 2.69839,3.9115 0,1.17986 -1.05778,4.25024 -4.02882,7.92156 -2.97103,3.67132 -7.45179,7.70099 -12.06301,11.22533 -9.22244,7.0487 -18.62129,12.04659 -18.62129,12.04659 a 10.011466,10.011466 0 0 0 -4.17195,13.52953 10.011466,10.011466 0 0 0 13.52953,4.17195 c 0,0 10.6225,-5.58451 21.42293,-13.83925 5.40021,-4.12737 10.93014,-8.93145 15.46768,-14.5385 4.53754,-5.60705 8.48705,-12.25819 8.48705,-20.51721 0,-8.25901 -4.81296,-15.00383 -9.81748,-19.22198 -5.00452,-4.21813 -10.53236,-7.00721 -15.53808,-9.65321 -5.00571,-2.64601 -9.48856,-5.1493 -11.99261,-7.25987 -2.50405,-2.11057 -2.69839,-2.73166 -2.69839,-3.9115 0,-1.17985 0.19434,-1.80093 2.69839,-3.91151 2.50405,-2.11057 6.9869,-4.61386 11.99261,-7.25986 5.00572,-2.646 10.53356,-5.43509 15.53808,-9.65322 5.00452,-4.21814 9.81748,-10.962963 9.81748,-19.221973 0,-8.259023 -3.94951,-14.910163 -8.48705,-20.517214 C 276.2548,61.797293 270.72487,56.993216 265.32466,52.86585 254.52423,44.611104 243.90173,39.026591 243.90173,39.026591 a 10.011466,10.011466 0 0 0 -7.63061,-0.718013 z"
       id="path5-6" />
    <path
       style="color:#000000;fill:#000000;stroke-width:1.20137;stroke-linecap:round;stroke-linejoin:round;-inkscape-stroke:none"
       d="m 309.09501,38.308578 a 10.011466,10.011466 0 0 0 -5.90128,4.889963 10.011466,10.011466 0 0 0 4.17196,13.529532 c 0,0 9.39885,4.997894 18.62129,12.046593 4.61122,3.524337 9.09197,7.554009 12.06301,11.225334 2.97104,3.671313 4.02883,6.7417 4.02883,7.921557 0,1.179845 -0.19435,1.800919 -2.69841,3.911504 -2.50405,2.110573 -6.98689,4.616205 -11.99261,7.262207 -5.00572,2.646002 -10.53355,5.432732 -15.53808,9.650872 -5.00452,4.21814 -9.81748,10.96296 -9.81748,19.22198 0,8.25902 4.81296,15.00383 9.81748,19.22197 5.00453,4.21815 10.53236,7.00488 15.53808,9.65088 5.00572,2.646 9.48856,5.15163 11.99261,7.26221 2.50406,2.11058 2.69841,2.73165 2.69841,3.9115 0,1.17986 -1.05779,4.25024 -4.02883,7.92156 -2.97104,3.67132 -7.45179,7.70099 -12.06301,11.22533 -9.22244,7.0487 -18.62129,12.04659 -18.62129,12.04659 a 10.011466,10.011466 0 0 0 -4.17196,13.52953 10.011466,10.011466 0 0 0 13.52953,4.17195 c 0,0 10.6225,-5.58451 21.42293,-13.83925 5.40022,-4.12737 10.93249,-8.93145 15.47003,-14.5385 4.53755,-5.60705 8.4847,-12.25819 8.4847,-20.51721 0,-8.25901 -4.8106,-15.00383 -9.81513,-19.22198 -5.00452,-4.21813 -10.5347,-7.00721 -15.54041,-9.65321 -5.00573,-2.64601 -9.48857,-5.1493 -11.99263,-7.25987 -2.50405,-2.11057 -2.69605,-2.73166 -2.69605,-3.9115 0,-1.17985 0.192,-1.80093 2.69605,-3.91151 2.50406,-2.11057 6.9869,-4.61386 11.99263,-7.25986 5.00571,-2.646 10.53589,-5.43509 15.54041,-9.65322 5.00453,-4.21814 9.81513,-10.962963 9.81513,-19.221973 0,-8.259023 -3.94715,-14.910163 -8.4847,-20.517214 C 349.07868,61.797293 343.54641,56.993216 338.14619,52.86585 327.34576,44.611104 316.72326,39.026591 316.72326,39.026591 a 10.011466,10.011466 0 0 0 -7.62825,-0.718013 z"
       id="path5-6-4" />
  </g>
  <metadata
     id="metadata1">
    <rdf:RDF>
      <cc:Work
         rdf:about="">
        <dc:title>Template</dc:title>
        <dc:date>2023</dc:date>
        <dc:creator>
          <cc:Agent>
            <dc:title>Doug Palmer</dc:title>
          </cc:Agent>
        </dc:creator>
        <dc:subject>
          <rdf:Bag>
            <rdf:li>icon map symbol</rdf:li>
          </rdf:Bag>
        </dc:subject>
        <cc:license
           rdf:resource="http://creativecommons.org/licenses/by/4.0/" />
      </cc:Work>
      <cc:License
         rdf:about="http://creativecommons.org/licenses/by/4.0/">
        <cc:permits
           rdf:resource="http://creativecommons.org/ns#Reproduction" />
        <cc:permits
           rdf:resource="http://creativecommons.org/ns#Distribution" />
        <cc:requires
           rdf:resource="http://creativecommons.org/ns#Notice" />
        <cc:requires
           rdf:resource="http://creativecommons.org/ns#Attribution" />
        <cc:permits
           rdf:resource="http://creativecommons.org/ns#DerivativeWorks" />
      </cc:License>
    </rdf:RDF>
  </metadata>
</svg>
