<?xml version="1.0" encoding="UTF-8" standalone="no"?>
<!-- Created with Inkscape (http://www.inkscape.org/) -->

<svg
   width="600"
   height="750"
   viewBox="0 0 600 750"
   version="1.1"
   id="svg1"
   inkscape:version="1.3 (0e150ed, 2023-07-21)"
   sodipodi:docname="dog-head.svg"
   xml:space="preserve"
   xmlns:inkscape="http://www.inkscape.org/namespaces/inkscape"
   xmlns:sodipodi="http://sodipodi.sourceforge.net/DTD/sodipodi-0.dtd"
   xmlns="http://www.w3.org/2000/svg"
   xmlns:svg="http://www.w3.org/2000/svg"
   xmlns:rdf="http://www.w3.org/1999/02/22-rdf-syntax-ns#"
   xmlns:cc="http://creativecommons.org/ns#"
   xmlns:dc="http://purl.org/dc/elements/1.1/"><title
     id="title2">Template</title><sodipodi:namedview
     id="namedview1"
     pagecolor="#ffffff"
     bordercolor="#000000"
     borderopacity="0.25"
     inkscape:showpageshadow="2"
     inkscape:pageopacity="0.0"
     inkscape:pagecheckerboard="false"
     inkscape:deskcolor="#d1d1d1"
     inkscape:document-units="px"
     showgrid="true"
     showguides="true"
     inkscape:zoom="1.1893044"
     inkscape:cx="236.69298"
     inkscape:cy="302.27753"
     inkscape:window-width="1528"
     inkscape:window-height="996"
     inkscape:window-x="828"
     inkscape:window-y="25"
     inkscape:window-maximized="0"
     inkscape:current-layer="layer1"
     inkscape:lockguides="true"><inkscape:grid
       id="grid2"
       units="px"
       originx="0"
       originy="0"
       spacingx="4"
       spacingy="4"
       empcolor="#0099e5"
       empopacity="0.30196078"
       color="#0099e5"
       opacity="0.14901961"
       empspacing="5"
       dotted="false"
       gridanglex="30"
       gridanglez="30"
       visible="true" /><sodipodi:guide
       position="0,730"
       orientation="0,1"
       id="guide3"
       inkscape:locked="true"
       inkscape:label=""
       inkscape:color="rgb(0,134,229)" /><sodipodi:guide
       position="-40,-230"
       orientation="0,1"
       id="guide4"
       inkscape:locked="true"
       inkscape:label=""
       inkscape:color="rgb(0,134,229)" /><sodipodi:guide
       position="20,750"
       orientation="-1,0"
       id="guide5"
       inkscape:locked="true"
       inkscape:label=""
       inkscape:color="rgb(0,134,229)" /><sodipodi:guide
       position="580,750"
       orientation="-1,0"
       id="guide6"
       inkscape:locked="true"
       inkscape:label=""
       inkscape:color="rgb(0,134,229)" /><sodipodi:guide
       position="300,750"
       orientation="-1,0"
       id="guide7"
       inkscape:locked="true"
       inkscape:label=""
       inkscape:color="rgb(0,134,229)" /><sodipodi:guide
       position="300,550"
       orientation="0,1"
       id="guide8"
       inkscape:locked="true"
       inkscape:label=""
       inkscape:color="rgb(0,134,229)" /><sodipodi:guide
       position="0,450"
       orientation="0,1"
       id="guide9"
       inkscape:locked="true"
       inkscape:label=""
       inkscape:color="rgb(0,134,229)" /><sodipodi:guide
       position="0,-70"
       orientation="0,1"
       id="guide10"
       inkscape:locked="true"
       inkscape:label=""
       inkscape:color="rgb(0,134,229)" /><sodipodi:guide
       position="0,150"
       orientation="0,1"
       id="guide1"
       inkscape:locked="true"
       inkscape:label=""
       inkscape:color="rgb(0,134,229)" /><sodipodi:guide
       position="300,350"
       orientation="0,1"
       id="guide2"
       inkscape:label=""
       inkscape:locked="true"
       inkscape:color="rgb(0,134,229)" /></sodipodi:namedview><defs
     id="defs1"><inkscape:path-effect
       effect="fillet_chamfer"
       id="path-effect2"
       is_visible="true"
       lpeversion="1"
       nodesatellites_param="F,0,0,1,0,20,0,1 @ F,0,0,1,0,20,0,1 @ F,0,0,1,0,20,0,1 @ F,0,0,1,0,20,0,1 @ F,0,0,1,0,20,0,1 @ F,0,0,1,0,20,0,1 @ F,0,0,1,0,20,0,1 @ F,0,0,1,0,20,0,1 @ F,0,0,1,0,20,0,1 @ F,0,0,1,0,20,0,1 @ F,0,0,1,0,20,0,1"
       radius="20"
       unit="px"
       method="auto"
       mode="F"
       chamfer_steps="1"
       flexible="false"
       use_knot_distance="true"
       apply_no_radius="true"
       apply_with_radius="true"
       only_selected="false"
       hide_knots="false" /><inkscape:path-effect
       effect="fillet_chamfer"
       id="path-effect3"
       is_visible="true"
       lpeversion="1"
       nodesatellites_param="F,0,0,1,0,64,0,1 @ F,0,0,1,0,64,0,1 @ F,0,0,1,0,64,0,1 @ F,0,0,1,0,64,0,1 @ F,0,0,1,0,64,0,1 @ F,0,0,1,0,64,0,1 @ F,0,0,1,0,64,0,1 @ F,0,0,1,0,64,0,1 @ F,0,0,1,0,64,0,1 @ F,0,0,1,0,64,0,1 @ F,0,0,1,0,64,0,1 @ F,0,0,1,0,64,0,1"
       radius="65"
       unit="px"
       method="auto"
       mode="F"
       chamfer_steps="1"
       flexible="false"
       use_knot_distance="true"
       apply_no_radius="true"
       apply_with_radius="true"
       only_selected="false"
       hide_knots="false" /></defs><g
     inkscape:label="Layer 1"
     inkscape:groupmode="layer"
     id="layer1"><path
       id="path1"
       style="opacity:0.99;fill:#000000;fill-opacity:1;stroke:none;stroke-width:4.29025;stroke-linecap:round;stroke-linejoin:round;stroke-dasharray:none;stroke-opacity:1"
       d="m 438.86541,211.7903 c -5.86613,-0.15236 -11.7006,0.25344 -17.46057,1.43078 -14.14894,2.8921 -23.05075,19.71377 -37.30505,22.03152 -20.21021,3.28619 -39.64129,-11.39241 -60.06349,-12.87074 -21.44271,-1.55221 -43.11523,0.95482 -64.35374,4.29025 -11.64995,1.82957 -22.88134,5.72032 -34.32199,8.58049 -5.72031,1.43008 -11.27417,4.62556 -17.161,4.29025 -12.19884,-0.69481 -22.29945,-10.69063 -34.32199,-12.87074 -7.03565,-1.27582 -14.45662,-1.48437 -21.45125,0 -13.77783,2.92385 -27.16379,8.95669 -38.61224,17.16099 -20.56519,14.73766 -33.266614,38.21509 -51.482986,55.77324 -9.492906,9.1499 -23.107152,14.5216 -30.031744,25.7415 -3.112332,5.0429 -4.953238,11.36436 -4.290249,17.25317 0.354708,3.15055 1.178038,7.8833 4.290249,8.48832 14.922601,2.90097 20.091395,-24.6848 34.321993,-30.03174 5.354808,-2.012 11.5937,1.31426 17.160996,0 6.224427,-1.46939 10.900973,-9.88997 17.161001,-8.5805 10.93266,2.28688 12.09132,19.64685 21.45124,25.74149 8.72459,5.68096 21.62262,2.44224 30.03174,8.5805 4.16472,3.04005 6.96933,7.9727 8.5805,12.87075 9.39465,28.56024 -0.40826,60.39892 4.29025,90.09523 2.54813,16.10508 3.48771,33.85763 12.87075,47.19274 10.04536,14.27638 31.89241,16.48543 42.90249,30.03174 6.86927,8.45166 7.33705,20.65115 12.87075,30.03175 8.28464,14.04391 15.94193,30.40589 30.03174,38.61224 8.54952,4.97952 19.50184,3.57333 29.36977,4.29025 14.84122,1.07825 29.8794,1.8743 44.64122,0 11.35364,-1.44157 23.00879,-3.46206 33.24524,-8.5805 8.19018,-4.09527 16.85111,-9.24335 21.45124,-17.161 13.81906,-23.78512 2.86437,-55.8911 12.87075,-81.51473 7.50253,-19.21194 26.29888,-32.48257 34.322,-51.48299 7.96505,-18.8629 10.71362,-39.7018 12.87074,-60.06349 0.90397,-8.53272 -3.79044,-18.04363 0,-25.74149 10.36132,-21.04241 32.33795,-43.86528 55.77324,-42.90249 21.24175,0.87267 26.52788,47.89618 47.19274,42.90249 11.87676,-2.87004 10.69064,-22.29945 12.87075,-34.32199 3.31711,-18.29271 3.51571,-37.51765 0,-55.77324 -1.45636,-7.56225 -2.71258,-16.46364 -8.5805,-21.45125 -10.04606,-8.53886 -26.0632,-4.53603 -38.61224,-8.5805 -10.36609,-3.34091 -19.52809,-9.99139 -30.03175,-12.87074 -17.00969,-4.66285 -34.89226,-10.13446 -52.4906,-10.59156 z M 398.1227,353.81682 c 2.23417,0.07 4.50336,0.87227 7.42833,1.56276 5.19997,1.22755 12.98129,4.70733 17.161,8.5805 4.17971,3.87317 7.99713,6.82605 7.71113,12.87075 -0.286,6.04469 -6.65187,13.33345 -12.62564,17.16099 -5.97379,3.82755 -14.81792,5.46102 -20.82699,4.29025 -6.00906,-1.17077 -10.30465,-3.7857 -12.87074,-8.5805 -2.5661,-4.79479 -1.39184,-11.26513 0,-17.16099 1.39183,-5.89587 4.03557,-14.35208 8.58049,-17.161 1.98841,-1.2289 3.70473,-1.61724 5.44242,-1.56276 z m -166.18012,4.77416 c 2.59717,-0.01 4.81503,0.30669 6.28874,1.07885 5.89483,3.08862 3.10148,3.54482 4.29025,8.5805 1.18876,5.03568 2.72018,17.0499 0,21.45124 -2.72018,4.40135 -4.24074,3.26577 -8.5805,4.29025 -4.33976,1.02448 -11.71584,2.25547 -17.161,0 -5.44516,-2.25547 -10.16204,-9.11263 -12.87075,-12.87075 -2.7087,-3.75811 -4.87032,-5.00593 -4.29024,-8.58049 0.58007,-3.57456 2.24927,-5.41488 8.58049,-8.5805 4.74844,-2.37422 15.95152,-5.33875 23.74301,-5.3691 z" /></g><metadata
     id="metadata1"><rdf:RDF><cc:Work
         rdf:about=""><dc:title>Template</dc:title><dc:date>2023</dc:date><dc:creator><cc:Agent><dc:title>Doug Palmer</dc:title></cc:Agent></dc:creator><dc:subject><rdf:Bag><rdf:li>icon map symbol</rdf:li></rdf:Bag></dc:subject><cc:license
           rdf:resource="http://creativecommons.org/licenses/by/4.0/" /></cc:Work><cc:License
         rdf:about="http://creativecommons.org/licenses/by/4.0/"><cc:permits
           rdf:resource="http://creativecommons.org/ns#Reproduction" /><cc:permits
           rdf:resource="http://creativecommons.org/ns#Distribution" /><cc:requires
           rdf:resource="http://creativecommons.org/ns#Notice" /><cc:requires
           rdf:resource="http://creativecommons.org/ns#Attribution" /><cc:permits
           rdf:resource="http://creativecommons.org/ns#DerivativeWorks" /></cc:License></rdf:RDF></metadata></svg>
