<?xml version="1.0" encoding="UTF-8" standalone="no"?>
<!-- Created with Inkscape (http://www.inkscape.org/) -->

<svg
   width="600"
   height="750"
   viewBox="0 0 600 750"
   version="1.1"
   id="svg1"
   inkscape:version="1.3 (0e150ed, 2023-07-21)"
   sodipodi:docname="food.svg"
   xml:space="preserve"
   xmlns:inkscape="http://www.inkscape.org/namespaces/inkscape"
   xmlns:sodipodi="http://sodipodi.sourceforge.net/DTD/sodipodi-0.dtd"
   xmlns="http://www.w3.org/2000/svg"
   xmlns:svg="http://www.w3.org/2000/svg"
   xmlns:rdf="http://www.w3.org/1999/02/22-rdf-syntax-ns#"
   xmlns:cc="http://creativecommons.org/ns#"
   xmlns:dc="http://purl.org/dc/elements/1.1/"><title
     id="title2">Template</title><sodipodi:namedview
     id="namedview1"
     pagecolor="#ffffff"
     bordercolor="#000000"
     borderopacity="0.25"
     inkscape:showpageshadow="2"
     inkscape:pageopacity="0.0"
     inkscape:pagecheckerboard="false"
     inkscape:deskcolor="#d1d1d1"
     inkscape:document-units="px"
     showgrid="true"
     showguides="true"
     inkscape:zoom="0.5946522"
     inkscape:cx="515.42733"
     inkscape:cy="517.10899"
     inkscape:window-width="1528"
     inkscape:window-height="996"
     inkscape:window-x="828"
     inkscape:window-y="25"
     inkscape:window-maximized="0"
     inkscape:current-layer="layer1"
     inkscape:lockguides="true"><inkscape:grid
       id="grid2"
       units="px"
       originx="0"
       originy="0"
       spacingx="4"
       spacingy="4"
       empcolor="#0099e5"
       empopacity="0.30196078"
       color="#0099e5"
       opacity="0.14901961"
       empspacing="5"
       dotted="false"
       gridanglex="30"
       gridanglez="30"
       visible="true" /><sodipodi:guide
       position="0,730"
       orientation="0,1"
       id="guide3"
       inkscape:locked="true"
       inkscape:label=""
       inkscape:color="rgb(0,134,229)" /><sodipodi:guide
       position="-40,-230"
       orientation="0,1"
       id="guide4"
       inkscape:locked="true"
       inkscape:label=""
       inkscape:color="rgb(0,134,229)" /><sodipodi:guide
       position="20,750"
       orientation="-1,0"
       id="guide5"
       inkscape:locked="true"
       inkscape:label=""
       inkscape:color="rgb(0,134,229)" /><sodipodi:guide
       position="580,750"
       orientation="-1,0"
       id="guide6"
       inkscape:locked="true"
       inkscape:label=""
       inkscape:color="rgb(0,134,229)" /><sodipodi:guide
       position="300,750"
       orientation="-1,0"
       id="guide7"
       inkscape:locked="true"
       inkscape:label=""
       inkscape:color="rgb(0,134,229)" /><sodipodi:guide
       position="300,550"
       orientation="0,1"
       id="guide8"
       inkscape:locked="true"
       inkscape:label=""
       inkscape:color="rgb(0,134,229)" /><sodipodi:guide
       position="0,450"
       orientation="0,1"
       id="guide9"
       inkscape:locked="true"
       inkscape:label=""
       inkscape:color="rgb(0,134,229)" /><sodipodi:guide
       position="0,-70"
       orientation="0,1"
       id="guide10"
       inkscape:locked="true"
       inkscape:label=""
       inkscape:color="rgb(0,134,229)" /><sodipodi:guide
       position="0,150"
       orientation="0,1"
       id="guide1"
       inkscape:locked="true"
       inkscape:label=""
       inkscape:color="rgb(0,134,229)" /><sodipodi:guide
       position="300,350"
       orientation="0,1"
       id="guide2"
       inkscape:label=""
       inkscape:locked="true"
       inkscape:color="rgb(0,134,229)" /></sodipodi:namedview><defs
     id="defs1"><inkscape:path-effect
       effect="fillet_chamfer"
       id="path-effect4"
       is_visible="true"
       lpeversion="1"
       nodesatellites_param="F,0,0,1,0,10,0,1 @ F,0,0,1,0,10,0,1 @ F,0,0,1,0,10,0,1 @ F,0,0,1,0,10,0,1 @ F,0,0,1,0,10,0,1 @ F,0,0,1,0,10,0,1 @ F,0,0,1,0,10,0,1 @ F,0,0,1,0,10,0,1 @ F,0,0,1,0,10,0,1 @ F,0,0,1,0,10,0,1 @ F,0,0,1,0,10,0,1 @ F,0,0,1,0,10,0,1 @ F,0,0,1,0,10,0,1 @ F,0,0,1,0,10,0,1"
       radius="10"
       unit="px"
       method="auto"
       mode="F"
       chamfer_steps="1"
       flexible="false"
       use_knot_distance="true"
       apply_no_radius="true"
       apply_with_radius="true"
       only_selected="false"
       hide_knots="false" /><inkscape:path-effect
       effect="fillet_chamfer"
       id="path-effect2"
       is_visible="true"
       lpeversion="1"
       nodesatellites_param="F,0,0,1,0,20,0,1 @ F,0,0,1,0,20,0,1 @ F,0,0,1,0,20,0,1 @ F,0,0,1,0,20,0,1 @ F,0,0,1,0,20,0,1 @ F,0,0,1,0,20,0,1 @ F,0,0,1,0,20,0,1 @ F,0,0,1,0,20,0,1 @ F,0,0,1,0,20,0,1 @ F,0,0,1,0,20,0,1 @ F,0,0,1,0,20,0,1"
       radius="20"
       unit="px"
       method="auto"
       mode="F"
       chamfer_steps="1"
       flexible="false"
       use_knot_distance="true"
       apply_no_radius="true"
       apply_with_radius="true"
       only_selected="false"
       hide_knots="false" /><inkscape:path-effect
       effect="fillet_chamfer"
       id="path-effect3"
       is_visible="true"
       lpeversion="1"
       nodesatellites_param="F,0,0,1,0,64,0,1 @ F,0,0,1,0,64,0,1 @ F,0,0,1,0,64,0,1 @ F,0,0,1,0,64,0,1 @ F,0,0,1,0,64,0,1 @ F,0,0,1,0,64,0,1 @ F,0,0,1,0,64,0,1 @ F,0,0,1,0,64,0,1 @ F,0,0,1,0,64,0,1 @ F,0,0,1,0,64,0,1 @ F,0,0,1,0,64,0,1 @ F,0,0,1,0,64,0,1"
       radius="65"
       unit="px"
       method="auto"
       mode="F"
       chamfer_steps="1"
       flexible="false"
       use_knot_distance="true"
       apply_no_radius="true"
       apply_with_radius="true"
       only_selected="false"
       hide_knots="false" /></defs><g
     inkscape:label="Layer 1"
     inkscape:groupmode="layer"
     id="layer1"><path
       id="path1"
       style="opacity:0.99;fill:#000000;stroke:none;stroke-width:8.60467;stroke-linecap:round;stroke-linejoin:round;stroke-opacity:1"
       d="m 229.18507,306.94604 c -6.55421,0.11705 -12.55812,1.2558 -17.34883,4.21662 -12.77524,7.89553 -6.12081,21.85777 -17.20933,34.41867 -11.08854,12.5609 -40.49359,25.29063 -51.62801,34.41867 -11.13442,9.12804 -12.73093,7.78226 -17.20933,17.20934 -4.47841,9.42707 -6.99586,25.88118 -3.88219,38.08573 3.11367,12.20455 14.52743,22.85149 21.09152,30.75161 6.56408,7.90011 3.50125,7.01871 17.20934,17.20933 13.70808,10.19062 48.79424,25.44187 68.83734,36.99503 20.04308,11.55316 39.14243,28.30157 51.628,31.84231 12.48556,3.54074 8.17588,2.13251 17.20934,0 9.03345,-2.13251 16.05325,-3.97229 34.41867,-17.20933 18.3654,-13.23705 59.3354,-45.89765 68.83734,-68.83734 9.50193,-22.9397 3.45047,-37.01157 0,-51.62801 -3.45048,-14.61644 -8.71579,-22.63449 -17.20934,-34.41867 -8.49354,-11.78418 -22.6345,-25.92512 -34.41867,-34.41867 -11.78418,-8.49355 -20.11365,-11.28401 -34.41867,-17.20934 -14.30502,-5.92532 -34.18146,-14.37815 -51.628,-17.20933 -10.9041,-1.76949 -23.35551,-4.41172 -34.27918,-4.21662 z m -57.69666,96.33698 c 2.5745,-0.0145 5.17434,0.18196 7.83496,0.81005 7.09497,1.6749 11.86232,4.78666 20.6512,10.3256 8.78889,5.53895 21.20805,15.46939 30.9768,24.09307 9.76875,8.62367 18.863,17.19866 27.53494,27.53494 8.67194,10.33627 17.86732,23.40449 24.09307,34.41867 6.22574,11.01417 12.23738,23.7667 13.76747,30.9768 1.53009,7.2101 2.83939,7.48621 0,10.3256 -2.8394,2.83939 -0.63699,3.57554 -13.76747,0 -13.13048,-3.57554 -42.93472,-25.95565 -58.51174,-34.41867 -15.57702,-8.46302 -24.6966,-11.35586 -34.41867,-17.20934 -9.72207,-5.85347 -16.6138,-10.87344 -24.09307,-17.20933 -7.47927,-6.33589 -15.87774,-14.15422 -20.6512,-20.6512 -4.77347,-6.49698 -7.18203,-11.11568 -8.88365,-16.98414 -1.70162,-5.86845 -1.92974,-12.44967 -1.44195,-17.43453 0.48779,-4.98487 -0.8449,-8.55736 3.44186,-12.07679 4.28676,-3.51942 13.76172,-1.40923 20.65121,-1.69068 4.30593,-0.17591 8.52541,-0.78599 12.81624,-0.81005 z" /><path
       style="color:#000000;opacity:0.99;fill:#000000;stroke-width:0.860467;stroke-linecap:round;stroke-linejoin:round;-inkscape-stroke:none"
       d="m 73.65738,452.30273 c -0.06626,0.0269 -0.131815,0.0555 -0.196634,0.0857 l 0.07564,-0.0806 c -3.446213,0.15959 -6.441334,0.88114 -9.073553,1.25709 -0.03089,0.004 -0.0617,0.009 -0.09243,0.0134 -3.430285,0.56597 -7.023706,1.27547 -10.62475,2.49905 -0.0043,0.002 -0.0077,0.003 -0.01179,0.005 -0.736146,0.2525 -1.451065,0.52402 -2.090667,0.78484 -3.814673,1.49566 -7.105786,3.82287 -9.885283,6.50392 -5.651469,5.27549 -9.308535,12.20667 -11.36757,19.13194 -0.0011,0.003 -0.0022,0.008 -0.0034,0.0118 -2.325762,7.61359 -3.931651,15.89839 -2.939367,24.40566 l 1.342449,8.30025 c 0.310884,5.72731 0.425517,7.50227 4.737609,15.21786 6.013509,6.05188 9.455376,9.49375 13.846415,16.11186 7.159617,6.43288 14.773793,12.05653 22.09652,17.74881 0.01007,0.008 0.02013,0.0157 0.03029,0.0235 7.759956,5.92266 16.067917,11.1805 24.886316,15.50689 3.746404,1.84755 6.717175,3.28693 10.549475,4.84697 l 0.98632,0.3949 c 4.98593,2.01873 10.20247,3.82725 15.36404,5.45019 5.15073,1.61976 10.50516,3.12527 15.79258,4.46198 0.003,5.8e-4 0.006,8.6e-4 0.009,0.002 5.2606,1.3183 10.56618,2.52671 16.03459,3.45868 5.19682,0.90183 10.59132,1.49196 15.87494,1.83521 5.88549,0.38205 11.65184,0.5975 17.30345,1.11423 0.0145,0.002 0.0292,0.003 0.0437,0.005 2.59934,0.21059 5.23767,0.41156 7.91898,0.53275 0.0185,8.6e-4 0.037,0.003 0.0555,0.003 0.53131,0.0173 1.37343,0.0656 2.09907,0.0656 h 0.003 c 1.89887,0 3.87289,0.0256 5.77285,-0.0908 1.06207,-0.0614 2.35013,-0.16832 3.56623,-0.32939 8.6e-4,-1.5e-4 0.003,1.4e-4 0.003,0 4.89199,-0.63479 9.43661,-2.05081 13.71705,-3.50406 0.0259,-0.009 0.0516,-0.0176 0.0774,-0.0268 5.36716,-1.9354 10.95319,-4.32473 15.9035,-8.16771 3.17375,-2.46339 4.23683,-14.01202 5.78165,-17.59556 0.004,-0.01 0.008,-0.019 0.0118,-0.0286 1.99157,-4.71253 1.12556,-9.17686 0.80165,-12.43643 -0.008,-0.0775 -0.0181,-0.1549 -0.0303,-0.23192 -0.21666,-1.39962 -0.0962,-2.55763 0.25881,-3.30574 l -0.0101,0.0235 c 0.58839,-1.22134 1.77445,-3.73045 0.6151,-6.69214 -1.27767,-3.56359 -3.42347,-6.12876 -5.02836,-8.28032 -0.0253,-0.034 -0.051,-0.0676 -0.0773,-0.10083 -2.58301,-3.25772 -5.29252,-6.46696 -8.19964,-9.53908 -0.0161,-0.017 -0.0324,-0.0337 -0.0487,-0.0504 -1.35923,-1.39019 -2.75894,-2.6328 -4.11915,-3.8032 -0.0293,-0.025 -0.059,-0.0497 -0.0891,-0.0739 -0.25429,-0.2072 -0.80885,-0.6736 -1.23692,-1.02853 -0.0167,-0.0136 -0.0335,-0.027 -0.0504,-0.0404 -0.44517,-0.35806 -1.12937,-0.91786 -1.76463,-1.40834 l -0.0185,-0.0134 c -2.43296,-1.90418 -4.91575,-3.68985 -7.36271,-5.38296 -0.004,-0.003 -0.009,-0.006 -0.0134,-0.009 -10.42039,-7.14987 -21.26786,-13.42415 -32.17675,-19.47982 -0.004,-0.003 -0.008,-0.004 -0.0118,-0.007 -23.73374,-13.07619 -48.01778,-24.92741 -72.43551,-36.41522 -0.006,-0.003 -0.0123,-0.007 -0.0185,-0.0101 -6.19472,-2.87712 -12.446018,-5.90096 -18.960517,-8.58787 -2.078801,-0.86122 -4.525298,-1.73376 -7.386229,-1.85873 l 0.218481,0.0151 c -2.806326,-0.26533 -6.18377,-1.31513 -10.453329,-1.23861 z m 0.203354,8.60971 c 2.546809,-0.035 5.544245,0.8266 9.439922,1.19491 0.07211,0.007 0.144413,0.012 0.216795,0.0151 1.269756,0.0555 2.764198,0.50492 4.473756,1.2134 l 0.0069,0.003 c 6.200463,2.55737 12.340013,5.52342 18.616003,8.43829 24.337,11.45003 48.44666,23.22021 71.92628,36.1564 10.81515,6.00383 21.41759,12.1454 31.47259,19.04455 2.36127,1.63406 4.70715,3.32337 6.95767,5.0855 0.009,0.007 0.0179,0.0134 0.0268,0.0201 0.47259,0.3642 1.11109,0.88439 1.60329,1.28062 0.35959,0.29818 0.84682,0.70802 1.2218,1.01508 1.27188,1.09482 2.47022,2.16839 3.5427,3.26373 2.66121,2.81476 5.19059,5.80423 7.64168,8.89373 1.64531,2.20533 2.98684,4.04074 3.65531,5.72244 -0.0227,0.0613 -0.0166,0.0576 -0.13949,0.31259 -0.003,0.007 -0.007,0.0145 -0.0101,0.0219 -1.36081,2.86734 -1.37622,5.81476 -0.98987,8.31056 l -0.0286,-0.2336 c 0.35638,3.58623 0.61232,6.37867 -0.16302,8.22485 -1.00261,2.31773 -2.57081,4.40304 -4.4872,5.8905 -3.80973,2.95753 -8.5162,5.05406 -13.51538,6.85852 -4.10498,1.39259 -8.09918,2.59777 -12.01628,3.10575 -0.004,5.6e-4 -0.009,8.6e-4 -0.0134,0.002 -0.91292,0.12127 -2.08346,0.22024 -2.95786,0.27057 -0.005,5.7e-4 -0.0101,8.6e-4 -0.0151,0.002 -1.56524,0.0958 -3.33211,0.11085 -5.06701,0.0756 -0.59807,-0.0127 -1.41039,-0.0448 -1.9915,-0.0639 h -0.0118 c -2.48555,-0.11348 -5.00338,-0.30565 -7.55766,-0.51259 l 0.0437,0.005 c -5.95797,-0.54474 -11.80022,-0.76255 -17.52865,-1.1344 -5.02868,-0.32669 -10.14114,-0.88842 -14.97413,-1.72765 -0.004,-5.8e-4 -0.008,-8.6e-4 -0.0118,-0.002 -5.16221,-0.87978 -10.24992,-2.03632 -15.38924,-3.32422 -5.13522,-1.2984 -10.3377,-2.75992 -15.31194,-4.32418 -4.99527,-1.57064 -10.00302,-3.30996 -14.7086,-5.2149 l -0.007,-0.003 c -3.56541,-1.45166 -7.35132,-3.20281 -10.967595,-4.98634 -0.0026,-0.002 -0.006,-0.003 -0.0086,-0.005 -8.261995,-4.05341 -16.098799,-9.00585 -23.456126,-14.62122 -7.411716,-5.7607 -14.831418,-11.25802 -21.568812,-17.30848 l -0.0069,-0.007 c -4.779118,-4.36653 -9.175992,-8.86258 -12.138966,-13.98931 -1.983066,-3.57107 -3.170398,-7.70148 -3.670433,-11.95746 v -0.003 c -0.791922,-6.79539 0.492162,-13.92547 2.631824,-20.92178 0.0034,-0.0112 0.0069,-0.0224 0.01007,-0.0336 1.707253,-5.74705 4.771891,-11.37354 9.00969,-15.32202 0.01919,-0.0183 0.03829,-0.0368 0.05714,-0.0555 2.130317,-2.06018 4.529049,-3.71371 7.088766,-4.71576 0.02082,-0.008 0.04156,-0.0156 0.06221,-0.0236 0.4762,-0.19499 1.079989,-0.42412 1.660435,-0.62351 l 0.01179,-0.003 c 2.895419,-0.98271 6.0148,-1.61864 9.241619,-2.15117 0.0017,-2.9e-4 0.0034,-0.002 0.0052,-0.002 3.067358,-0.44309 5.740157,-1.03905 8.088723,-1.15625 z"
       id="path2"
       sodipodi:nodetypes="cccccccccccccccscccccccccccccsscscscccccccccscscccccccccccccccccccsccccccccccccccccccccscccccccccscccccccccccccscccccccsccc" /><path
       style="opacity:0.99;fill:#000000;stroke:none;stroke-width:20;stroke-linecap:round;stroke-linejoin:round;stroke-dasharray:none;stroke-opacity:1"
       d="m 429.48683,636.83772 41.02634,-13.67544 A 13.874259,13.874259 125.78253 0 0 480,610 v -80 c 0,-5.52285 -4.14714,-11.6892 -9.2023,-13.91305 -6.40057,-2.81573 -15.05114,-6.81102 -22.2996,-10.82886 -4.82715,-2.6757 -12.21467,-7.76529 -16.55872,-11.17497 -2.29605,-1.80218 -4.49717,-3.7109 -6.43567,-5.79799 -3.73845,-4.02502 -7.29784,-12.48843 -7.89522,-17.96005 -0.72314,-6.62362 0.0557,-13.57206 1.01412,-20.42082 0.76534,-5.46933 1.93036,-14.3509 2.938,-19.7802 C 425.27139,410.13 432.88816,383.5586 437.07785,369.5621 438.66141,364.27193 444.47715,360 450,360 h 80 c 5.52285,0 11.33877,4.27249 12.92252,9.56334 4.18986,13.99713 11.80653,40.56839 15.5171,60.562 1.00749,5.42859 2.17245,14.30971 2.93781,19.77917 0.95838,6.84877 1.73723,13.79721 1.01405,20.42082 -0.59739,5.47148 -4.15677,13.93484 -7.89528,17.9599 -1.93851,2.08708 -4.13963,3.99579 -6.43568,5.79798 -4.344,3.40962 -11.73193,8.49948 -16.55968,11.17546 -7.24866,4.01788 -15.89928,8.01315 -22.29965,10.82876 C 504.14664,518.311 500,524.47715 500,530 v 80 a 13.874259,13.874259 54.217474 0 0 9.48683,13.16228 l 41.02634,13.67544 A 1.6227766,1.6227766 99.217474 0 1 550,640 H 430 a 1.6227766,1.6227766 80.782526 0 1 -0.51317,-3.16228 z"
       id="path3"
       sodipodi:nodetypes="cccsssccssscccc"
       inkscape:path-effect="#path-effect4"
       inkscape:original-d="m 420,640 60,-20 V 520 c 0,0 -27.90672,-11.28365 -40,-20 -7.64846,-5.5127 -16.39203,-11.28958 -20,-20 -5.10245,-12.31839 -1.62911,-26.76657 0,-40 3.3585,-27.28142 20,-80 20,-80 h 100 c 0,0 16.6415,52.71858 20,80 1.62911,13.23343 5.10245,27.68161 0,40 -3.60797,8.71042 -12.35154,14.4873 -20,20 -12.09328,8.71635 -40,20 -40,20 v 100 l 60,20 z"
       transform="translate(-3.3633105,-47.702027)" /></g><metadata
     id="metadata1"><rdf:RDF><cc:Work
         rdf:about=""><dc:title>Template</dc:title><dc:date>2023</dc:date><dc:creator><cc:Agent><dc:title>Doug Palmer</dc:title></cc:Agent></dc:creator><dc:subject><rdf:Bag><rdf:li>icon map symbol</rdf:li></rdf:Bag></dc:subject><cc:license
           rdf:resource="http://creativecommons.org/licenses/by/4.0/" /></cc:Work><cc:License
         rdf:about="http://creativecommons.org/licenses/by/4.0/"><cc:permits
           rdf:resource="http://creativecommons.org/ns#Reproduction" /><cc:permits
           rdf:resource="http://creativecommons.org/ns#Distribution" /><cc:requires
           rdf:resource="http://creativecommons.org/ns#Notice" /><cc:requires
           rdf:resource="http://creativecommons.org/ns#Attribution" /><cc:permits
           rdf:resource="http://creativecommons.org/ns#DerivativeWorks" /></cc:License></rdf:RDF></metadata></svg>
