<?xml version="1.0" encoding="UTF-8" standalone="no"?>
<!-- Created with Inkscape (http://www.inkscape.org/) -->

<svg
   width="600"
   height="750"
   viewBox="0 0 600 750"
   version="1.1"
   id="svg1"
   inkscape:version="1.3 (0e150ed, 2023-07-21)"
   sodipodi:docname="globe.svg"
   xmlns:inkscape="http://www.inkscape.org/namespaces/inkscape"
   xmlns:sodipodi="http://sodipodi.sourceforge.net/DTD/sodipodi-0.dtd"
   xmlns="http://www.w3.org/2000/svg"
   xmlns:svg="http://www.w3.org/2000/svg"
   xmlns:rdf="http://www.w3.org/1999/02/22-rdf-syntax-ns#"
   xmlns:cc="http://creativecommons.org/ns#"
   xmlns:dc="http://purl.org/dc/elements/1.1/">
  <title
     id="title2">Template</title>
  <sodipodi:namedview
     id="namedview1"
     pagecolor="#ffffff"
     bordercolor="#000000"
     borderopacity="0.25"
     inkscape:showpageshadow="2"
     inkscape:pageopacity="0.0"
     inkscape:pagecheckerboard="false"
     inkscape:deskcolor="#d1d1d1"
     inkscape:document-units="px"
     showgrid="true"
     showguides="true"
     inkscape:zoom="0.84096521"
     inkscape:cx="410.83745"
     inkscape:cy="398.94635"
     inkscape:window-width="1528"
     inkscape:window-height="996"
     inkscape:window-x="664"
     inkscape:window-y="193"
     inkscape:window-maximized="0"
     inkscape:current-layer="layer1"
     inkscape:lockguides="true">
    <inkscape:grid
       id="grid2"
       units="px"
       originx="0"
       originy="0"
       spacingx="4"
       spacingy="4"
       empcolor="#0099e5"
       empopacity="0.30196078"
       color="#0099e5"
       opacity="0.14901961"
       empspacing="5"
       dotted="false"
       gridanglex="30"
       gridanglez="30"
       visible="true" />
    <sodipodi:guide
       position="0,730"
       orientation="0,1"
       id="guide3"
       inkscape:locked="true"
       inkscape:label=""
       inkscape:color="rgb(0,134,229)" />
    <sodipodi:guide
       position="-40,-230"
       orientation="0,1"
       id="guide4"
       inkscape:locked="true"
       inkscape:label=""
       inkscape:color="rgb(0,134,229)" />
    <sodipodi:guide
       position="20,750"
       orientation="-1,0"
       id="guide5"
       inkscape:locked="true"
       inkscape:label=""
       inkscape:color="rgb(0,134,229)" />
    <sodipodi:guide
       position="580,750"
       orientation="-1,0"
       id="guide6"
       inkscape:locked="true"
       inkscape:label=""
       inkscape:color="rgb(0,134,229)" />
    <sodipodi:guide
       position="300,750"
       orientation="-1,0"
       id="guide7"
       inkscape:locked="true"
       inkscape:label=""
       inkscape:color="rgb(0,134,229)" />
    <sodipodi:guide
       position="300,550"
       orientation="0,1"
       id="guide8"
       inkscape:locked="true"
       inkscape:label=""
       inkscape:color="rgb(0,134,229)" />
    <sodipodi:guide
       position="0,450"
       orientation="0,1"
       id="guide9"
       inkscape:locked="true"
       inkscape:label=""
       inkscape:color="rgb(0,134,229)" />
    <sodipodi:guide
       position="0,-70"
       orientation="0,1"
       id="guide10"
       inkscape:locked="true"
       inkscape:label=""
       inkscape:color="rgb(0,134,229)" />
    <sodipodi:guide
       position="0,150"
       orientation="0,1"
       id="guide1"
       inkscape:locked="true"
       inkscape:label=""
       inkscape:color="rgb(0,134,229)" />
    <sodipodi:guide
       position="300,350"
       orientation="0,1"
       id="guide2"
       inkscape:label=""
       inkscape:locked="true"
       inkscape:color="rgb(0,134,229)" />
  </sodipodi:namedview>
  <defs
     id="defs1">
    <inkscape:path-effect
       effect="fillet_chamfer"
       id="path-effect2"
       is_visible="true"
       lpeversion="1"
       nodesatellites_param="F,0,0,1,0,20,0,1 @ F,0,0,1,0,20,0,1 @ F,0,0,1,0,20,0,1 @ F,0,0,1,0,20,0,1 @ F,0,0,1,0,20,0,1 @ F,0,0,1,0,20,0,1 @ F,0,0,1,0,20,0,1 @ F,0,0,1,0,20,0,1 @ F,0,0,1,0,20,0,1 @ F,0,0,1,0,20,0,1 @ F,0,0,1,0,20,0,1"
       radius="20"
       unit="px"
       method="auto"
       mode="F"
       chamfer_steps="1"
       flexible="false"
       use_knot_distance="true"
       apply_no_radius="true"
       apply_with_radius="true"
       only_selected="false"
       hide_knots="false" />
    <inkscape:path-effect
       effect="fillet_chamfer"
       id="path-effect3"
       is_visible="true"
       lpeversion="1"
       nodesatellites_param="F,0,0,1,0,64,0,1 @ F,0,0,1,0,64,0,1 @ F,0,0,1,0,64,0,1 @ F,0,0,1,0,64,0,1 @ F,0,0,1,0,64,0,1 @ F,0,0,1,0,64,0,1 @ F,0,0,1,0,64,0,1 @ F,0,0,1,0,64,0,1 @ F,0,0,1,0,64,0,1 @ F,0,0,1,0,64,0,1 @ F,0,0,1,0,64,0,1 @ F,0,0,1,0,64,0,1"
       radius="65"
       unit="px"
       method="auto"
       mode="F"
       chamfer_steps="1"
       flexible="false"
       use_knot_distance="true"
       apply_no_radius="true"
       apply_with_radius="true"
       only_selected="false"
       hide_knots="false" />
  </defs>
  <g
     inkscape:label="Layer 1"
     inkscape:groupmode="layer"
     id="layer1">
    <path
       style="color:#000000;opacity:0.99;fill:#000000;stroke-linecap:round;stroke-linejoin:round;-inkscape-stroke:none"
       d="m 293.53906,61.04883 c -148.99829,0 -270,121.00171 -270,270 0,148.99829 121.00171,270 270,270 148.99829,0 270,-121.00171 270,-270 0,-148.99829 -121.00171,-270 -270,-270 z m 0,20 c 138.1895,0 250,111.8105 250,250 0,138.1895 -111.8105,250 -250,250 -138.1895,0 -250,-111.8105 -250,-250 0,-138.1895 111.8105,-250 250,-250 z"
       id="path1" />
    <path
       style="color:#000000;opacity:0.99;fill:#000000;stroke-linecap:round;stroke-linejoin:round;-inkscape-stroke:none"
       d="m 269.79101,592.19141 a 10,10 0 0 1 10,-10 c 7.5177,0 15.90906,-4.70726 24.93164,-16.31446 9.02259,-11.60719 17.85608,-29.52611 25.30274,-52.09765 14.89331,-45.14309 24.48747,-108.78032 24.78906,-179.3457 0.30159,-70.56539 -8.7392,-134.96541 -23.26953,-181.38282 C 324.27976,129.84208 315.59011,111.15 306.56445,98.67383 297.53879,86.197663 288.76943,80.573714 281.21875,79.964846 a 10,10 0 0 1 -9.16407,-10.771485 10,10 0 0 1 10.77149,-9.164062 c 15.70427,1.266353 28.98988,11.780876 39.94336,26.921875 10.95348,15.140996 20.16795,35.542126 27.86328,60.124996 15.39066,49.16575 24.49069,115.1331 24.18164,187.44336 -0.30905,72.31026 -9.96261,137.53017 -25.79687,185.52539 -7.91714,23.99761 -17.31821,43.71748 -28.50391,58.10743 -11.1857,14.38994 -24.97739,24.03906 -40.72266,24.03906 a 10,10 0 0 1 -10,-10 z"
       id="path1-3-4-0" />
    <path
       style="color:#000000;opacity:0.99;fill:#000000;stroke-linecap:round;stroke-linejoin:round;-inkscape-stroke:none"
       d="m 299.22656,592.14649 a 10,10 0 0 0 -10,-10 c -7.5177,0 -15.90905,-4.70727 -24.93164,-16.31446 -9.02259,-11.60719 -17.85608,-29.52611 -25.30274,-52.09765 -14.8933,-45.14309 -24.48746,-108.78032 -24.78906,-179.34571 -0.30159,-70.56538 8.73921,-134.96344 23.26953,-181.38086 7.26517,-23.2087 15.95481,-41.90274 24.98047,-54.378902 9.02566,-12.476167 17.79502,-18.100116 25.34571,-18.708984 A 10,10 0 0 0 296.96289,69.148439 10,10 0 0 0 286.1914,59.984377 C 270.48713,61.25073 257.20348,71.765253 246.25,86.906252 235.29651,102.04725 226.08009,122.44838 218.38476,147.03125 202.99411,196.197 193.89407,262.16435 194.20312,334.47461 194.51217,406.78487 204.16573,472.00478 220,520 c 7.91713,23.99761 17.3182,43.71748 28.5039,58.10742 11.1857,14.38995 24.97739,24.03907 40.72266,24.03907 a 10,10 0 0 0 10,-10 z"
       id="path1-3-4-0-3" />
    <path
       style="color:#000000;opacity:0.99;fill:#000000;stroke-linecap:round;stroke-linejoin:round;-inkscape-stroke:none"
       d="m 271.07422,590.9082 a 10,10 0 0 1 10,-10 c 49.03785,0 93.87816,-26.50986 127.19921,-70.9121 33.32106,-44.40225 54.57821,-106.53234 55.25,-175.63477 0.6718,-69.10243 -19.37121,-131.99467 -51.8496,-177.60742 -32.4784,-45.61276 -76.87831,-73.742541 -125.90235,-75.480471 a 10,10 0 0 1 -9.63867,-10.347656 10,10 0 0 1 10.34766,-9.640625 c 56.24955,1.994079 106.2396,34.368545 141.48632,83.869142 35.24673,49.50059 56.26507,116.33139 55.55469,189.40234 C 482.8111,407.62759 460.49929,473.72173 424.26953,522 c -36.22976,48.27827 -86.9233,78.90821 -143.19531,78.9082 a 10,10 0 0 1 -10,-10 z"
       id="path1-3-4-0-6" />
    <path
       style="color:#000000;opacity:0.99;fill:#000000;stroke-linecap:round;stroke-linejoin:round;-inkscape-stroke:none"
       d="m 296.0039,590.9082 a 10,10 0 0 0 -10,-10 c -49.03785,0 -93.87816,-26.50986 -127.19922,-70.9121 -33.32105,-44.40225 -54.5782,-106.53234 -55.24999,-175.63477 -0.6718,-69.10243 19.37121,-131.99467 51.8496,-177.60742 32.4784,-45.61276 76.87831,-73.742541 125.90235,-75.480471 a 10,10 0 0 0 9.63867,-10.347656 10,10 0 0 0 -10.34766,-9.640625 C 224.3481,63.279237 174.35805,95.653703 139.11133,145.1543 103.8646,194.65489 82.846259,261.48569 83.556638,334.55664 84.267017,407.62759 106.57883,473.72173 142.80859,522 c 36.22976,48.27827 86.9233,78.9082 143.19531,78.9082 a 10,10 0 0 0 10,-10 z"
       id="path1-3-4-0-6-1" />
    <path
       style="color:#000000;opacity:0.99;fill:#000000;stroke-linecap:round;stroke-linejoin:round;-inkscape-stroke:none"
       d="m 33.53906,321.04883 a 10,10 0 0 0 -10,10 10,10 0 0 0 10,10 h 520 a 10,10 0 0 0 10,-10 10,10 0 0 0 -10,-10 z"
       id="path2" />
    <path
       style="color:#000000;opacity:0.99;fill:#000000;stroke-linecap:round;stroke-linejoin:round;-inkscape-stroke:none"
       d="m 73.53906,201.04883 a 10,10 0 0 0 -10,10 10,10 0 0 0 10,10 h 440 a 10,10 0 0 0 10,-10 10,10 0 0 0 -10,-10 z"
       id="path4" />
    <path
       style="color:#000000;opacity:0.99;fill:#000000;stroke-linecap:round;stroke-linejoin:round;-inkscape-stroke:none"
       d="m 523.48828,437.45313 -460.000001,2.37695 a 10,10 0 0 0 -9.949219,10.05273 10,10 0 0 0 10.050781,9.94727 l 459.999999,-2.37891 a 10,10 0 0 0 9.94922,-10.05078 10,10 0 0 0 -10.05078,-9.94726 z"
       id="path5" />
  </g>
  <metadata
     id="metadata1">
    <rdf:RDF>
      <cc:Work
         rdf:about="">
        <dc:title>Template</dc:title>
        <dc:date>2023</dc:date>
        <dc:creator>
          <cc:Agent>
            <dc:title>Doug Palmer</dc:title>
          </cc:Agent>
        </dc:creator>
        <dc:subject>
          <rdf:Bag>
            <rdf:li>icon map symbol</rdf:li>
          </rdf:Bag>
        </dc:subject>
        <cc:license
           rdf:resource="http://creativecommons.org/licenses/by/4.0/" />
      </cc:Work>
      <cc:License
         rdf:about="http://creativecommons.org/licenses/by/4.0/">
        <cc:permits
           rdf:resource="http://creativecommons.org/ns#Reproduction" />
        <cc:permits
           rdf:resource="http://creativecommons.org/ns#Distribution" />
        <cc:requires
           rdf:resource="http://creativecommons.org/ns#Notice" />
        <cc:requires
           rdf:resource="http://creativecommons.org/ns#Attribution" />
        <cc:permits
           rdf:resource="http://creativecommons.org/ns#DerivativeWorks" />
      </cc:License>
    </rdf:RDF>
  </metadata>
</svg>
