<?xml version="1.0" encoding="UTF-8" standalone="no"?>
<!-- Created with Inkscape (http://www.inkscape.org/) -->

<svg
   width="600"
   height="750"
   viewBox="0 0 600 750"
   version="1.1"
   id="svg1"
   inkscape:version="1.3 (0e150ed, 2023-07-21)"
   sodipodi:docname="harp.svg"
   xml:space="preserve"
   xmlns:inkscape="http://www.inkscape.org/namespaces/inkscape"
   xmlns:sodipodi="http://sodipodi.sourceforge.net/DTD/sodipodi-0.dtd"
   xmlns="http://www.w3.org/2000/svg"
   xmlns:svg="http://www.w3.org/2000/svg"
   xmlns:rdf="http://www.w3.org/1999/02/22-rdf-syntax-ns#"
   xmlns:cc="http://creativecommons.org/ns#"
   xmlns:dc="http://purl.org/dc/elements/1.1/"><title
     id="title2">Template</title><sodipodi:namedview
     id="namedview1"
     pagecolor="#ffffff"
     bordercolor="#000000"
     borderopacity="0.25"
     inkscape:showpageshadow="2"
     inkscape:pageopacity="0.0"
     inkscape:pagecheckerboard="false"
     inkscape:deskcolor="#d1d1d1"
     inkscape:document-units="px"
     showgrid="true"
     showguides="true"
     inkscape:zoom="1.1893044"
     inkscape:cx="227.44387"
     inkscape:cy="344.31891"
     inkscape:window-width="1528"
     inkscape:window-height="996"
     inkscape:window-x="828"
     inkscape:window-y="25"
     inkscape:window-maximized="0"
     inkscape:current-layer="layer1"
     inkscape:lockguides="true"><inkscape:grid
       id="grid2"
       units="px"
       originx="0"
       originy="0"
       spacingx="4"
       spacingy="4"
       empcolor="#0099e5"
       empopacity="0.30196078"
       color="#0099e5"
       opacity="0.14901961"
       empspacing="5"
       dotted="false"
       gridanglex="30"
       gridanglez="30"
       visible="true" /><sodipodi:guide
       position="0,730"
       orientation="0,1"
       id="guide3"
       inkscape:locked="true"
       inkscape:label=""
       inkscape:color="rgb(0,134,229)" /><sodipodi:guide
       position="-40,-230"
       orientation="0,1"
       id="guide4"
       inkscape:locked="true"
       inkscape:label=""
       inkscape:color="rgb(0,134,229)" /><sodipodi:guide
       position="20,750"
       orientation="-1,0"
       id="guide5"
       inkscape:locked="true"
       inkscape:label=""
       inkscape:color="rgb(0,134,229)" /><sodipodi:guide
       position="580,750"
       orientation="-1,0"
       id="guide6"
       inkscape:locked="true"
       inkscape:label=""
       inkscape:color="rgb(0,134,229)" /><sodipodi:guide
       position="300,750"
       orientation="-1,0"
       id="guide7"
       inkscape:locked="true"
       inkscape:label=""
       inkscape:color="rgb(0,134,229)" /><sodipodi:guide
       position="300,550"
       orientation="0,1"
       id="guide8"
       inkscape:locked="true"
       inkscape:label=""
       inkscape:color="rgb(0,134,229)" /><sodipodi:guide
       position="0,450"
       orientation="0,1"
       id="guide9"
       inkscape:locked="true"
       inkscape:label=""
       inkscape:color="rgb(0,134,229)" /><sodipodi:guide
       position="0,-70"
       orientation="0,1"
       id="guide10"
       inkscape:locked="true"
       inkscape:label=""
       inkscape:color="rgb(0,134,229)" /><sodipodi:guide
       position="0,150"
       orientation="0,1"
       id="guide1"
       inkscape:locked="true"
       inkscape:label=""
       inkscape:color="rgb(0,134,229)" /><sodipodi:guide
       position="300,350"
       orientation="0,1"
       id="guide2"
       inkscape:label=""
       inkscape:locked="true"
       inkscape:color="rgb(0,134,229)" /></sodipodi:namedview><defs
     id="defs1"><inkscape:path-effect
       effect="fillet_chamfer"
       id="path-effect2"
       is_visible="true"
       lpeversion="1"
       nodesatellites_param="F,0,0,1,0,20,0,1 @ F,0,0,1,0,20,0,1 @ F,0,0,1,0,20,0,1 @ F,0,0,1,0,20,0,1 @ F,0,0,1,0,20,0,1 @ F,0,0,1,0,20,0,1 @ F,0,0,1,0,20,0,1 @ F,0,0,1,0,20,0,1 @ F,0,0,1,0,20,0,1 @ F,0,0,1,0,20,0,1 @ F,0,0,1,0,20,0,1"
       radius="20"
       unit="px"
       method="auto"
       mode="F"
       chamfer_steps="1"
       flexible="false"
       use_knot_distance="true"
       apply_no_radius="true"
       apply_with_radius="true"
       only_selected="false"
       hide_knots="false" /><inkscape:path-effect
       effect="fillet_chamfer"
       id="path-effect3"
       is_visible="true"
       lpeversion="1"
       nodesatellites_param="F,0,0,1,0,64,0,1 @ F,0,0,1,0,64,0,1 @ F,0,0,1,0,64,0,1 @ F,0,0,1,0,64,0,1 @ F,0,0,1,0,64,0,1 @ F,0,0,1,0,64,0,1 @ F,0,0,1,0,64,0,1 @ F,0,0,1,0,64,0,1 @ F,0,0,1,0,64,0,1 @ F,0,0,1,0,64,0,1 @ F,0,0,1,0,64,0,1 @ F,0,0,1,0,64,0,1"
       radius="65"
       unit="px"
       method="auto"
       mode="F"
       chamfer_steps="1"
       flexible="false"
       use_knot_distance="true"
       apply_no_radius="true"
       apply_with_radius="true"
       only_selected="false"
       hide_knots="false" /></defs><g
     inkscape:label="Layer 1"
     inkscape:groupmode="layer"
     id="layer1"><path
       style="color:#000000;opacity:0.99;fill:#000000;stroke-linecap:round;stroke-linejoin:round;-inkscape-stroke:none"
       d="m 57.701172,100.53125 c -9.117789,-2.595391 -18.100494,4.49971 -17.6875,13.9707 0,0 5.396127,125.86078 14.666015,190.25586 4.674808,32.47446 12.041672,65.5485 22.363282,96.81836 9.538518,28.89743 25.421891,53.12014 37.015621,77.22266 18.17136,37.77689 54.51368,113.33008 54.51368,113.33008 2.31505,4.81139 7.1821,7.87085 12.52148,7.87109 h 54.51562 c 6.20053,-7.8e-4 11.65029,-4.10941 13.35743,-10.07031 0,0 64.84064,-226.40213 91.04297,-340.71094 4.59922,-20.06433 5.92464,-42.42528 -0.19336,-63.62305 -3.76752,-13.05372 -10.67712,-26.77699 -23.32618,-36.01562 -9.26388,-6.76618 -19.20519,-8.33715 -27.82226,-9.82813 -8.61707,-1.49098 -15.82422,-1.94726 -15.82422,-1.94726 -4.96693,-0.31912 -9.72524,2.04253 -12.47461,6.1914 0,0 -4.77389,7.18833 -11.36133,15.15235 -6.58744,7.96401 -15.99798,16.28997 -18.89453,17.53711 -6.53638,2.81431 -17.03483,2.28039 -27.00391,-0.58985 -28.14344,-8.10289 -52.44295,-38.51229 -88.70703,-55.84961 C 94.196122,110.5858 57.701172,100.53125 57.701172,100.53125 Z M 88.92791,180 c 11.88806,3.79227 -8.015316,-3.832 0,0 27.91102,13.34385 61.14108,34.84725 101.07209,46.34395 13.38027,3.85237 33.97973,0.0642 50,-6.34395 20,-8 52,-28 60,-20 6.32456,6.32456 0.004,33.92245 -4,44 -40,94.46775 -88.25439,208.82983 -96,236 l -20,60 C 175.54729,530.74314 156.01093,501.90526 139.10156,466.75195 126.46684,440.48528 111.47537,417.23414 103.43164,392.86523 93.706398,363.4021 83.862353,332.10071 82.185547,300.79883 80,260 90.870139,217.65295 88.92791,180 Z"
       id="path1"
       sodipodi:nodetypes="ccsssccccssssccssssccsssssccsssc" /><path
       style="color:#000000;fill:#000000;stroke-linecap:round;stroke-linejoin:round;-inkscape-stroke:none;opacity:0.99"
       d="m 94.521484,239.22266 a 5,5 0 0 0 -3.298828,6.25586 l 73.007814,236 a 5,5 0 0 0 6.2539,3.29882 5,5 0 0 0 3.29883,-6.25586 l -73.00586,-236 a 5,5 0 0 0 -6.255856,-3.29882 z"
       id="path5" /><path
       style="color:#000000;fill:#000000;stroke-linecap:round;stroke-linejoin:round;-inkscape-stroke:none;opacity:0.99"
       d="m 142.5625,223.21094 a 5,5 0 0 0 -3.35156,6.22656 l 60,200 a 5,5 0 0 0 6.22656,3.35156 5,5 0 0 0 3.35156,-6.22656 l -60,-200 a 5,5 0 0 0 -6.22656,-3.35156 z"
       id="path5-4" /><path
       style="color:#000000;fill:#000000;stroke-linecap:round;stroke-linejoin:round;-inkscape-stroke:none;opacity:0.99"
       d="m 202.5293,239.2207 a 5,5 0 0 0 -3.3086,6.25 l 32,104 a 5,5 0 0 0 6.25,3.3086 5,5 0 0 0 3.3086,-6.25 l -32,-104 a 5,5 0 0 0 -6.25,-3.3086 z"
       id="path5-0" /><path
       style="color:#000000;fill:#000000;stroke-linecap:round;stroke-linejoin:round;-inkscape-stroke:none;opacity:0.99"
       d="m 258.5625,227.21094 a 5,5 0 0 0 -3.35156,6.22656 l 12,40 a 5,5 0 0 0 6.22656,3.35156 5,5 0 0 0 3.35156,-6.22656 l -12,-40 a 5,5 0 0 0 -6.22656,-3.35156 z"
       id="path5-7" /></g><metadata
     id="metadata1"><rdf:RDF><cc:Work
         rdf:about=""><dc:title>Template</dc:title><dc:date>2023</dc:date><dc:creator><cc:Agent><dc:title>Doug Palmer</dc:title></cc:Agent></dc:creator><dc:subject><rdf:Bag><rdf:li>icon map symbol</rdf:li></rdf:Bag></dc:subject><cc:license
           rdf:resource="http://creativecommons.org/licenses/by/4.0/" /></cc:Work><cc:License
         rdf:about="http://creativecommons.org/licenses/by/4.0/"><cc:permits
           rdf:resource="http://creativecommons.org/ns#Reproduction" /><cc:permits
           rdf:resource="http://creativecommons.org/ns#Distribution" /><cc:requires
           rdf:resource="http://creativecommons.org/ns#Notice" /><cc:requires
           rdf:resource="http://creativecommons.org/ns#Attribution" /><cc:permits
           rdf:resource="http://creativecommons.org/ns#DerivativeWorks" /></cc:License></rdf:RDF></metadata></svg>
