<?xml version="1.0" encoding="UTF-8" standalone="no"?>
<!-- Created with Inkscape (http://www.inkscape.org/) -->

<svg
   width="600"
   height="750"
   viewBox="0 0 600 750"
   version="1.1"
   id="svg1"
   inkscape:version="1.3 (0e150ed, 2023-07-21)"
   sodipodi:docname="hotel.svg"
   xmlns:inkscape="http://www.inkscape.org/namespaces/inkscape"
   xmlns:sodipodi="http://sodipodi.sourceforge.net/DTD/sodipodi-0.dtd"
   xmlns="http://www.w3.org/2000/svg"
   xmlns:svg="http://www.w3.org/2000/svg"
   xmlns:rdf="http://www.w3.org/1999/02/22-rdf-syntax-ns#"
   xmlns:cc="http://creativecommons.org/ns#"
   xmlns:dc="http://purl.org/dc/elements/1.1/">
  <title
     id="title2">Template</title>
  <sodipodi:namedview
     id="namedview1"
     pagecolor="#ffffff"
     bordercolor="#000000"
     borderopacity="0.25"
     inkscape:showpageshadow="2"
     inkscape:pageopacity="0.0"
     inkscape:pagecheckerboard="false"
     inkscape:deskcolor="#d1d1d1"
     inkscape:document-units="px"
     showgrid="true"
     showguides="true"
     inkscape:zoom="0.84096521"
     inkscape:cx="294.89924"
     inkscape:cy="398.94635"
     inkscape:window-width="1528"
     inkscape:window-height="996"
     inkscape:window-x="828"
     inkscape:window-y="25"
     inkscape:window-maximized="0"
     inkscape:current-layer="layer1"
     inkscape:lockguides="true">
    <inkscape:grid
       id="grid2"
       units="px"
       originx="0"
       originy="0"
       spacingx="4"
       spacingy="4"
       empcolor="#0099e5"
       empopacity="0.30196078"
       color="#0099e5"
       opacity="0.14901961"
       empspacing="5"
       dotted="false"
       gridanglex="30"
       gridanglez="30"
       visible="true" />
    <sodipodi:guide
       position="0,730"
       orientation="0,1"
       id="guide3"
       inkscape:locked="true"
       inkscape:label=""
       inkscape:color="rgb(0,134,229)" />
    <sodipodi:guide
       position="-40,-230"
       orientation="0,1"
       id="guide4"
       inkscape:locked="true"
       inkscape:label=""
       inkscape:color="rgb(0,134,229)" />
    <sodipodi:guide
       position="20,750"
       orientation="-1,0"
       id="guide5"
       inkscape:locked="true"
       inkscape:label=""
       inkscape:color="rgb(0,134,229)" />
    <sodipodi:guide
       position="580,750"
       orientation="-1,0"
       id="guide6"
       inkscape:locked="true"
       inkscape:label=""
       inkscape:color="rgb(0,134,229)" />
    <sodipodi:guide
       position="300,750"
       orientation="-1,0"
       id="guide7"
       inkscape:locked="true"
       inkscape:label=""
       inkscape:color="rgb(0,134,229)" />
    <sodipodi:guide
       position="300,550"
       orientation="0,1"
       id="guide8"
       inkscape:locked="true"
       inkscape:label=""
       inkscape:color="rgb(0,134,229)" />
    <sodipodi:guide
       position="0,450"
       orientation="0,1"
       id="guide9"
       inkscape:locked="true"
       inkscape:label=""
       inkscape:color="rgb(0,134,229)" />
    <sodipodi:guide
       position="0,-70"
       orientation="0,1"
       id="guide10"
       inkscape:locked="true"
       inkscape:label=""
       inkscape:color="rgb(0,134,229)" />
    <sodipodi:guide
       position="0,150"
       orientation="0,1"
       id="guide1"
       inkscape:locked="true"
       inkscape:label=""
       inkscape:color="rgb(0,134,229)" />
    <sodipodi:guide
       position="300,350"
       orientation="0,1"
       id="guide2"
       inkscape:label=""
       inkscape:locked="true"
       inkscape:color="rgb(0,134,229)" />
  </sodipodi:namedview>
  <defs
     id="defs1">
    <inkscape:path-effect
       effect="fillet_chamfer"
       id="path-effect2"
       is_visible="true"
       lpeversion="1"
       nodesatellites_param="F,0,0,1,0,20,0,1 @ F,0,0,1,0,20,0,1 @ F,0,0,1,0,20,0,1 @ F,0,0,1,0,20,0,1 @ F,0,0,1,0,20,0,1 @ F,0,0,1,0,20,0,1 @ F,0,0,1,0,20,0,1 @ F,0,0,1,0,20,0,1 @ F,0,0,1,0,20,0,1 @ F,0,0,1,0,20,0,1 @ F,0,0,1,0,20,0,1"
       radius="20"
       unit="px"
       method="auto"
       mode="F"
       chamfer_steps="1"
       flexible="false"
       use_knot_distance="true"
       apply_no_radius="true"
       apply_with_radius="true"
       only_selected="false"
       hide_knots="false" />
    <inkscape:path-effect
       effect="fillet_chamfer"
       id="path-effect3"
       is_visible="true"
       lpeversion="1"
       nodesatellites_param="F,0,0,1,0,64,0,1 @ F,0,0,1,0,64,0,1 @ F,0,0,1,0,64,0,1 @ F,0,0,1,0,64,0,1 @ F,0,0,1,0,64,0,1 @ F,0,0,1,0,64,0,1 @ F,0,0,1,0,64,0,1 @ F,0,0,1,0,64,0,1 @ F,0,0,1,0,64,0,1 @ F,0,0,1,0,64,0,1 @ F,0,0,1,0,64,0,1 @ F,0,0,1,0,64,0,1"
       radius="65"
       unit="px"
       method="auto"
       mode="F"
       chamfer_steps="1"
       flexible="false"
       use_knot_distance="true"
       apply_no_radius="true"
       apply_with_radius="true"
       only_selected="false"
       hide_knots="false" />
    <inkscape:path-effect
       effect="fillet_chamfer"
       id="path-effect8"
       is_visible="true"
       lpeversion="1"
       nodesatellites_param="F,0,0,1,0,20,0,1 @ F,0,0,1,0,20,0,1 @ F,0,0,1,0,20,0,1 @ F,0,0,1,0,20,0,1"
       radius="20"
       unit="px"
       method="auto"
       mode="F"
       chamfer_steps="1"
       flexible="false"
       use_knot_distance="true"
       apply_no_radius="true"
       apply_with_radius="true"
       only_selected="false"
       hide_knots="false" />
    <inkscape:path-effect
       effect="fillet_chamfer"
       id="path-effect9"
       is_visible="true"
       lpeversion="1"
       nodesatellites_param="F,0,0,1,0,10,0,1 @ F,0,0,1,0,10,0,1 @ F,0,0,1,0,10,0,1 @ F,0,0,1,0,10,0,1"
       radius="10"
       unit="px"
       method="auto"
       mode="F"
       chamfer_steps="1"
       flexible="false"
       use_knot_distance="true"
       apply_no_radius="true"
       apply_with_radius="true"
       only_selected="false"
       hide_knots="false" />
  </defs>
  <g
     inkscape:label="Layer 1"
     inkscape:groupmode="layer"
     id="layer1">
    <path
       style="fill:#000000;fill-opacity:1;stroke:#a7a7a7;stroke-linejoin:round;stroke-dasharray:1, 1"
       id="rect1"
       width="441.1597"
       height="42.807953"
       x="79.670357"
       y="36.862404"
       inkscape:path-effect="#path-effect8"
       sodipodi:type="rect"
       d="M 99.670357,36.862404 H 500.83006 a 20,20 45 0 1 20,20 v 2.807953 a 20,20 135 0 1 -20,20 H 99.670357 a 20,20 45 0 1 -20,-20 v -2.807953 a 20,20 135 0 1 20,-20 z"
       transform="translate(2.1960531,30.487122)" />
    <path
       id="rect2"
       style="fill:#000000;fill-opacity:1;stroke:#a7a7a7;stroke-linejoin:round;stroke-dasharray:1, 1"
       d="m 100,120 c -11.045695,0 -20.075795,8.95456 -20,20 l 3.05469,445.1543 c 0.07579,11.04544 8.954305,20 20,20 h 99.12695 c 11.04569,0 20,-8.95431 20,-20 V 464.62305 c 0,-11.04569 8.95431,-20 20,-20 h 121.71875 c 11.04569,0 20,8.95431 20,20 V 585.1543 c 0,11.04569 8.95431,20 20,20 h 99.125 c 11.04569,0 20.07507,-8.95456 20,-20 L 520,140 c -0.0751,-11.04544 -8.95431,-20 -20,-20 z m 33.48438,65.94922 h 65.61718 c 5.52285,0 10,4.47715 10,10 v 82.26367 c 0,5.52285 -4.47715,10 -10,10 h -65.61718 c -5.52285,0 -10,-4.47715 -10,-10 v -82.26367 c 0,-5.52285 4.47715,-10 10,-10 z m 137.87304,0 h 65.61524 c 5.52285,0 10,4.47715 10,10 v 82.26367 c 0,5.52285 -4.47715,10 -10,10 h -65.61524 c -5.52285,0 -10,-4.47715 -10,-10 v -82.26367 c 0,-5.52285 4.47715,-10 10,-10 z m 137.8711,0 h 65.61523 c 5.52285,0 10,4.47715 10,10 v 82.26367 c 0,5.52285 -4.47715,10 -10,10 h -65.61523 c -5.52285,0 -10,-4.47715 -10,-10 v -82.26367 c 0,-5.52285 4.47715,-10 10,-10 z M 132.12891,307.73633 h 65.61523 c 5.52285,0 10,4.47715 10,10 V 400 c 0,5.52285 -4.47715,10 -10,10 h -65.61523 c -5.52285,0 -10,-4.47715 -10,-10 v -82.26367 c 0,-5.52285 4.47715,-10 10,-10 z m 137.87109,0 h 65.61719 c 5.52285,0 10,4.47715 10,10 V 400 c 0,5.52285 -4.47715,10 -10,10 H 270 c -5.52285,0 -10,-4.47715 -10,-10 v -82.26367 c 0,-5.52285 4.47715,-10 10,-10 z m 137.87305,0 h 65.61523 c 5.52285,0 10,4.47715 10,10 V 400 c 0,5.52285 -4.47715,10 -10,10 h -65.61523 c -5.52285,0 -10,-4.47715 -10,-10 v -82.26367 c 0,-5.52285 4.47715,-10 10,-10 z"
       sodipodi:nodetypes="sssssssssssssssssssssssssssssssssssssssssssssssssssssssssssssssssssssss" />
    <path
       style="fill:#000000;fill-opacity:1;stroke:#a7a7a7;stroke-linejoin:round;stroke-dasharray:1, 1"
       id="rect3"
       width="120.10009"
       height="23.782196"
       x="237.82196"
       y="418.56665"
       inkscape:path-effect="#path-effect9"
       sodipodi:type="rect"
       d="m 247.82196,418.56665 h 100.10009 a 10,10 45 0 1 10,10 v 3.7822 a 10,10 135 0 1 -10,10 H 247.82196 a 10,10 45 0 1 -10,-10 v -3.7822 a 10,10 135 0 1 10,-10 z"
       transform="translate(4.574221,47.46094)" />
  </g>
  <metadata
     id="metadata1">
    <rdf:RDF>
      <cc:Work
         rdf:about="">
        <dc:title>Template</dc:title>
        <dc:date>2023</dc:date>
        <dc:creator>
          <cc:Agent>
            <dc:title>Doug Palmer</dc:title>
          </cc:Agent>
        </dc:creator>
        <dc:subject>
          <rdf:Bag>
            <rdf:li>icon map symbol</rdf:li>
          </rdf:Bag>
        </dc:subject>
        <cc:license
           rdf:resource="http://creativecommons.org/licenses/by/4.0/" />
      </cc:Work>
      <cc:License
         rdf:about="http://creativecommons.org/licenses/by/4.0/">
        <cc:permits
           rdf:resource="http://creativecommons.org/ns#Reproduction" />
        <cc:permits
           rdf:resource="http://creativecommons.org/ns#Distribution" />
        <cc:requires
           rdf:resource="http://creativecommons.org/ns#Notice" />
        <cc:requires
           rdf:resource="http://creativecommons.org/ns#Attribution" />
        <cc:permits
           rdf:resource="http://creativecommons.org/ns#DerivativeWorks" />
      </cc:License>
    </rdf:RDF>
  </metadata>
</svg>
