<?xml version="1.0" encoding="UTF-8" standalone="no"?>
<!-- Created with Inkscape (http://www.inkscape.org/) -->

<svg
   width="600"
   height="750"
   viewBox="0 0 600 750"
   version="1.1"
   id="svg1"
   inkscape:version="1.3 (0e150ed, 2023-07-21)"
   sodipodi:docname="key.svg"
   xmlns:inkscape="http://www.inkscape.org/namespaces/inkscape"
   xmlns:sodipodi="http://sodipodi.sourceforge.net/DTD/sodipodi-0.dtd"
   xmlns="http://www.w3.org/2000/svg"
   xmlns:svg="http://www.w3.org/2000/svg"
   xmlns:rdf="http://www.w3.org/1999/02/22-rdf-syntax-ns#"
   xmlns:cc="http://creativecommons.org/ns#"
   xmlns:dc="http://purl.org/dc/elements/1.1/">
  <title
     id="title2">Template</title>
  <sodipodi:namedview
     id="namedview1"
     pagecolor="#ffffff"
     bordercolor="#000000"
     borderopacity="0.25"
     inkscape:showpageshadow="2"
     inkscape:pageopacity="0.0"
     inkscape:pagecheckerboard="false"
     inkscape:deskcolor="#d1d1d1"
     inkscape:document-units="px"
     showgrid="true"
     showguides="true"
     inkscape:zoom="0.84096521"
     inkscape:cx="351.38196"
     inkscape:cy="398.94635"
     inkscape:window-width="1528"
     inkscape:window-height="996"
     inkscape:window-x="828"
     inkscape:window-y="25"
     inkscape:window-maximized="0"
     inkscape:current-layer="layer1"
     inkscape:lockguides="true">
    <inkscape:grid
       id="grid2"
       units="px"
       originx="0"
       originy="0"
       spacingx="4"
       spacingy="4"
       empcolor="#0099e5"
       empopacity="0.30196078"
       color="#0099e5"
       opacity="0.14901961"
       empspacing="5"
       dotted="false"
       gridanglex="30"
       gridanglez="30"
       visible="true" />
    <sodipodi:guide
       position="0,730"
       orientation="0,1"
       id="guide3"
       inkscape:locked="true"
       inkscape:label=""
       inkscape:color="rgb(0,134,229)" />
    <sodipodi:guide
       position="-40,-230"
       orientation="0,1"
       id="guide4"
       inkscape:locked="true"
       inkscape:label=""
       inkscape:color="rgb(0,134,229)" />
    <sodipodi:guide
       position="20,750"
       orientation="-1,0"
       id="guide5"
       inkscape:locked="true"
       inkscape:label=""
       inkscape:color="rgb(0,134,229)" />
    <sodipodi:guide
       position="580,750"
       orientation="-1,0"
       id="guide6"
       inkscape:locked="true"
       inkscape:label=""
       inkscape:color="rgb(0,134,229)" />
    <sodipodi:guide
       position="300,750"
       orientation="-1,0"
       id="guide7"
       inkscape:locked="true"
       inkscape:label=""
       inkscape:color="rgb(0,134,229)" />
    <sodipodi:guide
       position="300,550"
       orientation="0,1"
       id="guide8"
       inkscape:locked="true"
       inkscape:label=""
       inkscape:color="rgb(0,134,229)" />
    <sodipodi:guide
       position="0,450"
       orientation="0,1"
       id="guide9"
       inkscape:locked="true"
       inkscape:label=""
       inkscape:color="rgb(0,134,229)" />
    <sodipodi:guide
       position="0,-70"
       orientation="0,1"
       id="guide10"
       inkscape:locked="true"
       inkscape:label=""
       inkscape:color="rgb(0,134,229)" />
    <sodipodi:guide
       position="0,150"
       orientation="0,1"
       id="guide1"
       inkscape:locked="true"
       inkscape:label=""
       inkscape:color="rgb(0,134,229)" />
    <sodipodi:guide
       position="300,350"
       orientation="0,1"
       id="guide2"
       inkscape:label=""
       inkscape:locked="true"
       inkscape:color="rgb(0,134,229)" />
  </sodipodi:namedview>
  <defs
     id="defs1">
    <inkscape:path-effect
       effect="fillet_chamfer"
       id="path-effect4"
       is_visible="true"
       lpeversion="1"
       nodesatellites_param="F,0,0,1,0,10,0,1 @ F,0,0,1,0,10,0,1 @ F,0,0,1,0,10,0,1 @ F,0,0,1,0,10,0,1 @ F,0,0,1,0,10,0,1 @ F,0,0,1,0,10,0,1 @ F,0,0,1,0,10,0,1 @ F,0,0,1,0,10,0,1 @ F,0,0,1,0,10,0,1 @ F,0,0,1,0,10,0,1 @ F,0,0,1,0,10,0,1 @ F,0,0,1,0,10,0,1 @ F,0,0,1,0,10,0,1 @ F,0,0,1,0,10,0,1 @ F,0,0,1,0,10,0,1 @ F,0,0,1,0,10,0,1 @ F,0,0,1,0,10,0,1 @ F,0,0,1,0,10,0,1 @ F,0,0,1,0,10,0,1 @ F,0,0,1,0,10,0,1 @ F,0,0,1,0,10,0,1 @ F,0,0,1,0,10,0,1 @ F,0,0,1,0,10,0,1 @ F,0,0,1,0,10,0,1 @ F,0,0,1,0,10,0,1 @ F,0,0,1,0,10,0,1 @ F,0,0,1,0,10,0,1 @ F,0,0,1,0,10,0,1 @ F,0,0,1,0,10,0,1 @ F,0,0,1,0,10,0,1 @ F,0,0,1,0,10,0,1 @ F,0,0,1,0,10,0,1 @ F,0,0,1,0,10,0,1 | F,0,0,1,0,10,0,1 @ F,0,0,1,0,10,0,1 @ F,0,0,1,0,10,0,1 @ F,0,0,1,0,10,0,1 @ F,0,0,1,0,10,0,1 @ F,0,0,1,0,10,0,1 @ F,0,0,1,0,10,0,1"
       radius="10"
       unit="px"
       method="auto"
       mode="F"
       chamfer_steps="1"
       flexible="false"
       use_knot_distance="true"
       apply_no_radius="true"
       apply_with_radius="true"
       only_selected="false"
       hide_knots="false" />
    <inkscape:path-effect
       effect="fillet_chamfer"
       id="path-effect2"
       is_visible="true"
       lpeversion="1"
       nodesatellites_param="F,0,0,1,0,20,0,1 @ F,0,0,1,0,20,0,1 @ F,0,0,1,0,20,0,1 @ F,0,0,1,0,20,0,1 @ F,0,0,1,0,20,0,1 @ F,0,0,1,0,20,0,1 @ F,0,0,1,0,20,0,1 @ F,0,0,1,0,20,0,1 @ F,0,0,1,0,20,0,1 @ F,0,0,1,0,20,0,1 @ F,0,0,1,0,20,0,1"
       radius="20"
       unit="px"
       method="auto"
       mode="F"
       chamfer_steps="1"
       flexible="false"
       use_knot_distance="true"
       apply_no_radius="true"
       apply_with_radius="true"
       only_selected="false"
       hide_knots="false" />
    <inkscape:path-effect
       effect="fillet_chamfer"
       id="path-effect3"
       is_visible="true"
       lpeversion="1"
       nodesatellites_param="F,0,0,1,0,64,0,1 @ F,0,0,1,0,64,0,1 @ F,0,0,1,0,64,0,1 @ F,0,0,1,0,64,0,1 @ F,0,0,1,0,64,0,1 @ F,0,0,1,0,64,0,1 @ F,0,0,1,0,64,0,1 @ F,0,0,1,0,64,0,1 @ F,0,0,1,0,64,0,1 @ F,0,0,1,0,64,0,1 @ F,0,0,1,0,64,0,1 @ F,0,0,1,0,64,0,1"
       radius="65"
       unit="px"
       method="auto"
       mode="F"
       chamfer_steps="1"
       flexible="false"
       use_knot_distance="true"
       apply_no_radius="true"
       apply_with_radius="true"
       only_selected="false"
       hide_knots="false" />
  </defs>
  <g
     inkscape:label="Layer 1"
     inkscape:groupmode="layer"
     id="layer1">
    <path
       id="path1"
       style="opacity:0.99;fill:#000000;stroke:none;stroke-width:30;stroke-linecap:round;stroke-linejoin:round"
       d="m 490.11495,261.31976 c -8.13351,2.12411 -15.90197,6.61454 -22.66895,12.01294 -4.31509,3.4424 -10.67933,9.81769 -13.8515,14.33027 -4.79282,6.81804 -8.32439,14.6637 -10.92046,22.70399 -1.69652,5.25425 -3.69419,14.00677 -4.31981,19.4909 -2.2117,19.38745 -0.5253,45.96056 0.68888,60.18861 C 439.51268,395.549 435.52285,400 430,400 H 250 a 10,10 45 0 1 -10,-10 v -20 a 10,10 45 0 0 -10,-10 h -60 a 10,10 135 0 0 -10,10 v 20 a 10,10 135 0 1 -10,10 10,10 45 0 1 -10,-10 V 370 A 10,10 45 0 0 130,360 H 70 a 10,10 135 0 0 -10,10 v 40 a 10,10 45 0 0 10,10 h 20 a 10,10 45 0 1 10,10 10,10 135 0 1 -10,10 H 70 a 10,10 135 0 0 -10,10 v 80 a 10,10 45 0 0 10,10 h 20 40 a 10,10 135 0 0 10,-10 v -60 a 10,10 135 0 1 10,-10 10,10 45 0 1 10,10 v 60 a 10,10 45 0 0 10,10 h 60 a 10,10 135 0 0 10,-10 v -60 a 10,10 135 0 1 10,-10 h 180 c 5.52285,0 9.51267,4.45115 9.04308,9.95387 -1.21419,14.22821 -2.90056,40.80128 -0.68881,60.18861 0.62561,5.48394 2.62325,14.23631 4.31977,19.49057 2.59608,8.04028 6.12764,15.88594 10.92047,22.70399 3.17217,4.51257 9.53641,10.88787 13.8515,14.33026 6.76697,5.3984 14.53544,9.88883 22.66895,12.01294 5.32907,1.39171 14.44101,1.39171 19.77009,0 8.13351,-2.12411 15.90197,-6.61454 22.66895,-12.01294 4.31509,-3.4424 10.67933,-9.81769 13.8515,-14.33027 4.79282,-6.81804 8.32439,-14.6637 10.92046,-22.70399 1.69652,-5.25425 3.69419,-14.00677 4.31981,-19.4909 2.2117,-19.38745 0.5253,-45.96056 -0.68888,-60.18861 C 560.48732,464.451 560,455.52285 560,450 v -40 c 0,-5.52285 0.48733,-14.45116 0.95692,-19.95388 1.21419,-14.22821 2.90056,-40.80129 0.68881,-60.18861 -0.62561,-5.48393 -2.62325,-14.2363 -4.31977,-19.49056 -2.59608,-8.04028 -6.12764,-15.88594 -10.92047,-22.70399 -3.17217,-4.51257 -9.53641,-10.88787 -13.8515,-14.33026 -6.76697,-5.3984 -14.53544,-9.88883 -22.66895,-12.01294 -5.32907,-1.39171 -14.44101,-1.39171 -19.77009,0 z m 18.1736,53.51128 c 11.75414,14.05049 20.56033,57.24217 21.6072,109.6677 0.11026,5.52167 -4.37228,10.07421 -9.89435,10.1666 l -10.0028,0.16737 A 0.08365248,0.08365248 89.520718 0 0 510,435 l 10,0 c 5.52285,0 10.0103,4.47763 9.90541,9.9994 -0.99735,52.50176 -9.78037,95.87896 -21.54065,110.07697 -3.41062,4.1176 -13.27328,4.15274 -16.69206,0.0453 -11.7568,-14.12501 -20.55104,-57.40829 -21.57325,-109.87038 -0.10759,-5.52171 -0.11191,-14.47698 -0.01,-19.9988 0.97237,-52.53958 9.74359,-96.01005 21.50687,-110.28256 C 494.99885,310.84196 499.91018,310 499.9102,310 Z"
       inkscape:path-effect="#path-effect4"
       inkscape:original-d="m 500,260 c -14.90711,0 -29.45908,9.45908 -40,20 -10.54092,10.54092 -16.57505,25.49167 -20,40 -6.12673,25.95328 0,80 0,80 H 240 v -40 h -80 v 40 H 140 V 360 H 60 v 60 h 40 v 20 H 60 v 100 h 40 40 v -80 h 20 v 80 h 80 v -80 h 200 c 0,0 -6.12673,54.04672 0,80 3.42495,14.50833 9.45908,29.45908 20,40 10.54092,10.54092 25.09289,20 40,20 14.90711,0 29.45908,-9.45908 40,-20 10.54092,-10.54092 16.57505,-25.49167 20,-40 6.12673,-25.95328 0,-80 0,-80 v -60 c 0,0 6.12673,-54.04672 0,-80 -3.42495,-14.50833 -9.45908,-29.45908 -20,-40 -10.54092,-10.54092 -25.09289,-20 -40,-20 z m -0.0898,50 A 30,125 0 0 1 530,434.49805 L 500,435 h 30 A 30,125 0 0 1 500.0293,560 30,125 0 0 1 470,435.25195 30,125 0 0 1 499.91016,310 Z"
       transform="matrix(1.06,0,0,1,-33.6,0)" />
  </g>
  <metadata
     id="metadata1">
    <rdf:RDF>
      <cc:Work
         rdf:about="">
        <dc:title>Template</dc:title>
        <dc:date>2023</dc:date>
        <dc:creator>
          <cc:Agent>
            <dc:title>Doug Palmer</dc:title>
          </cc:Agent>
        </dc:creator>
        <dc:subject>
          <rdf:Bag>
            <rdf:li>icon map symbol</rdf:li>
          </rdf:Bag>
        </dc:subject>
        <cc:license
           rdf:resource="http://creativecommons.org/licenses/by/4.0/" />
      </cc:Work>
      <cc:License
         rdf:about="http://creativecommons.org/licenses/by/4.0/">
        <cc:permits
           rdf:resource="http://creativecommons.org/ns#Reproduction" />
        <cc:permits
           rdf:resource="http://creativecommons.org/ns#Distribution" />
        <cc:requires
           rdf:resource="http://creativecommons.org/ns#Notice" />
        <cc:requires
           rdf:resource="http://creativecommons.org/ns#Attribution" />
        <cc:permits
           rdf:resource="http://creativecommons.org/ns#DerivativeWorks" />
      </cc:License>
    </rdf:RDF>
  </metadata>
</svg>
