<?xml version="1.0" encoding="UTF-8" standalone="no"?>
<!-- Created with Inkscape (http://www.inkscape.org/) -->

<svg
   width="600"
   height="750"
   viewBox="0 0 600 750"
   version="1.1"
   id="svg1"
   inkscape:version="1.3 (0e150ed, 2023-07-21)"
   sodipodi:docname="map.svg"
   xmlns:inkscape="http://www.inkscape.org/namespaces/inkscape"
   xmlns:sodipodi="http://sodipodi.sourceforge.net/DTD/sodipodi-0.dtd"
   xmlns="http://www.w3.org/2000/svg"
   xmlns:svg="http://www.w3.org/2000/svg"
   xmlns:rdf="http://www.w3.org/1999/02/22-rdf-syntax-ns#"
   xmlns:cc="http://creativecommons.org/ns#"
   xmlns:dc="http://purl.org/dc/elements/1.1/">
  <title
     id="title2">Template</title>
  <sodipodi:namedview
     id="namedview1"
     pagecolor="#ffffff"
     bordercolor="#000000"
     borderopacity="0.25"
     inkscape:showpageshadow="2"
     inkscape:pageopacity="0.0"
     inkscape:pagecheckerboard="false"
     inkscape:deskcolor="#d1d1d1"
     inkscape:document-units="px"
     showgrid="true"
     showguides="true"
     inkscape:zoom="0.84096521"
     inkscape:cx="310.35767"
     inkscape:cy="398.94635"
     inkscape:window-width="1528"
     inkscape:window-height="996"
     inkscape:window-x="828"
     inkscape:window-y="25"
     inkscape:window-maximized="0"
     inkscape:current-layer="layer1"
     inkscape:lockguides="true">
    <inkscape:grid
       id="grid2"
       units="px"
       originx="0"
       originy="0"
       spacingx="4"
       spacingy="4"
       empcolor="#0099e5"
       empopacity="0.30196078"
       color="#0099e5"
       opacity="0.14901961"
       empspacing="5"
       dotted="false"
       gridanglex="30"
       gridanglez="30"
       visible="true" />
    <sodipodi:guide
       position="0,730"
       orientation="0,1"
       id="guide3"
       inkscape:locked="true"
       inkscape:label=""
       inkscape:color="rgb(0,134,229)" />
    <sodipodi:guide
       position="-40,-230"
       orientation="0,1"
       id="guide4"
       inkscape:locked="true"
       inkscape:label=""
       inkscape:color="rgb(0,134,229)" />
    <sodipodi:guide
       position="20,750"
       orientation="-1,0"
       id="guide5"
       inkscape:locked="true"
       inkscape:label=""
       inkscape:color="rgb(0,134,229)" />
    <sodipodi:guide
       position="580,750"
       orientation="-1,0"
       id="guide6"
       inkscape:locked="true"
       inkscape:label=""
       inkscape:color="rgb(0,134,229)" />
    <sodipodi:guide
       position="300,750"
       orientation="-1,0"
       id="guide7"
       inkscape:locked="true"
       inkscape:label=""
       inkscape:color="rgb(0,134,229)" />
    <sodipodi:guide
       position="300,550"
       orientation="0,1"
       id="guide8"
       inkscape:locked="true"
       inkscape:label=""
       inkscape:color="rgb(0,134,229)" />
    <sodipodi:guide
       position="0,450"
       orientation="0,1"
       id="guide9"
       inkscape:locked="true"
       inkscape:label=""
       inkscape:color="rgb(0,134,229)" />
    <sodipodi:guide
       position="0,-70"
       orientation="0,1"
       id="guide10"
       inkscape:locked="true"
       inkscape:label=""
       inkscape:color="rgb(0,134,229)" />
    <sodipodi:guide
       position="0,150"
       orientation="0,1"
       id="guide1"
       inkscape:locked="true"
       inkscape:label=""
       inkscape:color="rgb(0,134,229)" />
    <sodipodi:guide
       position="300,350"
       orientation="0,1"
       id="guide2"
       inkscape:label=""
       inkscape:locked="true"
       inkscape:color="rgb(0,134,229)" />
  </sodipodi:namedview>
  <defs
     id="defs1">
    <inkscape:path-effect
       effect="fillet_chamfer"
       id="path-effect8"
       is_visible="true"
       lpeversion="1"
       nodesatellites_param="F,0,0,1,0,10,0,1 @ F,0,0,1,0,10,0,1 @ F,0,0,1,0,10,0,1 @ F,0,0,1,0,10,0,1"
       radius="10"
       unit="px"
       method="auto"
       mode="F"
       chamfer_steps="1"
       flexible="false"
       use_knot_distance="true"
       apply_no_radius="true"
       apply_with_radius="true"
       only_selected="false"
       hide_knots="false" />
    <inkscape:path-effect
       effect="fillet_chamfer"
       id="path-effect7"
       is_visible="true"
       lpeversion="1"
       nodesatellites_param="F,0,0,1,0,10,0,1 @ F,0,0,1,0,10,0,1 @ F,0,0,1,0,10,0,1 @ F,0,0,1,0,10,0,1"
       radius="10"
       unit="px"
       method="auto"
       mode="F"
       chamfer_steps="1"
       flexible="false"
       use_knot_distance="true"
       apply_no_radius="true"
       apply_with_radius="true"
       only_selected="false"
       hide_knots="false" />
    <inkscape:path-effect
       effect="fillet_chamfer"
       id="path-effect6"
       is_visible="true"
       lpeversion="1"
       nodesatellites_param="F,0,0,1,0,10,0,1 @ F,0,0,1,0,10,0,1 @ F,0,0,1,0,10,0,1 @ F,0,0,1,0,10,0,1"
       radius="10"
       unit="px"
       method="auto"
       mode="F"
       chamfer_steps="1"
       flexible="false"
       use_knot_distance="true"
       apply_no_radius="true"
       apply_with_radius="true"
       only_selected="false"
       hide_knots="false" />
    <inkscape:path-effect
       effect="fillet_chamfer"
       id="path-effect5"
       is_visible="true"
       lpeversion="1"
       nodesatellites_param="F,0,0,1,0,10,0,1 @ F,0,0,1,0,10,0,1 @ F,0,0,1,0,10,0,1 @ F,0,0,1,0,10,0,1"
       radius="10"
       unit="px"
       method="auto"
       mode="F"
       chamfer_steps="1"
       flexible="false"
       use_knot_distance="true"
       apply_no_radius="true"
       apply_with_radius="true"
       only_selected="false"
       hide_knots="false" />
    <inkscape:path-effect
       effect="fillet_chamfer"
       id="path-effect4"
       is_visible="true"
       lpeversion="1"
       nodesatellites_param="F,0,0,1,0,10,0,1 @ F,0,0,1,0,10,0,1 @ F,0,0,1,0,10,0,1 @ F,0,0,1,0,10,0,1 @ F,0,0,1,0,10,0,1 @ F,0,0,1,0,10,0,1 @ F,0,0,1,0,10,0,1 @ F,0,0,1,0,10,0,1 @ F,0,0,1,0,10,0,1 @ F,0,0,1,0,10,0,1 @ F,0,0,1,0,10,0,1 @ F,0,0,1,0,10,0,1 @ F,0,0,1,0,10,0,1 @ F,0,0,1,0,10,0,1 @ F,0,0,1,0,10,0,1 | F,0,0,1,0,10,0,1 @ F,0,0,1,0,10,0,1 @ F,0,0,1,0,10,0,1 @ F,0,0,1,0,10,0,1 @ F,0,0,1,0,10,0,1 @ F,0,0,1,0,10,0,1 @ F,0,0,1,0,10,0,1 @ F,0,0,1,0,10,0,1 @ F,0,0,1,0,10,0,1 @ F,0,0,1,0,10,0,1"
       radius="10"
       unit="px"
       method="auto"
       mode="F"
       chamfer_steps="1"
       flexible="false"
       use_knot_distance="true"
       apply_no_radius="true"
       apply_with_radius="true"
       only_selected="false"
       hide_knots="false" />
    <inkscape:path-effect
       effect="fillet_chamfer"
       id="path-effect2"
       is_visible="true"
       lpeversion="1"
       nodesatellites_param="F,0,0,1,0,20,0,1 @ F,0,0,1,0,20,0,1 @ F,0,0,1,0,20,0,1 @ F,0,0,1,0,20,0,1 @ F,0,0,1,0,20,0,1 @ F,0,0,1,0,20,0,1 @ F,0,0,1,0,20,0,1 @ F,0,0,1,0,20,0,1 @ F,0,0,1,0,20,0,1 @ F,0,0,1,0,20,0,1 @ F,0,0,1,0,20,0,1"
       radius="20"
       unit="px"
       method="auto"
       mode="F"
       chamfer_steps="1"
       flexible="false"
       use_knot_distance="true"
       apply_no_radius="true"
       apply_with_radius="true"
       only_selected="false"
       hide_knots="false" />
    <inkscape:path-effect
       effect="fillet_chamfer"
       id="path-effect3"
       is_visible="true"
       lpeversion="1"
       nodesatellites_param="F,0,0,1,0,64,0,1 @ F,0,0,1,0,64,0,1 @ F,0,0,1,0,64,0,1 @ F,0,0,1,0,64,0,1 @ F,0,0,1,0,64,0,1 @ F,0,0,1,0,64,0,1 @ F,0,0,1,0,64,0,1 @ F,0,0,1,0,64,0,1 @ F,0,0,1,0,64,0,1 @ F,0,0,1,0,64,0,1 @ F,0,0,1,0,64,0,1 @ F,0,0,1,0,64,0,1"
       radius="65"
       unit="px"
       method="auto"
       mode="F"
       chamfer_steps="1"
       flexible="false"
       use_knot_distance="true"
       apply_no_radius="true"
       apply_with_radius="true"
       only_selected="false"
       hide_knots="false" />
  </defs>
  <g
     inkscape:label="Layer 1"
     inkscape:groupmode="layer"
     id="layer1">
    <path
       style="color:#000000;fill:#000000;stroke-linecap:round;stroke-linejoin:round;-inkscape-stroke:none;opacity:0.99"
       d="M 55.479238,50.330286 C 44.51265,51.995308 35.261512,59.698215 31.637673,70.181829 29.841694,75.377521 30,84.477153 30,90 l 0,420 c 0,5.52285 -0.149068,14.62152 1.650538,19.81587 1.641905,4.73918 4.450169,8.99818 8.15926,12.37431 4.065336,3.7004 12.486995,7.14768 17.563293,9.32323 l 121.617099,52.12162 c 5.0763,2.17555 13.38071,5.89586 18.86396,6.2884 3.58475,0.25662 7.18902,-0.13294 10.63615,-1.1496 5.27276,-1.55509 12.5904,-6.96402 17.08453,-10.17411 l 106.28784,-75.92014 a 13.999956,13.999956 0 0 1 16.27466,0 l 106.28784,75.92014 c 4.49413,3.21009 11.79793,8.63861 17.06389,10.21878 15.21584,4.56585 31.77941,-3.95803 36.90808,-18.9935 C 510.1721,584.62146 510,575.52285 510,570 V 190 c 0,-5.52285 0.1478,-14.62123 -1.6513,-19.81579 -0.93047,-2.68658 -2.23846,-5.22834 -3.88373,-7.54709 -3.18117,-4.48335 -10.67068,-9.65152 -15.1648,-12.86161 L 365.57483,61.400273 c -4.49412,-3.21009 -11.81105,-8.620554 -17.08388,-10.17525 -5.53815,-1.632926 -11.44375,-1.632926 -16.9819,10e-7 -5.27283,1.554696 -12.58975,6.965164 -17.08388,10.175261 L 208.13733,137.32042 a 13.999956,13.999956 0 0 1 -16.27466,0 L 85.574826,61.400285 C 81.080705,58.190188 73.762252,52.782767 68.489386,51.227968 66.824022,50.73691 60.914293,49.505098 55.479238,50.330286 Z m 292.658072,72.349324 93.72538,66.94742 A 19.432013,19.432013 62.768982 0 1 450,205.43945 v 306.26367 a 5.146217,5.146217 152.76867 0 1 -8.13737,4.18767 l -76.28776,-54.49057 c -4.49415,-3.21006 -11.81109,-8.6205 -17.08392,-10.1752 -5.53815,-1.63292 -11.44375,-1.63292 -16.9819,0 -5.27283,1.5547 -12.58975,6.96517 -17.08387,10.17528 L 204.4381,539.96298 a 17.77032,17.77032 173.83018 0 1 -17.3288,1.87328 L 99.191477,504.15788 A 15.16528,15.16528 56.599105 0 1 90,490.21875 V 148.29687 a 5.1462166,5.1462166 152.76867 0 1 8.137369,-4.18767 l 76.287761,54.49058 c 4.49415,3.21006 11.81109,8.6205 17.08392,10.1752 5.53815,1.63292 11.44375,1.63292 16.9819,0 5.27283,-1.5547 12.58975,-6.96517 17.08388,-10.17526 l 106.28784,-75.92014 a 13.999904,13.999904 1.0048511e-4 0 1 16.27464,3e-5 z"
       id="path1"
       inkscape:path-effect="#path-effect4"
       inkscape:original-d="M 65.431641,50.498047 A 30.003,30.003 0 0 0 30,80 v 440 a 30.003,30.003 0 0 0 18.181641,27.57422 l 139.999999,60 a 30.003,30.003 0 0 0 29.25586,-3.16211 L 340,516.86719 462.5625,604.41211 A 30.003,30.003 0 0 0 510,580 V 180 a 30.003,30.003 0 0 0 -12.5625,-24.41211 l -140,-99.999999 a 30.003,30.003 0 0 0 -34.875,0 L 200,143.13281 77.4375,55.587891 A 30.003,30.003 0 0 0 65.431641,50.498047 Z M 340,116.86719 450,195.43945 v 326.26367 l -92.5625,-66.11523 a 30.003,30.003 0 0 0 -34.875,0 L 196.30078,545.77539 90,500.21875 V 138.29687 l 92.5625,66.11524 a 30.003,30.003 0 0 0 34.875,0 z" />
    <path
       style="opacity:0.99;fill:#000000;fill-opacity:1;stroke:none;stroke-width:66.2932;stroke-linecap:round;stroke-linejoin:round"
       id="rect1"
       width="73.246475"
       height="100"
       x="146.49295"
       y="134.96887"
       transform="matrix(0.81915204,0.57357644,0,1,0,0)"
       inkscape:path-effect="#path-effect5"
       sodipodi:type="rect"
       d="m 156.49295,134.96887 h 53.24648 a 10,10 45 0 1 10,10 l 0,80 a 10,10 135 0 1 -10,10 h -53.24648 a 10,10 45 0 1 -10,-10 v -80 a 10,10 135 0 1 10,-10 z" />
    <path
       style="opacity:0.99;fill:#000000;fill-opacity:1;stroke:none;stroke-width:66.2932;stroke-linecap:round;stroke-linejoin:round"
       id="rect1-6"
       width="73.246475"
       height="100"
       x="427.27112"
       y="66.033333"
       transform="matrix(0.81915204,0.57357644,0,1,0,0)"
       inkscape:path-effect="#path-effect8"
       sodipodi:type="rect"
       d="m 437.27112,66.033333 h 53.24647 a 10,10 45 0 1 10,10 l 0,79.999997 a 10,10 135 0 1 -10,10 h -53.24647 a 10,10 45 0 1 -10,-10 V 76.033333 a 10,10 135 0 1 10,-10 z" />
    <path
       style="opacity:0.99;fill:#000000;fill-opacity:1;stroke:none;stroke-width:45.8474;stroke-linecap:round;stroke-linejoin:round"
       id="rect1-0"
       width="49.751308"
       height="70.416359"
       x="447.76163"
       y="-86.25267"
       transform="matrix(0.8039992,0.59463038,0,1,0,0)"
       inkscape:path-effect="#path-effect7"
       sodipodi:type="rect"
       d="m 457.76163,-86.25267 h 29.75131 a 10,10 45 0 1 10,10 v 50.416359 a 10,10 135 0 1 -10,10 h -29.75131 a 10,10 45 0 1 -10,-10 V -76.25267 a 10,10 135 0 1 10,-10 z" />
    <path
       style="opacity:0.99;fill:#000000;fill-opacity:1;stroke:none;stroke-width:66.2932;stroke-linecap:round;stroke-linejoin:round"
       id="rect1-3"
       width="73.246475"
       height="100"
       x="268.5704"
       y="-576.05811"
       transform="matrix(0.81915204,-0.57357644,0,-1,0,0)"
       inkscape:path-effect="#path-effect6"
       sodipodi:type="rect"
       d="m 278.5704,-576.05811 h 53.24648 a 10,10 45 0 1 10,10 l 0,80 a 10,10 135 0 1 -10,10 H 278.5704 a 10,10 45 0 1 -10,-10 v -80 a 10,10 135 0 1 10,-10 z" />
  </g>
  <metadata
     id="metadata1">
    <rdf:RDF>
      <cc:Work
         rdf:about="">
        <dc:title>Template</dc:title>
        <dc:date>2023</dc:date>
        <dc:creator>
          <cc:Agent>
            <dc:title>Doug Palmer</dc:title>
          </cc:Agent>
        </dc:creator>
        <dc:subject>
          <rdf:Bag>
            <rdf:li>icon map symbol</rdf:li>
          </rdf:Bag>
        </dc:subject>
        <cc:license
           rdf:resource="http://creativecommons.org/licenses/by/4.0/" />
      </cc:Work>
      <cc:License
         rdf:about="http://creativecommons.org/licenses/by/4.0/">
        <cc:permits
           rdf:resource="http://creativecommons.org/ns#Reproduction" />
        <cc:permits
           rdf:resource="http://creativecommons.org/ns#Distribution" />
        <cc:requires
           rdf:resource="http://creativecommons.org/ns#Notice" />
        <cc:requires
           rdf:resource="http://creativecommons.org/ns#Attribution" />
        <cc:permits
           rdf:resource="http://creativecommons.org/ns#DerivativeWorks" />
      </cc:License>
    </rdf:RDF>
  </metadata>
</svg>
