<?xml version="1.0" encoding="UTF-8" standalone="no"?>
<!-- Created with Inkscape (http://www.inkscape.org/) -->

<svg
   width="600"
   height="750"
   viewBox="0 0 600 750"
   version="1.1"
   id="svg1"
   inkscape:version="1.3 (0e150ed, 2023-07-21)"
   sodipodi:docname="plate.svg"
   xmlns:inkscape="http://www.inkscape.org/namespaces/inkscape"
   xmlns:sodipodi="http://sodipodi.sourceforge.net/DTD/sodipodi-0.dtd"
   xmlns="http://www.w3.org/2000/svg"
   xmlns:svg="http://www.w3.org/2000/svg"
   xmlns:rdf="http://www.w3.org/1999/02/22-rdf-syntax-ns#"
   xmlns:cc="http://creativecommons.org/ns#"
   xmlns:dc="http://purl.org/dc/elements/1.1/">
  <title
     id="title2">Template</title>
  <sodipodi:namedview
     id="namedview1"
     pagecolor="#ffffff"
     bordercolor="#000000"
     borderopacity="0.25"
     inkscape:showpageshadow="2"
     inkscape:pageopacity="0.0"
     inkscape:pagecheckerboard="false"
     inkscape:deskcolor="#d1d1d1"
     inkscape:document-units="px"
     showgrid="true"
     showguides="true"
     inkscape:zoom="0.84096521"
     inkscape:cx="297.87201"
     inkscape:cy="398.94635"
     inkscape:window-width="1528"
     inkscape:window-height="996"
     inkscape:window-x="342"
     inkscape:window-y="271"
     inkscape:window-maximized="0"
     inkscape:current-layer="layer1"
     inkscape:lockguides="true">
    <inkscape:grid
       id="grid2"
       units="px"
       originx="0"
       originy="0"
       spacingx="4"
       spacingy="4"
       empcolor="#0099e5"
       empopacity="0.30196078"
       color="#0099e5"
       opacity="0.14901961"
       empspacing="5"
       dotted="false"
       gridanglex="30"
       gridanglez="30"
       visible="true" />
    <sodipodi:guide
       position="0,730"
       orientation="0,1"
       id="guide3"
       inkscape:locked="true"
       inkscape:label=""
       inkscape:color="rgb(0,134,229)" />
    <sodipodi:guide
       position="-40,-230"
       orientation="0,1"
       id="guide4"
       inkscape:locked="true"
       inkscape:label=""
       inkscape:color="rgb(0,134,229)" />
    <sodipodi:guide
       position="20,750"
       orientation="-1,0"
       id="guide5"
       inkscape:locked="true"
       inkscape:label=""
       inkscape:color="rgb(0,134,229)" />
    <sodipodi:guide
       position="580,750"
       orientation="-1,0"
       id="guide6"
       inkscape:locked="true"
       inkscape:label=""
       inkscape:color="rgb(0,134,229)" />
    <sodipodi:guide
       position="300,750"
       orientation="-1,0"
       id="guide7"
       inkscape:locked="true"
       inkscape:label=""
       inkscape:color="rgb(0,134,229)" />
    <sodipodi:guide
       position="300,550"
       orientation="0,1"
       id="guide8"
       inkscape:locked="true"
       inkscape:label=""
       inkscape:color="rgb(0,134,229)" />
    <sodipodi:guide
       position="0,450"
       orientation="0,1"
       id="guide9"
       inkscape:locked="true"
       inkscape:label=""
       inkscape:color="rgb(0,134,229)" />
    <sodipodi:guide
       position="0,-70"
       orientation="0,1"
       id="guide10"
       inkscape:locked="true"
       inkscape:label=""
       inkscape:color="rgb(0,134,229)" />
    <sodipodi:guide
       position="0,150"
       orientation="0,1"
       id="guide1"
       inkscape:locked="true"
       inkscape:label=""
       inkscape:color="rgb(0,134,229)" />
    <sodipodi:guide
       position="300,350"
       orientation="0,1"
       id="guide2"
       inkscape:label=""
       inkscape:locked="true"
       inkscape:color="rgb(0,134,229)" />
  </sodipodi:namedview>
  <defs
     id="defs1">
    <inkscape:path-effect
       effect="fillet_chamfer"
       id="path-effect2"
       is_visible="true"
       lpeversion="1"
       nodesatellites_param="F,0,0,1,0,20,0,1 @ F,0,0,1,0,20,0,1 @ F,0,0,1,0,20,0,1 @ F,0,0,1,0,20,0,1 @ F,0,0,1,0,20,0,1 @ F,0,0,1,0,20,0,1 @ F,0,0,1,0,20,0,1 @ F,0,0,1,0,20,0,1 @ F,0,0,1,0,20,0,1 @ F,0,0,1,0,20,0,1 @ F,0,0,1,0,20,0,1"
       radius="20"
       unit="px"
       method="auto"
       mode="F"
       chamfer_steps="1"
       flexible="false"
       use_knot_distance="true"
       apply_no_radius="true"
       apply_with_radius="true"
       only_selected="false"
       hide_knots="false" />
    <inkscape:path-effect
       effect="fillet_chamfer"
       id="path-effect3"
       is_visible="true"
       lpeversion="1"
       nodesatellites_param="F,0,0,1,0,64,0,1 @ F,0,0,1,0,64,0,1 @ F,0,0,1,0,64,0,1 @ F,0,0,1,0,64,0,1 @ F,0,0,1,0,64,0,1 @ F,0,0,1,0,64,0,1 @ F,0,0,1,0,64,0,1 @ F,0,0,1,0,64,0,1 @ F,0,0,1,0,64,0,1 @ F,0,0,1,0,64,0,1 @ F,0,0,1,0,64,0,1 @ F,0,0,1,0,64,0,1"
       radius="65"
       unit="px"
       method="auto"
       mode="F"
       chamfer_steps="1"
       flexible="false"
       use_knot_distance="true"
       apply_no_radius="true"
       apply_with_radius="true"
       only_selected="false"
       hide_knots="false" />
    <inkscape:path-effect
       effect="fillet_chamfer"
       id="path-effect4"
       is_visible="true"
       lpeversion="1"
       nodesatellites_param="F,0,0,1,0,0,0,1 @ F,0,0,1,0,0,0,1 @ F,0,0,1,0,0,0,1 @ F,0,0,1,0,0,0,1 @ F,0,0,1,0,0,0,1 @ F,0,0,1,0,0,0,1 @ F,0,0,1,0,0,0,1"
       radius="20"
       unit="px"
       method="auto"
       mode="F"
       chamfer_steps="1"
       flexible="false"
       use_knot_distance="true"
       apply_no_radius="true"
       apply_with_radius="true"
       only_selected="false"
       hide_knots="false" />
  </defs>
  <g
     inkscape:label="Layer 1"
     inkscape:groupmode="layer"
     id="layer1">
    <path
       id="path5-7"
       style="opacity:0.99;stroke-width:29.5884;stroke-linecap:round;stroke-linejoin:round"
       d="m 302.09638,233.16702 c -35.29133,0.41357 -70.41199,11.17489 -99.96904,30.76379 -28.18989,18.54981 -51.34567,44.83497 -66.48199,75.26544 -15.86919,31.75826 -23.0968,67.91095 -20.58285,103.43343 2.26154,33.04655 12.75812,65.51248 30.48329,93.34943 17.47048,27.55906 41.86964,50.6028 70.38711,66.01702 28.67778,15.57 61.39056,23.44507 93.91038,22.39793 30.35145,-0.92489 60.44407,-9.49968 86.8115,-24.78852 27.58777,-15.91418 51.12785,-38.95687 67.80238,-66.35572 17.62581,-28.81751 27.76894,-62.29616 29.09225,-96.18995 1.47066,-35.83626 -6.76402,-72.06881 -23.81803,-103.50513 -16.00326,-29.62713 -39.6475,-55.02002 -68.13126,-72.56088 -27.33252,-16.90177 -58.96116,-26.65666 -90.96997,-27.71805 -2.84375,-0.10356 -5.68831,-0.13275 -8.53377,-0.10879 z m 2.04879,15.16682 A 174.62181,180.4879 0 0 1 478.76698,428.82258 174.62181,180.4879 0 0 1 304.14517,609.31132 174.62181,180.4879 0 0 1 129.52337,428.82258 174.62181,180.4879 0 0 1 304.14517,248.33384 Z" />
    <path
       style="fill:#000000;stroke:none;stroke-width:60;stroke-linejoin:round"
       d="m 340,80 v 480 h 40 V 400 h 40 c 0,0 7.331,-120.44955 0,-180 -3.3585,-27.28142 -6.457,-56.08049 -20,-80 -13.93563,-24.61297 -60,-60 -60,-60 z"
       id="path1"
       sodipodi:nodetypes="cccccssc"
       inkscape:path-effect="#path-effect4"
       inkscape:original-d="m 340,80 v 480 h 40 V 400 h 40 c 0,0 7.331,-120.44955 0,-180 -3.3585,-27.28142 -6.457,-56.08049 -20,-80 -13.93563,-24.61297 -60,-60 -60,-60 z"
       transform="matrix(-0.5079342,0,0,0.62010646,742.06177,230.39148)" />
    <path
       id="path2"
       style="fill:#000000;stroke:none;stroke-width:31.7113;stroke-linejoin:round"
       d="m 36.977099,287.74431 a 8.8108559,12.633921 0 0 0 -8.788615,12.65766 l -0.03363,75.94591 a 16.481765,23.633269 0 0 0 7.339504,19.6787 l 11.792868,11.27322 a 16.494161,23.651039 0 0 1 7.344676,19.67869 v 151.89182 a 8.8241673,12.653008 0 0 0 0.0121,0.089 c 0.0081,1.63124 0.238988,3.18279 0.638784,4.61187 a 8.8241673,12.653008 0 0 0 0.04053,0.18667 c 0.437154,1.49547 1.071791,2.8402 1.852538,3.97899 a 8.8241673,12.653008 0 0 0 0.08108,0.12366 c 0.79958,1.13545 1.748537,2.05301 2.80253,2.68605 a 8.8241673,12.653008 0 0 0 0.07321,0.0322 c 1.021438,0.5986 2.135201,0.94034 3.305965,0.94561 a 8.8241673,12.653008 0 0 0 0.01384,0.004 c 0.0025,0 0.005,-10e-4 0.0062,-10e-4 0.0025,0 0.005,10e-4 0.0062,10e-4 a 8.8241673,12.653008 0 0 0 1.574115,-0.22992 c 0.146869,-0.0384 0.289361,-0.0861 0.433612,-0.13474 a 8.8241673,12.653008 0 0 0 1.181017,-0.52657 c 0.106518,-0.0596 0.216168,-0.10645 0.32068,-0.17183 a 8.8241673,12.653008 0 0 0 1.368936,-1.06428 c 0.05749,-0.0551 0.10814,-0.12113 0.164654,-0.17799 a 8.8241673,12.653008 0 0 0 1.050838,-1.24229 c 0.08432,-0.11632 0.165466,-0.23379 0.246541,-0.35476 a 8.8241673,12.653008 0 0 0 0.881017,-1.53028 c 0.03405,-0.0698 0.07297,-0.13306 0.10602,-0.20395 a 8.8241673,12.653008 0 0 0 0.761201,-2.00867 c 0.03169,-0.10518 0.05388,-0.21594 0.08357,-0.32261 a 8.8241673,12.653008 0 0 0 0.403425,-1.8628 c 0.02645,-0.16565 0.05313,-0.32888 0.07496,-0.49693 a 8.8241673,12.653008 0 0 0 0.16987,-2.33014 V 426.97887 a 16.494161,23.651039 0 0 1 7.345987,-19.6787 l 11.792857,-11.27359 a 16.481765,23.633269 0 0 0 7.339516,-19.6787 l -0.03372,-75.94591 A 8.8108559,12.633921 0 0 0 89.94145,287.74431 l -7.376574,63.46007 a 10.420404,14.941858 0 0 1 -10.278289,12.48586 l 0.163782,-63.28827 A 8.7947745,12.610861 0 0 0 63.65573,287.74431 h -0.189653 c -0.0025,0 -0.005,8.2e-4 -0.0062,0.001 -0.0025,0 -0.005,-0.001 -0.0062,-0.001 h -0.189652 a 8.7947745,12.610861 0 0 0 -0.207762,0.0593 c -0.904205,0.0608 -1.767897,0.31577 -2.580973,0.73796 a 8.7947745,12.610861 0 0 0 -1.345661,0.89864 c -0.384741,0.3138 -0.748104,0.66159 -1.093943,1.05192 a 8.7947745,12.610861 0 0 0 -1.78703,2.65514 c -0.06599,0.1348 -0.127237,0.2718 -0.189664,0.41038 a 8.7947745,12.610861 0 0 0 -1.589629,6.84428 l 0.163816,63.28831 A 10.420404,14.941858 0 0 1 44.355034,351.20442 Z" />
    <path
       id="path5-6"
       style="opacity:0.99;stroke-width:29.5884;stroke-linecap:round;stroke-linejoin:round"
       d="m 302.31077,263.55504 c -6.39696,0.0968 -12.85538,0.56903 -19.11431,1.43869 -8.05699,1.10665 -16.0297,2.84578 -23.82249,5.19911 -0.77625,0.24963 -1.81153,0.55262 -2.60856,0.81618 -24.02092,7.70535 -46.12495,21.38195 -63.9697,39.41742 -19.01561,19.08338 -33.12431,43.07533 -40.97932,68.99707 -5.15926,17.03802 -7.65477,35.1418 -7.25455,53.05182 0.47883,23.60548 5.93557,47.08916 15.94228,68.40665 10.75682,23.07318 26.84434,43.58226 46.7143,59.2489 18.87136,14.94688 41.09592,25.53313 64.53527,30.52021 2.82066,0.6189 5.8903,1.15406 8.59537,1.59231 5.5517,0.85554 11.14532,1.43878 16.75569,1.69343 1.25188,0.0551 2.84228,0.10836 4.22413,0.13655 3.14038,0.0597 6.2821,0.0169 9.42065,-0.10442 1.09014,-0.0582 2.54053,-0.12266 3.76671,-0.21166 26.70743,-1.75373 52.89456,-10.66622 75.31603,-25.48172 17.74068,-11.65219 33.12162,-26.94616 45.06731,-44.63018 0.67788,-1.02793 1.56374,-2.33868 2.29439,-3.4925 15.92715,-24.82823 25.13307,-54.02443 26.41069,-83.6196 0.35456,-7.93095 0.15804,-15.88632 -0.5824,-23.78978 -0.10465,-0.93371 -0.21823,-2.24658 -0.35202,-3.32799 -0.61379,-5.38412 -1.50749,-10.90601 -2.61274,-16.09839 -0.6841,-3.19389 -1.40013,-6.18614 -2.268,-9.34805 -6.11989,-22.55572 -16.98022,-43.77004 -31.6819,-61.79379 -0.77719,-0.94433 -1.77239,-2.15834 -2.66212,-3.18163 -3.2241,-3.75832 -6.84155,-7.6098 -10.51119,-11.13122 -7.34655,-7.08249 -15.3628,-13.4463 -23.88754,-19.00469 -0.91677,-0.5768 -2.12608,-1.37094 -3.17337,-2.0039 -13.5031,-8.3489 -28.25181,-14.61546 -43.58816,-18.5226 -1.35686,-0.34653 -3.02342,-0.74816 -4.5124,-1.06782 -8.75793,-1.96884 -17.68527,-3.14846 -26.6457,-3.56257 -1.0984,-0.0382 -2.55447,-0.10948 -3.79196,-0.1196 -1.6747,-0.0402 -3.3494,-0.0301 -5.02439,-0.0263 z" />
  </g>
  <metadata
     id="metadata1">
    <rdf:RDF>
      <cc:Work
         rdf:about="">
        <dc:title>Template</dc:title>
        <dc:date>2023</dc:date>
        <dc:creator>
          <cc:Agent>
            <dc:title>Doug Palmer</dc:title>
          </cc:Agent>
        </dc:creator>
        <dc:subject>
          <rdf:Bag>
            <rdf:li>icon map symbol</rdf:li>
          </rdf:Bag>
        </dc:subject>
        <cc:license
           rdf:resource="http://creativecommons.org/licenses/by/4.0/" />
      </cc:Work>
      <cc:License
         rdf:about="http://creativecommons.org/licenses/by/4.0/">
        <cc:permits
           rdf:resource="http://creativecommons.org/ns#Reproduction" />
        <cc:permits
           rdf:resource="http://creativecommons.org/ns#Distribution" />
        <cc:requires
           rdf:resource="http://creativecommons.org/ns#Notice" />
        <cc:requires
           rdf:resource="http://creativecommons.org/ns#Attribution" />
        <cc:permits
           rdf:resource="http://creativecommons.org/ns#DerivativeWorks" />
      </cc:License>
    </rdf:RDF>
  </metadata>
</svg>
