<?xml version="1.0" encoding="UTF-8" standalone="no"?>
<!-- Created with Inkscape (http://www.inkscape.org/) -->

<svg
   width="600"
   height="750"
   viewBox="0 0 600 750"
   version="1.1"
   id="svg1"
   inkscape:version="1.3 (0e150ed, 2023-07-21)"
   sodipodi:docname="pool.svg"
   xmlns:inkscape="http://www.inkscape.org/namespaces/inkscape"
   xmlns:sodipodi="http://sodipodi.sourceforge.net/DTD/sodipodi-0.dtd"
   xmlns="http://www.w3.org/2000/svg"
   xmlns:svg="http://www.w3.org/2000/svg"
   xmlns:rdf="http://www.w3.org/1999/02/22-rdf-syntax-ns#"
   xmlns:cc="http://creativecommons.org/ns#"
   xmlns:dc="http://purl.org/dc/elements/1.1/">
  <title
     id="title2">Template</title>
  <sodipodi:namedview
     id="namedview1"
     pagecolor="#ffffff"
     bordercolor="#000000"
     borderopacity="0.25"
     inkscape:showpageshadow="2"
     inkscape:pageopacity="0.0"
     inkscape:pagecheckerboard="false"
     inkscape:deskcolor="#d1d1d1"
     inkscape:document-units="px"
     showgrid="true"
     showguides="true"
     inkscape:zoom="0.84096521"
     inkscape:cx="306.79034"
     inkscape:cy="398.94635"
     inkscape:window-width="1528"
     inkscape:window-height="996"
     inkscape:window-x="828"
     inkscape:window-y="25"
     inkscape:window-maximized="0"
     inkscape:current-layer="layer1"
     inkscape:lockguides="true">
    <inkscape:grid
       id="grid2"
       units="px"
       originx="0"
       originy="0"
       spacingx="4"
       spacingy="4"
       empcolor="#0099e5"
       empopacity="0.30196078"
       color="#0099e5"
       opacity="0.14901961"
       empspacing="5"
       dotted="false"
       gridanglex="30"
       gridanglez="30"
       visible="true" />
    <sodipodi:guide
       position="0,730"
       orientation="0,1"
       id="guide3"
       inkscape:locked="true"
       inkscape:label=""
       inkscape:color="rgb(0,134,229)" />
    <sodipodi:guide
       position="-40,-230"
       orientation="0,1"
       id="guide4"
       inkscape:locked="true"
       inkscape:label=""
       inkscape:color="rgb(0,134,229)" />
    <sodipodi:guide
       position="20,750"
       orientation="-1,0"
       id="guide5"
       inkscape:locked="true"
       inkscape:label=""
       inkscape:color="rgb(0,134,229)" />
    <sodipodi:guide
       position="580,750"
       orientation="-1,0"
       id="guide6"
       inkscape:locked="true"
       inkscape:label=""
       inkscape:color="rgb(0,134,229)" />
    <sodipodi:guide
       position="300,750"
       orientation="-1,0"
       id="guide7"
       inkscape:locked="true"
       inkscape:label=""
       inkscape:color="rgb(0,134,229)" />
    <sodipodi:guide
       position="300,550"
       orientation="0,1"
       id="guide8"
       inkscape:locked="true"
       inkscape:label=""
       inkscape:color="rgb(0,134,229)" />
    <sodipodi:guide
       position="0,450"
       orientation="0,1"
       id="guide9"
       inkscape:locked="true"
       inkscape:label=""
       inkscape:color="rgb(0,134,229)" />
    <sodipodi:guide
       position="0,-70"
       orientation="0,1"
       id="guide10"
       inkscape:locked="true"
       inkscape:label=""
       inkscape:color="rgb(0,134,229)" />
    <sodipodi:guide
       position="0,150"
       orientation="0,1"
       id="guide1"
       inkscape:locked="true"
       inkscape:label=""
       inkscape:color="rgb(0,134,229)" />
    <sodipodi:guide
       position="300,350"
       orientation="0,1"
       id="guide2"
       inkscape:label=""
       inkscape:locked="true"
       inkscape:color="rgb(0,134,229)" />
  </sodipodi:namedview>
  <defs
     id="defs1">
    <inkscape:path-effect
       effect="fillet_chamfer"
       id="path-effect2"
       is_visible="true"
       lpeversion="1"
       nodesatellites_param="F,0,0,1,0,20,0,1 @ F,0,0,1,0,20,0,1 @ F,0,0,1,0,20,0,1 @ F,0,0,1,0,20,0,1 @ F,0,0,1,0,20,0,1 @ F,0,0,1,0,20,0,1 @ F,0,0,1,0,20,0,1 @ F,0,0,1,0,20,0,1 @ F,0,0,1,0,20,0,1 @ F,0,0,1,0,20,0,1 @ F,0,0,1,0,20,0,1"
       radius="20"
       unit="px"
       method="auto"
       mode="F"
       chamfer_steps="1"
       flexible="false"
       use_knot_distance="true"
       apply_no_radius="true"
       apply_with_radius="true"
       only_selected="false"
       hide_knots="false" />
    <inkscape:path-effect
       effect="fillet_chamfer"
       id="path-effect3"
       is_visible="true"
       lpeversion="1"
       nodesatellites_param="F,0,0,1,0,64,0,1 @ F,0,0,1,0,64,0,1 @ F,0,0,1,0,64,0,1 @ F,0,0,1,0,64,0,1 @ F,0,0,1,0,64,0,1 @ F,0,0,1,0,64,0,1 @ F,0,0,1,0,64,0,1 @ F,0,0,1,0,64,0,1 @ F,0,0,1,0,64,0,1 @ F,0,0,1,0,64,0,1 @ F,0,0,1,0,64,0,1 @ F,0,0,1,0,64,0,1"
       radius="65"
       unit="px"
       method="auto"
       mode="F"
       chamfer_steps="1"
       flexible="false"
       use_knot_distance="true"
       apply_no_radius="true"
       apply_with_radius="true"
       only_selected="false"
       hide_knots="false" />
  </defs>
  <g
     inkscape:label="Layer 1"
     inkscape:groupmode="layer"
     id="layer1">
    <g
       id="path1"
       style="opacity:0.99"
       transform="matrix(1.3640404,0,0,1.3640404,-60.639024,-138.17977)">
      <path
         style="color:#000000;fill:#ffffff;stroke-linecap:round;stroke-linejoin:round;-inkscape-stroke:none"
         d="m 80,520 c 0,0 21.14382,-40 40,-40 18.85618,0 21.14382,40 40,40 18.85618,0 21.14382,-40 40,-40 18.85618,0 21.14382,40 40,40 18.85618,0 21.14382,-40 40,-40 18.85618,0 21.14382,40 40,40 18.85618,0 21.14382,-40 40,-40 18.85618,0 21.14382,40 40,40 18.85618,0 40,-40 40,-40"
         id="path4" />
      <path
         style="color:#000000;fill:#000000;stroke-linecap:round;stroke-linejoin:round;-inkscape-stroke:none"
         d="m 120,465 c -10.01734,0 -17.55661,4.66631 -23.640625,9.58984 -6.084018,4.92353 -11.074418,10.70972 -15.347656,16.30078 -8.546476,11.18213 -14.273438,22.09961 -14.273438,22.09961 a 15,15 0 0 0 6.251953,20.27149 15,15 0 0 0 20.271485,-6.25195 c 0,0 4.84452,-9.08254 11.583981,-17.9004 3.36974,-4.40892 7.20103,-8.62275 10.38477,-11.19921 2.47496,-2.00288 3.90699,-2.5043 4.33789,-2.69336 0.10132,0.15434 0.0391,0.1358 0.51562,0.70117 1.58188,1.87679 4.01133,6.0918 6.6543,11.0918 2.64298,4.99999 5.49868,10.78499 10.23828,16.4082 C 141.71617,529.04117 149.98266,535 160,535 c 10.01734,0 18.28383,-5.95883 23.02344,-11.58203 4.7396,-5.62321 7.5953,-11.40821 10.23828,-16.4082 2.64297,-5 5.07242,-9.21501 6.6543,-11.0918 0.0781,-0.0926 0.0177,-0.036 0.084,-0.11524 0.0663,0.0793 0.006,0.0226 0.084,0.11524 1.58188,1.87679 4.01133,6.0918 6.6543,11.0918 2.64298,4.99999 5.49868,10.78499 10.23828,16.4082 C 221.71617,529.04117 229.98266,535 240,535 c 10.01734,0 18.28383,-5.95883 23.02344,-11.58203 4.7396,-5.62321 7.5953,-11.40821 10.23828,-16.4082 2.64297,-5 5.07242,-9.21501 6.6543,-11.0918 0.0781,-0.0926 0.0177,-0.036 0.084,-0.11524 0.0663,0.0793 0.006,0.0226 0.084,0.11524 1.58188,1.87679 4.01133,6.0918 6.6543,11.0918 2.64298,4.99999 5.49868,10.78499 10.23828,16.4082 C 301.71617,529.04117 309.98266,535 320,535 c 10.01734,0 18.28383,-5.95883 23.02344,-11.58203 4.7396,-5.62321 7.5953,-11.40821 10.23828,-16.4082 2.64297,-5 5.07242,-9.21501 6.6543,-11.0918 0.0781,-0.0926 0.0177,-0.036 0.084,-0.11524 0.0663,0.0793 0.006,0.0226 0.084,0.11524 1.58188,1.87679 4.01133,6.0918 6.6543,11.0918 2.64298,4.99999 5.49868,10.78499 10.23828,16.4082 C 381.71617,529.04117 389.98266,535 400,535 c 10.01734,0 17.55661,-4.66631 23.64062,-9.58984 6.08402,-4.92353 11.07442,-10.70972 15.34766,-16.30079 8.54648,-11.18212 14.27344,-22.0996 14.27344,-22.0996 a 15,15 0 0 0 -6.25195,-20.27149 15,15 0 0 0 -20.27149,6.25195 c 0,0 -4.84452,9.08254 -11.58398,17.90039 -3.36974,4.40893 -7.20103,8.62276 -10.38477,11.19922 -2.47496,2.00288 -3.90699,2.5043 -4.33789,2.69336 -0.10132,-0.15434 -0.0391,-0.1358 -0.51562,-0.70117 -1.58188,-1.87679 -4.01133,-6.0918 -6.6543,-11.0918 -2.64298,-4.99999 -5.49868,-10.78499 -10.23828,-16.4082 C 378.28383,470.95883 370.01734,465 360,465 c -10.01734,0 -18.28383,5.95883 -23.02344,11.58203 -4.7396,5.62321 -7.5953,11.40821 -10.23828,16.4082 -2.64297,5 -5.07242,9.21501 -6.6543,11.0918 -0.0781,0.0926 -0.0177,0.036 -0.084,0.11524 -0.0663,-0.0793 -0.006,-0.0226 -0.084,-0.11524 -1.58188,-1.87679 -4.01133,-6.0918 -6.6543,-11.0918 C 310.6187,487.99024 307.763,482.20524 303.0234,476.58203 298.28383,470.95883 290.01734,465 280,465 c -10.01734,0 -18.28383,5.95883 -23.02344,11.58203 -4.7396,5.62321 -7.5953,11.40821 -10.23828,16.4082 -2.64297,5 -5.07242,9.21501 -6.6543,11.0918 -0.0781,0.0926 -0.0177,0.036 -0.084,0.11524 -0.0663,-0.0793 -0.006,-0.0226 -0.084,-0.11524 -1.58188,-1.87679 -4.01133,-6.0918 -6.6543,-11.0918 C 230.6187,487.99024 227.763,482.20524 223.0234,476.58203 218.28383,470.95883 210.01734,465 200,465 c -10.01734,0 -18.28383,5.95883 -23.02344,11.58203 -4.7396,5.62321 -7.5953,11.40821 -10.23828,16.4082 -2.64297,5 -5.07242,9.21501 -6.6543,11.0918 -0.0781,0.0926 -0.0177,0.036 -0.084,0.11524 -0.0663,-0.0793 -0.006,-0.0226 -0.084,-0.11524 -1.58188,-1.87679 -4.01133,-6.0918 -6.6543,-11.0918 C 150.6187,487.99024 147.763,482.20524 143.0234,476.58203 138.28383,470.95883 130.01734,465 120,465 Z"
         id="path5" />
    </g>
    <g
       id="path1-4"
       style="opacity:0.99"
       transform="matrix(1.3640404,0,0,1.3640404,-60.639024,-138.17977)">
      <path
         style="color:#000000;fill:#ffffff;stroke-linecap:round;stroke-linejoin:round;-inkscape-stroke:none"
         d="m 80,440 c 0,0 21.14382,-40 40,-40 18.85618,0 21.14382,40 40,40 18.85618,0 21.14382,-40 40,-40 18.85618,0 21.14382,40 40,40 18.85618,0 21.14382,-40 40,-40 18.85618,0 21.14382,40 40,40 18.85618,0 21.14382,-40 40,-40 18.85618,0 21.14382,40 40,40 18.85618,0 40,-40 40,-40"
         id="path6" />
      <path
         style="color:#000000;fill:#000000;stroke-linecap:round;stroke-linejoin:round;-inkscape-stroke:none"
         d="m 120,385 c -10.01734,0 -17.55661,4.66631 -23.640625,9.58984 -6.084018,4.92353 -11.074418,10.70972 -15.347656,16.30078 -8.546476,11.18213 -14.273438,22.09961 -14.273438,22.09961 a 15,15 0 0 0 6.251953,20.27149 15,15 0 0 0 20.271485,-6.25195 c 0,0 4.84452,-9.08254 11.583981,-17.9004 3.36974,-4.40892 7.20103,-8.62275 10.38477,-11.19921 2.47496,-2.00288 3.90699,-2.5043 4.33789,-2.69336 0.10132,0.15434 0.0391,0.1358 0.51562,0.70117 1.58188,1.87679 4.01133,6.0918 6.6543,11.0918 2.64298,4.99999 5.49868,10.78499 10.23828,16.4082 C 141.71617,449.04117 149.98266,455 160,455 c 10.01734,0 18.28383,-5.95883 23.02344,-11.58203 4.7396,-5.62321 7.5953,-11.40821 10.23828,-16.4082 2.64297,-5 5.07242,-9.21501 6.6543,-11.0918 0.0781,-0.0926 0.0177,-0.036 0.084,-0.11524 0.0663,0.0793 0.006,0.0226 0.084,0.11524 1.58188,1.87679 4.01133,6.0918 6.6543,11.0918 2.64298,4.99999 5.49868,10.78499 10.23828,16.4082 C 221.71617,449.04117 229.98266,455 240,455 c 10.01734,0 18.28383,-5.95883 23.02344,-11.58203 4.7396,-5.62321 7.5953,-11.40821 10.23828,-16.4082 2.64297,-5 5.07242,-9.21501 6.6543,-11.0918 0.0781,-0.0926 0.0177,-0.036 0.084,-0.11524 0.0663,0.0793 0.006,0.0226 0.084,0.11524 1.58188,1.87679 4.01133,6.0918 6.6543,11.0918 2.64298,4.99999 5.49868,10.78499 10.23828,16.4082 C 301.71617,449.04117 309.98266,455 320,455 c 10.01734,0 18.28383,-5.95883 23.02344,-11.58203 4.7396,-5.62321 7.5953,-11.40821 10.23828,-16.4082 2.64297,-5 5.07242,-9.21501 6.6543,-11.0918 0.0781,-0.0926 0.0177,-0.036 0.084,-0.11524 0.0663,0.0793 0.006,0.0226 0.084,0.11524 1.58188,1.87679 4.01133,6.0918 6.6543,11.0918 2.64298,4.99999 5.49868,10.78499 10.23828,16.4082 C 381.71617,449.04117 389.98266,455 400,455 c 10.01734,0 17.55661,-4.66631 23.64062,-9.58984 6.08402,-4.92353 11.07442,-10.70972 15.34766,-16.30079 8.54648,-11.18212 14.27344,-22.0996 14.27344,-22.0996 a 15,15 0 0 0 -6.25195,-20.27149 15,15 0 0 0 -20.27149,6.25195 c 0,0 -4.84452,9.08254 -11.58398,17.90039 -3.36974,4.40893 -7.20103,8.62276 -10.38477,11.19922 -2.47496,2.00288 -3.90699,2.5043 -4.33789,2.69336 -0.10132,-0.15434 -0.0391,-0.1358 -0.51562,-0.70117 -1.58188,-1.87679 -4.01133,-6.0918 -6.6543,-11.0918 -2.64298,-4.99999 -5.49868,-10.78499 -10.23828,-16.4082 C 378.28383,390.95883 370.01734,385 360,385 c -10.01734,0 -18.28383,5.95883 -23.02344,11.58203 -4.7396,5.62321 -7.5953,11.40821 -10.23828,16.4082 -2.64297,5 -5.07242,9.21501 -6.6543,11.0918 -0.0781,0.0926 -0.0177,0.036 -0.084,0.11524 -0.0663,-0.0793 -0.006,-0.0226 -0.084,-0.11524 -1.58188,-1.87679 -4.01133,-6.0918 -6.6543,-11.0918 C 310.6187,407.99024 307.763,402.20524 303.0234,396.58203 298.28383,390.95883 290.01734,385 280,385 c -10.01734,0 -18.28383,5.95883 -23.02344,11.58203 -4.7396,5.62321 -7.5953,11.40821 -10.23828,16.4082 -2.64297,5 -5.07242,9.21501 -6.6543,11.0918 -0.0781,0.0926 -0.0177,0.036 -0.084,0.11524 -0.0663,-0.0793 -0.006,-0.0226 -0.084,-0.11524 -1.58188,-1.87679 -4.01133,-6.0918 -6.6543,-11.0918 C 230.6187,407.99024 227.763,402.20524 223.0234,396.58203 218.28383,390.95883 210.01734,385 200,385 c -10.01734,0 -18.28383,5.95883 -23.02344,11.58203 -4.7396,5.62321 -7.5953,11.40821 -10.23828,16.4082 -2.64297,5 -5.07242,9.21501 -6.6543,11.0918 -0.0781,0.0926 -0.0177,0.036 -0.084,0.11524 -0.0663,-0.0793 -0.006,-0.0226 -0.084,-0.11524 -1.58188,-1.87679 -4.01133,-6.0918 -6.6543,-11.0918 C 150.6187,407.99024 147.763,402.20524 143.0234,396.58203 138.28383,390.95883 130.01734,385 120,385 Z"
         id="path7" />
    </g>
    <path
       id="path2"
       style="opacity:0.99;fill:#000000;stroke:none;stroke-width:40.9212;stroke-linecap:round;stroke-linejoin:round;stroke-dasharray:none"
       d="m 114.61353,153.77017 c -9.56123,0.34413 -18.637403,4.29634 -25.402594,11.06152 -3.760509,10.63763 2.772385,22.13971 13.834894,24.35824 l 115.77027,38.21978 c 13.65754,10.24298 21.37895,26.5671 20.63377,43.62265 -2.82919,8.82278 -7.97624,16.72368 -14.9032,22.87698 l -38.46754,58.99209 h 81.84243 54.56162 109.12323 l -15.92623,-34.79902 c -4.52127,-9.39111 -7.72878,-19.35969 -9.5323,-29.62526 36.90304,-0.98646 66.32262,-31.16054 66.37975,-68.08213 -10e-4,-37.67168 -30.53588,-68.21002 -68.20203,-68.21002 -37.66615,0 -68.2009,30.53834 -68.20202,68.21002 0.0552,8.54534 1.71532,17.00422 4.89403,24.93636 -6.12638,-1.01487 -12.3246,-1.53428 -18.53443,-1.55319 -16.71907,-5e-4 -32.00298,-9.44684 -39.47992,-24.40087 l -2.8826,-5.75988 c -7.91929,-15.83819 -20.76178,-28.68068 -36.59997,-36.59997 L 132.90286,157.73974 c -5.66804,-2.8333 -11.95672,-4.19821 -18.28933,-3.96957 z"
       sodipodi:nodetypes="cccccccccccccscccccccc" />
  </g>
  <metadata
     id="metadata1">
    <rdf:RDF>
      <cc:Work
         rdf:about="">
        <dc:title>Template</dc:title>
        <dc:date>2023</dc:date>
        <dc:creator>
          <cc:Agent>
            <dc:title>Doug Palmer</dc:title>
          </cc:Agent>
        </dc:creator>
        <dc:subject>
          <rdf:Bag>
            <rdf:li>icon map symbol</rdf:li>
          </rdf:Bag>
        </dc:subject>
        <cc:license
           rdf:resource="http://creativecommons.org/licenses/by/4.0/" />
      </cc:Work>
      <cc:License
         rdf:about="http://creativecommons.org/licenses/by/4.0/">
        <cc:permits
           rdf:resource="http://creativecommons.org/ns#Reproduction" />
        <cc:permits
           rdf:resource="http://creativecommons.org/ns#Distribution" />
        <cc:requires
           rdf:resource="http://creativecommons.org/ns#Notice" />
        <cc:requires
           rdf:resource="http://creativecommons.org/ns#Attribution" />
        <cc:permits
           rdf:resource="http://creativecommons.org/ns#DerivativeWorks" />
      </cc:License>
    </rdf:RDF>
  </metadata>
</svg>
