<?xml version="1.0" encoding="UTF-8" standalone="no"?>
<!-- Created with Inkscape (http://www.inkscape.org/) -->

<svg
   width="600"
   height="750"
   viewBox="0 0 600 750"
   version="1.1"
   id="svg1"
   inkscape:version="1.3 (0e150ed, 2023-07-21)"
   sodipodi:docname="promontory.svg"
   xmlns:inkscape="http://www.inkscape.org/namespaces/inkscape"
   xmlns:sodipodi="http://sodipodi.sourceforge.net/DTD/sodipodi-0.dtd"
   xmlns="http://www.w3.org/2000/svg"
   xmlns:svg="http://www.w3.org/2000/svg"
   xmlns:rdf="http://www.w3.org/1999/02/22-rdf-syntax-ns#"
   xmlns:cc="http://creativecommons.org/ns#"
   xmlns:dc="http://purl.org/dc/elements/1.1/">
  <title
     id="title2">Template</title>
  <sodipodi:namedview
     id="namedview1"
     pagecolor="#ffffff"
     bordercolor="#000000"
     borderopacity="0.25"
     inkscape:showpageshadow="2"
     inkscape:pageopacity="0.0"
     inkscape:pagecheckerboard="false"
     inkscape:deskcolor="#d1d1d1"
     inkscape:document-units="px"
     showgrid="true"
     showguides="true"
     inkscape:zoom="0.84096521"
     inkscape:cx="282.41359"
     inkscape:cy="398.94635"
     inkscape:window-width="1528"
     inkscape:window-height="996"
     inkscape:window-x="478"
     inkscape:window-y="340"
     inkscape:window-maximized="0"
     inkscape:current-layer="layer1"
     inkscape:lockguides="true">
    <inkscape:grid
       id="grid2"
       units="px"
       originx="0"
       originy="0"
       spacingx="4"
       spacingy="4"
       empcolor="#0099e5"
       empopacity="0.30196078"
       color="#0099e5"
       opacity="0.14901961"
       empspacing="5"
       dotted="false"
       gridanglex="30"
       gridanglez="30"
       visible="true" />
    <sodipodi:guide
       position="0,730"
       orientation="0,1"
       id="guide3"
       inkscape:locked="true"
       inkscape:label=""
       inkscape:color="rgb(0,134,229)" />
    <sodipodi:guide
       position="-40,-230"
       orientation="0,1"
       id="guide4"
       inkscape:locked="true"
       inkscape:label=""
       inkscape:color="rgb(0,134,229)" />
    <sodipodi:guide
       position="20,750"
       orientation="-1,0"
       id="guide5"
       inkscape:locked="true"
       inkscape:label=""
       inkscape:color="rgb(0,134,229)" />
    <sodipodi:guide
       position="580,750"
       orientation="-1,0"
       id="guide6"
       inkscape:locked="true"
       inkscape:label=""
       inkscape:color="rgb(0,134,229)" />
    <sodipodi:guide
       position="300,750"
       orientation="-1,0"
       id="guide7"
       inkscape:locked="true"
       inkscape:label=""
       inkscape:color="rgb(0,134,229)" />
    <sodipodi:guide
       position="300,550"
       orientation="0,1"
       id="guide8"
       inkscape:locked="true"
       inkscape:label=""
       inkscape:color="rgb(0,134,229)" />
    <sodipodi:guide
       position="0,450"
       orientation="0,1"
       id="guide9"
       inkscape:locked="true"
       inkscape:label=""
       inkscape:color="rgb(0,134,229)" />
    <sodipodi:guide
       position="0,-70"
       orientation="0,1"
       id="guide10"
       inkscape:locked="true"
       inkscape:label=""
       inkscape:color="rgb(0,134,229)" />
    <sodipodi:guide
       position="0,150"
       orientation="0,1"
       id="guide1"
       inkscape:locked="true"
       inkscape:label=""
       inkscape:color="rgb(0,134,229)" />
    <sodipodi:guide
       position="300,350"
       orientation="0,1"
       id="guide2"
       inkscape:label=""
       inkscape:locked="true"
       inkscape:color="rgb(0,134,229)" />
  </sodipodi:namedview>
  <defs
     id="defs1">
    <inkscape:path-effect
       effect="fillet_chamfer"
       id="path-effect1"
       is_visible="true"
       lpeversion="1"
       nodesatellites_param="F,0,0,1,0,10,0,1 @ F,0,0,1,0,10,0,1 @ F,0,0,1,0,10,0,1 @ F,0,0,1,0,10,0,1 @ F,0,0,1,0,10,0,1 @ F,0,0,1,0,10,0,1 @ F,0,0,1,0,10,0,1 @ F,0,0,1,0,10,0,1"
       radius="10"
       unit="px"
       method="auto"
       mode="F"
       chamfer_steps="1"
       flexible="false"
       use_knot_distance="true"
       apply_no_radius="true"
       apply_with_radius="true"
       only_selected="false"
       hide_knots="false" />
    <inkscape:path-effect
       effect="fillet_chamfer"
       id="path-effect2"
       is_visible="true"
       lpeversion="1"
       nodesatellites_param="F,0,0,1,0,20,0,1 @ F,0,0,1,0,20,0,1 @ F,0,0,1,0,20,0,1 @ F,0,0,1,0,20,0,1 @ F,0,0,1,0,20,0,1 @ F,0,0,1,0,20,0,1 @ F,0,0,1,0,20,0,1 @ F,0,0,1,0,20,0,1 @ F,0,0,1,0,20,0,1 @ F,0,0,1,0,20,0,1 @ F,0,0,1,0,20,0,1"
       radius="20"
       unit="px"
       method="auto"
       mode="F"
       chamfer_steps="1"
       flexible="false"
       use_knot_distance="true"
       apply_no_radius="true"
       apply_with_radius="true"
       only_selected="false"
       hide_knots="false" />
    <inkscape:path-effect
       effect="fillet_chamfer"
       id="path-effect3"
       is_visible="true"
       lpeversion="1"
       nodesatellites_param="F,0,0,1,0,64,0,1 @ F,0,0,1,0,64,0,1 @ F,0,0,1,0,64,0,1 @ F,0,0,1,0,64,0,1 @ F,0,0,1,0,64,0,1 @ F,0,0,1,0,64,0,1 @ F,0,0,1,0,64,0,1 @ F,0,0,1,0,64,0,1 @ F,0,0,1,0,64,0,1 @ F,0,0,1,0,64,0,1 @ F,0,0,1,0,64,0,1 @ F,0,0,1,0,64,0,1"
       radius="65"
       unit="px"
       method="auto"
       mode="F"
       chamfer_steps="1"
       flexible="false"
       use_knot_distance="true"
       apply_no_radius="true"
       apply_with_radius="true"
       only_selected="false"
       hide_knots="false" />
  </defs>
  <g
     inkscape:label="Layer 1"
     inkscape:groupmode="layer"
     id="layer1">
    <path
       style="opacity:0.99;fill:#000000;fill-opacity:1;stroke:none;stroke-width:10;stroke-linecap:round;stroke-linejoin:round;stroke-opacity:1;stroke-dasharray:none"
       d="M 40,590 V 310 c 0,-5.52285 4.207323,-11.53234 9.437629,-13.30561 13.924671,-4.72098 40.494955,-13.12424 60.604311,-15.83938 5.47028,-0.73859 14.43367,-0.97367 19.95527,-1.09107 28.19615,-0.59952 59.28252,-0.20348 82.01248,14.24125 4.65619,2.95897 11.39989,8.9254 15.07796,13.04098 36.66857,41.03041 27.80981,110.8726 48.8745,163.80817 2.04144,5.13014 5.98876,13.18054 8.05329,18.30173 7.01075,17.39061 13.12734,38.24312 26.78059,47.09124 4.60671,2.98543 13.59263,4.64022 19.02467,5.63727 88.42738,16.23085 111.93133,-2e-5 200.3588,16.23087 5.43193,0.99704 14.59373,4.29526 15.35971,9.38964 0.97922,6.51259 -0.86814,15.90075 -2.68744,22.91308 C 541.46521,595.76254 535.52285,600 530,600 H 50 A 10,10 45 0 1 40,590 Z"
       id="path1"
       sodipodi:nodetypes="ccssssscc"
       inkscape:path-effect="#path-effect1"
       inkscape:original-d="M 40,600 V 300 c 0,0 52.520408,-19.34609 80,-20 33.98384,-0.80868 74.51584,-2.49696 100,20 47.41381,41.85607 32.21297,123.18555 60,180 10.56069,21.59281 16.42977,55.28595 40,60 100,20 120,0 220,20 13.07441,2.61488 0,40 0,40 z"
       inkscape:export-filename="../../static/icons/location-promontory-stop.png"
       inkscape:export-xdpi="12.146833"
       inkscape:export-ydpi="12.146833" />
    <circle
       style="opacity:0.99;fill:#000000;fill-opacity:1;stroke:none;stroke-width:10;stroke-linecap:round;stroke-linejoin:round;stroke-opacity:1;stroke-dasharray:none"
       id="path4"
       cx="400"
       cy="310.31064"
       r="29.689356" />
    <path
       style="color:#000000;opacity:0.99;fill:#000000;stroke-width:10;stroke-linecap:round;stroke-linejoin:round;stroke:none;stroke-opacity:1;stroke-dasharray:none"
       d="m 400.00001,247.22077 a 3.7111695,3.7111695 0 0 0 -3.71117,3.71117 v 14.84468 a 3.7111695,3.7111695 0 0 0 3.71117,3.71117 3.7111695,3.7111695 0 0 0 3.71117,-3.71117 v -14.84468 a 3.7111695,3.7111695 0 0 0 -3.71117,-3.71117 z"
       id="path5" />
    <path
       style="color:#000000;opacity:0.99;fill:#000000;stroke-width:10;stroke-linecap:round;stroke-linejoin:round;stroke:none;stroke-opacity:1;stroke-dasharray:none"
       d="m 400.00001,351.13352 a 3.7111695,3.7111695 0 0 0 -3.71117,3.71117 v 14.84467 a 3.7111695,3.7111695 0 0 0 3.71117,3.71117 3.7111695,3.7111695 0 0 0 3.71117,-3.71117 v -14.84467 a 3.7111695,3.7111695 0 0 0 -3.71117,-3.71117 z"
       id="path5-4" />
    <path
       style="color:#000000;opacity:0.99;fill:#000000;stroke-width:10;stroke-linecap:round;stroke-linejoin:round;stroke:none;stroke-opacity:1;stroke-dasharray:none"
       d="m 340.6213,306.59948 a 3.7111695,3.7111695 0 0 0 -3.71117,3.71117 3.7111695,3.7111695 0 0 0 3.71117,3.71117 h 14.84468 a 3.7111695,3.7111695 0 0 0 3.71117,-3.71117 3.7111695,3.7111695 0 0 0 -3.71117,-3.71117 z"
       id="path6" />
    <path
       style="color:#000000;opacity:0.99;fill:#000000;stroke-width:10;stroke-linecap:round;stroke-linejoin:round;stroke:none;stroke-opacity:1;stroke-dasharray:none"
       d="m 444.53405,306.59948 a 3.7111695,3.7111695 0 0 0 -3.71117,3.71117 3.7111695,3.7111695 0 0 0 3.71117,3.71117 h 14.84467 a 3.7111695,3.7111695 0 0 0 3.71117,-3.71117 3.7111695,3.7111695 0 0 0 -3.71117,-3.71117 z"
       id="path7" />
    <path
       style="color:#000000;opacity:0.99;fill:#000000;stroke-width:10;stroke-linecap:round;stroke-linejoin:round;stroke:none;stroke-opacity:1;stroke-dasharray:none"
       d="m 443.89764,265.77662 a 3.7111695,3.7111695 0 0 0 -2.62392,1.08725 l -10.4971,10.4971 a 3.7111695,3.7111695 0 0 0 0,5.24783 3.7111695,3.7111695 0 0 0 5.24783,0 l 10.4971,-10.4971 a 3.7111695,3.7111695 0 0 0 0,-5.24783 3.7111695,3.7111695 0 0 0 -2.62391,-1.08725 z"
       id="path8" />
    <path
       style="color:#000000;opacity:0.99;fill:#000000;stroke-width:10;stroke-linecap:round;stroke-linejoin:round;stroke:none;stroke-opacity:1;stroke-dasharray:none"
       d="m 365.96308,340.63641 a 3.7111695,3.7111695 0 0 0 -2.62392,1.08727 l -10.4971,10.49709 a 3.7111695,3.7111695 0 0 0 0,5.24783 3.7111695,3.7111695 0 0 0 5.24783,0 l 10.4971,-10.4971 a 3.7111695,3.7111695 0 0 0 0,-5.24782 3.7111695,3.7111695 0 0 0 -2.62391,-1.08727 z"
       id="path9" />
    <path
       style="color:#000000;opacity:0.99;fill:#000000;stroke-width:10;stroke-linecap:round;stroke-linejoin:round;stroke:none;stroke-opacity:1;stroke-dasharray:none"
       d="m 359.17715,265.77662 a 3.7111695,3.7111695 0 0 0 -2.62392,1.08725 3.7111695,3.7111695 0 0 0 0,5.24783 l 10.4971,10.4971 a 3.7111695,3.7111695 0 0 0 5.24783,0 3.7111695,3.7111695 0 0 0 0,-5.24783 l -10.4971,-10.4971 a 3.7111695,3.7111695 0 0 0 -2.62391,-1.08725 z"
       id="path10" />
    <path
       style="color:#000000;opacity:0.99;fill:#000000;stroke-width:10;stroke-linecap:round;stroke-linejoin:round;stroke:none;stroke-opacity:1;stroke-dasharray:none"
       d="m 434.03694,340.63641 a 3.7111695,3.7111695 0 0 0 -2.6239,1.08727 3.7111695,3.7111695 0 0 0 0,5.24782 l 10.49709,10.4971 a 3.7111695,3.7111695 0 0 0 5.24783,0 3.7111695,3.7111695 0 0 0 0,-5.24783 l -10.4971,-10.49709 a 3.7111695,3.7111695 0 0 0 -2.62392,-1.08727 z"
       id="path11" />
  </g>
  <metadata
     id="metadata1">
    <rdf:RDF>
      <cc:Work
         rdf:about="">
        <dc:title>Template</dc:title>
        <dc:date>2023</dc:date>
        <dc:creator>
          <cc:Agent>
            <dc:title>Doug Palmer</dc:title>
          </cc:Agent>
        </dc:creator>
        <dc:subject>
          <rdf:Bag>
            <rdf:li>icon map symbol</rdf:li>
          </rdf:Bag>
        </dc:subject>
        <cc:license
           rdf:resource="http://creativecommons.org/licenses/by/4.0/" />
      </cc:Work>
      <cc:License
         rdf:about="http://creativecommons.org/licenses/by/4.0/">
        <cc:permits
           rdf:resource="http://creativecommons.org/ns#Reproduction" />
        <cc:permits
           rdf:resource="http://creativecommons.org/ns#Distribution" />
        <cc:requires
           rdf:resource="http://creativecommons.org/ns#Notice" />
        <cc:requires
           rdf:resource="http://creativecommons.org/ns#Attribution" />
        <cc:permits
           rdf:resource="http://creativecommons.org/ns#DerivativeWorks" />
      </cc:License>
    </rdf:RDF>
  </metadata>
</svg>
