<?xml version="1.0" encoding="UTF-8" standalone="no"?>
<!-- Created with Inkscape (http://www.inkscape.org/) -->

<svg
   width="600"
   height="750"
   viewBox="0 0 600 750"
   version="1.1"
   id="svg1"
   inkscape:version="1.3 (0e150ed, 2023-07-21)"
   sodipodi:docname="rest.svg"
   xml:space="preserve"
   xmlns:inkscape="http://www.inkscape.org/namespaces/inkscape"
   xmlns:sodipodi="http://sodipodi.sourceforge.net/DTD/sodipodi-0.dtd"
   xmlns="http://www.w3.org/2000/svg"
   xmlns:svg="http://www.w3.org/2000/svg"
   xmlns:rdf="http://www.w3.org/1999/02/22-rdf-syntax-ns#"
   xmlns:cc="http://creativecommons.org/ns#"
   xmlns:dc="http://purl.org/dc/elements/1.1/"><title
     id="title2">Template</title><sodipodi:namedview
     id="namedview1"
     pagecolor="#ffffff"
     bordercolor="#000000"
     borderopacity="0.25"
     inkscape:showpageshadow="2"
     inkscape:pageopacity="0.0"
     inkscape:pagecheckerboard="false"
     inkscape:deskcolor="#d1d1d1"
     inkscape:document-units="px"
     showgrid="true"
     showguides="true"
     inkscape:zoom="1.3788582"
     inkscape:cx="215.03299"
     inkscape:cy="482.64571"
     inkscape:window-width="1528"
     inkscape:window-height="996"
     inkscape:window-x="1032"
     inkscape:window-y="25"
     inkscape:window-maximized="0"
     inkscape:current-layer="Layer_x0020_1"
     inkscape:lockguides="true"><inkscape:grid
       id="grid2"
       units="px"
       originx="0"
       originy="0"
       spacingx="4"
       spacingy="4"
       empcolor="#0099e5"
       empopacity="0.30196078"
       color="#0099e5"
       opacity="0.14901961"
       empspacing="5"
       dotted="false"
       gridanglex="30"
       gridanglez="30"
       visible="true" /><sodipodi:guide
       position="0,730"
       orientation="0,1"
       id="guide3"
       inkscape:locked="true"
       inkscape:label=""
       inkscape:color="rgb(0,134,229)" /><sodipodi:guide
       position="-40,-230"
       orientation="0,1"
       id="guide4"
       inkscape:locked="true"
       inkscape:label=""
       inkscape:color="rgb(0,134,229)" /><sodipodi:guide
       position="20,750"
       orientation="-1,0"
       id="guide5"
       inkscape:locked="true"
       inkscape:label=""
       inkscape:color="rgb(0,134,229)" /><sodipodi:guide
       position="580,750"
       orientation="-1,0"
       id="guide6"
       inkscape:locked="true"
       inkscape:label=""
       inkscape:color="rgb(0,134,229)" /><sodipodi:guide
       position="300,750"
       orientation="-1,0"
       id="guide7"
       inkscape:locked="true"
       inkscape:label=""
       inkscape:color="rgb(0,134,229)" /><sodipodi:guide
       position="300,550"
       orientation="0,1"
       id="guide8"
       inkscape:locked="true"
       inkscape:label=""
       inkscape:color="rgb(0,134,229)" /><sodipodi:guide
       position="0,450"
       orientation="0,1"
       id="guide9"
       inkscape:locked="true"
       inkscape:label=""
       inkscape:color="rgb(0,134,229)" /><sodipodi:guide
       position="0,-70"
       orientation="0,1"
       id="guide10"
       inkscape:locked="true"
       inkscape:label=""
       inkscape:color="rgb(0,134,229)" /><sodipodi:guide
       position="0,150"
       orientation="0,1"
       id="guide1"
       inkscape:locked="true"
       inkscape:label=""
       inkscape:color="rgb(0,134,229)" /><sodipodi:guide
       position="300,350"
       orientation="0,1"
       id="guide2"
       inkscape:label=""
       inkscape:locked="true"
       inkscape:color="rgb(0,134,229)" /></sodipodi:namedview><defs
     id="defs1"><inkscape:path-effect
       effect="fillet_chamfer"
       id="path-effect4"
       is_visible="true"
       lpeversion="1"
       nodesatellites_param="F,0,0,1,0,10,0,1 @ F,0,0,1,0,10,0,1 @ F,0,0,1,0,10,0,1 @ F,0,0,1,0,10,0,1 @ F,0,0,1,0,0,0,1 @ F,0,0,1,0,10,0,1 @ F,0,0,1,0,10,0,1 @ F,0,0,1,0,10,0,1 @ F,0,0,1,0,10,0,1"
       radius="10"
       unit="px"
       method="auto"
       mode="F"
       chamfer_steps="1"
       flexible="false"
       use_knot_distance="true"
       apply_no_radius="true"
       apply_with_radius="true"
       only_selected="false"
       hide_knots="false" /><inkscape:path-effect
       effect="fillet_chamfer"
       id="path-effect2"
       is_visible="true"
       lpeversion="1"
       nodesatellites_param="F,0,0,1,0,20,0,1 @ F,0,0,1,0,20,0,1 @ F,0,0,1,0,20,0,1 @ F,0,0,1,0,20,0,1 @ F,0,0,1,0,20,0,1 @ F,0,0,1,0,20,0,1 @ F,0,0,1,0,20,0,1 @ F,0,0,1,0,20,0,1 @ F,0,0,1,0,20,0,1 @ F,0,0,1,0,20,0,1 @ F,0,0,1,0,20,0,1"
       radius="20"
       unit="px"
       method="auto"
       mode="F"
       chamfer_steps="1"
       flexible="false"
       use_knot_distance="true"
       apply_no_radius="true"
       apply_with_radius="true"
       only_selected="false"
       hide_knots="false" /><inkscape:path-effect
       effect="fillet_chamfer"
       id="path-effect3"
       is_visible="true"
       lpeversion="1"
       nodesatellites_param="F,0,0,1,0,64,0,1 @ F,0,0,1,0,64,0,1 @ F,0,0,1,0,64,0,1 @ F,0,0,1,0,64,0,1 @ F,0,0,1,0,64,0,1 @ F,0,0,1,0,64,0,1 @ F,0,0,1,0,64,0,1 @ F,0,0,1,0,64,0,1 @ F,0,0,1,0,64,0,1 @ F,0,0,1,0,64,0,1 @ F,0,0,1,0,64,0,1 @ F,0,0,1,0,64,0,1"
       radius="65"
       unit="px"
       method="auto"
       mode="F"
       chamfer_steps="1"
       flexible="false"
       use_knot_distance="true"
       apply_no_radius="true"
       apply_with_radius="true"
       only_selected="false"
       hide_knots="false" /></defs><g
     inkscape:label="Layer 1"
     inkscape:groupmode="layer"
     id="layer1"><g
       id="path9-7"
       style="opacity:0.99" /><g
       style="clip-rule:evenodd;fill-rule:evenodd;image-rendering:optimizeQuality;shape-rendering:geometricPrecision;text-rendering:geometricPrecision"
       id="g1"
       transform="translate(50.52,199.05)"><g
         id="Layer_x0020_1"
         inkscape:label="Layer 1"
         inkscape:groupmode="layer">&#10;  <metadata
   id="CorelCorpID_0Corel-Layer" />&#10;  <path
   d="M 44.981871,54.025772 C 24.378752,59.554904 9.48,78.62552 9.48,100.95 c 0,26.80161 21.385364,48.53893 47.76506,48.53893 26.36766,0 47.75302,-21.73732 47.75302,-48.53893 0,-1.52908 -0.0722,-3.08261 -0.21662,-4.58722 -2.35877,-24.930028 -22.97392,-43.95171 -47.608608,-43.95171 -4.091741,0 -7.7021,0.403676 -12.190981,1.614702 z"
   id="path2"
   style="stroke-width:1.21332" /><path
   d="m 225.1971,204.41067 c 24.03296,-3.3395 47.37995,-7.75547 71.02781,-11.24176 27.08973,-4.03675 27.61925,-0.47707 47.5364,15.4987 l 93.23153,73.98272 c 24.63468,22.1043 6.01726,44.90585 -16.10221,40.86909 l -87.20222,-62.65534 c -19.3756,-13.88399 -15.94576,-12.17143 -39.43716,-3.18047 -26.70463,10.23868 -56.45399,24.42849 -84.77125,23.26639 -34.62335,-1.39451 -45.87943,-20.86338 -69.61153,-41.80558 -14.03226,-10.93594 -24.14762,-25.50166 -34.87039,-39.8138 -5.87285,-9.22337 -10.85703,-16.02118 -14.59977,-23.54422 -2.40691,-4.22024 -3.68257,-9.02765 -3.68257,-13.90846 0,-4.89304 1.27566,-9.70044 3.68257,-13.92069 6.83561,-13.30906 18.87014,-34.37359 36.4887,-30.50809 l 95.26535,21.18686 c 11.14398,2.44651 18.22028,13.61487 15.81338,24.94225 -2.40691,11.32738 -13.39444,18.53238 -24.53841,16.08586 l -7.71414,-1.71256 c 6.91986,8.20807 13.40647,17.02777 19.48391,26.4591 z"
   id="path1-7"
   style="stroke-width:1.21332"
   sodipodi:nodetypes="cccccccccccscccsccc" />&#10; <g
   id="path1"
   style="opacity:0.99"><path
     style="color:#000000;clip-rule:nonzero;fill:#000000;fill-rule:nonzero;stroke-linecap:round;stroke-linejoin:round;-inkscape-stroke:none;shape-rendering:auto"
     d="m -30.52,120.95 280,240"
     id="path3" /><path
     id="path4"
     style="color:#000000;clip-rule:nonzero;fill:#000000;fill-rule:nonzero;stroke-linecap:round;stroke-linejoin:round;-inkscape-stroke:none;shape-rendering:auto"
     d="M -32.969219 106.15117 A 15 15 0 0 0 -41.908672 111.18828 A 15 15 0 0 0 -40.281719 132.33867 L 172.56398 314.77812 L 84.353047 346.8543 A 15 15 0 0 0 75.382344 366.07695 A 15 15 0 0 0 94.605 375.04766 L 198.71242 337.19023 L 239.71828 372.33867 A 15 15 0 0 0 260.86867 370.71172 A 15 15 0 0 0 259.24172 349.56133 L 231.07766 325.4207 L 314.605 295.04766 A 15 15 0 0 0 323.5757 275.825 A 15 15 0 0 0 312.08938 266.17852 A 15 15 0 0 0 304.35305 266.8543 L 204.92922 303.00859 L -20.758281 109.56133 A 15 15 0 0 0 -27.760234 106.20586 A 15 15 0 0 0 -32.969219 106.15117 z " /></g><g
   id="path1-8"
   style="opacity:0.99"><path
     style="color:#000000;fill:#000000;stroke-linecap:round;stroke-linejoin:round;-inkscape-stroke:none"
     d="m 89.48,360.95 220,-80"
     id="path5" /></g></g></g></g><metadata
     id="metadata1"><rdf:RDF><cc:Work
         rdf:about=""><dc:title>Template</dc:title><dc:date>2023</dc:date><dc:creator><cc:Agent><dc:title>Doug Palmer</dc:title></cc:Agent></dc:creator><dc:subject><rdf:Bag><rdf:li>icon map symbol</rdf:li></rdf:Bag></dc:subject><cc:license
           rdf:resource="http://creativecommons.org/licenses/by/4.0/" /></cc:Work><cc:License
         rdf:about="http://creativecommons.org/licenses/by/4.0/"><cc:permits
           rdf:resource="http://creativecommons.org/ns#Reproduction" /><cc:permits
           rdf:resource="http://creativecommons.org/ns#Distribution" /><cc:requires
           rdf:resource="http://creativecommons.org/ns#Notice" /><cc:requires
           rdf:resource="http://creativecommons.org/ns#Attribution" /><cc:permits
           rdf:resource="http://creativecommons.org/ns#DerivativeWorks" /></cc:License></rdf:RDF></metadata></svg>
