<?xml version="1.0" encoding="UTF-8" standalone="no"?>
<!-- Created with Inkscape (http://www.inkscape.org/) -->

<svg
   width="600"
   height="750"
   viewBox="0 0 600 750"
   version="1.1"
   id="svg1"
   inkscape:version="1.3 (0e150ed, 2023-07-21)"
   sodipodi:docname="ruin.svg"
   xmlns:inkscape="http://www.inkscape.org/namespaces/inkscape"
   xmlns:sodipodi="http://sodipodi.sourceforge.net/DTD/sodipodi-0.dtd"
   xmlns="http://www.w3.org/2000/svg"
   xmlns:svg="http://www.w3.org/2000/svg"
   xmlns:rdf="http://www.w3.org/1999/02/22-rdf-syntax-ns#"
   xmlns:cc="http://creativecommons.org/ns#"
   xmlns:dc="http://purl.org/dc/elements/1.1/">
  <title
     id="title2">Template</title>
  <sodipodi:namedview
     id="namedview1"
     pagecolor="#ffffff"
     bordercolor="#000000"
     borderopacity="0.25"
     inkscape:showpageshadow="2"
     inkscape:pageopacity="0.0"
     inkscape:pagecheckerboard="false"
     inkscape:deskcolor="#d1d1d1"
     inkscape:document-units="px"
     showgrid="true"
     showguides="true"
     inkscape:zoom="0.84096521"
     inkscape:cx="280.03537"
     inkscape:cy="398.94635"
     inkscape:window-width="1528"
     inkscape:window-height="996"
     inkscape:window-x="828"
     inkscape:window-y="25"
     inkscape:window-maximized="0"
     inkscape:current-layer="layer1"
     inkscape:lockguides="true">
    <inkscape:grid
       id="grid2"
       units="px"
       originx="0"
       originy="0"
       spacingx="4"
       spacingy="4"
       empcolor="#0099e5"
       empopacity="0.30196078"
       color="#0099e5"
       opacity="0.14901961"
       empspacing="5"
       dotted="false"
       gridanglex="30"
       gridanglez="30"
       visible="true" />
    <sodipodi:guide
       position="0,730"
       orientation="0,1"
       id="guide3"
       inkscape:locked="true"
       inkscape:label=""
       inkscape:color="rgb(0,134,229)" />
    <sodipodi:guide
       position="-40,-230"
       orientation="0,1"
       id="guide4"
       inkscape:locked="true"
       inkscape:label=""
       inkscape:color="rgb(0,134,229)" />
    <sodipodi:guide
       position="20,750"
       orientation="-1,0"
       id="guide5"
       inkscape:locked="true"
       inkscape:label=""
       inkscape:color="rgb(0,134,229)" />
    <sodipodi:guide
       position="580,750"
       orientation="-1,0"
       id="guide6"
       inkscape:locked="true"
       inkscape:label=""
       inkscape:color="rgb(0,134,229)" />
    <sodipodi:guide
       position="300,750"
       orientation="-1,0"
       id="guide7"
       inkscape:locked="true"
       inkscape:label=""
       inkscape:color="rgb(0,134,229)" />
    <sodipodi:guide
       position="300,550"
       orientation="0,1"
       id="guide8"
       inkscape:locked="true"
       inkscape:label=""
       inkscape:color="rgb(0,134,229)" />
    <sodipodi:guide
       position="0,450"
       orientation="0,1"
       id="guide9"
       inkscape:locked="true"
       inkscape:label=""
       inkscape:color="rgb(0,134,229)" />
    <sodipodi:guide
       position="0,-70"
       orientation="0,1"
       id="guide10"
       inkscape:locked="true"
       inkscape:label=""
       inkscape:color="rgb(0,134,229)" />
    <sodipodi:guide
       position="0,150"
       orientation="0,1"
       id="guide1"
       inkscape:locked="true"
       inkscape:label=""
       inkscape:color="rgb(0,134,229)" />
    <sodipodi:guide
       position="300,350"
       orientation="0,1"
       id="guide2"
       inkscape:label=""
       inkscape:locked="true"
       inkscape:color="rgb(0,134,229)" />
  </sodipodi:namedview>
  <defs
     id="defs1">
    <inkscape:path-effect
       effect="fillet_chamfer"
       id="path-effect5"
       is_visible="true"
       lpeversion="1"
       nodesatellites_param="F,0,0,1,0,10,0,1 @ F,0,0,1,0,10,0,1 @ F,0,0,1,0,10,0,1 @ F,0,0,1,0,10,0,1 @ F,0,0,1,0,10,0,1 @ F,0,0,1,0,10,0,1 @ F,0,0,1,0,10,0,1 @ F,0,0,1,0,10,0,1 @ F,0,0,1,0,10,0,1 @ F,0,0,1,0,10,0,1 @ F,0,0,1,0,10,0,1 @ F,0,0,1,0,10,0,1 @ F,0,0,1,0,10,0,1 @ F,0,0,1,0,10,0,1 @ F,0,0,1,0,10,0,1 @ F,0,0,1,0,10,0,1 @ F,0,0,1,0,10,0,1 @ F,0,0,1,0,10,0,1 @ F,0,0,1,0,10,0,1 @ F,0,0,1,0,10,0,1 @ F,0,0,1,0,10,0,1 @ F,0,0,1,0,10,0,1 @ F,0,0,1,0,10,0,1 @ F,0,0,1,0,10,0,1 @ F,0,0,1,0,10,0,1 @ F,0,0,1,0,10,0,1 @ F,0,0,1,0,10,0,1 @ F,0,0,1,0,10,0,1 @ F,0,0,1,0,10,0,1 @ F,0,0,1,0,10,0,1 @ F,0,0,1,0,10,0,1 @ F,0,0,1,0,10,0,1 @ F,0,0,1,0,10,0,1 @ F,0,0,1,0,10,0,1 | F,0,0,1,0,10,0,1 @ F,0,0,1,0,10,0,1 @ F,0,0,1,0,10,0,1 @ F,0,0,1,0,10,0,1 @ F,0,0,1,0,10,0,1 @ F,0,0,1,0,10,0,1 @ F,0,0,1,0,10,0,1 @ F,0,0,1,0,10,0,1 | F,0,0,1,0,10,0,1 @ F,0,0,1,0,10,0,1 @ F,0,0,1,0,10,0,1 @ F,0,0,1,0,10,0,1 @ F,0,0,1,0,10,0,1 @ F,0,0,1,0,10,0,1 @ F,0,0,1,0,10,0,1 @ F,0,0,1,0,10,0,1 | F,0,0,1,0,10,0,1 @ F,0,0,1,0,10,0,1 @ F,0,0,1,0,10,0,1 @ F,0,0,1,0,10,0,1 @ F,0,0,1,0,10,0,1 @ F,0,0,1,0,10,0,1 @ F,0,0,1,0,10,0,1 @ F,0,0,1,0,10,0,1"
       radius="10"
       unit="px"
       method="auto"
       mode="F"
       chamfer_steps="1"
       flexible="false"
       use_knot_distance="true"
       apply_no_radius="true"
       apply_with_radius="true"
       only_selected="false"
       hide_knots="false" />
    <inkscape:path-effect
       effect="fillet_chamfer"
       id="path-effect4"
       is_visible="true"
       lpeversion="1"
       nodesatellites_param="F,0,0,1,0,0,0,1 @ F,0,0,1,0,10,0,1 @ F,0,0,1,0,10,0,1 @ F,0,0,1,0,10,0,1 @ F,0,0,1,0,10,0,1"
       radius="10"
       unit="px"
       method="auto"
       mode="F"
       chamfer_steps="1"
       flexible="false"
       use_knot_distance="true"
       apply_no_radius="true"
       apply_with_radius="true"
       only_selected="false"
       hide_knots="false" />
    <inkscape:path-effect
       effect="fillet_chamfer"
       id="path-effect2"
       is_visible="true"
       lpeversion="1"
       nodesatellites_param="F,0,0,1,0,20,0,1 @ F,0,0,1,0,20,0,1 @ F,0,0,1,0,20,0,1 @ F,0,0,1,0,20,0,1 @ F,0,0,1,0,20,0,1 @ F,0,0,1,0,20,0,1 @ F,0,0,1,0,20,0,1 @ F,0,0,1,0,20,0,1 @ F,0,0,1,0,20,0,1 @ F,0,0,1,0,20,0,1 @ F,0,0,1,0,20,0,1"
       radius="20"
       unit="px"
       method="auto"
       mode="F"
       chamfer_steps="1"
       flexible="false"
       use_knot_distance="true"
       apply_no_radius="true"
       apply_with_radius="true"
       only_selected="false"
       hide_knots="false" />
    <inkscape:path-effect
       effect="fillet_chamfer"
       id="path-effect3"
       is_visible="true"
       lpeversion="1"
       nodesatellites_param="F,0,0,1,0,64,0,1 @ F,0,0,1,0,64,0,1 @ F,0,0,1,0,64,0,1 @ F,0,0,1,0,64,0,1 @ F,0,0,1,0,64,0,1 @ F,0,0,1,0,64,0,1 @ F,0,0,1,0,64,0,1 @ F,0,0,1,0,64,0,1 @ F,0,0,1,0,64,0,1 @ F,0,0,1,0,64,0,1 @ F,0,0,1,0,64,0,1 @ F,0,0,1,0,64,0,1"
       radius="65"
       unit="px"
       method="auto"
       mode="F"
       chamfer_steps="1"
       flexible="false"
       use_knot_distance="true"
       apply_no_radius="true"
       apply_with_radius="true"
       only_selected="false"
       hide_knots="false" />
    <inkscape:path-effect
       effect="fillet_chamfer"
       id="path-effect4-9"
       is_visible="true"
       lpeversion="1"
       nodesatellites_param="F,0,0,1,0,0,0,1 @ F,0,0,1,0,10,0,1 @ F,0,0,1,0,10,0,1 @ F,0,0,1,0,10,0,1 @ F,0,0,1,0,10,0,1"
       radius="10"
       unit="px"
       method="auto"
       mode="F"
       chamfer_steps="1"
       flexible="false"
       use_knot_distance="true"
       apply_no_radius="true"
       apply_with_radius="true"
       only_selected="false"
       hide_knots="false" />
    <inkscape:path-effect
       effect="fillet_chamfer"
       id="path-effect4-8"
       is_visible="true"
       lpeversion="1"
       nodesatellites_param="F,0,0,1,0,0,0,1 @ F,0,0,1,0,10,0,1 @ F,0,0,1,0,10,0,1 @ F,0,0,1,0,10,0,1 @ F,0,0,1,0,10,0,1"
       radius="10"
       unit="px"
       method="auto"
       mode="F"
       chamfer_steps="1"
       flexible="false"
       use_knot_distance="true"
       apply_no_radius="true"
       apply_with_radius="true"
       only_selected="false"
       hide_knots="false" />
  </defs>
  <g
     inkscape:label="Layer 1"
     inkscape:groupmode="layer"
     id="layer1">
    <path
       id="path1"
       style="opacity:0.99;fill:#000000;stroke:none;stroke-width:10;stroke-linecap:square;stroke-linejoin:round"
       d="m 380,250 v 220 a 24.142136,24.142136 112.5 0 1 -7.07107,17.07107 l -5.85786,5.85786 a 23.819123,23.819123 157.77416 0 1 -17.07061,6.97537 l -40.00092,-0.38282 a 24.990875,24.990875 22.356946 0 1 -17.17283,-7.06304 l -5.65342,-5.4911 A 64.594136,64.594136 35.365311 0 0 271.05573,475.52786 L 248.94427,464.47214 A 16.18034,16.18034 58.282526 0 1 240,450 v -60 a 10.827519,10.827519 47.275278 0 0 -9.96848,-10.79339 l -42.88531,-3.41322 a 17.56462,17.56462 34.204554 0 1 -14.37437,-9.77048 l -8.36595,-17.04582 A 16.047389,16.047389 31.929276 0 0 150,340 10,10 135 0 0 140,350 v 160 a 24.142136,24.142136 112.5 0 1 -7.07107,17.07107 l -5.85786,5.85786 a 61.622777,61.622777 125.78253 0 0 -11.54321,16.01534 l -11.05572,22.11146 a 7.2075922,7.2075922 170.78253 0 1 -11.543208,1.8732 l -5.857864,-5.85786 A 24.142136,24.142136 22.5 0 0 70,560 16.18034,16.18034 148.28253 0 0 55.527864,568.94427 L 44.472136,591.05573 A 6.1803399,6.1803399 58.282526 0 0 50,600 h 500 a 10,10 135 0 0 10,-10 V 250 a 10,10 45 0 0 -10,-10 10,10 135 0 0 -10,10 10,10 135 0 1 -10,10 10,10 45 0 1 -10,-10 10,10 45 0 0 -10,-10 10,10 135 0 0 -10,10 10,10 135 0 1 -10,10 10,10 45 0 1 -10,-10 10,10 45 0 0 -10,-10 10,10 135 0 0 -10,10 10,10 135 0 1 -10,10 10,10 45 0 1 -10,-10 10,10 45 0 0 -10,-10 10,10 135 0 0 -10,10 10,10 135 0 1 -10,10 10,10 45 0 1 -10,-10 10,10 45 0 0 -10,-10 10,10 135 0 0 -10,10 z m 107.07107,67.07107 c 3.23568,3.23568 9.29642,9.063 11.28519,14.17308 C 500.14076,335.82942 500,344.47715 500,350 v 20 c 0,5.52285 -0.14248,15.54929 -4.59532,18.41509 C 492.7889,390.09856 485.52285,390 480,390 c -5.52294,0 -15.54929,-0.14248 -18.41509,-4.59532 C 459.90144,382.7889 460,375.52285 460,370 v -30 a 24.142136,24.142136 112.5 0 1 7.07107,-17.07107 l 5.85786,-5.85786 a 10,10 0 0 1 14.14214,0 z m -280,160 c 3.23568,3.23568 9.29642,9.063 11.28519,14.17308 C 220.14076,495.82942 220,504.47715 220,510 v 20 c 0,5.52285 -0.14248,15.54929 -4.59532,18.41509 C 212.7889,550.09856 205.52285,550 200,550 c -5.52294,0 -15.54929,-0.14248 -18.41509,-4.59532 C 179.90144,542.7889 180,535.52285 180,530 v -30 a 24.142136,24.142136 112.5 0 1 7.07107,-17.07107 l 5.85786,-5.85786 a 10,10 180 0 1 14.14214,0 z m 280,0 c 3.23568,3.23568 9.29642,9.063 11.28519,14.17308 C 500.14076,495.82942 500,504.47715 500,510 v 20 c 0,5.52285 -0.14248,15.54929 -4.59532,18.41509 C 492.7889,550.09856 485.52285,550 480,550 c -5.52294,0 -15.54929,-0.14248 -18.41509,-4.59532 C 459.90144,542.7889 460,535.52285 460,530 v -30 a 24.142136,24.142136 112.5 0 1 7.07107,-17.07107 l 5.85786,-5.85786 a 10,10 180 0 1 14.14214,0 z"
       inkscape:path-effect="#path-effect5"
       inkscape:original-d="M 380 240 L 380 480 L 360 500 L 300 499.42578 L 280 480 L 240 460 L 240 380 L 177.17773 375 L 160 340 L 140 340 L 140 520 L 120 540 L 100 580 L 80 560 L 60 560 L 40 600 L 560 600 L 560 240 L 540 240 L 540 260 L 520 260 L 520 240 L 500 240 L 500 260 L 480 260 L 480 240 L 460 240 L 460 260 L 440 260 L 440 240 L 420 240 L 420 260 L 400 260 L 400 240 L 380 240 z M 480 310 L 492.92969 322.92969 A 24.142136 24.142136 0 0 1 500 340 L 500 380 A 10 10 0 0 1 490 390 L 470 390 A 10 10 0 0 1 460 380 L 460 330 L 480 310 z M 200 470 L 212.92969 482.92969 A 24.142136 24.142136 0 0 1 220 500 L 220 540 A 10 10 0 0 1 210 550 L 190 550 A 10 10 0 0 1 180 540 L 180 490 L 200 470 z M 480 470 L 492.92969 482.92969 A 24.142136 24.142136 0 0 1 500 500 L 500 540 A 10 10 0 0 1 490 550 L 470 550 A 10 10 0 0 1 460 540 L 460 490 L 480 470 z " />
  </g>
  <metadata
     id="metadata1">
    <rdf:RDF>
      <cc:Work
         rdf:about="">
        <dc:title>Template</dc:title>
        <dc:date>2023</dc:date>
        <dc:creator>
          <cc:Agent>
            <dc:title>Doug Palmer</dc:title>
          </cc:Agent>
        </dc:creator>
        <dc:subject>
          <rdf:Bag>
            <rdf:li>icon map symbol</rdf:li>
          </rdf:Bag>
        </dc:subject>
        <cc:license
           rdf:resource="http://creativecommons.org/licenses/by/4.0/" />
      </cc:Work>
      <cc:License
         rdf:about="http://creativecommons.org/licenses/by/4.0/">
        <cc:permits
           rdf:resource="http://creativecommons.org/ns#Reproduction" />
        <cc:permits
           rdf:resource="http://creativecommons.org/ns#Distribution" />
        <cc:requires
           rdf:resource="http://creativecommons.org/ns#Notice" />
        <cc:requires
           rdf:resource="http://creativecommons.org/ns#Attribution" />
        <cc:permits
           rdf:resource="http://creativecommons.org/ns#DerivativeWorks" />
      </cc:License>
    </rdf:RDF>
  </metadata>
</svg>
