<?xml version="1.0" encoding="UTF-8" standalone="no"?>
<!-- Created with Inkscape (http://www.inkscape.org/) -->

<svg
   width="600"
   height="750"
   viewBox="0 0 600 750"
   version="1.1"
   id="svg1"
   inkscape:version="1.3 (0e150ed, 2023-07-21)"
   sodipodi:docname="shop.svg"
   xmlns:inkscape="http://www.inkscape.org/namespaces/inkscape"
   xmlns:sodipodi="http://sodipodi.sourceforge.net/DTD/sodipodi-0.dtd"
   xmlns="http://www.w3.org/2000/svg"
   xmlns:svg="http://www.w3.org/2000/svg"
   xmlns:rdf="http://www.w3.org/1999/02/22-rdf-syntax-ns#"
   xmlns:cc="http://creativecommons.org/ns#">
  <sodipodi:namedview
     id="namedview1"
     pagecolor="#ffffff"
     bordercolor="#000000"
     borderopacity="0.25"
     inkscape:showpageshadow="2"
     inkscape:pageopacity="0.0"
     inkscape:pagecheckerboard="false"
     inkscape:deskcolor="#d1d1d1"
     inkscape:document-units="px"
     showgrid="true"
     showguides="true"
     inkscape:zoom="0.84096521"
     inkscape:cx="393.0008"
     inkscape:cy="398.94635"
     inkscape:window-width="1528"
     inkscape:window-height="996"
     inkscape:window-x="828"
     inkscape:window-y="25"
     inkscape:window-maximized="0"
     inkscape:current-layer="layer1">
    <inkscape:grid
       id="grid2"
       units="px"
       originx="0"
       originy="0"
       spacingx="4"
       spacingy="4"
       empcolor="#0099e5"
       empopacity="0.30196078"
       color="#0099e5"
       opacity="0.14901961"
       empspacing="5"
       dotted="false"
       gridanglex="30"
       gridanglez="30"
       visible="true" />
    <sodipodi:guide
       position="0,730"
       orientation="0,1"
       id="guide3"
       inkscape:locked="false"
       inkscape:label=""
       inkscape:color="rgb(0,134,229)" />
    <sodipodi:guide
       position="-40,-230"
       orientation="0,1"
       id="guide4"
       inkscape:locked="false"
       inkscape:label=""
       inkscape:color="rgb(0,134,229)" />
    <sodipodi:guide
       position="20,750"
       orientation="-1,0"
       id="guide5"
       inkscape:locked="false"
       inkscape:label=""
       inkscape:color="rgb(0,134,229)" />
    <sodipodi:guide
       position="580,750"
       orientation="-1,0"
       id="guide6"
       inkscape:locked="false"
       inkscape:label=""
       inkscape:color="rgb(0,134,229)" />
    <sodipodi:guide
       position="300,750"
       orientation="-1,0"
       id="guide7"
       inkscape:locked="false"
       inkscape:label=""
       inkscape:color="rgb(0,134,229)" />
    <sodipodi:guide
       position="300,550"
       orientation="0,1"
       id="guide8"
       inkscape:locked="false"
       inkscape:label=""
       inkscape:color="rgb(0,134,229)" />
    <sodipodi:guide
       position="0,450"
       orientation="0,1"
       id="guide9"
       inkscape:locked="false"
       inkscape:label=""
       inkscape:color="rgb(0,134,229)" />
    <sodipodi:guide
       position="0,-70"
       orientation="0,1"
       id="guide10"
       inkscape:locked="false"
       inkscape:label=""
       inkscape:color="rgb(0,134,229)" />
    <sodipodi:guide
       position="0,150"
       orientation="0,1"
       id="guide1"
       inkscape:locked="false"
       inkscape:label=""
       inkscape:color="rgb(0,134,229)" />
    <sodipodi:guide
       position="300,350"
       orientation="0,1"
       id="guide2"
       inkscape:label=""
       inkscape:locked="false"
       inkscape:color="rgb(0,134,229)" />
  </sodipodi:namedview>
  <defs
     id="defs1">
    <inkscape:path-effect
       effect="fillet_chamfer"
       id="path-effect7"
       is_visible="true"
       lpeversion="1"
       nodesatellites_param="F,0,0,1,0,10,0,1 @ F,0,0,1,0,10,0,1 @ F,0,0,1,0,10,0,1 @ F,0,0,1,0,10,0,1 @ F,0,0,1,0,10,0,1 @ F,0,0,1,0,10,0,1 @ F,0,0,1,0,10,0,1 @ F,0,0,1,0,10,0,1 @ F,0,0,1,0,10,0,1 @ F,0,0,1,0,10,0,1 @ F,0,0,1,0,10,0,1 @ F,0,0,1,0,10,0,1 @ F,0,0,1,0,10,0,1 @ F,0,0,1,0,10,0,1 @ F,0,0,1,0,10,0,1 @ F,0,0,1,0,10,0,1 @ F,0,0,1,0,10,0,1"
       radius="10"
       unit="px"
       method="auto"
       mode="F"
       chamfer_steps="1"
       flexible="false"
       use_knot_distance="true"
       apply_no_radius="true"
       apply_with_radius="true"
       only_selected="false"
       hide_knots="false" />
    <inkscape:path-effect
       effect="fillet_chamfer"
       id="path-effect6"
       is_visible="true"
       lpeversion="1"
       nodesatellites_param="F,0,0,1,0,10,0,1 @ F,0,0,1,0,10,0,1 @ F,0,0,1,0,10,0,1 @ F,0,0,1,0,10,0,1 @ F,0,0,1,0,10,0,1 @ F,0,0,1,0,10,0,1 @ F,0,0,1,0,10,0,1 @ F,0,0,1,0,10,0,1 | F,0,0,1,0,10,0,1 @ F,0,0,1,0,10,0,1 @ F,0,0,1,0,10,0,1 @ F,0,0,1,0,10,0,1 | F,0,0,1,0,10,0,1 @ F,0,0,1,0,10,0,1 @ F,0,0,1,0,10,0,1 @ F,0,0,1,0,10,0,1"
       radius="10"
       unit="px"
       method="auto"
       mode="F"
       chamfer_steps="1"
       flexible="false"
       use_knot_distance="true"
       apply_no_radius="true"
       apply_with_radius="true"
       only_selected="false"
       hide_knots="false" />
    <inkscape:path-effect
       effect="fillet_chamfer"
       id="path-effect2"
       is_visible="true"
       lpeversion="1"
       nodesatellites_param="F,0,0,1,0,20,0,1 @ F,0,0,1,0,0,0,1 @ F,0,0,1,0,20,0,1 @ F,0,0,1,0,20,0,1 @ F,0,0,1,0,20,0,1 @ F,0,0,1,0,20,0,1 @ F,0,0,1,0,20,0,1 @ F,0,0,1,0,20,0,1 @ F,0,0,1,0,20,0,1 @ F,0,0,1,0,20,0,1 @ F,0,0,1,0,20,0,1"
       radius="20"
       unit="px"
       method="auto"
       mode="F"
       chamfer_steps="1"
       flexible="false"
       use_knot_distance="true"
       apply_no_radius="true"
       apply_with_radius="true"
       only_selected="false"
       hide_knots="false" />
    <inkscape:path-effect
       effect="fillet_chamfer"
       id="path-effect3"
       is_visible="true"
       lpeversion="1"
       nodesatellites_param="F,0,0,1,0,64,0,1 @ F,0,0,1,0,64,0,1 @ F,0,0,1,0,64,0,1 @ F,0,0,1,0,64,0,1 @ F,0,0,1,0,64,0,1 @ F,0,0,1,0,64,0,1 @ F,0,0,1,0,64,0,1 @ F,0,0,1,0,64,0,1 @ F,0,0,1,0,64,0,1 @ F,0,0,1,0,64,0,1 @ F,0,0,1,0,64,0,1 @ F,0,0,1,0,64,0,1"
       radius="65"
       unit="px"
       method="auto"
       mode="F"
       chamfer_steps="1"
       flexible="false"
       use_knot_distance="true"
       apply_no_radius="true"
       apply_with_radius="true"
       only_selected="false"
       hide_knots="false" />
  </defs>
  <g
     inkscape:label="Layer 1"
     inkscape:groupmode="layer"
     id="layer1">
    <path
       id="rect2"
       style="opacity:0.99;fill:#000000;stroke:none;stroke-width:3;stroke-linecap:round;stroke-linejoin:round"
       d="M 20 279.36914 L 20 590 A 10 10 0 0 0 30 600 L 250.59375 600 A 10 10 0 0 0 260.59375 590 L 260.59375 450 A 10 10 0 0 1 270.59375 440 L 330.59375 440 A 10 10 0 0 1 340.59375 450 L 340.59375 590 A 10 10 0 0 0 350.59375 600 L 570 600 A 10 10 0 0 0 580 590 L 580 280 C 580 280 558.85616 330 540 330 C 521.14384 330 518.85616 280 500 280 C 481.14384 280 478.85616 330 460 330 C 441.14384 330 438.85616 280 420 280 C 401.14384 280 398.85616 330 380 330 C 361.14384 330 358.85616 280 340 280 C 321.14384 280 318.85616 330 300 330 C 281.14384 330 278.85616 280 260 280 C 241.14384 280 238.85616 330 220 330 C 201.14384 330 198.85616 280 180 280 C 161.14384 280 158.85616 330 140 330 C 121.14384 330 118.85616 280 100 280 C 81.143838 280 78.855154 330.24364 60 330 C 42.060336 329.7682 23.729846 288.22968 20 279.36914 z M 69.025391 380 L 229.02539 380 A 10 10 0 0 1 239.02539 390 L 239.02539 550 A 10 10 0 0 1 229.02539 560 L 69.025391 560 A 10 10 0 0 1 59.025391 550 L 59.025391 390 A 10 10 0 0 1 69.025391 380 z M 372.16406 380 L 529.65625 380 A 10 10 0 0 1 539.65625 390 L 539.65625 550 A 10 10 0 0 1 529.65625 560 L 372.16406 560 A 10 10 0 0 1 362.16406 550 L 362.16406 390 A 10 10 0 0 1 372.16406 380 z " />
    <path
       style="opacity:0.99;fill:#000000;stroke:none;stroke-width:3;stroke-linecap:round;stroke-linejoin:round"
       d="m 30,220 540,0 a 10,10 45 0 1 10,10 v 20 c 0,5.52285 -2.12267,13.94763 -5.06411,18.62082 -5.65232,8.98009 -15.34582,22.54707 -25.49411,28.45621 -4.71729,2.74677 -14.44588,2.81628 -18.49726,-0.74897 -8.65172,-7.61357 -13.23754,-25.04308 -21.88936,-32.65641 -4.05129,-3.565 -14.05926,-3.56496 -18.11064,2.9e-4 -8.65172,7.61357 -13.23754,25.04308 -21.88936,32.65641 -4.05129,3.565 -14.05926,3.56496 -18.11064,-2.9e-4 -8.65172,-7.61357 -13.23754,-25.04308 -21.88936,-32.65641 -4.05129,-3.565 -14.05926,-3.56496 -18.11064,2.9e-4 -8.65172,7.61357 -13.23754,25.04308 -21.88936,32.65641 -4.05129,3.565 -14.05926,3.56496 -18.11064,-2.9e-4 -8.65172,-7.61357 -13.23754,-25.04308 -21.88936,-32.65641 -4.05129,-3.565 -14.05926,-3.56496 -18.11064,2.9e-4 -8.65172,7.61357 -13.23754,25.04308 -21.88936,32.65641 -4.05129,3.565 -14.05926,3.56496 -18.11064,-2.9e-4 -8.65172,-7.61357 -13.23754,-25.04308 -21.88936,-32.65641 -4.05129,-3.565 -14.05926,-3.56496 -18.11064,2.9e-4 -8.65172,7.61357 -13.23754,25.04308 -21.88936,32.65641 -4.05129,3.565 -14.05926,3.56496 -18.11064,-2.9e-4 -8.65172,-7.61357 -13.23754,-25.04308 -21.88936,-32.65641 -4.05129,-3.565 -14.05926,-3.56496 -18.11064,2.9e-4 -8.65172,7.61357 -13.23754,25.04308 -21.88936,32.65641 -4.05129,3.565 -14.05926,3.56496 -18.11064,-2.9e-4 -8.65172,-7.61357 -13.23754,-25.04308 -21.88936,-32.65641 -4.05129,-3.565 -14.060064,-3.56015 -18.104822,0.0117 -8.650001,7.63863 -13.235946,25.12272 -21.878449,32.70229 -4.054811,3.55611 -13.791427,3.41905 -18.514963,0.67697 C 39.548717,290.67218 29.178211,275.29736 23.352418,265.48861 20.532826,260.74133 18.682601,252.2742 18.90785,246.75595 l 0.6843,-16.76427 A 10.416517,10.416517 136.16873 0 1 30,220 Z"
       id="path6"
       sodipodi:nodetypes="cccssssssssssssscc"
       inkscape:path-effect="#path-effect7"
       inkscape:original-d="m 20,220 h 560 v 40 c 0,0 -21.14382,40 -40,40 -18.85618,0 -21.14382,-40 -40,-40 -18.85618,0 -21.14382,40 -40,40 -18.85618,0 -21.14382,-40 -40,-40 -18.85618,0 -21.14382,40 -40,40 -18.85618,0 -21.14382,-40 -40,-40 -18.85618,0 -21.14382,40 -40,40 -18.85618,0 -21.14382,-40 -40,-40 -18.85618,0 -21.14382,40 -40,40 -18.85618,0 -21.14382,-40 -40,-40 -18.85618,0 -21.14382,40 -40,40 -18.85618,0 -21.14382,-40 -40,-40 -18.856181,0 -21.144827,40.19491 -40,40 -19.979527,-0.20653 -41.5,-43.25237 -41.5,-43.25237 z" />
  </g>
  <metadata
     id="metadata1">
    <rdf:RDF>
      <cc:Work
         rdf:about="">
        <cc:license
           rdf:resource="http://creativecommons.org/licenses/by/4.0/" />
      </cc:Work>
      <cc:License
         rdf:about="http://creativecommons.org/licenses/by/4.0/">
        <cc:permits
           rdf:resource="http://creativecommons.org/ns#Reproduction" />
        <cc:permits
           rdf:resource="http://creativecommons.org/ns#Distribution" />
        <cc:requires
           rdf:resource="http://creativecommons.org/ns#Notice" />
        <cc:requires
           rdf:resource="http://creativecommons.org/ns#Attribution" />
        <cc:permits
           rdf:resource="http://creativecommons.org/ns#DerivativeWorks" />
      </cc:License>
    </rdf:RDF>
  </metadata>
</svg>
