<?xml version="1.0" encoding="UTF-8" standalone="no"?>
<!-- Created with Inkscape (http://www.inkscape.org/) -->

<svg
   width="600"
   height="750"
   viewBox="0 0 600 750"
   version="1.1"
   id="svg1"
   inkscape:version="1.3 (0e150ed, 2023-07-21)"
   sodipodi:docname="statue.svg"
   xmlns:inkscape="http://www.inkscape.org/namespaces/inkscape"
   xmlns:sodipodi="http://sodipodi.sourceforge.net/DTD/sodipodi-0.dtd"
   xmlns="http://www.w3.org/2000/svg"
   xmlns:svg="http://www.w3.org/2000/svg"
   xmlns:rdf="http://www.w3.org/1999/02/22-rdf-syntax-ns#"
   xmlns:cc="http://creativecommons.org/ns#"
   xmlns:dc="http://purl.org/dc/elements/1.1/">
  <title
     id="title2">Template</title>
  <sodipodi:namedview
     id="namedview1"
     pagecolor="#ffffff"
     bordercolor="#000000"
     borderopacity="0.25"
     inkscape:showpageshadow="2"
     inkscape:pageopacity="0.0"
     inkscape:pagecheckerboard="false"
     inkscape:deskcolor="#d1d1d1"
     inkscape:document-units="px"
     showgrid="true"
     showguides="true"
     inkscape:zoom="1.1893044"
     inkscape:cx="300.17546"
     inkscape:cy="398.97271"
     inkscape:window-width="1528"
     inkscape:window-height="996"
     inkscape:window-x="828"
     inkscape:window-y="25"
     inkscape:window-maximized="0"
     inkscape:current-layer="layer1"
     inkscape:lockguides="true">
    <inkscape:grid
       id="grid2"
       units="px"
       originx="0"
       originy="0"
       spacingx="4"
       spacingy="4"
       empcolor="#0099e5"
       empopacity="0.30196078"
       color="#0099e5"
       opacity="0.14901961"
       empspacing="5"
       dotted="false"
       gridanglex="30"
       gridanglez="30"
       visible="true" />
    <sodipodi:guide
       position="0,730"
       orientation="0,1"
       id="guide3"
       inkscape:locked="true"
       inkscape:label=""
       inkscape:color="rgb(0,134,229)" />
    <sodipodi:guide
       position="-40,-230"
       orientation="0,1"
       id="guide4"
       inkscape:locked="true"
       inkscape:label=""
       inkscape:color="rgb(0,134,229)" />
    <sodipodi:guide
       position="20,750"
       orientation="-1,0"
       id="guide5"
       inkscape:locked="true"
       inkscape:label=""
       inkscape:color="rgb(0,134,229)" />
    <sodipodi:guide
       position="580,750"
       orientation="-1,0"
       id="guide6"
       inkscape:locked="true"
       inkscape:label=""
       inkscape:color="rgb(0,134,229)" />
    <sodipodi:guide
       position="300,750"
       orientation="-1,0"
       id="guide7"
       inkscape:locked="true"
       inkscape:label=""
       inkscape:color="rgb(0,134,229)" />
    <sodipodi:guide
       position="300,550"
       orientation="0,1"
       id="guide8"
       inkscape:locked="true"
       inkscape:label=""
       inkscape:color="rgb(0,134,229)" />
    <sodipodi:guide
       position="0,450"
       orientation="0,1"
       id="guide9"
       inkscape:locked="true"
       inkscape:label=""
       inkscape:color="rgb(0,134,229)" />
    <sodipodi:guide
       position="0,-70"
       orientation="0,1"
       id="guide10"
       inkscape:locked="true"
       inkscape:label=""
       inkscape:color="rgb(0,134,229)" />
    <sodipodi:guide
       position="0,150"
       orientation="0,1"
       id="guide1"
       inkscape:locked="true"
       inkscape:label=""
       inkscape:color="rgb(0,134,229)" />
    <sodipodi:guide
       position="300,350"
       orientation="0,1"
       id="guide2"
       inkscape:label=""
       inkscape:locked="true"
       inkscape:color="rgb(0,134,229)" />
  </sodipodi:namedview>
  <defs
     id="defs1">
    <inkscape:path-effect
       effect="fillet_chamfer"
       id="path-effect7"
       is_visible="true"
       lpeversion="1"
       nodesatellites_param="F,0,0,1,0,10,0,1 @ F,0,0,1,0,10,0,1 @ F,0,0,1,0,10,0,1 @ F,0,0,1,0,10,0,1 @ F,0,0,1,0,10,0,1 @ F,0,0,1,0,10,0,1"
       radius="10"
       unit="px"
       method="auto"
       mode="F"
       chamfer_steps="1"
       flexible="false"
       use_knot_distance="true"
       apply_no_radius="true"
       apply_with_radius="true"
       only_selected="false"
       hide_knots="false" />
    <inkscape:path-effect
       effect="fillet_chamfer"
       id="path-effect6"
       is_visible="true"
       lpeversion="1"
       nodesatellites_param="F,0,0,1,0,10,0,1 @ F,0,0,1,0,10,0,1 @ F,0,0,1,0,10,0,1 @ F,0,0,1,0,10,0,1 @ F,0,0,1,0,10,0,1 @ F,0,0,1,0,10,0,1 @ F,0,0,1,0,10,0,1 @ F,0,0,1,0,10,0,1 @ F,0,0,1,0,10,0,1 @ F,0,0,1,0,10,0,1 @ F,0,0,1,0,10,0,1 @ F,0,0,1,0,10,0,1 @ F,0,0,1,0,10,0,1 @ F,0,0,1,0,10,0,1 @ F,0,0,1,0,10,0,1 @ F,0,0,1,0,10,0,1 @ F,0,0,1,0,10,0,1 @ F,0,0,1,0,10,0,1 @ F,0,0,1,0,10,0,1 @ F,0,0,1,0,10,0,1 @ F,0,0,1,0,10,0,1 @ F,0,0,1,0,10,0,1 @ F,0,0,1,0,10,0,1 @ F,0,0,1,0,10,0,1 @ F,0,0,1,0,10,0,1 @ F,0,0,1,0,10,0,1"
       radius="10"
       unit="px"
       method="auto"
       mode="F"
       chamfer_steps="1"
       flexible="false"
       use_knot_distance="true"
       apply_no_radius="true"
       apply_with_radius="true"
       only_selected="false"
       hide_knots="false" />
    <inkscape:path-effect
       effect="fillet_chamfer"
       id="path-effect2"
       is_visible="true"
       lpeversion="1"
       nodesatellites_param="F,0,0,1,0,20,0,1 @ F,0,0,1,0,20,0,1 @ F,0,0,1,0,20,0,1 @ F,0,0,1,0,20,0,1 @ F,0,0,1,0,20,0,1 @ F,0,0,1,0,20,0,1 @ F,0,0,1,0,20,0,1 @ F,0,0,1,0,20,0,1 @ F,0,0,1,0,20,0,1 @ F,0,0,1,0,20,0,1 @ F,0,0,1,0,20,0,1"
       radius="20"
       unit="px"
       method="auto"
       mode="F"
       chamfer_steps="1"
       flexible="false"
       use_knot_distance="true"
       apply_no_radius="true"
       apply_with_radius="true"
       only_selected="false"
       hide_knots="false" />
    <inkscape:path-effect
       effect="fillet_chamfer"
       id="path-effect3"
       is_visible="true"
       lpeversion="1"
       nodesatellites_param="F,0,0,1,0,64,0,1 @ F,0,0,1,0,64,0,1 @ F,0,0,1,0,64,0,1 @ F,0,0,1,0,64,0,1 @ F,0,0,1,0,64,0,1 @ F,0,0,1,0,64,0,1 @ F,0,0,1,0,64,0,1 @ F,0,0,1,0,64,0,1 @ F,0,0,1,0,64,0,1 @ F,0,0,1,0,64,0,1 @ F,0,0,1,0,64,0,1 @ F,0,0,1,0,64,0,1"
       radius="65"
       unit="px"
       method="auto"
       mode="F"
       chamfer_steps="1"
       flexible="false"
       use_knot_distance="true"
       apply_no_radius="true"
       apply_with_radius="true"
       only_selected="false"
       hide_knots="false" />
  </defs>
  <g
     inkscape:label="Layer 1"
     inkscape:groupmode="layer"
     id="layer1">
    <ellipse
       style="opacity:0.99;fill:#000000;stroke-width:30;stroke-linecap:round;stroke-linejoin:round"
       id="path1"
       cx="170"
       cy="151.02428"
       rx="40"
       ry="42.600426" />
    <path
       id="rect1"
       style="opacity:0.99;stroke-width:30.7801;stroke-linecap:round;stroke-linejoin:round"
       d="m 283.5096,215.31495 c -11.22649,0.8409 -22.1964,2.8347 -32.16254,6.23207 -5.22486,1.78111 -14.22296,2.87738 -18.91,5.60047 -0.54013,0.3138 -1.06033,0.66097 -1.55738,1.03935 -4.31311,3.28337 -6.51828,12.51797 -7.85777,17.87591 l -8.7235,34.89403 a 5.6619056,5.6619056 164.51812 0 1 -9.49643,2.63035 l -7.12349,-7.12348 c -3.90524,-3.90525 -10.51631,-10.72053 -15.89886,-11.35998 -1.18192,-0.14041 -2.37735,-0.14041 -3.55927,0 -5.38255,0.63945 -12.47724,7.73415 -13.11669,13.1167 -0.14041,1.18192 -0.14041,2.37735 0,3.55927 0.63945,5.38255 7.45473,11.9936 11.35998,15.89885 l 25.85786,25.85786 c 3.90525,3.90525 10.54364,10.70576 15.93168,11.28722 3.03166,0.32717 6.11573,-0.2759 8.80084,-1.72094 4.77214,-2.56822 7.05203,-2.78674 7.67199,2.70115 1.28443,11.36983 2.6646,21.17298 3.69077,27.94814 0.827,5.46014 -0.27628,13.94653 -2.4435,19.02623 -9.46676,22.18894 -32.57139,80.48871 -35.63565,127.58165 -0.35851,5.50979 0.79607,15.79258 5.71081,16.74151 10.57568,2.04194 32.47969,-6.60107 44.87914,-12.07407 5.05189,-2.22986 9.07241,0.27413 9.07241,5.79698 v 13.03125 a 9.9644185,9.9644185 44.897885 0 0 9.99994,9.96436 l 60.00012,-0.21388 A 10.035709,10.035709 134.89789 0 0 340,533.57031 V 521.5918 c 0,-5.52285 4.05168,-8.0908 9.14027,-5.9451 12.42902,5.24093 34.31704,13.4432 44.85627,11.18533 4.91155,-1.05222 5.98879,-11.32156 5.37039,-16.80683 -4.10932,-36.45023 -27.10727,-102.59005 -35.92514,-127.01166 -1.87552,-5.19436 -2.68789,-13.80215 -1.86204,-19.26282 0.63289,-4.18478 1.40086,-9.5226 2.19819,-15.66506 0.7107,-5.47503 1.22206,-5.44445 1.22206,0.0784 v 1.71094 c 0,5.52285 -0.14402,15.01672 3.21019,19.27466 0.73605,0.93437 1.58079,1.77911 2.51516,2.51515 4.25794,3.35421 14.29137,3.35421 18.54931,0 0.93437,-0.73605 1.77911,-1.58079 2.51515,-2.51516 C 395.14402,364.89171 395,355.39785 395,349.875 v -52.49023 c 0,-5.52285 0.0977,-12.80425 -1.17969,-15.83204 l -16.11142,-38.17178 c -2.1476,-5.08819 -5.70909,-13.88769 -10.45366,-16.51018 -2.74368,-1.51651 -7.41486,-2.04035 -9.81382,-1.59147 -22.49558,-7.07629 -38.01801,-9.69009 -53.94524,-10.3004 -5.51812,-0.21145 -14.47994,-0.0764 -19.98657,0.33605 z"
       inkscape:path-effect="#path-effect6"
       inkscape:original-d="m 293.49805,214.86523 c -18.28919,0.29452 -36.48413,3.40889 -51.42774,10.40235 a 15,15 0 0 0 -16.62304,11.09375 l -13.57422,54.29687 -21.26563,-21.26562 a 15,15 0 0 0 -21.21484,0 15,15 0 0 0 0,21.21484 l 40,40 a 15.0015,15.0015 0 0 0 24.28125,-4.74804 C 236.29989,352.53212 240,373.625 240,373.625 c 0,0 -40,86.37528 -40,146.72656 0,20.25051 60,-9.52734 60,-9.52734 v 33.03125 l 80,-0.28516 V 511.5918 c 0,0 60,28.60361 60,8.4082 0,-39.99996 -40,-146.375 -40,-146.375 0,0 2.60838,-14.9239 5,-35.46094 V 359.875 a 15,15 0 0 0 15,15 15,15 0 0 0 15,-15 v -72.49023 a 15.0015,15.0015 0 0 0 -1.17969,-5.83204 l -20,-47.38476 a 15,15 0 0 0 -11.96289,-9.05274 15,15 0 0 0 -4.41601,0.16407 c -17.00316,-6.53947 -40.50695,-10.79147 -63.94336,-10.41407 z"
       transform="translate(-130,-20)" />
    <path
       style="opacity:0.99;fill:#000000;stroke-width:30;stroke-linecap:round;stroke-linejoin:round"
       d="m 200,610 v -23.42599 a 21.274478,21.274478 115.17572 0 1 7.69973,-16.38077 l 4.60054,-3.81247 A 27.739181,27.739181 160.17572 0 1 230,560 h 140 a 24.142136,24.142136 22.5 0 1 17.07107,7.07107 l 5.85786,5.85786 A 24.142136,24.142136 67.5 0 1 400,590 v 20 a 10,10 135 0 1 -10,10 H 210 a 10,10 45 0 1 -10,-10 z"
       id="path3"
       sodipodi:nodetypes="ccccccc"
       inkscape:path-effect="#path-effect7"
       inkscape:original-d="M 200,620 V 576.57401 L 220,560 h 160 l 20,20 v 40 z"
       transform="translate(-130,-20)" />
  </g>
  <metadata
     id="metadata1">
    <rdf:RDF>
      <cc:Work
         rdf:about="">
        <dc:title>Template</dc:title>
        <dc:date>2023</dc:date>
        <dc:creator>
          <cc:Agent>
            <dc:title>Doug Palmer</dc:title>
          </cc:Agent>
        </dc:creator>
        <dc:subject>
          <rdf:Bag>
            <rdf:li>icon map symbol</rdf:li>
          </rdf:Bag>
        </dc:subject>
        <cc:license
           rdf:resource="http://creativecommons.org/licenses/by/4.0/" />
      </cc:Work>
      <cc:License
         rdf:about="http://creativecommons.org/licenses/by/4.0/">
        <cc:permits
           rdf:resource="http://creativecommons.org/ns#Reproduction" />
        <cc:permits
           rdf:resource="http://creativecommons.org/ns#Distribution" />
        <cc:requires
           rdf:resource="http://creativecommons.org/ns#Notice" />
        <cc:requires
           rdf:resource="http://creativecommons.org/ns#Attribution" />
        <cc:permits
           rdf:resource="http://creativecommons.org/ns#DerivativeWorks" />
      </cc:License>
    </rdf:RDF>
  </metadata>
</svg>
