<?xml version="1.0" encoding="UTF-8" standalone="no"?>
<!-- Created with Inkscape (http://www.inkscape.org/) -->

<svg
   width="600"
   height="750"
   viewBox="0 0 600 750"
   version="1.1"
   id="svg1"
   inkscape:version="1.3 (0e150ed, 2023-07-21)"
   sodipodi:docname="station.svg"
   xmlns:inkscape="http://www.inkscape.org/namespaces/inkscape"
   xmlns:sodipodi="http://sodipodi.sourceforge.net/DTD/sodipodi-0.dtd"
   xmlns="http://www.w3.org/2000/svg"
   xmlns:svg="http://www.w3.org/2000/svg"
   xmlns:rdf="http://www.w3.org/1999/02/22-rdf-syntax-ns#"
   xmlns:cc="http://creativecommons.org/ns#"
   xmlns:dc="http://purl.org/dc/elements/1.1/">
  <title
     id="title2">Template</title>
  <sodipodi:namedview
     id="namedview1"
     pagecolor="#ffffff"
     bordercolor="#000000"
     borderopacity="0.25"
     inkscape:showpageshadow="2"
     inkscape:pageopacity="0.0"
     inkscape:pagecheckerboard="false"
     inkscape:deskcolor="#d1d1d1"
     inkscape:document-units="px"
     showgrid="true"
     showguides="true"
     inkscape:zoom="1.1893044"
     inkscape:cx="265.28112"
     inkscape:cy="466.23892"
     inkscape:window-width="1528"
     inkscape:window-height="996"
     inkscape:window-x="828"
     inkscape:window-y="25"
     inkscape:window-maximized="0"
     inkscape:current-layer="layer1"
     inkscape:lockguides="true">
    <inkscape:grid
       id="grid2"
       units="px"
       originx="0"
       originy="0"
       spacingx="4"
       spacingy="4"
       empcolor="#0099e5"
       empopacity="0.30196078"
       color="#0099e5"
       opacity="0.14901961"
       empspacing="5"
       dotted="false"
       gridanglex="30"
       gridanglez="30"
       visible="true" />
    <sodipodi:guide
       position="0,730"
       orientation="0,1"
       id="guide3"
       inkscape:locked="true"
       inkscape:label=""
       inkscape:color="rgb(0,134,229)" />
    <sodipodi:guide
       position="-40,-230"
       orientation="0,1"
       id="guide4"
       inkscape:locked="true"
       inkscape:label=""
       inkscape:color="rgb(0,134,229)" />
    <sodipodi:guide
       position="20,750"
       orientation="-1,0"
       id="guide5"
       inkscape:locked="true"
       inkscape:label=""
       inkscape:color="rgb(0,134,229)" />
    <sodipodi:guide
       position="580,750"
       orientation="-1,0"
       id="guide6"
       inkscape:locked="true"
       inkscape:label=""
       inkscape:color="rgb(0,134,229)" />
    <sodipodi:guide
       position="300,750"
       orientation="-1,0"
       id="guide7"
       inkscape:locked="true"
       inkscape:label=""
       inkscape:color="rgb(0,134,229)" />
    <sodipodi:guide
       position="300,550"
       orientation="0,1"
       id="guide8"
       inkscape:locked="true"
       inkscape:label=""
       inkscape:color="rgb(0,134,229)" />
    <sodipodi:guide
       position="0,450"
       orientation="0,1"
       id="guide9"
       inkscape:locked="true"
       inkscape:label=""
       inkscape:color="rgb(0,134,229)" />
    <sodipodi:guide
       position="0,-70"
       orientation="0,1"
       id="guide10"
       inkscape:locked="true"
       inkscape:label=""
       inkscape:color="rgb(0,134,229)" />
    <sodipodi:guide
       position="0,150"
       orientation="0,1"
       id="guide1"
       inkscape:locked="true"
       inkscape:label=""
       inkscape:color="rgb(0,134,229)" />
    <sodipodi:guide
       position="300,350"
       orientation="0,1"
       id="guide2"
       inkscape:label=""
       inkscape:locked="true"
       inkscape:color="rgb(0,134,229)" />
  </sodipodi:namedview>
  <defs
     id="defs1">
    <inkscape:path-effect
       effect="fillet_chamfer"
       id="path-effect22"
       is_visible="true"
       lpeversion="1"
       nodesatellites_param="F,0,0,1,0,10,0,1 @ F,0,0,1,0,10,0,1 @ F,0,0,1,0,10,0,1 @ F,0,0,1,0,10,0,1"
       radius="10"
       unit="px"
       method="auto"
       mode="F"
       chamfer_steps="1"
       flexible="false"
       use_knot_distance="true"
       apply_no_radius="true"
       apply_with_radius="true"
       only_selected="false"
       hide_knots="false" />
    <inkscape:path-effect
       effect="fillet_chamfer"
       id="path-effect21"
       is_visible="true"
       lpeversion="1"
       nodesatellites_param="F,0,0,1,0,0,0,1 @ F,0,0,1,0,10,0,1 @ F,0,0,1,0,10,0,1 @ F,0,0,1,0,10,0,1"
       radius="10"
       unit="px"
       method="auto"
       mode="F"
       chamfer_steps="1"
       flexible="false"
       use_knot_distance="true"
       apply_no_radius="true"
       apply_with_radius="true"
       only_selected="false"
       hide_knots="false" />
    <inkscape:path-effect
       effect="fillet_chamfer"
       id="path-effect20"
       is_visible="true"
       lpeversion="1"
       nodesatellites_param="F,0,0,1,0,5,0,1 @ F,0,0,1,0,5,0,1 @ F,0,0,1,0,5,0,1 @ F,0,0,1,0,5,0,1 @ F,0,0,1,0,5,0,1 @ F,0,0,1,0,5,0,1 @ F,0,0,1,0,5,0,1 @ F,0,0,1,0,5,0,1 @ F,0,0,1,0,5,0,1 @ F,0,0,1,0,5,0,1 @ F,0,0,1,0,5,0,1 @ F,0,0,1,0,5,0,1 | F,0,0,1,0,5,0,1 @ F,0,0,1,0,5,0,1 @ F,0,0,1,0,5,0,1 @ F,0,0,1,0,5,0,1 | F,0,0,1,0,5,0,1 @ F,0,0,1,0,5,0,1 @ F,0,0,1,0,5,0,1 @ F,0,0,1,0,5,0,1"
       radius="5"
       unit="px"
       method="auto"
       mode="F"
       chamfer_steps="1"
       flexible="false"
       use_knot_distance="true"
       apply_no_radius="true"
       apply_with_radius="true"
       only_selected="false"
       hide_knots="false" />
    <inkscape:path-effect
       effect="fillet_chamfer"
       id="path-effect2"
       is_visible="true"
       lpeversion="1"
       nodesatellites_param="F,0,0,1,0,20,0,1 @ F,0,0,1,0,20,0,1 @ F,0,0,1,0,20,0,1 @ F,0,0,1,0,20,0,1 @ F,0,0,1,0,20,0,1 @ F,0,0,1,0,20,0,1 @ F,0,0,1,0,20,0,1 @ F,0,0,1,0,20,0,1 @ F,0,0,1,0,20,0,1 @ F,0,0,1,0,20,0,1 @ F,0,0,1,0,20,0,1"
       radius="20"
       unit="px"
       method="auto"
       mode="F"
       chamfer_steps="1"
       flexible="false"
       use_knot_distance="true"
       apply_no_radius="true"
       apply_with_radius="true"
       only_selected="false"
       hide_knots="false" />
    <inkscape:path-effect
       effect="fillet_chamfer"
       id="path-effect3"
       is_visible="true"
       lpeversion="1"
       nodesatellites_param="F,0,0,1,0,64,0,1 @ F,0,0,1,0,64,0,1 @ F,0,0,1,0,64,0,1 @ F,0,0,1,0,64,0,1 @ F,0,0,1,0,64,0,1 @ F,0,0,1,0,64,0,1 @ F,0,0,1,0,64,0,1 @ F,0,0,1,0,64,0,1 @ F,0,0,1,0,64,0,1 @ F,0,0,1,0,64,0,1 @ F,0,0,1,0,64,0,1 @ F,0,0,1,0,64,0,1"
       radius="65"
       unit="px"
       method="auto"
       mode="F"
       chamfer_steps="1"
       flexible="false"
       use_knot_distance="true"
       apply_no_radius="true"
       apply_with_radius="true"
       only_selected="false"
       hide_knots="false" />
  </defs>
  <g
     inkscape:label="Layer 1"
     inkscape:groupmode="layer"
     id="layer1">
    <g
       id="g22">
      <g
         id="path1"
         style="opacity:0.99;fill:#1c9cf1"
         inkscape:export-filename="../../static/icons/poi-station.png"
         inkscape:export-xdpi="11.592453"
         inkscape:export-ydpi="11.592453">
        <path
           style="color:#000000;fill:#1c9cf1;stroke-linecap:round;stroke-linejoin:round;-inkscape-stroke:none"
           d="M 40,580 H 560"
           id="path19" />
        <path
           style="color:#000000;fill:#1c9cf1;stroke-linecap:round;stroke-linejoin:round;-inkscape-stroke:none"
           d="m 40,575 a 5,5 0 0 0 -5,5 5,5 0 0 0 5,5 h 520 a 5,5 0 0 0 5,-5 5,5 0 0 0 -5,-5 z"
           id="path20" />
      </g>
      <path
         id="path3"
         style="opacity:0.99;fill:#1c9cf1;stroke:none;stroke-width:10;stroke-linecap:round;stroke-linejoin:round;stroke-dasharray:none"
         d="m 196,363 -72,54 a 1.6666667,1.6666667 71.565051 0 0 1,3 h 30 a 5,5 45 0 1 5,5 v 90 a 5,5 45 0 0 5,5 h 110 a 5,5 135 0 0 5,-5 l 0,-50 a 5,5 135 0 1 5,-5 h 30 a 5,5 45 0 1 5,5 v 50 a 5,5 45 0 0 5,5 h 110 a 5,5 135 0 0 5,-5 v -90 a 5,5 135 0 1 5,-5 h 30 a 1.6666667,1.6666667 108.43495 0 0 1,-3 l -72,-54 a 15,15 18.434949 0 0 -9,-3 H 205 a 15,15 161.56505 0 0 -9,3 z m 9,97 h 30 a 5,5 45 0 1 5,5 v 30 a 5,5 135 0 1 -5,5 h -30 a 5,5 45 0 1 -5,-5 v -30 a 5,5 135 0 1 5,-5 z m 161.01758,0 h 30 a 5,5 45 0 1 5,5 v 30 a 5,5 135 0 1 -5,5 h -30 a 5,5 45 0 1 -5,-5 v -30 a 5,5 135 0 1 5,-5 z"
         inkscape:path-effect="#path-effect20"
         inkscape:original-d="M 200 360 L 120 420 L 160 420 L 160 520 L 280 520 L 280 460 L 320 460 L 320 520 L 440 520 L 440 420 L 480 420 L 400 360 L 200 360 z M 200 460 L 240 460 L 240 500 L 200 500 L 200 460 z M 361.01758 460 L 401.01758 460 L 401.01758 500 L 361.01758 500 L 361.01758 460 z " />
      <g
         id="path4"
         style="opacity:0.99;fill:#1c9cf1">
        <path
           style="color:#000000;fill:#1c9cf1;stroke-linecap:round;stroke-linejoin:round;-inkscape-stroke:none"
           d="M 80,532 V 332"
           id="path18" />
        <path
           id="path17"
           style="color:#000000;fill:#1c9cf1;stroke-linecap:round;stroke-linejoin:round;-inkscape-stroke:none"
           d="M 80 324.5 A 7.5 7.5 0 0 0 72.5 332 L 72.5 355 L 40 355 A 5 5 0 0 0 35 360 A 5 5 0 0 0 40 365 L 72.5 365 L 72.5 377.47266 L 46.244141 387.31836 A 5 5 0 0 0 43.318359 393.75586 A 5 5 0 0 0 49.755859 396.68164 L 72.5 388.15234 L 72.5 532 A 7.5 7.5 0 0 0 80 539.5 A 7.5 7.5 0 0 0 87.5 532 L 87.5 365 L 88 365 A 5 5 0 0 0 93 360 A 5 5 0 0 0 88 355 L 87.5 355 L 87.5 332 A 7.5 7.5 0 0 0 80 324.5 z " />
      </g>
      <g
         id="path5"
         style="opacity:0.99;fill:#1c9cf1">
        <path
           style="color:#000000;fill:#1c9cf1;stroke-linecap:round;stroke-linejoin:round;-inkscape-stroke:none"
           d="M 88,360 H 40"
           id="path16" />
      </g>
      <g
         id="path6"
         style="opacity:0.99;fill:#1c9cf1">
        <path
           style="color:#000000;fill:#1c9cf1;stroke-linecap:round;stroke-linejoin:round;-inkscape-stroke:none"
           d="M 80,380 48,392"
           id="path14" />
      </g>
      <path
         style="opacity:0.99;fill:#1c9cf1;stroke:none;stroke-width:15;stroke-linecap:round;stroke-linejoin:round;stroke-dasharray:none"
         d="m 530.88078,563.89635 -61.76156,-27.7927 A 46.590791,46.590791 12.113873 0 0 450,532 H 150.49821 a 46.855451,46.855451 167.95255 0 0 -19.1287,4.08249 L 69.128705,563.91751 A 2.1342234,2.1342234 77.952547 0 0 70,568 h 460 a 2.1463469,2.1463469 102.11387 0 0 0.88078,-4.10365 z"
         id="path21"
         sodipodi:nodetypes="ccccc"
         inkscape:path-effect="#path-effect22"
         inkscape:original-d="M 540,568 460,532 H 140.49821 L 60,568 Z" />
    </g>
  </g>
  <metadata
     id="metadata1">
    <rdf:RDF>
      <cc:Work
         rdf:about="">
        <dc:title>Template</dc:title>
        <dc:date>2023</dc:date>
        <dc:creator>
          <cc:Agent>
            <dc:title>Doug Palmer</dc:title>
          </cc:Agent>
        </dc:creator>
        <dc:subject>
          <rdf:Bag>
            <rdf:li>icon map symbol</rdf:li>
          </rdf:Bag>
        </dc:subject>
        <cc:license
           rdf:resource="http://creativecommons.org/licenses/by/4.0/" />
      </cc:Work>
      <cc:License
         rdf:about="http://creativecommons.org/licenses/by/4.0/">
        <cc:permits
           rdf:resource="http://creativecommons.org/ns#Reproduction" />
        <cc:permits
           rdf:resource="http://creativecommons.org/ns#Distribution" />
        <cc:requires
           rdf:resource="http://creativecommons.org/ns#Notice" />
        <cc:requires
           rdf:resource="http://creativecommons.org/ns#Attribution" />
        <cc:permits
           rdf:resource="http://creativecommons.org/ns#DerivativeWorks" />
      </cc:License>
    </rdf:RDF>
  </metadata>
</svg>
