<?xml version="1.0" encoding="UTF-8" standalone="no"?>
<!-- Created with Inkscape (http://www.inkscape.org/) -->

<svg
   width="600"
   height="750"
   viewBox="0 0 600 750"
   version="1.1"
   id="svg1"
   inkscape:version="1.3 (0e150ed, 2023-07-21)"
   sodipodi:docname="theatre.svg"
   xmlns:inkscape="http://www.inkscape.org/namespaces/inkscape"
   xmlns:sodipodi="http://sodipodi.sourceforge.net/DTD/sodipodi-0.dtd"
   xmlns="http://www.w3.org/2000/svg"
   xmlns:svg="http://www.w3.org/2000/svg"
   xmlns:rdf="http://www.w3.org/1999/02/22-rdf-syntax-ns#"
   xmlns:cc="http://creativecommons.org/ns#"
   xmlns:dc="http://purl.org/dc/elements/1.1/">
  <title
     id="title2">Template</title>
  <sodipodi:namedview
     id="namedview1"
     pagecolor="#ffffff"
     bordercolor="#000000"
     borderopacity="0.25"
     inkscape:showpageshadow="2"
     inkscape:pageopacity="0.0"
     inkscape:pagecheckerboard="false"
     inkscape:deskcolor="#d1d1d1"
     inkscape:document-units="px"
     showgrid="true"
     showguides="true"
     inkscape:zoom="0.84096521"
     inkscape:cx="218.20165"
     inkscape:cy="271.7116"
     inkscape:window-width="1528"
     inkscape:window-height="996"
     inkscape:window-x="828"
     inkscape:window-y="25"
     inkscape:window-maximized="0"
     inkscape:current-layer="layer1"
     inkscape:lockguides="true">
    <inkscape:grid
       id="grid2"
       units="px"
       originx="0"
       originy="0"
       spacingx="4"
       spacingy="4"
       empcolor="#0099e5"
       empopacity="0.30196078"
       color="#0099e5"
       opacity="0.14901961"
       empspacing="5"
       dotted="false"
       gridanglex="30"
       gridanglez="30"
       visible="true" />
    <sodipodi:guide
       position="0,730"
       orientation="0,1"
       id="guide3"
       inkscape:locked="true"
       inkscape:label=""
       inkscape:color="rgb(0,134,229)" />
    <sodipodi:guide
       position="-40,-230"
       orientation="0,1"
       id="guide4"
       inkscape:locked="true"
       inkscape:label=""
       inkscape:color="rgb(0,134,229)" />
    <sodipodi:guide
       position="20,750"
       orientation="-1,0"
       id="guide5"
       inkscape:locked="true"
       inkscape:label=""
       inkscape:color="rgb(0,134,229)" />
    <sodipodi:guide
       position="580,750"
       orientation="-1,0"
       id="guide6"
       inkscape:locked="true"
       inkscape:label=""
       inkscape:color="rgb(0,134,229)" />
    <sodipodi:guide
       position="300,750"
       orientation="-1,0"
       id="guide7"
       inkscape:locked="true"
       inkscape:label=""
       inkscape:color="rgb(0,134,229)" />
    <sodipodi:guide
       position="300,550"
       orientation="0,1"
       id="guide8"
       inkscape:locked="true"
       inkscape:label=""
       inkscape:color="rgb(0,134,229)" />
    <sodipodi:guide
       position="0,450"
       orientation="0,1"
       id="guide9"
       inkscape:locked="true"
       inkscape:label=""
       inkscape:color="rgb(0,134,229)" />
    <sodipodi:guide
       position="0,-70"
       orientation="0,1"
       id="guide10"
       inkscape:locked="true"
       inkscape:label=""
       inkscape:color="rgb(0,134,229)" />
    <sodipodi:guide
       position="0,150"
       orientation="0,1"
       id="guide1"
       inkscape:locked="true"
       inkscape:label=""
       inkscape:color="rgb(0,134,229)" />
    <sodipodi:guide
       position="300,350"
       orientation="0,1"
       id="guide2"
       inkscape:label=""
       inkscape:locked="true"
       inkscape:color="rgb(0,134,229)" />
  </sodipodi:namedview>
  <defs
     id="defs1">
    <inkscape:path-effect
       effect="fillet_chamfer"
       id="path-effect2"
       is_visible="true"
       lpeversion="1"
       nodesatellites_param="F,0,0,1,0,20,0,1 @ F,0,0,1,0,20,0,1 @ F,0,0,1,0,20,0,1 @ F,0,0,1,0,20,0,1 @ F,0,0,1,0,20,0,1 @ F,0,0,1,0,20,0,1 @ F,0,0,1,0,20,0,1 @ F,0,0,1,0,20,0,1 @ F,0,0,1,0,20,0,1 @ F,0,0,1,0,20,0,1 @ F,0,0,1,0,20,0,1"
       radius="20"
       unit="px"
       method="auto"
       mode="F"
       chamfer_steps="1"
       flexible="false"
       use_knot_distance="true"
       apply_no_radius="true"
       apply_with_radius="true"
       only_selected="false"
       hide_knots="false" />
    <inkscape:path-effect
       effect="fillet_chamfer"
       id="path-effect3"
       is_visible="true"
       lpeversion="1"
       nodesatellites_param="F,0,0,1,0,64,0,1 @ F,0,0,1,0,64,0,1 @ F,0,0,1,0,64,0,1 @ F,0,0,1,0,64,0,1 @ F,0,0,1,0,64,0,1 @ F,0,0,1,0,64,0,1 @ F,0,0,1,0,64,0,1 @ F,0,0,1,0,64,0,1 @ F,0,0,1,0,64,0,1 @ F,0,0,1,0,64,0,1 @ F,0,0,1,0,64,0,1 @ F,0,0,1,0,64,0,1"
       radius="65"
       unit="px"
       method="auto"
       mode="F"
       chamfer_steps="1"
       flexible="false"
       use_knot_distance="true"
       apply_no_radius="true"
       apply_with_radius="true"
       only_selected="false"
       hide_knots="false" />
  </defs>
  <g
     inkscape:label="Layer 1"
     inkscape:groupmode="layer"
     id="layer1">
    <path
       id="path1-6"
       style="opacity:0.99;fill:#000000;stroke-width:10;stroke-linecap:round;stroke-linejoin:round"
       d="m 219.13477,206.14453 c -5.95856,-0.13192 -11.91039,0.70722 -17.23047,2.42383 -28.37366,9.15526 -40.39001,38.251 -68.76367,47.40625 -28.37366,9.15526 -55.1322,-7.42869 -83.50586,1.72656 -14.18683,4.57764 -28.36128,16.84175 -31.92578,31.31641 -9.56454,38.83953 18.62745,78.59299 36.84961,114.20117 19.20784,37.53432 42.80847,74.59325 74.91797,101.91992 28.71961,24.44173 61.40539,60.04479 99.47265,47.76172 35.89018,-11.58059 43.77935,-60.27627 52.79688,-96.89453 10.08192,-40.94048 7.56955,-84.80215 1.2168,-126.48437 -6.02678,-39.54325 -6.38787,-88.27877 -36.84961,-114.20313 -7.09528,-6.0384 -17.04757,-8.95396 -26.97852,-9.17383 z m 6.36328,106.09766 c 8.12918,0.0945 16.47003,2.71693 22.22071,7.81055 3.29394,2.9176 5.01467,4.45633 2.63281,8.15625 -5.40359,8.3938 -18.82968,4.7685 -28.33008,7.83398 -9.50041,3.06548 -18.65674,12.67007 -27.94727,9.01758 -4.55504,-1.79079 -3.87539,-3.63036 -2.70507,-8.38281 2.61693,-10.62681 12.95755,-19.83813 23.4375,-22.99219 3.34372,-1.00633 6.99632,-1.4863 10.6914,-1.44336 z M 111.29493,349.0918 c 8.12917,0.0945 16.472,2.71499 22.22265,7.80859 3.29396,2.91761 5.01272,4.45829 2.63086,8.15821 -5.40356,8.3938 -18.82773,4.76851 -28.32812,7.83398 -9.5004,3.06548 -18.6587,12.67005 -27.94922,9.01758 -4.55505,-1.79078 -3.87539,-3.6323 -2.70508,-8.38477 2.61695,-10.62679 12.95951,-19.83619 23.43945,-22.99023 3.34373,-1.00633 6.99437,-1.4863 10.68946,-1.44336 z m 128.45312,63.72461 c 8.63916,22.43052 -0.39932,46.92963 -7.00195,65.13867 -4.19872,11.57941 -10.6702,22.38785 -19.80274,25.46875 -9.07179,3.06036 -20.58474,-1.47721 -30.70117,-8.30664 -16.1601,-10.90942 -36.26958,-25.56482 -44.00781,-49.54688 19.03367,-6.14154 41.07656,14.06473 58.74023,8.36524 17.66369,-5.6995 32.62264,-37.84381 42.77344,-41.11914 z" />
    <path
       id="path1-0"
       style="opacity:0.99;fill:#000000;stroke-width:10;stroke-linecap:round;stroke-linejoin:round"
       d="m 340.69141,234.88086 c -1.48066,-0.0496 -2.97066,-0.0394 -4.45899,0.0312 -9.92221,0.47069 -19.79977,3.63781 -26.74023,9.85351 -6.77717,6.06949 -11.90705,13.32051 -15.94141,21.30469 4.39273,20.3924 6.06833,42.24293 9.06641,61.91406 6.58259,43.19031 9.18497,88.63882 -1.26172,131.06055 -4.17346,16.94753 -8.1308,36.37665 -14.52734,53.77539 7.98494,30.06175 18.86499,60.28552 48.35351,68.98438 36.17122,10.67017 70.14144,-25.10035 98.23438,-50.25977 31.40887,-28.1291 54.06489,-65.77172 72.31836,-103.7793 17.31676,-36.05712 44.49385,-76.51023 33.95117,-115.0957 -3.92901,-14.37996 -18.40909,-26.28222 -32.70703,-30.5 -28.59587,-8.43552 -54.92563,8.82029 -83.52149,0.38477 -28.59586,-8.43555 -41.34355,-37.21878 -69.93945,-45.6543 -4.02129,-1.18625 -8.3842,-1.87075 -12.82617,-2.01953 z M 314.96485,348.2168 c 7.7243,0.10279 15.84119,6.59147 23.91992,8.97461 9.57479,2.82448 22.62927,-0.20719 28.47265,7.26953 2.57572,3.29564 0.96854,4.63371 -2.11328,7.16797 -7.82599,6.43549 -21.38641,8.18508 -32.15625,5.20898 -10.54841,-2.9149 -21.32086,-11.1749 -24.54297,-20.58789 -1.44095,-4.20964 -2.22395,-5.8433 2.17188,-7.36719 1.40091,-0.48564 2.81762,-0.68506 4.24805,-0.66601 z m 109.60156,32.33007 c 7.72432,0.10282 15.83922,6.5934 23.91797,8.97657 9.5748,2.82446 22.62927,-0.20718 28.47265,7.26953 2.5757,3.29564 0.96855,4.63176 -2.11328,7.16601 -7.82599,6.43551 -21.38445,8.18507 -32.15429,5.20899 -10.54842,-2.91491 -21.32282,-11.17293 -24.54493,-20.58594 -1.44097,-4.20963 -2.22202,-5.8433 2.17383,-7.36719 1.4009,-0.48564 2.81762,-0.68701 4.24805,-0.66797 z M 360,460 c 3.63805,-0.0318 7.25186,0.39786 10.6875,1.43945 9.22307,2.79621 16.98254,9.99368 22.66406,17.42383 8.93438,11.68418 17.94244,23.99711 15.97266,40.09766 -16.63074,0.79228 -29.17846,-23.98098 -46.98047,-29.23243 -17.80201,-5.25142 -42.24347,11.25282 -55.32617,-0.94726 8.36354,-14.21445 21.31229,-20.51295 35.3125,-25.45703 C 347.80778,461.38979 353.93659,460.05295 360,460 Z" />
  </g>
  <metadata
     id="metadata1">
    <rdf:RDF>
      <cc:Work
         rdf:about="">
        <dc:title>Template</dc:title>
        <dc:date>2023</dc:date>
        <dc:creator>
          <cc:Agent>
            <dc:title>Doug Palmer</dc:title>
          </cc:Agent>
        </dc:creator>
        <dc:subject>
          <rdf:Bag>
            <rdf:li>icon map symbol</rdf:li>
          </rdf:Bag>
        </dc:subject>
        <cc:license
           rdf:resource="http://creativecommons.org/licenses/by/4.0/" />
      </cc:Work>
      <cc:License
         rdf:about="http://creativecommons.org/licenses/by/4.0/">
        <cc:permits
           rdf:resource="http://creativecommons.org/ns#Reproduction" />
        <cc:permits
           rdf:resource="http://creativecommons.org/ns#Distribution" />
        <cc:requires
           rdf:resource="http://creativecommons.org/ns#Notice" />
        <cc:requires
           rdf:resource="http://creativecommons.org/ns#Attribution" />
        <cc:permits
           rdf:resource="http://creativecommons.org/ns#DerivativeWorks" />
      </cc:License>
    </rdf:RDF>
  </metadata>
</svg>
