<?xml version="1.0" encoding="UTF-8" standalone="no"?>
<!-- Created with Inkscape (http://www.inkscape.org/) -->

<svg
   width="600"
   height="750"
   viewBox="0 0 600 750"
   version="1.1"
   id="svg1"
   inkscape:version="1.3 (0e150ed, 2023-07-21)"
   sodipodi:docname="towel-2.svg"
   xmlns:inkscape="http://www.inkscape.org/namespaces/inkscape"
   xmlns:sodipodi="http://sodipodi.sourceforge.net/DTD/sodipodi-0.dtd"
   xmlns="http://www.w3.org/2000/svg"
   xmlns:svg="http://www.w3.org/2000/svg"
   xmlns:rdf="http://www.w3.org/1999/02/22-rdf-syntax-ns#"
   xmlns:cc="http://creativecommons.org/ns#"
   xmlns:dc="http://purl.org/dc/elements/1.1/">
  <title
     id="title2">Template</title>
  <sodipodi:namedview
     id="namedview1"
     pagecolor="#ffffff"
     bordercolor="#000000"
     borderopacity="0.25"
     inkscape:showpageshadow="2"
     inkscape:pageopacity="0.0"
     inkscape:pagecheckerboard="false"
     inkscape:deskcolor="#d1d1d1"
     inkscape:document-units="px"
     showgrid="true"
     showguides="true"
     inkscape:zoom="0.5946522"
     inkscape:cx="192.54953"
     inkscape:cy="322.03698"
     inkscape:window-width="1528"
     inkscape:window-height="996"
     inkscape:window-x="828"
     inkscape:window-y="25"
     inkscape:window-maximized="0"
     inkscape:current-layer="layer1"
     inkscape:lockguides="true">
    <inkscape:grid
       id="grid2"
       units="px"
       originx="0"
       originy="0"
       spacingx="4"
       spacingy="4"
       empcolor="#0099e5"
       empopacity="0.30196078"
       color="#0099e5"
       opacity="0.14901961"
       empspacing="5"
       dotted="false"
       gridanglex="30"
       gridanglez="30"
       visible="true" />
    <sodipodi:guide
       position="0,730"
       orientation="0,1"
       id="guide3"
       inkscape:locked="true"
       inkscape:label=""
       inkscape:color="rgb(0,134,229)" />
    <sodipodi:guide
       position="-40,-230"
       orientation="0,1"
       id="guide4"
       inkscape:locked="true"
       inkscape:label=""
       inkscape:color="rgb(0,134,229)" />
    <sodipodi:guide
       position="20,750"
       orientation="-1,0"
       id="guide5"
       inkscape:locked="true"
       inkscape:label=""
       inkscape:color="rgb(0,134,229)" />
    <sodipodi:guide
       position="580,750"
       orientation="-1,0"
       id="guide6"
       inkscape:locked="true"
       inkscape:label=""
       inkscape:color="rgb(0,134,229)" />
    <sodipodi:guide
       position="300,750"
       orientation="-1,0"
       id="guide7"
       inkscape:locked="true"
       inkscape:label=""
       inkscape:color="rgb(0,134,229)" />
    <sodipodi:guide
       position="300,550"
       orientation="0,1"
       id="guide8"
       inkscape:locked="true"
       inkscape:label=""
       inkscape:color="rgb(0,134,229)" />
    <sodipodi:guide
       position="0,450"
       orientation="0,1"
       id="guide9"
       inkscape:locked="true"
       inkscape:label=""
       inkscape:color="rgb(0,134,229)" />
    <sodipodi:guide
       position="0,-70"
       orientation="0,1"
       id="guide10"
       inkscape:locked="true"
       inkscape:label=""
       inkscape:color="rgb(0,134,229)" />
    <sodipodi:guide
       position="0,150"
       orientation="0,1"
       id="guide1"
       inkscape:locked="true"
       inkscape:label=""
       inkscape:color="rgb(0,134,229)" />
    <sodipodi:guide
       position="300,350"
       orientation="0,1"
       id="guide2"
       inkscape:label=""
       inkscape:locked="true"
       inkscape:color="rgb(0,134,229)" />
  </sodipodi:namedview>
  <defs
     id="defs1">
    <inkscape:path-effect
       effect="fillet_chamfer"
       id="path-effect7"
       is_visible="true"
       lpeversion="1"
       nodesatellites_param="F,0,0,1,0,10,0,1 @ F,0,0,1,0,10,0,1 @ F,0,0,1,0,10,0,1 @ F,0,0,1,0,10,0,1 @ F,0,0,1,0,10,0,1 @ F,0,0,1,0,10,0,1 @ F,0,0,1,0,10,0,1 @ F,0,0,1,0,10,0,1 @ F,0,0,1,0,10,0,1 @ F,0,0,1,0,10,0,1 @ F,0,0,1,0,10,0,1 @ F,0,0,1,0,10,0,1 @ F,0,0,1,0,10,0,1 @ F,0,0,1,0,10,0,1 @ F,0,0,1,0,10,0,1 @ F,0,0,1,0,10,0,1 @ F,0,0,1,0,10,0,1 @ F,0,0,1,0,10,0,1 @ F,0,0,1,0,10,0,1 @ F,0,0,1,0,10,0,1 @ F,0,0,1,0,10,0,1 @ F,0,0,1,0,10,0,1 @ F,0,0,1,0,10,0,1 @ F,0,0,1,0,10,0,1 @ F,0,0,1,0,10,0,1 @ F,0,0,1,0,10,0,1 @ F,0,0,1,0,10,0,1 @ F,0,0,1,0,10,0,1 @ F,0,0,1,0,10,0,1 @ F,0,0,1,0,10,0,1 @ F,0,0,1,0,10,0,1"
       radius="10"
       unit="px"
       method="auto"
       mode="F"
       chamfer_steps="1"
       flexible="false"
       use_knot_distance="true"
       apply_no_radius="true"
       apply_with_radius="true"
       only_selected="false"
       hide_knots="false" />
    <inkscape:path-effect
       effect="fillet_chamfer"
       id="path-effect6"
       is_visible="true"
       lpeversion="1"
       nodesatellites_param="F,0,0,1,0,7.8406993,0,1 @ F,0,0,1,0,0,0,1 @ F,0,0,1,0,5,0,1 @ F,0,0,1,0,5,0,1 @ F,0,0,1,0,5,0,1"
       radius="5"
       unit="px"
       method="auto"
       mode="F"
       chamfer_steps="1"
       flexible="false"
       use_knot_distance="true"
       apply_no_radius="true"
       apply_with_radius="true"
       only_selected="false"
       hide_knots="false" />
    <inkscape:path-effect
       effect="fillet_chamfer"
       id="path-effect4"
       is_visible="true"
       lpeversion="1"
       nodesatellites_param="F,0,0,1,0,5,0,1 @ F,0,0,1,0,5,0,1 @ F,0,0,1,0,5,0,1 @ F,0,0,1,0,5,0,1 @ F,0,0,1,0,5,0,1 | F,0,0,1,0,12,0,1 @ F,0,1,1,0,12,0,1 @ F,0,0,1,0,5,0,1 @ F,0,0,1,0,5,0,1 @ F,0,0,1,0,5,0,1"
       radius="5"
       unit="px"
       method="auto"
       mode="F"
       chamfer_steps="1"
       flexible="false"
       use_knot_distance="true"
       apply_no_radius="true"
       apply_with_radius="true"
       only_selected="false"
       hide_knots="false" />
    <inkscape:path-effect
       effect="fillet_chamfer"
       id="path-effect2"
       is_visible="true"
       lpeversion="1"
       nodesatellites_param="F,0,0,1,0,20,0,1 @ F,0,0,1,0,20,0,1 @ F,0,0,1,0,20,0,1 @ F,0,0,1,0,20,0,1 @ F,0,0,1,0,20,0,1 @ F,0,0,1,0,20,0,1 @ F,0,0,1,0,20,0,1 @ F,0,0,1,0,20,0,1 @ F,0,0,1,0,20,0,1 @ F,0,0,1,0,20,0,1 @ F,0,0,1,0,20,0,1"
       radius="20"
       unit="px"
       method="auto"
       mode="F"
       chamfer_steps="1"
       flexible="false"
       use_knot_distance="true"
       apply_no_radius="true"
       apply_with_radius="true"
       only_selected="false"
       hide_knots="false" />
    <inkscape:path-effect
       effect="fillet_chamfer"
       id="path-effect3"
       is_visible="true"
       lpeversion="1"
       nodesatellites_param="F,0,0,1,0,64,0,1 @ F,0,0,1,0,64,0,1 @ F,0,0,1,0,64,0,1 @ F,0,0,1,0,64,0,1 @ F,0,0,1,0,64,0,1 @ F,0,0,1,0,64,0,1 @ F,0,0,1,0,64,0,1 @ F,0,0,1,0,64,0,1 @ F,0,0,1,0,64,0,1 @ F,0,0,1,0,64,0,1 @ F,0,0,1,0,64,0,1 @ F,0,0,1,0,64,0,1"
       radius="65"
       unit="px"
       method="auto"
       mode="F"
       chamfer_steps="1"
       flexible="false"
       use_knot_distance="true"
       apply_no_radius="true"
       apply_with_radius="true"
       only_selected="false"
       hide_knots="false" />
  </defs>
  <g
     inkscape:label="Layer 1"
     inkscape:groupmode="layer"
     id="layer1">
    <g
       id="rect2"
       style="opacity:0.99"
       transform="translate(-10,-75)">
      <path
         id="path7"
         style="color:#000000;fill:#000000;stroke-linecap:round;stroke-linejoin:round;-inkscape-stroke:none"
         d="m 495,184.08789 -95,0.82422 A 2300.0435,2300.0435 0 0 1 380,185 H 210 170 c -5.52284,0 -14.5876,-0.13423 -19.85938,1.44531 -11.2953,3.38433 -20.31098,12.40001 -23.69531,23.69531 C 124.86577,215.4124 125,224.47716 125,230 v 390 c 0,5.52284 -0.13423,14.5876 1.44531,19.85938 3.38433,11.2953 12.40001,20.31098 23.69531,23.69531 C 155.4124,665.13423 164.47716,665 170,665 h 210 c 5.52284,0 14.5876,0.13423 19.85938,-1.44531 11.2953,-3.38433 20.31098,-12.40001 23.69531,-23.69531 C 425.13423,634.5876 425,625.52284 425,620 V 450 a 10.125781,10.125781 0 0 1 10,-10.125 l 60,-0.75 c 5.52241,-0.069 14.58393,-0.0489 19.84961,-1.65234 11.29377,-3.43899 20.31149,-12.36506 23.70117,-23.61524 C 540.13837,408.5883 540,399.52284 540,394 v -99.01172 a 10,10 0 0 0 -10,-10 h -10 a 10,10 0 0 0 -10,10 V 394 c 0,5.52284 -1.09492,14.95887 -5,15 l -76.63477,0.80664 -0.22461,-161.82812 a 16.1416,16.1416 0 0 0 -16.1621,-16.11914 16.1416,16.1416 0 0 0 -16.11914,16.1621 l 0.23828,172.80469 C 394.99982,425.41905 395,431.14577 395,435 v 185 c 0,5.52284 -1.09471,14.99997 -5,15 H 170 c -5.52284,0 -14.99997,-1.09471 -15,-5 V 230 c 0,-5.52284 1.09471,-14.99997 5,-15 h 30 190 a 2300.0435,2300.0435 0 0 0 20,-0.0879 l 95,-0.82422 c 5.52263,-0.048 14.99997,1.00682 15,4.91211 v 8.78711 h 20 A 9.4131106,9.4131106 0 0 0 540,219 c -4.82199,-21.18673 -13.83696,-30.26686 -25.13281,-33.61328 -5.2759,-1.563 -14.34456,-1.34685 -19.86719,-1.29883 z" />
    </g>
    <path
       id="rect1"
       style="opacity:0.99;fill:#000000;stroke-width:30;stroke-linecap:round;stroke-linejoin:round"
       d="m 55.050499,240.6122 c -7.08882,1.79189 -12.646414,7.34949 -14.4383,14.43831 -0.675005,2.67037 -0.675006,7.22862 3e-6,9.89899 1.791893,7.08882 7.34949,12.64641 14.438312,14.4383 C 57.720879,280.06281 62.238576,280 65,280 h 42 a 5,5 135 0 0 5,-5 v -30 a 5,5 45 0 0 -5,-5 H 65 c -2.761424,0 -7.279129,-0.0628 -9.949501,0.6122 z M 444,248 l 0,16 a 12,12 45 0 0 12,12 h 91 c 2.76142,0 7.27913,0.0628 9.9495,-0.6122 7.08882,-1.79189 12.64641,-7.34949 14.4383,-14.43831 0.67501,-2.67037 0.67501,-7.22862 0,-9.89899 -1.79189,-7.08882 -7.34949,-12.64641 -14.43831,-14.4383 C 554.27912,235.93719 549.76142,236 547,236 h -91 a 12,12 135 0 0 -12,12 z"
       inkscape:path-effect="#path-effect4"
       inkscape:original-d="m 60,240 c -11.079989,0 -20,8.92001 -20,20 0,11.07999 8.920011,20 20,20 h 52 v -40 z m 384,-4 v 40 h 108 c 11.07999,0 20,-8.92001 20,-20 0,-11.07999 -8.92001,-20 -20,-20 z"
       sodipodi:nodetypes="sssccsccsssc"
       transform="translate(-10,-75)" />
    <g
       id="path8"
       style="opacity:0.99"
       transform="translate(-10,-75)">
      <path
         style="color:#000000;fill:#000000;stroke-linecap:round;stroke-linejoin:round;-inkscape-stroke:none"
         d="m 180,520 h 180 v 0"
         id="path9" />
      <path
         style="color:#000000;fill:#000000;stroke-linecap:round;stroke-linejoin:round;-inkscape-stroke:none"
         d="m 180,505 a 15,15 0 0 0 -15,15 15,15 0 0 0 15,15 h 180 a 15,15 0 0 0 15,-15 15,15 0 0 0 -15,-15 z"
         id="path10" />
    </g>
    <g
       id="g12"
       style="opacity:0.99"
       transform="translate(-10,-12.778756)">
      <path
         style="color:#000000;fill:#000000;stroke-linecap:round;stroke-linejoin:round;-inkscape-stroke:none"
         d="m 180,520 h 180 v 0"
         id="path11" />
      <path
         style="color:#000000;fill:#000000;stroke-linecap:round;stroke-linejoin:round;-inkscape-stroke:none"
         d="m 180,505 a 15,15 0 0 0 -15,15 15,15 0 0 0 15,15 h 180 a 15,15 0 0 0 15,-15 15,15 0 0 0 -15,-15 z"
         id="path12" />
    </g>
    <g
       id="path13"
       style="opacity:0.99"
       transform="translate(-10,-75)">
      <path
         style="color:#000000;fill:#000000;stroke-linecap:round;stroke-linejoin:round;-inkscape-stroke:none"
         d="M 412.24368,423.89474 412,248"
         id="path14" />
    </g>
  </g>
  <metadata
     id="metadata1">
    <rdf:RDF>
      <cc:Work
         rdf:about="">
        <dc:title>Template</dc:title>
        <dc:date>2023</dc:date>
        <dc:creator>
          <cc:Agent>
            <dc:title>Doug Palmer</dc:title>
          </cc:Agent>
        </dc:creator>
        <dc:subject>
          <rdf:Bag>
            <rdf:li>icon map symbol</rdf:li>
          </rdf:Bag>
        </dc:subject>
        <cc:license
           rdf:resource="http://creativecommons.org/licenses/by/4.0/" />
      </cc:Work>
      <cc:License
         rdf:about="http://creativecommons.org/licenses/by/4.0/">
        <cc:permits
           rdf:resource="http://creativecommons.org/ns#Reproduction" />
        <cc:permits
           rdf:resource="http://creativecommons.org/ns#Distribution" />
        <cc:requires
           rdf:resource="http://creativecommons.org/ns#Notice" />
        <cc:requires
           rdf:resource="http://creativecommons.org/ns#Attribution" />
        <cc:permits
           rdf:resource="http://creativecommons.org/ns#DerivativeWorks" />
      </cc:License>
    </rdf:RDF>
  </metadata>
</svg>
