<?xml version="1.0" encoding="UTF-8" standalone="no"?>
<!-- Created with Inkscape (http://www.inkscape.org/) -->

<svg
   width="600"
   height="750"
   viewBox="0 0 600 750"
   version="1.1"
   id="svg1"
   inkscape:version="1.3 (0e150ed, 2023-07-21)"
   sodipodi:docname="tractor.svg"
   xmlns:inkscape="http://www.inkscape.org/namespaces/inkscape"
   xmlns:sodipodi="http://sodipodi.sourceforge.net/DTD/sodipodi-0.dtd"
   xmlns="http://www.w3.org/2000/svg"
   xmlns:svg="http://www.w3.org/2000/svg"
   xmlns:rdf="http://www.w3.org/1999/02/22-rdf-syntax-ns#"
   xmlns:cc="http://creativecommons.org/ns#"
   xmlns:dc="http://purl.org/dc/elements/1.1/">
  <sodipodi:namedview
     id="namedview1"
     pagecolor="#ffffff"
     bordercolor="#000000"
     borderopacity="0.25"
     inkscape:showpageshadow="2"
     inkscape:pageopacity="0.0"
     inkscape:pagecheckerboard="false"
     inkscape:deskcolor="#d1d1d1"
     inkscape:document-units="px"
     showgrid="true"
     showguides="true"
     inkscape:zoom="0.5946522"
     inkscape:cx="370.80498"
     inkscape:cy="128.64663"
     inkscape:window-width="1528"
     inkscape:window-height="996"
     inkscape:window-x="828"
     inkscape:window-y="25"
     inkscape:window-maximized="0"
     inkscape:current-layer="svg1"
     inkscape:lockguides="true">
    <inkscape:grid
       id="grid2"
       units="px"
       originx="0"
       originy="0"
       spacingx="4"
       spacingy="4"
       empcolor="#0099e5"
       empopacity="0.30196078"
       color="#0099e5"
       opacity="0.14901961"
       empspacing="5"
       dotted="false"
       gridanglex="30"
       gridanglez="30"
       visible="true" />
    <sodipodi:guide
       position="0,730"
       orientation="0,1"
       id="guide3"
       inkscape:locked="true"
       inkscape:label=""
       inkscape:color="rgb(0,134,229)" />
    <sodipodi:guide
       position="-40,-230"
       orientation="0,1"
       id="guide4"
       inkscape:locked="true"
       inkscape:label=""
       inkscape:color="rgb(0,134,229)" />
    <sodipodi:guide
       position="20,750"
       orientation="-1,0"
       id="guide5"
       inkscape:locked="true"
       inkscape:label=""
       inkscape:color="rgb(0,134,229)" />
    <sodipodi:guide
       position="580,750"
       orientation="-1,0"
       id="guide6"
       inkscape:locked="true"
       inkscape:label=""
       inkscape:color="rgb(0,134,229)" />
    <sodipodi:guide
       position="300,750"
       orientation="-1,0"
       id="guide7"
       inkscape:locked="true"
       inkscape:label=""
       inkscape:color="rgb(0,134,229)" />
    <sodipodi:guide
       position="300,550"
       orientation="0,1"
       id="guide8"
       inkscape:locked="true"
       inkscape:label=""
       inkscape:color="rgb(0,134,229)" />
    <sodipodi:guide
       position="0,450"
       orientation="0,1"
       id="guide9"
       inkscape:locked="true"
       inkscape:label=""
       inkscape:color="rgb(0,134,229)" />
    <sodipodi:guide
       position="0,-70"
       orientation="0,1"
       id="guide10"
       inkscape:locked="true"
       inkscape:label=""
       inkscape:color="rgb(0,134,229)" />
    <sodipodi:guide
       position="0,150"
       orientation="0,1"
       id="guide1"
       inkscape:locked="true"
       inkscape:label=""
       inkscape:color="rgb(0,134,229)" />
    <sodipodi:guide
       position="300,350"
       orientation="0,1"
       id="guide2"
       inkscape:label=""
       inkscape:locked="true"
       inkscape:color="rgb(0,134,229)" />
  </sodipodi:namedview>
  <title
     id="title2">Template</title>
  <defs
     id="defs1">
    <inkscape:path-effect
       effect="fillet_chamfer"
       id="path-effect27"
       is_visible="true"
       lpeversion="1"
       nodesatellites_param="F,0,0,1,0,10,0,1 @ F,0,0,1,0,10,0,1 @ F,0,0,1,0,10,0,1 @ F,0,0,1,0,10,0,1 @ F,0,0,1,0,10,0,1 @ F,0,0,1,0,10,0,1 @ F,0,0,1,0,10,0,1 @ F,0,0,1,0,10,0,1 @ F,0,0,1,0,10,0,1 @ F,0,0,1,0,10,0,1 @ F,0,0,1,0,10,0,1 @ F,0,0,1,0,10,0,1 @ F,0,0,1,0,10,0,1 @ F,0,0,1,0,10,0,1 @ F,0,0,1,0,10,0,1 @ F,0,0,1,0,10,0,1 @ F,0,0,1,0,10,0,1 @ F,0,0,1,0,10,0,1 @ F,0,0,1,0,10,0,1 @ F,0,0,1,0,10,0,1 @ F,0,0,1,0,10,0,1 | F,0,0,1,0,10,0,1 @ F,0,0,1,0,10,0,1 @ F,0,0,1,0,10,0,1 @ F,0,0,1,0,10,0,1"
       radius="10"
       unit="px"
       method="auto"
       mode="F"
       chamfer_steps="1"
       flexible="false"
       use_knot_distance="true"
       apply_no_radius="true"
       apply_with_radius="true"
       only_selected="false"
       hide_knots="false" />
    <inkscape:path-effect
       effect="fillet_chamfer"
       id="path-effect2"
       is_visible="true"
       lpeversion="1"
       nodesatellites_param="F,0,0,1,0,20,0,1 @ F,0,0,1,0,20,0,1 @ F,0,0,1,0,20,0,1 @ F,0,0,1,0,20,0,1 @ F,0,0,1,0,20,0,1 @ F,0,0,1,0,20,0,1 @ F,0,0,1,0,20,0,1 @ F,0,0,1,0,20,0,1 @ F,0,0,1,0,20,0,1 @ F,0,0,1,0,20,0,1 @ F,0,0,1,0,20,0,1"
       radius="20"
       unit="px"
       method="auto"
       mode="F"
       chamfer_steps="1"
       flexible="false"
       use_knot_distance="true"
       apply_no_radius="true"
       apply_with_radius="true"
       only_selected="false"
       hide_knots="false" />
    <inkscape:path-effect
       effect="fillet_chamfer"
       id="path-effect3"
       is_visible="true"
       lpeversion="1"
       nodesatellites_param="F,0,0,1,0,64,0,1 @ F,0,0,1,0,64,0,1 @ F,0,0,1,0,64,0,1 @ F,0,0,1,0,64,0,1 @ F,0,0,1,0,64,0,1 @ F,0,0,1,0,64,0,1 @ F,0,0,1,0,64,0,1 @ F,0,0,1,0,64,0,1 @ F,0,0,1,0,64,0,1 @ F,0,0,1,0,64,0,1 @ F,0,0,1,0,64,0,1 @ F,0,0,1,0,64,0,1"
       radius="65"
       unit="px"
       method="auto"
       mode="F"
       chamfer_steps="1"
       flexible="false"
       use_knot_distance="true"
       apply_no_radius="true"
       apply_with_radius="true"
       only_selected="false"
       hide_knots="false" />
  </defs>
  <g
     inkscape:label="Layer 1"
     inkscape:groupmode="layer"
     id="layer1" />
  <metadata
     id="metadata1">
    <rdf:RDF>
      <cc:Work
         rdf:about="">
        <dc:title>Template</dc:title>
        <dc:date>2023</dc:date>
        <dc:creator>
          <cc:Agent>
            <dc:title>Doug Palmer</dc:title>
          </cc:Agent>
        </dc:creator>
        <dc:subject>
          <rdf:Bag>
            <rdf:li>icon map symbol</rdf:li>
          </rdf:Bag>
        </dc:subject>
        <cc:license
           rdf:resource="http://creativecommons.org/licenses/by/4.0/" />
      </cc:Work>
      <cc:License
         rdf:about="http://creativecommons.org/licenses/by/4.0/">
        <cc:permits
           rdf:resource="http://creativecommons.org/ns#Reproduction" />
        <cc:permits
           rdf:resource="http://creativecommons.org/ns#Distribution" />
        <cc:requires
           rdf:resource="http://creativecommons.org/ns#Notice" />
        <cc:requires
           rdf:resource="http://creativecommons.org/ns#Attribution" />
        <cc:permits
           rdf:resource="http://creativecommons.org/ns#DerivativeWorks" />
      </cc:License>
    </rdf:RDF>
  </metadata>
  <g
     id="g27">
    <g
       id="g25"
       transform="translate(1.2812418,58.578125)">
      <g
         inkscape:label="Rendered Gears"
         transform="matrix(2.1721759,0,0,2.1721759,302.36829,216.83703)"
         id="g23"
         style="fill:#000000;stroke:none">
        <path
           id="path22"
           style="fill:#000000;stroke:none;stroke-width:1"
           d="m 36.247169,65.082207 -0.899156,3.233365 -0.02967,0.583552 0.175335,2.596763 -4.416654,0.581754 -0.503528,-2.553603 -0.178932,-0.555679 -1.704799,-2.891685 -3.090399,0.828122 -0.03147,3.35655 0.123185,0.570964 0.84071,2.463687 -4.115437,1.7048 -1.147323,-2.336906 -0.316503,-0.49094 -2.395351,-2.351293 -2.771199,1.599599 0.838913,3.250449 0.26615,0.519712 1.450338,2.161571 -3.533683,2.711855 -1.712892,-1.960161 -0.433393,-0.392032 -2.9222572,-1.65085 -2.262277,2.262277 1.65175,2.922257 0.391133,0.433393 1.9601602,1.712892 -2.7118552,3.533683 -2.161571,-1.450339 -0.519712,-0.26615 -3.250449,-0.838912 -1.599598,2.771198 2.351293,2.395352 0.490939,0.316503 2.336906,1.147323 -1.704799,4.115437 -2.463688,-0.840711 -0.570964,-0.123184 -3.356549,0.03147 -0.828123,3.090399 2.89168598,1.7048 0.555678,0.178932 2.55360302,0.503528 -0.581754,4.416651 -2.59676202,-0.17533 -0.583553,0.0297 -3.23336498,0.89916 v 3.19919 l 3.23336498,0.89826 0.583553,0.0297 2.59676202,-0.17533 0.581754,4.41665 -2.55360302,0.50353 -0.555678,0.17893 -2.89168598,1.7048 0.828123,3.0904 3.356549,0.0315 0.570964,-0.12319 2.463688,-0.84071 1.704799,4.11544 -2.336906,1.14732 -0.490939,0.31741 -2.351293,2.39445 1.599598,2.7712 3.250449,-0.83892 0.519712,-0.26615 2.161571,-1.45033 2.7118552,3.53458 -1.9601602,1.71199 -0.391133,0.43339 -1.65175,2.92226 2.262277,2.26228 2.9222572,-1.65085 0.433393,-0.39203 1.712892,-1.96016 3.533683,2.71185 -1.450338,2.16157 -0.26615,0.51971 -0.838913,3.25045 2.771199,1.5996 2.395351,-2.35129 0.316503,-0.49094 1.147323,-2.33601 4.115437,1.7039 -0.84071,2.46369 -0.123185,0.57096 0.03147,3.35655 3.090399,0.82813 1.704799,-2.89169 0.178932,-0.55568 0.503528,-2.5536 4.416654,0.58175 -0.175335,2.59676 0.02967,0.58356 0.899156,3.23336 h 3.199197 l 0.898257,-3.23336 0.02967,-0.58356 -0.175336,-2.59676 4.416655,-0.58175 0.503527,2.5536 0.178932,0.55568 1.7048,2.89169 3.090399,-0.82813 0.03147,-3.35655 -0.123185,-0.57096 -0.84071,-2.46369 4.115437,-1.7039 1.147323,2.33601 0.317402,0.49094 2.394452,2.35129 2.771199,-1.5996 -0.838913,-3.25045 -0.26615,-0.51971 -1.450338,-2.16157 3.534582,-2.71185 1.711993,1.96016 0.433393,0.39203 2.922257,1.65085 2.262277,-2.26228 -1.650851,-2.92226 -0.392032,-0.43339 -1.96016,-1.71199 2.711855,-3.53458 2.161571,1.45033 0.519712,0.26615 3.250449,0.83892 1.599598,-2.7712 -2.351293,-2.39445 -0.490939,-0.31741 -2.336007,-1.14732 1.7039,-4.11544 2.463688,0.84071 0.570964,0.12319 3.356549,-0.0315 0.828123,-3.0904 -2.891686,-1.7048 -0.555678,-0.17893 -2.553603,-0.50353 0.581754,-4.41665 2.596762,0.17533 0.583553,-0.0297 3.233365,-0.89826 v -3.19919 l -3.233365,-0.89916 -0.583553,-0.0297 -2.596762,0.17533 -0.581754,-4.416651 2.553603,-0.503528 0.555678,-0.178932 2.891686,-1.7048 -0.828123,-3.090399 -3.356549,-0.03147 -0.570964,0.123184 -2.463688,0.840711 -1.7039,-4.115437 2.336007,-1.147323 0.490939,-0.316503 2.351293,-2.395352 -1.599598,-2.771198 -3.250449,0.838912 -0.519712,0.26615 -2.161571,1.450339 -2.711855,-3.533683 1.96016,-1.712892 0.392032,-0.433393 1.650851,-2.922257 -2.262277,-2.262277 -2.922257,1.65085 -0.433393,0.392032 -1.711993,1.960161 -3.534582,-2.711855 1.450338,-2.161571 0.26615,-0.519712 0.838913,-3.250449 -2.771199,-1.599599 -2.394452,2.351293 -0.317402,0.49094 -1.147323,2.336906 -4.115437,-1.7048 0.84071,-2.463687 0.123185,-0.570964 -0.03147,-3.35655 -3.090399,-0.828122 -1.7048,2.891685 -0.178932,0.555679 -0.503527,2.553603 -4.416655,-0.581754 0.175336,-2.596763 -0.02967,-0.583552 -0.898257,-3.233365 z m 1.599598,16.349354 A 25,25 0 0 1 62.846002,106.43169 25,25 0 0 1 37.846767,131.43093 25,25 0 0 1 12.846634,106.43169 25,25 0 0 1 37.846767,81.431561 Z" />
      </g>
      <path
         id="path23"
         style="opacity:0.99;stroke-width:22.5;stroke-linecap:round;stroke-linejoin:round"
         d="m 414.57715,448.02452 a 30,30 0 0 1 -29.96985,29.99998 30,30 0 0 1 -30.03009,-29.93968 30,30 0 0 1 29.90948,-30.06017 30,30 0 0 1 30.09022,29.87926 l -29.99976,0.12061 z" />
    </g>
    <path
       id="path25"
       style="opacity:0.99;stroke-width:33.75;stroke-linecap:round;stroke-linejoin:round"
       d="m 155.9603,506.4201 a 44.999996,44.999996 0 0 0 -44.86523,45.08984 44.999996,44.999996 0 0 0 45.04492,44.91016 44.999996,44.999996 0 0 0 44.95508,-45 h -25 a 20.00004,20.00004 0 0 1 -19.98047,20 20.00004,20.00004 0 0 1 -20.01953,-19.95898 20.00004,20.00004 0 0 1 19.93945,-20.04102 20.00004,20.00004 0 0 1 20.06055,19.91992 l 25,-0.10156 A 44.999996,44.999996 0 0 0 155.9603,506.4201 Z" />
    <path
       id="path26"
       style="opacity:0.99;fill:#000000;stroke:none;stroke-width:15;stroke-linecap:round;stroke-linejoin:round"
       d="m 276.06081,189.19145 -52.12162,121.6171 A 15.16539,15.16539 146.5993 0 1 210,320 H 70 a 10,10 135 0 0 -10,10 v 80 a 24.142136,24.142136 67.5 0 0 7.071068,17.07107 l 25.857864,25.85786 a 10,10 180 0 0 14.142138,0 l 5.85786,-5.85786 c 3.90525,-3.90525 10.53382,-9.96751 15.34286,-12.67081 15.07564,-8.47446 31.66781,-8.92841 46.78758,-2.85627 5.11964,2.05606 13.31449,5.93953 17.54175,9.44473 7.00151,5.80559 13.47985,15.53221 18.66734,27.6957 2.16607,5.07894 8.04072,9.34097 13.56357,9.34097 l 35.49414,0 c 5.52285,0 10.99047,-4.36639 12.28058,-9.73641 1.25443,-5.22149 2.91824,-11.94931 4.71102,-18.66018 1.42477,-5.33328 3.92041,-13.93155 5.36817,-19.26118 3.5642,-13.12078 7.97824,-29.89528 12.89011,-41.78145 2.10646,-5.09741 6.92551,-12.69197 10.60476,-16.80571 6.94951,-7.7702 15.58063,-14.48602 24.78921,-19.49623 4.84874,-2.63811 13.21991,-5.89365 18.55009,-7.33018 6.27927,-1.69232 13.49523,-3.13586 20.52405,-4.04392 5.47588,-0.70744 14.43128,-1.16373 19.95266,-1.08526 6.8922,0.0979 13.86046,0.66029 20.29321,1.81449 5.43213,0.97466 14.01208,3.69566 18.95711,6.14411 18.7438,9.28069 33.32668,26.55882 45.21926,43.88752 3.12501,4.55347 7.2815,12.50246 8.26116,17.92351 0.0291,0.16121 0.0577,0.322 0.0856,0.48227 0.94746,5.43758 1.48468,14.39047 1.85205,19.90108 l 2.66962,40.0443 A 10.688864,10.688864 43.092963 0 0 498,480 h 32 a 8.5791896,8.5791896 130.62692 0 0 8.47943,-9.88372 L 501.52057,229.88372 a 13.718172,13.718172 117.34439 0 1 7.4237,-14.35586 l 22.11146,-11.05572 A 16.18034,16.18034 121.71747 0 0 540,190 10,10 45 0 0 530,180 l -240,0 a 15.16539,15.16539 146.5993 0 0 -13.93919,9.19145 z M 310,200 h 140 a 8.4712709,8.4712709 49.731161 0 1 8.35601,9.86394 L 441.64399,310.13606 A 11.804604,11.804604 139.73116 0 1 430,320 H 270 a 7.2075922,7.2075922 54.217474 0 1 -6.83772,-9.48683 L 296.83772,209.48683 A 13.874259,13.874259 144.21747 0 1 310,200 Z"
       inkscape:path-effect="#path-effect27"
       inkscape:original-d="M 280,180 220,320 H 60 v 100 l 40,40 20,-20 c 19.99998,-15.99998 44.00002,-15.99999 64,-4 11.99999,4 23.41529,20.20856 30.83203,42.02539 h 55.49414 c 0,0 4.86307,-21.57629 9.67383,-38.02539 4.81076,-16.4491 11.92398,-47.40769 20,-60.36719 9.45322,-13.79486 24.42578,-25.30597 40,-31.63281 9.96705,-3.85334 26.51751,-7.34067 40,-8 13.48249,-0.65933 28.49863,0.32329 40,4 26.52502,8.63134 45.39878,33.38395 60,56 3.23884,6.9505 4,20 4,20 l 4,60 h 52 l -40,-260 40,-20 v -20 z m 20,20 H 460 L 440,320 H 260 Z"
       transform="translate(1.2812418,58.578125)" />
  </g>
</svg>
