<?xml version="1.0" encoding="UTF-8" standalone="no"?>
<!-- Created with Inkscape (http://www.inkscape.org/) -->

<svg
   width="600"
   height="750"
   viewBox="0 0 600 750"
   version="1.1"
   id="svg1"
   inkscape:version="1.3 (0e150ed, 2023-07-21)"
   sodipodi:docname="washing-machine.svg"
   xmlns:inkscape="http://www.inkscape.org/namespaces/inkscape"
   xmlns:sodipodi="http://sodipodi.sourceforge.net/DTD/sodipodi-0.dtd"
   xmlns="http://www.w3.org/2000/svg"
   xmlns:svg="http://www.w3.org/2000/svg"
   xmlns:rdf="http://www.w3.org/1999/02/22-rdf-syntax-ns#"
   xmlns:cc="http://creativecommons.org/ns#"
   xmlns:dc="http://purl.org/dc/elements/1.1/">
  <title
     id="title2">Template</title>
  <sodipodi:namedview
     id="namedview1"
     pagecolor="#ffffff"
     bordercolor="#000000"
     borderopacity="0.25"
     inkscape:showpageshadow="2"
     inkscape:pageopacity="0.0"
     inkscape:pagecheckerboard="false"
     inkscape:deskcolor="#d1d1d1"
     inkscape:document-units="px"
     showgrid="true"
     showguides="true"
     inkscape:zoom="0.84096521"
     inkscape:cx="297.87201"
     inkscape:cy="398.94635"
     inkscape:window-width="1528"
     inkscape:window-height="996"
     inkscape:window-x="828"
     inkscape:window-y="25"
     inkscape:window-maximized="0"
     inkscape:current-layer="layer1"
     inkscape:lockguides="true">
    <inkscape:grid
       id="grid2"
       units="px"
       originx="0"
       originy="0"
       spacingx="4"
       spacingy="4"
       empcolor="#0099e5"
       empopacity="0.30196078"
       color="#0099e5"
       opacity="0.14901961"
       empspacing="5"
       dotted="false"
       gridanglex="30"
       gridanglez="30"
       visible="true" />
    <sodipodi:guide
       position="0,730"
       orientation="0,1"
       id="guide3"
       inkscape:locked="true"
       inkscape:label=""
       inkscape:color="rgb(0,134,229)" />
    <sodipodi:guide
       position="-40,-230"
       orientation="0,1"
       id="guide4"
       inkscape:locked="true"
       inkscape:label=""
       inkscape:color="rgb(0,134,229)" />
    <sodipodi:guide
       position="20,750"
       orientation="-1,0"
       id="guide5"
       inkscape:locked="true"
       inkscape:label=""
       inkscape:color="rgb(0,134,229)" />
    <sodipodi:guide
       position="580,750"
       orientation="-1,0"
       id="guide6"
       inkscape:locked="true"
       inkscape:label=""
       inkscape:color="rgb(0,134,229)" />
    <sodipodi:guide
       position="300,750"
       orientation="-1,0"
       id="guide7"
       inkscape:locked="true"
       inkscape:label=""
       inkscape:color="rgb(0,134,229)" />
    <sodipodi:guide
       position="300,550"
       orientation="0,1"
       id="guide8"
       inkscape:locked="true"
       inkscape:label=""
       inkscape:color="rgb(0,134,229)" />
    <sodipodi:guide
       position="0,450"
       orientation="0,1"
       id="guide9"
       inkscape:locked="true"
       inkscape:label=""
       inkscape:color="rgb(0,134,229)" />
    <sodipodi:guide
       position="0,-70"
       orientation="0,1"
       id="guide10"
       inkscape:locked="true"
       inkscape:label=""
       inkscape:color="rgb(0,134,229)" />
    <sodipodi:guide
       position="0,150"
       orientation="0,1"
       id="guide1"
       inkscape:locked="true"
       inkscape:label=""
       inkscape:color="rgb(0,134,229)" />
    <sodipodi:guide
       position="300,350"
       orientation="0,1"
       id="guide2"
       inkscape:label=""
       inkscape:locked="true"
       inkscape:color="rgb(0,134,229)" />
  </sodipodi:namedview>
  <defs
     id="defs1">
    <inkscape:path-effect
       effect="fillet_chamfer"
       id="path-effect2"
       is_visible="true"
       lpeversion="1"
       nodesatellites_param="F,0,0,1,0,20,0,1 @ F,0,0,1,0,20,0,1 @ F,0,0,1,0,20,0,1 @ F,0,0,1,0,20,0,1 @ F,0,0,1,0,20,0,1 @ F,0,0,1,0,20,0,1 @ F,0,0,1,0,20,0,1 @ F,0,0,1,0,20,0,1 @ F,0,0,1,0,20,0,1 @ F,0,0,1,0,20,0,1 @ F,0,0,1,0,20,0,1"
       radius="20"
       unit="px"
       method="auto"
       mode="F"
       chamfer_steps="1"
       flexible="false"
       use_knot_distance="true"
       apply_no_radius="true"
       apply_with_radius="true"
       only_selected="false"
       hide_knots="false" />
    <inkscape:path-effect
       effect="fillet_chamfer"
       id="path-effect3"
       is_visible="true"
       lpeversion="1"
       nodesatellites_param="F,0,0,1,0,64,0,1 @ F,0,0,1,0,64,0,1 @ F,0,0,1,0,64,0,1 @ F,0,0,1,0,64,0,1 @ F,0,0,1,0,64,0,1 @ F,0,0,1,0,64,0,1 @ F,0,0,1,0,64,0,1 @ F,0,0,1,0,64,0,1 @ F,0,0,1,0,64,0,1 @ F,0,0,1,0,64,0,1 @ F,0,0,1,0,64,0,1 @ F,0,0,1,0,64,0,1"
       radius="65"
       unit="px"
       method="auto"
       mode="F"
       chamfer_steps="1"
       flexible="false"
       use_knot_distance="true"
       apply_no_radius="true"
       apply_with_radius="true"
       only_selected="false"
       hide_knots="false" />
  </defs>
  <g
     inkscape:label="Layer 1"
     inkscape:groupmode="layer"
     id="layer1">
    <path
       id="rect1"
       style="fill:#000000;fill-opacity:1;stroke:#000000;stroke-width:5.95238;stroke-linejoin:round"
       d="M 63.809524,52.380952 A 23.809524,23.809524 0 0 0 40,76.190476 V 576.19048 A 23.809524,23.809524 0 0 0 63.809524,600 H 540 a 23.809524,23.809524 0 0 0 23.80952,-23.80952 V 76.190476 A 23.809524,23.809524 0 0 0 540,52.380952 Z M 87.619048,100 h 95.238092 v 47.61905 H 87.619048 Z m 333.333332,0 h 71.42857 v 23.80952 h -71.42857 z m -119.04762,0.11857 h 95.2381 v 23.69095 h -95.2381 z m 0,119.2127 c 8.61348,0 17.22604,0.46211 23.73047,1.38347 73.00588,10.34132 130.76734,67.69163 141.23884,140.21345 1.87758,13.00348 1.87758,34.45281 0,47.45629 -10.4715,72.52182 -68.23296,129.87209 -141.23884,140.21345 -13.00888,1.84268 -34.45205,1.84268 -47.46093,0 -73.00588,-10.34136 -130.76735,-67.69163 -141.23885,-140.21345 -1.87758,-13.00348 -1.87758,-34.45281 0,-47.45629 10.4715,-72.52182 68.23297,-129.87213 141.23885,-140.21345 6.50443,-0.92136 15.11699,-1.38347 23.73046,-1.38347 z" />
    <path
       id="path2"
       style="fill:#000000;fill-opacity:1;stroke:#000000;stroke-width:5.95238;stroke-linejoin:round"
       d="m 301.90476,258.40774 c 0,0 -19.04763,50.53326 -28.57143,70.16369 -9.52379,19.63043 -28.57143,47.61905 -28.57143,47.61905 -9.52379,14.2857 -14.21875,31.95719 -14.28571,50.67429 0.0305,0.48475 0.0661,0.96919 0.10691,1.45322 l -0.10691,0.25344 0.12556,-0.002 c 0.94682,37.79159 32.57499,67.96241 71.30301,68.01757 39.44875,0 71.42839,-31.21556 71.42857,-69.72191 -10e-4,-18.47567 -4.76191,-36.38859 -14.28571,-50.67429 0,0 -19.04763,-27.98862 -28.57143,-47.61905 -9.5238,-19.63043 -28.57143,-70.16369 -28.57143,-70.16369 z m -9.52381,65.40178 c 0,9.138 -3.86487,25.94494 -5.42689,33.22173 1.62505,-3.96542 2.35834,-4.96848 0.66499,0.11155 -1.71591,5.1477 -1.54493,3.98762 -0.66499,-0.11155 -2.94476,7.18574 -8.85882,24.23932 -8.85882,33.44494 0,14.2857 10.09375,37.29377 0,42.85714 -10.09375,5.56337 -23.00806,5.33185 -28.57143,-4.7619 -5.56337,-10.09375 6.02046,-30.10233 9.52381,-47.61905 3.50334,-17.51671 9.52381,-19.04763 14.28571,-28.57143 4.76191,-9.5238 9.52382,-23.80952 19.04762,-28.57143 z" />
  </g>
  <metadata
     id="metadata1">
    <rdf:RDF>
      <cc:Work
         rdf:about="">
        <dc:title>Template</dc:title>
        <dc:date>2023</dc:date>
        <dc:creator>
          <cc:Agent>
            <dc:title>Doug Palmer</dc:title>
          </cc:Agent>
        </dc:creator>
        <dc:subject>
          <rdf:Bag>
            <rdf:li>icon map symbol</rdf:li>
          </rdf:Bag>
        </dc:subject>
        <cc:license
           rdf:resource="http://creativecommons.org/licenses/by/4.0/" />
      </cc:Work>
      <cc:License
         rdf:about="http://creativecommons.org/licenses/by/4.0/">
        <cc:permits
           rdf:resource="http://creativecommons.org/ns#Reproduction" />
        <cc:permits
           rdf:resource="http://creativecommons.org/ns#Distribution" />
        <cc:requires
           rdf:resource="http://creativecommons.org/ns#Notice" />
        <cc:requires
           rdf:resource="http://creativecommons.org/ns#Attribution" />
        <cc:permits
           rdf:resource="http://creativecommons.org/ns#DerivativeWorks" />
      </cc:License>
    </rdf:RDF>
  </metadata>
</svg>
