<?xml version="1.0" encoding="UTF-8" standalone="no"?>
<!-- Created with Inkscape (http://www.inkscape.org/) -->

<svg
   width="600"
   height="750"
   viewBox="0 0 600 750"
   version="1.1"
   id="svg1"
   inkscape:version="1.4.3 (0d15f75, 2025-12-25)"
   sodipodi:docname="water.svg"
   xmlns:inkscape="http://www.inkscape.org/namespaces/inkscape"
   xmlns:sodipodi="http://sodipodi.sourceforge.net/DTD/sodipodi-0.dtd"
   xmlns="http://www.w3.org/2000/svg"
   xmlns:svg="http://www.w3.org/2000/svg"
   xmlns:rdf="http://www.w3.org/1999/02/22-rdf-syntax-ns#"
   xmlns:cc="http://creativecommons.org/ns#"
   xmlns:dc="http://purl.org/dc/elements/1.1/">
  <title
     id="title2">Template</title>
  <sodipodi:namedview
     id="namedview1"
     pagecolor="#ffffff"
     bordercolor="#000000"
     borderopacity="0.25"
     inkscape:showpageshadow="2"
     inkscape:pageopacity="0.0"
     inkscape:pagecheckerboard="false"
     inkscape:deskcolor="#d1d1d1"
     inkscape:document-units="px"
     showgrid="true"
     showguides="true"
     inkscape:zoom="1"
     inkscape:cx="458.5"
     inkscape:cy="491.5"
     inkscape:window-width="1728"
     inkscape:window-height="996"
     inkscape:window-x="288"
     inkscape:window-y="390"
     inkscape:window-maximized="0"
     inkscape:current-layer="layer1"
     inkscape:lockguides="true">
    <inkscape:grid
       id="grid2"
       units="px"
       originx="0"
       originy="0"
       spacingx="4"
       spacingy="4"
       empcolor="#0099e5"
       empopacity="0.30196078"
       color="#0099e5"
       opacity="0.14901961"
       empspacing="5"
       dotted="false"
       gridanglex="30"
       gridanglez="30"
       visible="true" />
    <sodipodi:guide
       position="0,730"
       orientation="0,1"
       id="guide3"
       inkscape:locked="true"
       inkscape:label=""
       inkscape:color="rgb(0,134,229)" />
    <sodipodi:guide
       position="-40,-230"
       orientation="0,1"
       id="guide4"
       inkscape:locked="true"
       inkscape:label=""
       inkscape:color="rgb(0,134,229)" />
    <sodipodi:guide
       position="20,750"
       orientation="-1,0"
       id="guide5"
       inkscape:locked="true"
       inkscape:label=""
       inkscape:color="rgb(0,134,229)" />
    <sodipodi:guide
       position="580,750"
       orientation="-1,0"
       id="guide6"
       inkscape:locked="true"
       inkscape:label=""
       inkscape:color="rgb(0,134,229)" />
    <sodipodi:guide
       position="300,750"
       orientation="-1,0"
       id="guide7"
       inkscape:locked="true"
       inkscape:label=""
       inkscape:color="rgb(0,134,229)" />
    <sodipodi:guide
       position="300,550"
       orientation="0,1"
       id="guide8"
       inkscape:locked="true"
       inkscape:label=""
       inkscape:color="rgb(0,134,229)" />
    <sodipodi:guide
       position="0,450"
       orientation="0,1"
       id="guide9"
       inkscape:locked="true"
       inkscape:label=""
       inkscape:color="rgb(0,134,229)" />
    <sodipodi:guide
       position="0,-70"
       orientation="0,1"
       id="guide10"
       inkscape:locked="true"
       inkscape:label=""
       inkscape:color="rgb(0,134,229)" />
    <sodipodi:guide
       position="0,150"
       orientation="0,1"
       id="guide1"
       inkscape:locked="true"
       inkscape:label=""
       inkscape:color="rgb(0,134,229)" />
    <sodipodi:guide
       position="300,350"
       orientation="0,1"
       id="guide2"
       inkscape:label=""
       inkscape:locked="true"
       inkscape:color="rgb(0,134,229)" />
  </sodipodi:namedview>
  <defs
     id="defs1">
    <inkscape:path-effect
       effect="fillet_chamfer"
       id="path-effect4"
       is_visible="true"
       lpeversion="1"
       nodesatellites_param="F,0,0,1,0,10,0,1 @ F,0,0,1,0,10,0,1 @ F,0,0,1,0,10,0,1 @ F,0,0,1,0,10,0,1 @ F,0,0,1,0,10,0,1 @ F,0,0,1,0,10,0,1 @ F,0,0,1,0,10,0,1 @ F,0,0,1,0,10,0,1"
       radius="10"
       unit="px"
       method="auto"
       mode="F"
       chamfer_steps="1"
       flexible="false"
       use_knot_distance="true"
       apply_no_radius="true"
       apply_with_radius="true"
       only_selected="false"
       hide_knots="false" />
    <inkscape:path-effect
       effect="fillet_chamfer"
       id="path-effect1"
       is_visible="true"
       lpeversion="1"
       nodesatellites_param="F,0,0,1,0,0,0,1 @ F,0,0,1,0,10,0,1 @ F,0,0,1,0,10,0,1 @ F,0,0,1,0,10,0,1 @ F,0,0,1,0,10,0,1 @ F,0,0,1,0,10,0,1 @ F,0,0,1,0,10,0,1 @ F,0,0,1,0,10,0,1 @ F,0,0,1,0,10,0,1 @ F,0,0,1,0,10,0,1"
       radius="10"
       unit="px"
       method="auto"
       mode="F"
       chamfer_steps="1"
       flexible="false"
       use_knot_distance="true"
       apply_no_radius="true"
       apply_with_radius="true"
       only_selected="false"
       hide_knots="false" />
    <inkscape:path-effect
       effect="fillet_chamfer"
       id="path-effect2"
       is_visible="true"
       lpeversion="1"
       nodesatellites_param="F,0,0,1,0,20,0,1 @ F,0,0,1,0,20,0,1 @ F,0,0,1,0,20,0,1 @ F,0,0,1,0,20,0,1 @ F,0,0,1,0,20,0,1 @ F,0,0,1,0,20,0,1 @ F,0,0,1,0,20,0,1 @ F,0,0,1,0,20,0,1 @ F,0,0,1,0,20,0,1 @ F,0,0,1,0,20,0,1 @ F,0,0,1,0,20,0,1"
       radius="20"
       unit="px"
       method="auto"
       mode="F"
       chamfer_steps="1"
       flexible="false"
       use_knot_distance="true"
       apply_no_radius="true"
       apply_with_radius="true"
       only_selected="false"
       hide_knots="false" />
    <inkscape:path-effect
       effect="fillet_chamfer"
       id="path-effect3"
       is_visible="true"
       lpeversion="1"
       nodesatellites_param="F,0,0,1,0,64,0,1 @ F,0,0,1,0,64,0,1 @ F,0,0,1,0,64,0,1 @ F,0,0,1,0,64,0,1 @ F,0,0,1,0,64,0,1 @ F,0,0,1,0,64,0,1 @ F,0,0,1,0,64,0,1 @ F,0,0,1,0,64,0,1 @ F,0,0,1,0,64,0,1 @ F,0,0,1,0,64,0,1 @ F,0,0,1,0,64,0,1 @ F,0,0,1,0,64,0,1"
       radius="65"
       unit="px"
       method="auto"
       mode="F"
       chamfer_steps="1"
       flexible="false"
       use_knot_distance="true"
       apply_no_radius="true"
       apply_with_radius="true"
       only_selected="false"
       hide_knots="false" />
  </defs>
  <g
     inkscape:label="Layer 1"
     inkscape:groupmode="layer"
     id="layer1">
    <g
       id="g4">
      <path
         style="baseline-shift:baseline;display:inline;overflow:visible;vector-effect:none;stroke-linecap:round;stroke-linejoin:round;enable-background:accumulate;stop-color:#000000;stop-opacity:1;opacity:0.99"
         d="m 160,525 c -14.73139,0 -26.67582,8.45882 -34.57617,17.83203 -7.90035,9.37321 -13.39959,20.1582 -18.68555,30.1582 -5.28595,10 -10.358936,19.21501 -15.101561,24.8418 C 86.894093,603.45882 84.124789,605 80,605 c 0.589256,0 -1.585788,-0.33369 -4.769531,-2.91016 -3.183743,-2.57646 -7.015031,-6.79028 -10.384766,-11.19922 -6.73947,-8.81786 -11.583984,-17.90039 -11.583984,-17.90039 a 15,15 0 0 0 -20.271485,-6.25195 15,15 0 0 0 -6.251953,20.27149 c 0,0 5.726954,10.91747 14.273438,22.0996 4.273242,5.59107 9.263632,11.37725 15.347656,16.30079 C 62.443399,630.33369 69.982654,635 80,635 c 14.731391,0 26.67582,-8.45882 34.57617,-17.83203 7.90035,-9.37321 13.39959,-20.1582 18.68555,-30.1582 5.28595,-10 10.35894,-19.21501 15.10156,-24.8418 C 153.10591,556.54118 155.87521,555 160,555 c 4.12479,0 6.89409,1.54118 11.63672,7.16797 4.74262,5.62679 9.81561,14.8418 15.10156,24.8418 5.28596,10 10.7852,20.78499 18.68555,30.1582 C 213.32418,626.54118 225.26861,635 240,635 c 14.73139,0 26.67582,-8.45882 34.57617,-17.83203 7.90035,-9.37321 13.39959,-20.1582 18.68555,-30.1582 5.28595,-10 10.35894,-19.21501 15.10156,-24.8418 C 313.10591,556.54118 315.87521,555 320,555 c 4.12479,0 6.89409,1.54118 11.63672,7.16797 4.74262,5.62679 9.81561,14.8418 15.10156,24.8418 5.28596,10 10.7852,20.78499 18.68555,30.1582 C 373.32418,626.54118 385.26861,635 400,635 c 14.73139,0 26.67582,-8.45882 34.57617,-17.83203 7.90035,-9.37321 13.39959,-20.1582 18.68555,-30.1582 5.28595,-10 10.35894,-19.21501 15.10156,-24.8418 C 473.10591,556.54118 475.87521,555 480,555 c 1.76777,0 6.37041,1.58369 11.87109,6.03516 5.50069,4.45146 11.53788,11.16528 16.81836,18.07421 10.56096,13.81787 18.04883,27.9004 18.04883,27.9004 a 15,15 0 0 0 20.27149,6.25195 15,15 0 0 0 6.25195,-20.27149 c 0,0 -8.37031,-15.91747 -20.73828,-32.09961 -6.18399,-8.09106 -13.37833,-16.37724 -21.7793,-23.17578 C 502.34318,530.91631 492.37437,525 480,525 c -14.73139,0 -26.67582,8.45882 -34.57617,17.83203 -7.90035,9.37321 -13.39959,20.1582 -18.68555,30.1582 -5.28595,10 -10.35894,19.21501 -15.10156,24.8418 C 406.89409,603.45882 404.12479,605 400,605 c -4.12479,0 -6.89409,-1.54118 -11.63672,-7.16797 -4.74262,-5.62679 -9.81561,-14.8418 -15.10156,-24.8418 -5.28596,-10 -10.7852,-20.78499 -18.68555,-30.1582 C 346.67582,533.45882 334.73139,525 320,525 c -14.73139,0 -26.67582,8.45882 -34.57617,17.83203 -7.90035,9.37321 -13.39959,20.1582 -18.68555,30.1582 -5.28595,10 -10.35894,19.21501 -15.10156,24.8418 C 246.89409,603.45882 244.12479,605 240,605 c -4.12479,0 -6.89409,-1.54118 -11.63672,-7.16797 -4.74262,-5.62679 -9.81561,-14.8418 -15.10156,-24.8418 -5.28596,-10 -10.7852,-20.78499 -18.68555,-30.1582 C 186.67582,533.45882 174.73139,525 160,525 Z"
         id="path1" />
      <path
         style="baseline-shift:baseline;display:inline;overflow:visible;vector-effect:none;stroke-linecap:round;stroke-linejoin:round;enable-background:accumulate;stop-color:#000000;stop-opacity:1;opacity:0.99"
         d="m 176.86523,436 c -12.1908,0 -22.31469,6.40994 -29.21484,13.83398 -6.90015,7.42405 -11.73766,16.01409 -16.33789,23.90625 -4.60023,7.89217 -8.9637,15.0858 -13.06641,19.5 -4.10271,4.41421 -6.78465,5.89649 -11.0039,5.89649 -0.23347,0 -8.212884,-4.43415 -14.052737,-11.36328 C 87.3496,480.8443 83.171875,473.74023 83.171875,473.74023 a 12.43135,12.43135 0 0 0 -17,-4.48046 12.43135,12.43135 0 0 0 -4.480469,17 c 0,0 5.023198,8.67995 12.486328,17.53515 C 81.640865,512.65012 91.065601,524 107.24219,524 c 12.1908,0 22.31469,-6.40994 29.21484,-13.83398 6.90015,-7.42405 11.73571,-16.01409 16.33594,-23.90625 4.60023,-7.89217 8.96565,-15.0858 13.06836,-19.5 4.10271,-4.41421 6.78466,-5.89649 11.0039,-5.89649 4.21925,0 6.89925,1.48228 11.00196,5.89649 4.10271,4.4142 8.46812,11.60783 13.06836,19.5 4.60023,7.89216 9.43578,16.4822 16.33593,23.90625 6.90016,7.42404 17.02404,13.83398 29.21485,13.83398 12.19081,0 22.31469,-6.40994 29.21484,-13.83398 6.90016,-7.42405 11.73571,-16.01409 16.33594,-23.90625 4.60023,-7.89217 8.96565,-15.0858 13.06836,-19.5 4.10271,-4.41421 6.7827,-5.89649 11.00195,-5.89649 4.21925,0 6.9012,1.48228 11.00391,5.89649 4.10271,4.4142 8.46813,11.60783 13.06836,19.5 4.60023,7.89216 9.43578,16.4822 16.33593,23.90625 6.90016,7.42404 17.02404,13.83398 29.21485,13.83398 12.19081,0 22.31469,-6.40994 29.21484,-13.83398 6.90016,-7.42405 11.73571,-16.01409 16.33594,-23.90625 4.60023,-7.89217 8.96565,-15.0858 13.06836,-19.5 4.10271,-4.41421 6.7827,-5.89649 11.00195,-5.89649 4.33599,0 16.66839,8.38064 25.83399,19.25586 9.16559,10.87522 15.64258,21.92578 15.64257,21.92578 a 12.43135,12.43135 0 0 0 17,4.47852 12.43135,12.43135 0 0 0 4.48047,-17 c 0,0 -7.32245,-12.62646 -18.11132,-25.42774 C 489.40839,451.29442 475.63066,436 455.35156,436 c -12.19081,0 -22.31469,6.40994 -29.21484,13.83398 -6.90016,7.42405 -11.73571,16.01409 -16.33594,23.90625 -4.60023,7.89217 -8.9637,15.0858 -13.06641,19.5 -4.1027,4.41421 -6.78465,5.89649 -11.0039,5.89649 -4.21925,0 -6.9012,-1.48228 -11.00391,-5.89649 -4.10271,-4.4142 -8.46617,-11.60783 -13.0664,-19.5 -4.60024,-7.89216 -9.43774,-16.4822 -16.33789,-23.90625 C 338.42211,442.40994 328.29823,436 316.10742,436 c -12.19081,0 -22.31469,6.40994 -29.21484,13.83398 -6.90016,7.42405 -11.73571,16.01409 -16.33594,23.90625 -4.60023,7.89217 -8.9637,15.0858 -13.06641,19.5 -4.10271,4.41421 -6.78465,5.89649 -11.0039,5.89649 -4.21925,0 -6.9012,-1.48228 -11.00391,-5.89649 -4.10271,-4.4142 -8.46617,-11.60783 -13.0664,-19.5 -4.60024,-7.89216 -9.43774,-16.4822 -16.3379,-23.90625 C 199.17797,442.40994 189.05604,436 176.86523,436 Z"
         id="path2" />
      <path
         style="baseline-shift:baseline;display:inline;overflow:visible;vector-effect:none;stroke-linecap:round;stroke-linejoin:round;enable-background:accumulate;stop-color:#000000;stop-opacity:1;opacity:0.99"
         d="m 203.88867,336.80859 c -11.29655,0 -19.88857,7.40398 -25.32812,15.00977 -5.43956,7.60579 -9.21154,16.32766 -12.89453,24.53906 -3.683,8.2114 -7.27703,15.91174 -10.64649,20.62305 -3.05288,4.26866 -4.70079,5.28311 -6.35351,5.44531 -0.0917,-0.11948 -1.09878,-0.50539 -2.58399,-1.92187 -2.18577,-2.08464 -4.90247,-5.59494 -7.27539,-9.25391 -4.74583,-7.31794 -8.17578,-14.89258 -8.17578,-14.89258 a 11.3459,11.3459 0 0 0 -14.99609,-5.70898 11.3459,11.3459 0 0 0 -5.70899,14.99414 c 0,0 3.93711,8.84827 9.8418,17.95312 2.95234,4.55243 6.38078,9.25422 10.65234,13.32813 4.27156,4.07391 9.71648,8.26758 17.72852,8.26758 11.29655,0 19.88856,-7.40398 25.32812,-15.00977 5.43956,-7.60579 9.21153,-16.32766 12.89453,-24.53906 3.683,-8.2114 7.27703,-15.91174 10.64649,-20.62305 3.36946,-4.7113 5.02957,-5.51953 6.87109,-5.51953 1.84153,0 3.50163,0.80823 6.8711,5.51953 3.36946,4.71131 6.96348,12.41165 10.64648,20.62305 3.683,8.2114 7.45498,16.93327 12.89453,24.53906 5.43956,7.60579 14.03157,15.00977 25.32813,15.00977 11.29655,0 19.88856,-7.40398 25.32812,-15.00977 5.43956,-7.60579 9.21153,-16.32766 12.89453,-24.53906 3.683,-8.2114 7.27703,-15.91174 10.64649,-20.62305 3.36946,-4.7113 5.02956,-5.51953 6.87109,-5.51953 1.84153,0 3.50163,0.80823 6.87109,5.51953 3.36947,4.71131 6.96349,12.41165 10.64649,20.62305 3.683,8.2114 7.45497,16.93327 12.89453,24.53906 5.43956,7.60579 14.03157,15.00977 25.32812,15.00977 11.29656,0 19.88857,-7.40398 25.32813,-15.00977 5.43956,-7.60579 9.21153,-16.32766 12.89453,-24.53906 3.683,-8.2114 7.27702,-15.91174 10.64649,-20.62305 3.36946,-4.7113 5.02956,-5.51953 6.87109,-5.51953 0.19926,0 3.21551,0.93822 7.01562,4.5625 3.80011,3.62428 8.05359,9.18857 11.75782,14.90039 7.40846,11.42364 12.67968,23.10352 12.67968,23.10352 a 11.3459,11.3459 0 0 0 14.99414,5.70898 11.3459,11.3459 0 0 0 5.70899,-14.99609 c 0,0 -5.77839,-12.95351 -14.3457,-26.16407 -4.28366,-6.60527 -9.24888,-13.3591 -15.13477,-18.97265 -5.88589,-5.61355 -13.02149,-10.83399 -22.67578,-10.83399 -11.29656,0 -19.88857,7.40398 -25.32813,15.00977 -5.43955,7.60579 -9.21153,16.32766 -12.89453,24.53906 -3.683,8.2114 -7.27702,15.91174 -10.64648,20.62305 -3.36946,4.7113 -5.02956,5.51953 -6.8711,5.51953 -1.84152,0 -3.50163,-0.80823 -6.87109,-5.51953 -3.36946,-4.71131 -6.96348,-12.41165 -10.64648,-20.62305 -3.683,-8.2114 -7.45498,-16.93327 -12.89453,-24.53906 -5.43956,-7.60579 -14.03157,-15.00977 -25.32813,-15.00977 -11.29655,0 -19.88857,7.40398 -25.32812,15.00977 -5.43956,7.60579 -9.21154,16.32766 -12.89454,24.53906 -3.68299,8.2114 -7.27702,15.91174 -10.64648,20.62305 -3.36946,4.7113 -5.02956,5.51953 -6.87109,5.51953 -1.84153,0 -3.50164,-0.80823 -6.8711,-5.51953 -3.36946,-4.71131 -6.96348,-12.41165 -10.64648,-20.62305 -3.683,-8.2114 -7.45497,-16.93327 -12.89453,-24.53906 -5.43956,-7.60579 -14.03157,-15.00977 -25.32813,-15.00977 z"
         id="path3" />
    </g>
  </g>
  <metadata
     id="metadata1">
    <rdf:RDF>
      <cc:Work
         rdf:about="">
        <dc:title>Template</dc:title>
        <dc:date>2023</dc:date>
        <dc:creator>
          <cc:Agent>
            <dc:title>Doug Palmer</dc:title>
          </cc:Agent>
        </dc:creator>
        <dc:subject>
          <rdf:Bag>
            <rdf:li>icon map symbol</rdf:li>
          </rdf:Bag>
        </dc:subject>
        <cc:license
           rdf:resource="http://creativecommons.org/licenses/by/4.0/" />
      </cc:Work>
      <cc:License
         rdf:about="http://creativecommons.org/licenses/by/4.0/">
        <cc:permits
           rdf:resource="http://creativecommons.org/ns#Reproduction" />
        <cc:permits
           rdf:resource="http://creativecommons.org/ns#Distribution" />
        <cc:requires
           rdf:resource="http://creativecommons.org/ns#Notice" />
        <cc:requires
           rdf:resource="http://creativecommons.org/ns#Attribution" />
        <cc:permits
           rdf:resource="http://creativecommons.org/ns#DerivativeWorks" />
      </cc:License>
    </rdf:RDF>
  </metadata>
</svg>
