<?xml version="1.0" encoding="UTF-8" standalone="no"?>
<!-- Created with Inkscape (http://www.inkscape.org/) -->

<svg
   width="600"
   height="750"
   viewBox="0 0 600 750"
   version="1.1"
   id="svg1"
   inkscape:version="1.3 (0e150ed, 2023-07-21)"
   sodipodi:docname="winery.svg"
   xml:space="preserve"
   xmlns:inkscape="http://www.inkscape.org/namespaces/inkscape"
   xmlns:sodipodi="http://sodipodi.sourceforge.net/DTD/sodipodi-0.dtd"
   xmlns="http://www.w3.org/2000/svg"
   xmlns:svg="http://www.w3.org/2000/svg"
   xmlns:rdf="http://www.w3.org/1999/02/22-rdf-syntax-ns#"
   xmlns:cc="http://creativecommons.org/ns#"
   xmlns:dc="http://purl.org/dc/elements/1.1/"><title
     id="title2">Template</title><sodipodi:namedview
     id="namedview1"
     pagecolor="#ffffff"
     bordercolor="#000000"
     borderopacity="0.25"
     inkscape:showpageshadow="2"
     inkscape:pageopacity="0.0"
     inkscape:pagecheckerboard="false"
     inkscape:deskcolor="#d1d1d1"
     inkscape:document-units="px"
     showgrid="true"
     showguides="true"
     inkscape:zoom="1.1893044"
     inkscape:cx="249.30539"
     inkscape:cy="393.92774"
     inkscape:window-width="1512"
     inkscape:window-height="836"
     inkscape:window-x="0"
     inkscape:window-y="38"
     inkscape:window-maximized="0"
     inkscape:current-layer="layer1"
     inkscape:lockguides="true"><inkscape:grid
       id="grid2"
       units="px"
       originx="0"
       originy="0"
       spacingx="4"
       spacingy="4"
       empcolor="#0099e5"
       empopacity="0.30196078"
       color="#0099e5"
       opacity="0.14901961"
       empspacing="5"
       dotted="false"
       gridanglex="30"
       gridanglez="30"
       visible="true" /><sodipodi:guide
       position="0,730"
       orientation="0,1"
       id="guide3"
       inkscape:locked="true"
       inkscape:label=""
       inkscape:color="rgb(0,134,229)" /><sodipodi:guide
       position="-40,-230"
       orientation="0,1"
       id="guide4"
       inkscape:locked="true"
       inkscape:label=""
       inkscape:color="rgb(0,134,229)" /><sodipodi:guide
       position="20,750"
       orientation="-1,0"
       id="guide5"
       inkscape:locked="true"
       inkscape:label=""
       inkscape:color="rgb(0,134,229)" /><sodipodi:guide
       position="580,750"
       orientation="-1,0"
       id="guide6"
       inkscape:locked="true"
       inkscape:label=""
       inkscape:color="rgb(0,134,229)" /><sodipodi:guide
       position="300,750"
       orientation="-1,0"
       id="guide7"
       inkscape:locked="true"
       inkscape:label=""
       inkscape:color="rgb(0,134,229)" /><sodipodi:guide
       position="300,550"
       orientation="0,1"
       id="guide8"
       inkscape:locked="true"
       inkscape:label=""
       inkscape:color="rgb(0,134,229)" /><sodipodi:guide
       position="0,450"
       orientation="0,1"
       id="guide9"
       inkscape:locked="true"
       inkscape:label=""
       inkscape:color="rgb(0,134,229)" /><sodipodi:guide
       position="0,-70"
       orientation="0,1"
       id="guide10"
       inkscape:locked="true"
       inkscape:label=""
       inkscape:color="rgb(0,134,229)" /><sodipodi:guide
       position="0,150"
       orientation="0,1"
       id="guide1"
       inkscape:locked="true"
       inkscape:label=""
       inkscape:color="rgb(0,134,229)" /><sodipodi:guide
       position="300,350"
       orientation="0,1"
       id="guide2"
       inkscape:label=""
       inkscape:locked="true"
       inkscape:color="rgb(0,134,229)" /></sodipodi:namedview><defs
     id="defs1"><inkscape:path-effect
       effect="fillet_chamfer"
       id="path-effect6"
       is_visible="true"
       lpeversion="1"
       nodesatellites_param="F,0,0,1,0,10,0,1 @ F,0,0,1,0,10,0,1 @ F,0,0,1,0,10,0,1 @ F,0,0,1,0,10,0,1 @ F,0,0,1,0,10,0,1 @ F,0,0,1,0,10,0,1 @ F,0,0,1,0,10,0,1 @ F,0,0,1,0,10,0,1 @ F,0,0,1,0,10,0,1 @ F,0,0,1,0,10,0,1 @ F,0,0,1,0,10,0,1 @ F,0,0,1,0,10,0,1 @ F,0,0,1,0,10,0,1 @ F,0,0,1,0,10,0,1"
       radius="10"
       unit="px"
       method="auto"
       mode="F"
       chamfer_steps="1"
       flexible="false"
       use_knot_distance="true"
       apply_no_radius="true"
       apply_with_radius="true"
       only_selected="false"
       hide_knots="false" /><inkscape:path-effect
       effect="fillet_chamfer"
       id="path-effect4"
       is_visible="true"
       lpeversion="1"
       nodesatellites_param="F,0,0,1,0,10,0,1 @ F,0,0,1,0,10,0,1 @ F,0,0,1,0,10,0,1 @ F,0,0,1,0,10,0,1 @ F,0,0,1,0,10,0,1 @ F,0,0,1,0,10,0,1 @ F,0,0,1,0,10,0,1 @ F,0,0,1,0,10,0,1 @ F,0,0,1,0,10,0,1 @ F,0,0,1,0,10,0,1 @ F,0,0,1,0,10,0,1 @ F,0,0,1,0,10,0,1 @ F,0,0,1,0,10,0,1 @ F,0,0,1,0,10,0,1"
       radius="10"
       unit="px"
       method="auto"
       mode="F"
       chamfer_steps="1"
       flexible="false"
       use_knot_distance="true"
       apply_no_radius="true"
       apply_with_radius="true"
       only_selected="false"
       hide_knots="false" /><inkscape:path-effect
       effect="fillet_chamfer"
       id="path-effect2"
       is_visible="true"
       lpeversion="1"
       nodesatellites_param="F,0,0,1,0,20,0,1 @ F,0,0,1,0,20,0,1 @ F,0,0,1,0,20,0,1 @ F,0,0,1,0,20,0,1 @ F,0,0,1,0,20,0,1 @ F,0,0,1,0,20,0,1 @ F,0,0,1,0,20,0,1 @ F,0,0,1,0,20,0,1 @ F,0,0,1,0,20,0,1 @ F,0,0,1,0,20,0,1 @ F,0,0,1,0,20,0,1"
       radius="20"
       unit="px"
       method="auto"
       mode="F"
       chamfer_steps="1"
       flexible="false"
       use_knot_distance="true"
       apply_no_radius="true"
       apply_with_radius="true"
       only_selected="false"
       hide_knots="false" /><inkscape:path-effect
       effect="fillet_chamfer"
       id="path-effect3"
       is_visible="true"
       lpeversion="1"
       nodesatellites_param="F,0,0,1,0,64,0,1 @ F,0,0,1,0,64,0,1 @ F,0,0,1,0,64,0,1 @ F,0,0,1,0,64,0,1 @ F,0,0,1,0,64,0,1 @ F,0,0,1,0,64,0,1 @ F,0,0,1,0,64,0,1 @ F,0,0,1,0,64,0,1 @ F,0,0,1,0,64,0,1 @ F,0,0,1,0,64,0,1 @ F,0,0,1,0,64,0,1 @ F,0,0,1,0,64,0,1"
       radius="65"
       unit="px"
       method="auto"
       mode="F"
       chamfer_steps="1"
       flexible="false"
       use_knot_distance="true"
       apply_no_radius="true"
       apply_with_radius="true"
       only_selected="false"
       hide_knots="false" /></defs><g
     inkscape:label="Layer 1"
     inkscape:groupmode="layer"
     id="layer1"><path
       style="opacity:0.99;fill:#000000;stroke:none;stroke-width:20;stroke-linecap:round;stroke-linejoin:round;stroke-dasharray:none;stroke-opacity:1"
       d="m 429.48683,636.83772 41.02634,-13.67544 A 13.874259,13.874259 125.78253 0 0 480,610 v -80 c 0,-5.52285 -4.14714,-11.6892 -9.2023,-13.91305 -6.40057,-2.81573 -15.05114,-6.81102 -22.2996,-10.82886 -4.82715,-2.6757 -12.21467,-7.76529 -16.55872,-11.17497 -2.29605,-1.80218 -4.49717,-3.7109 -6.43567,-5.79799 -3.73845,-4.02502 -7.29784,-12.48843 -7.89522,-17.96005 -0.72314,-6.62362 0.0557,-13.57206 1.01412,-20.42082 0.76534,-5.46933 1.93036,-14.3509 2.938,-19.7802 C 425.27139,410.13 432.88816,383.5586 437.07785,369.5621 438.66141,364.27193 444.47715,360 450,360 h 80 c 5.52285,0 11.33877,4.27249 12.92252,9.56334 4.18986,13.99713 11.80653,40.56839 15.5171,60.562 1.00749,5.42859 2.17245,14.30971 2.93781,19.77917 0.95838,6.84877 1.73723,13.79721 1.01405,20.42082 -0.59739,5.47148 -4.15677,13.93484 -7.89528,17.9599 -1.93851,2.08708 -4.13963,3.99579 -6.43568,5.79798 -4.344,3.40962 -11.73193,8.49948 -16.55968,11.17546 -7.24866,4.01788 -15.89928,8.01315 -22.29965,10.82876 C 504.14664,518.311 500,524.47715 500,530 v 80 a 13.874259,13.874259 54.217474 0 0 9.48683,13.16228 l 41.02634,13.67544 A 1.6227766,1.6227766 99.217474 0 1 550,640 H 430 a 1.6227766,1.6227766 80.782526 0 1 -0.51317,-3.16228 z"
       id="path3"
       sodipodi:nodetypes="cccsssccssscccc"
       inkscape:path-effect="#path-effect4"
       inkscape:original-d="m 420,640 60,-20 V 520 c 0,0 -27.90672,-11.28365 -40,-20 -7.64846,-5.5127 -16.39203,-11.28958 -20,-20 -5.10245,-12.31839 -1.62911,-26.76657 0,-40 3.3585,-27.28142 20,-80 20,-80 h 100 c 0,0 16.6415,52.71858 20,80 1.62911,13.23343 5.10245,27.68161 0,40 -3.60797,8.71042 -12.35154,14.4873 -20,20 -12.09328,8.71635 -40,20 -40,20 v 100 l 60,20 z"
       transform="translate(-185.20119,-40.087435)" /><path
       id="path4"
       style="opacity:0.99;fill:#000000;stroke:none;stroke-width:25.0955;stroke-linecap:round;stroke-linejoin:round;stroke-dasharray:none;stroke-opacity:1"
       d="M 123.31055 220.15234 L 123.31055 272.00391 L 148.58594 297.34961 L 148.58594 329.24023 A 37.913123 37.375375 0 0 0 130.48047 324.69531 A 37.913123 37.375375 0 0 0 100 340 A 37.913123 37.375375 0 0 0 69.410156 324.69531 A 37.913123 37.375375 0 0 0 31.498047 362.07031 A 37.913123 37.375375 0 0 0 60.613281 398.33594 A 37.913123 37.375375 0 0 0 54.654297 418.4375 A 37.913123 37.375375 0 0 0 92.568359 455.8125 A 37.913123 37.375375 0 0 0 95.498047 455.60547 A 37.913123 37.375375 0 0 0 92.568359 469.82422 A 37.913123 37.375375 0 0 0 118.06641 505.04688 A 37.913123 37.375375 0 0 0 110.67383 527.06445 A 37.913123 37.375375 0 0 0 148.58594 564.43945 A 37.913123 37.375375 0 0 0 186.5 527.06445 A 37.913123 37.375375 0 0 0 180.33789 506.65625 A 37.913123 37.375375 0 0 0 186.5 507.19922 A 37.913123 37.375375 0 0 0 224.41211 469.82422 A 37.913123 37.375375 0 0 0 217.36523 448.13867 A 37.913123 37.375375 0 0 0 226.44727 444.6543 C 225.42592 442.19366 224.60128 439.65092 224.03711 437.05078 C 222.82944 430.52585 223.36771 423.83441 224.14258 417.29102 C 225.35361 408.34879 226.45126 399.38097 228.16992 390.51562 C 232.0893 371.09126 237.46591 351.95712 243.05078 332.98633 C 243.85542 329.99703 245.54705 327.34458 247.74414 325.19531 A 37.913123 37.375375 0 0 0 241.83203 324.69531 A 37.913123 37.375375 0 0 0 214.20898 336.57617 A 37.913123 37.375375 0 0 0 186.5 324.69531 A 37.913123 37.375375 0 0 0 173.86133 326.92773 L 173.86133 287.75391 L 123.31055 220.15234 z " /></g><metadata
     id="metadata1"><rdf:RDF><cc:Work
         rdf:about=""><dc:title>Template</dc:title><dc:date>2023</dc:date><dc:creator><cc:Agent><dc:title>Doug Palmer</dc:title></cc:Agent></dc:creator><dc:subject><rdf:Bag><rdf:li>icon map symbol</rdf:li></rdf:Bag></dc:subject><cc:license
           rdf:resource="http://creativecommons.org/licenses/by/4.0/" /></cc:Work><cc:License
         rdf:about="http://creativecommons.org/licenses/by/4.0/"><cc:permits
           rdf:resource="http://creativecommons.org/ns#Reproduction" /><cc:permits
           rdf:resource="http://creativecommons.org/ns#Distribution" /><cc:requires
           rdf:resource="http://creativecommons.org/ns#Notice" /><cc:requires
           rdf:resource="http://creativecommons.org/ns#Attribution" /><cc:permits
           rdf:resource="http://creativecommons.org/ns#DerivativeWorks" /></cc:License></rdf:RDF></metadata></svg>
